<svg width="392px" height="243px"
 viewBox="0.00 0.00 392.00 243.00" xmlns="http://www.w3.org/2000/svg" xmlns:xlink="http://www.w3.org/1999/xlink">
<g id="graph0" class="graph" transform="scale(1.0 1.0) rotate(0) translate(4 239)">
<title>アーキテクチャ図</title>
<polygon fill="white" stroke="transparent" points="-4,4 -4,-239 388,-239 388,4 -4,4"/>
<text text-anchor="middle" x="192" y="-7.8" font-family="Times,serif" font-size="14.00">アーキテクチャ図</text>
<g id="clust1" class="cluster">
<title>clusterArchitecture</title>
<polygon fill="lightyellow" stroke="#eedd82" points="8,-31 8,-227 244,-227 244,-31 8,-31"/>
</g>
<!-- mrs.application -->
<g id="node1" class="node">
<title>mrs.application</title>
<polygon fill="#eedd82" stroke="black" points="235.5,-147 36.5,-147 36.5,-143 32.5,-143 32.5,-139 36.5,-139 36.5,-119 32.5,-119 32.5,-115 36.5,-115 36.5,-111 235.5,-111 235.5,-147"/>
<polyline fill="none" stroke="black" points="36.5,-143 40.5,-143 40.5,-139 36.5,-139 "/>
<polyline fill="none" stroke="black" points="36.5,-119 40.5,-119 40.5,-115 36.5,-115 "/>
<text text-anchor="middle" x="136" y="-124" font-family="Times,serif" font-size="20.00">アプリケーション層</text>
</g>
<!-- mrs.domain -->
<g id="node2" class="node">
<title>mrs.domain</title>
<polygon fill="#eedd82" stroke="black" points="193.5,-75 36.5,-75 36.5,-71 32.5,-71 32.5,-67 36.5,-67 36.5,-47 32.5,-47 32.5,-43 36.5,-43 36.5,-39 193.5,-39 193.5,-75"/>
<polyline fill="none" stroke="black" points="36.5,-71 40.5,-71 40.5,-67 36.5,-67 "/>
<polyline fill="none" stroke="black" points="36.5,-47 40.5,-47 40.5,-43 36.5,-43 "/>
<text text-anchor="middle" x="115" y="-52" font-family="Times,serif" font-size="20.00">ビジネスルール</text>
</g>
<!-- mrs.application&#45;&gt;mrs.domain -->
<g id="edge4" class="edge">
<title>mrs.application&#45;&gt;mrs.domain</title>
<path fill="none" stroke="black" d="M115,-110.83C115,-110.83 115,-85.41 115,-85.41"/>
<polygon fill="black" stroke="black" points="118.5,-85.41 115,-75.41 111.5,-85.41 118.5,-85.41"/>
</g>
<!-- org.springframework -->
<g id="node4" class="node">
<title>org.springframework</title>
<polygon fill="lightgrey" stroke="black" points="384,-75 252,-75 252,-71 248,-71 248,-67 252,-67 252,-47 248,-47 248,-43 252,-43 252,-39 384,-39 384,-75"/>
<polyline fill="none" stroke="black" points="252,-71 256,-71 256,-67 252,-67 "/>
<polyline fill="none" stroke="black" points="252,-47 256,-47 256,-43 252,-43 "/>
<text text-anchor="middle" x="318" y="-53.3" font-family="Times,serif" font-size="14.00">org.springframework</text>
</g>
<!-- mrs.application&#45;&gt;org.springframework -->
<g id="edge3" class="edge">
<title>mrs.application&#45;&gt;org.springframework</title>
<path fill="none" stroke="black" d="M235.62,-123C248.88,-123 258,-123 258,-123 258,-123 258,-85.03 258,-85.03"/>
<polygon fill="black" stroke="black" points="261.5,-85.03 258,-75.03 254.5,-85.03 261.5,-85.03"/>
</g>
<!-- mrs.presentation -->
<g id="node3" class="node">
<title>mrs.presentation</title>
<polygon fill="#eedd82" stroke="black" points="235.5,-219 16.5,-219 16.5,-215 12.5,-215 12.5,-211 16.5,-211 16.5,-191 12.5,-191 12.5,-187 16.5,-187 16.5,-183 235.5,-183 235.5,-219"/>
<polyline fill="none" stroke="black" points="16.5,-215 20.5,-215 20.5,-211 16.5,-211 "/>
<polyline fill="none" stroke="black" points="16.5,-191 20.5,-191 20.5,-187 16.5,-187 "/>
<text text-anchor="middle" x="126" y="-196" font-family="Times,serif" font-size="20.00">プレゼンテーション層</text>
</g>
<!-- mrs.presentation&#45;&gt;mrs.application -->
<g id="edge1" class="edge">
<title>mrs.presentation&#45;&gt;mrs.application</title>
<path fill="none" stroke="black" d="M136,-182.83C136,-182.83 136,-157.41 136,-157.41"/>
<polygon fill="black" stroke="black" points="139.5,-157.41 136,-147.41 132.5,-157.41 139.5,-157.41"/>
</g>
<!-- mrs.presentation&#45;&gt;mrs.domain -->
<g id="edge5" class="edge">
<title>mrs.presentation&#45;&gt;mrs.domain</title>
<path fill="none" stroke="black" d="M26.5,-182.76C26.5,-144.01 26.5,-57 26.5,-57 26.5,-57 27.48,-57 27.48,-57"/>
<polygon fill="black" stroke="black" points="26.31,-60.5 36.31,-57 26.31,-53.5 26.31,-60.5"/>
</g>
<!-- mrs.presentation&#45;&gt;org.springframework -->
<g id="edge2" class="edge">
<title>mrs.presentation&#45;&gt;org.springframework</title>
<path fill="none" stroke="black" d="M235.74,-201C252.31,-201 264,-201 264,-201 264,-201 264,-85.24 264,-85.24"/>
<polygon fill="black" stroke="black" points="267.5,-85.24 264,-75.24 260.5,-85.24 267.5,-85.24"/>
</g>
<!-- mrs -->
<g id="node5" class="node">
<title>mrs</title>
<polygon fill="lightgrey" stroke="black" points="324,-219 270,-219 270,-215 266,-215 266,-211 270,-211 270,-191 266,-191 266,-187 270,-187 270,-183 324,-183 324,-219"/>
<polyline fill="none" stroke="black" points="270,-215 274,-215 274,-211 270,-211 "/>
<polyline fill="none" stroke="black" points="270,-191 274,-191 274,-187 270,-187 "/>
<text text-anchor="middle" x="297" y="-197.3" font-family="Times,serif" font-size="14.00">mrs</text>
</g>
<!-- mrs&#45;&gt;mrs.application -->
<g id="edge7" class="edge">
<title>mrs&#45;&gt;mrs.application</title>
<path fill="none" stroke="black" d="M288,-182.97C288,-163.42 288,-135 288,-135 288,-135 245.69,-135 245.69,-135"/>
<polygon fill="black" stroke="black" points="245.69,-131.5 235.69,-135 245.69,-138.5 245.69,-131.5"/>
</g>
<!-- mrs&#45;&gt;org.springframework -->
<g id="edge6" class="edge">
<title>mrs&#45;&gt;org.springframework</title>
<path fill="none" stroke="black" d="M306,-182.76C306,-182.76 306,-85.09 306,-85.09"/>
<polygon fill="black" stroke="black" points="309.5,-85.09 306,-75.09 302.5,-85.09 309.5,-85.09"/>
</g>
</g>
</svg>
