<svg width="992px" height="315px"
     viewBox="0.00 0.00 992.00 315.00" xmlns="http://www.w3.org/2000/svg">
<g id="graph0" class="graph" transform="scale(1.0 1.0) rotate(0) translate(4 311)">
    <title>アーキテクチャ図</title>
    <polygon fill="white" stroke="transparent" points="-4,4 -4,-311 988,-311 988,4 -4,4"/>
    <text text-anchor="middle" x="492" y="-7.8" font-family="Times New Roman,serif" font-size="14.00">アーキテクチャ図</text>
    <g id="clust1" class="cluster">
        <title>clusterArchitecture</title>
        <polygon fill="lightyellow" stroke="#eedd82" points="720,-31 720,-299 976,-299 976,-31 720,-31"/>
    </g>
    <!-- mrs.application -->
    <g id="node1" class="node">
        <title>mrs.application</title>
        <polygon fill="#eedd82" stroke="black"
                 points="927.5,-219 728.5,-219 728.5,-215 724.5,-215 724.5,-211 728.5,-211 728.5,-191 724.5,-191 724.5,-187 728.5,-187 728.5,-183 927.5,-183 927.5,-219"/>
        <polyline fill="none" stroke="black" points="728.5,-215 732.5,-215 732.5,-211 728.5,-211 "/>
        <polyline fill="none" stroke="black" points="728.5,-191 732.5,-191 732.5,-187 728.5,-187 "/>
        <text text-anchor="middle" x="828" y="-196" font-family="Times New Roman,serif" font-size="20.00">アプリケーション層
        </text>
    </g>
    <!-- mrs.domain -->
    <g id="node2" class="node">
        <title>mrs.domain</title>
        <polygon fill="#eedd82" stroke="black"
                 points="968,-75 810,-75 810,-71 806,-71 806,-67 810,-67 810,-47 806,-47 806,-43 810,-43 810,-39 968,-39 968,-75"/>
        <polyline fill="none" stroke="black" points="810,-71 814,-71 814,-67 810,-67 "/>
        <polyline fill="none" stroke="black" points="810,-47 814,-47 814,-43 810,-43 "/>
        <text text-anchor="middle" x="889" y="-52" font-family="Times New Roman,serif" font-size="20.00">ビジネスルール</text>
    </g>
    <!-- mrs.application&#45;&gt;mrs.domain -->
    <g id="edge3" class="edge">
        <title>mrs.application&#45;&gt;mrs.domain</title>
        <path fill="none" stroke="black" d="M906.75,-182.76C906.75,-182.76 906.75,-85.09 906.75,-85.09"/>
        <polygon fill="black" stroke="black" points="910.25,-85.09 906.75,-75.09 903.25,-85.09 910.25,-85.09"/>
    </g>
    <!-- mrs.infrastructure -->
    <g id="node3" class="node">
        <title>mrs.infrastructure</title>
        <polygon fill="#eedd82" stroke="black"
                 points="886,-147 728,-147 728,-143 724,-143 724,-139 728,-139 728,-119 724,-119 724,-115 728,-115 728,-111 886,-111 886,-147"/>
        <polyline fill="none" stroke="black" points="728,-143 732,-143 732,-139 728,-139 "/>
        <polyline fill="none" stroke="black" points="728,-119 732,-119 732,-115 728,-115 "/>
        <text text-anchor="middle" x="807" y="-124" font-family="Times New Roman,serif" font-size="20.00">データソース層</text>
    </g>
    <!-- mrs.application&#45;&gt;mrs.infrastructure -->
    <g id="edge10" class="edge">
        <title>mrs.application&#45;&gt;mrs.infrastructure</title>
        <path fill="none" stroke="black" d="M833.5,-182.83C833.5,-182.83 833.5,-157.41 833.5,-157.41"/>
        <polygon fill="black" stroke="black" points="837,-157.41 833.5,-147.41 830,-157.41 837,-157.41"/>
    </g>
    <!-- org.springframework -->
    <g id="node5" class="node">
        <title>org.springframework</title>
        <polygon fill="lightgrey" stroke="black"
                 points="134,-75 0,-75 0,-71 -4,-71 -4,-67 0,-67 0,-47 -4,-47 -4,-43 0,-43 0,-39 134,-39 134,-75"/>
        <polyline fill="none" stroke="black" points="0,-71 4,-71 4,-67 0,-67 "/>
        <polyline fill="none" stroke="black" points="0,-47 4,-47 4,-43 0,-43 "/>
        <text text-anchor="middle" x="67" y="-53.3" font-family="Times New Roman,serif" font-size="14.00">
            org.springframework
        </text>
    </g>
    <!-- mrs.application&#45;&gt;org.springframework -->
    <g id="edge14" class="edge">
        <title>mrs.application&#45;&gt;org.springframework</title>
        <path fill="none" stroke="black"
              d="M728.34,-201C524.8,-201 80.4,-201 80.4,-201 80.4,-201 80.4,-85.24 80.4,-85.24"/>
        <polygon fill="black" stroke="black" points="83.9,-85.24 80.4,-75.24 76.9,-85.24 83.9,-85.24"/>
    </g>
    <!-- mrs.infrastructure&#45;&gt;mrs.application -->
    <g id="edge2" class="edge">
        <title>mrs.infrastructure&#45;&gt;mrs.application</title>
        <path fill="none" stroke="black" d="M781,-147.17C781,-147.17 781,-172.59 781,-172.59"/>
        <polygon fill="black" stroke="black" points="777.5,-172.59 781,-182.59 784.5,-172.59 777.5,-172.59"/>
    </g>
    <!-- mrs.infrastructure&#45;&gt;mrs.domain -->
    <g id="edge5" class="edge">
        <title>mrs.infrastructure&#45;&gt;mrs.domain</title>
        <path fill="none" stroke="black" d="M848,-110.83C848,-110.83 848,-85.41 848,-85.41"/>
        <polygon fill="black" stroke="black" points="851.5,-85.41 848,-75.41 844.5,-85.41 851.5,-85.41"/>
    </g>
    <!-- mrs.infrastructure&#45;&gt;org.springframework -->
    <g id="edge1" class="edge">
        <title>mrs.infrastructure&#45;&gt;org.springframework</title>
        <path fill="none" stroke="black"
              d="M727.75,-138C544.53,-138 107.2,-138 107.2,-138 107.2,-138 107.2,-85.38 107.2,-85.38"/>
        <polygon fill="black" stroke="black" points="110.7,-85.38 107.2,-75.38 103.7,-85.38 110.7,-85.38"/>
    </g>
    <!-- springfox.documentation -->
    <g id="node7" class="node">
        <title>springfox.documentation</title>
        <polygon fill="lightgrey" stroke="black"
                 points="388,-75 232,-75 232,-71 228,-71 228,-67 232,-67 232,-47 228,-47 228,-43 232,-43 232,-39 388,-39 388,-75"/>
        <polyline fill="none" stroke="black" points="232,-71 236,-71 236,-67 232,-67 "/>
        <polyline fill="none" stroke="black" points="232,-47 236,-47 236,-43 232,-43 "/>
        <text text-anchor="middle" x="310" y="-53.3" font-family="Times New Roman,serif" font-size="14.00">
            springfox.documentation
        </text>
    </g>
    <!-- mrs.infrastructure&#45;&gt;springfox.documentation -->
    <g id="edge8" class="edge">
        <title>mrs.infrastructure&#45;&gt;springfox.documentation</title>
        <path fill="none" stroke="black" d="M727.97,-129C587.75,-129 310,-129 310,-129 310,-129 310,-85.17 310,-85.17"/>
        <polygon fill="black" stroke="black" points="313.5,-85.17 310,-75.17 306.5,-85.17 313.5,-85.17"/>
    </g>
    <!-- org.apache -->
    <g id="node8" class="node">
        <title>org.apache</title>
        <polygon fill="lightgrey" stroke="black"
                 points="484,-75 406,-75 406,-71 402,-71 402,-67 406,-67 406,-47 402,-47 402,-43 406,-43 406,-39 484,-39 484,-75"/>
        <polyline fill="none" stroke="black" points="406,-71 410,-71 410,-67 406,-67 "/>
        <polyline fill="none" stroke="black" points="406,-47 410,-47 410,-43 406,-43 "/>
        <text text-anchor="middle" x="445" y="-53.3" font-family="Times New Roman,serif" font-size="14.00">org.apache
        </text>
    </g>
    <!-- mrs.infrastructure&#45;&gt;org.apache -->
    <g id="edge9" class="edge">
        <title>mrs.infrastructure&#45;&gt;org.apache</title>
        <path fill="none" stroke="black" d="M727.56,-124C621,-124 445,-124 445,-124 445,-124 445,-85.31 445,-85.31"/>
        <polygon fill="black" stroke="black" points="448.5,-85.31 445,-75.31 441.5,-85.31 448.5,-85.31"/>
    </g>
    <!-- com.google -->
    <g id="node9" class="node">
        <title>com.google</title>
        <polygon fill="lightgrey" stroke="black"
                 points="585.5,-75 502.5,-75 502.5,-71 498.5,-71 498.5,-67 502.5,-67 502.5,-47 498.5,-47 498.5,-43 502.5,-43 502.5,-39 585.5,-39 585.5,-75"/>
        <polyline fill="none" stroke="black" points="502.5,-71 506.5,-71 506.5,-67 502.5,-67 "/>
        <polyline fill="none" stroke="black" points="502.5,-47 506.5,-47 506.5,-43 502.5,-43 "/>
        <text text-anchor="middle" x="544" y="-53.3" font-family="Times New Roman,serif" font-size="14.00">com.google
        </text>
    </g>
    <!-- mrs.infrastructure&#45;&gt;com.google -->
    <g id="edge11" class="edge">
        <title>mrs.infrastructure&#45;&gt;com.google</title>
        <path fill="none" stroke="black" d="M727.73,-120C650.3,-120 544,-120 544,-120 544,-120 544,-85.22 544,-85.22"/>
        <polygon fill="black" stroke="black" points="547.5,-85.22 544,-75.22 540.5,-85.22 547.5,-85.22"/>
    </g>
    <!-- io.jsonwebtoken -->
    <g id="node10" class="node">
        <title>io.jsonwebtoken</title>
        <polygon fill="lightgrey" stroke="black"
                 points="712,-75 604,-75 604,-71 600,-71 600,-67 604,-67 604,-47 600,-47 600,-43 604,-43 604,-39 712,-39 712,-75"/>
        <polyline fill="none" stroke="black" points="604,-71 608,-71 608,-67 604,-67 "/>
        <polyline fill="none" stroke="black" points="604,-47 608,-47 608,-43 604,-43 "/>
        <text text-anchor="middle" x="658" y="-53.3" font-family="Times New Roman,serif" font-size="14.00">
            io.jsonwebtoken
        </text>
    </g>
    <!-- mrs.infrastructure&#45;&gt;io.jsonwebtoken -->
    <g id="edge15" class="edge">
        <title>mrs.infrastructure&#45;&gt;io.jsonwebtoken</title>
        <path fill="none" stroke="black"
              d="M727.88,-115C702.81,-115 681.5,-115 681.5,-115 681.5,-115 681.5,-85.03 681.5,-85.03"/>
        <polygon fill="black" stroke="black" points="685,-85.03 681.5,-75.03 678,-85.03 685,-85.03"/>
    </g>
    <!-- org.slf4j -->
    <g id="node11" class="node">
        <title>org.slf4j</title>
        <polygon fill="lightgrey" stroke="black"
                 points="214,-75 152,-75 152,-71 148,-71 148,-67 152,-67 152,-47 148,-47 148,-43 152,-43 152,-39 214,-39 214,-75"/>
        <polyline fill="none" stroke="black" points="152,-71 156,-71 156,-67 152,-67 "/>
        <polyline fill="none" stroke="black" points="152,-47 156,-47 156,-43 152,-43 "/>
        <text text-anchor="middle" x="183" y="-53.3" font-family="Times New Roman,serif" font-size="14.00">org.slf4j
        </text>
    </g>
    <!-- mrs.infrastructure&#45;&gt;org.slf4j -->
    <g id="edge17" class="edge">
        <title>mrs.infrastructure&#45;&gt;org.slf4j</title>
        <path fill="none" stroke="black" d="M727.97,-133C560.06,-133 183,-133 183,-133 183,-133 183,-85.01 183,-85.01"/>
        <polygon fill="black" stroke="black" points="186.5,-85.01 183,-75.01 179.5,-85.01 186.5,-85.01"/>
    </g>
    <!-- mrs.presentation -->
    <g id="node4" class="node">
        <title>mrs.presentation</title>
        <polygon fill="#eedd82" stroke="black"
                 points="957.5,-291 738.5,-291 738.5,-287 734.5,-287 734.5,-283 738.5,-283 738.5,-263 734.5,-263 734.5,-259 738.5,-259 738.5,-255 957.5,-255 957.5,-291"/>
        <polyline fill="none" stroke="black" points="738.5,-287 742.5,-287 742.5,-283 738.5,-283 "/>
        <polyline fill="none" stroke="black" points="738.5,-263 742.5,-263 742.5,-259 738.5,-259 "/>
        <text text-anchor="middle" x="848" y="-268" font-family="Times New Roman,serif" font-size="20.00">プレゼンテーション層
        </text>
    </g>
    <!-- mrs.presentation&#45;&gt;mrs.application -->
    <g id="edge12" class="edge">
        <title>mrs.presentation&#45;&gt;mrs.application</title>
        <path fill="none" stroke="black" d="M864.5,-254.83C864.5,-254.83 864.5,-229.41 864.5,-229.41"/>
        <polygon fill="black" stroke="black" points="868,-229.41 864.5,-219.41 861,-229.41 868,-229.41"/>
    </g>
    <!-- mrs.presentation&#45;&gt;mrs.domain -->
    <g id="edge6" class="edge">
        <title>mrs.presentation&#45;&gt;mrs.domain</title>
        <path fill="none" stroke="black" d="M947.5,-254.96C947.5,-254.96 947.5,-85.15 947.5,-85.15"/>
        <polygon fill="black" stroke="black" points="951,-85.15 947.5,-75.15 944,-85.15 951,-85.15"/>
    </g>
    <!-- mrs.presentation&#45;&gt;mrs.infrastructure -->
    <g id="edge16" class="edge">
        <title>mrs.presentation&#45;&gt;mrs.infrastructure</title>
        <path fill="none" stroke="black"
              d="M937.5,-254.76C937.5,-216.01 937.5,-129 937.5,-129 937.5,-129 896.3,-129 896.3,-129"/>
        <polygon fill="black" stroke="black" points="896.3,-125.5 886.3,-129 896.3,-132.5 896.3,-125.5"/>
    </g>
    <!-- mrs.presentation&#45;&gt;org.springframework -->
    <g id="edge13" class="edge">
        <title>mrs.presentation&#45;&gt;org.springframework</title>
        <path fill="none" stroke="black"
              d="M801.5,-254.58C801.5,-245.72 801.5,-237 801.5,-237 801.5,-237 53.6,-237 53.6,-237 53.6,-237 53.6,-85.25 53.6,-85.25"/>
        <polygon fill="black" stroke="black" points="57.1,-85.25 53.6,-75.25 50.1,-85.25 57.1,-85.25"/>
    </g>
    <!-- mrs -->
    <g id="node6" class="node">
        <title>mrs</title>
        <polygon fill="lightgrey" stroke="black"
                 points="651,-291 597,-291 597,-287 593,-287 593,-283 597,-283 597,-263 593,-263 593,-259 597,-259 597,-255 651,-255 651,-291"/>
        <polyline fill="none" stroke="black" points="597,-287 601,-287 601,-283 597,-283 "/>
        <polyline fill="none" stroke="black" points="597,-263 601,-263 601,-259 597,-259 "/>
        <text text-anchor="middle" x="624" y="-269.3" font-family="Times New Roman,serif" font-size="14.00">mrs</text>
    </g>
    <!-- mrs&#45;&gt;mrs.application -->
    <g id="edge7" class="edge">
        <title>mrs&#45;&gt;mrs.application</title>
        <path fill="none" stroke="black"
              d="M651.07,-273C683.49,-273 733.5,-273 733.5,-273 733.5,-273 733.5,-229.17 733.5,-229.17"/>
        <polygon fill="black" stroke="black" points="737,-229.17 733.5,-219.17 730,-229.17 737,-229.17"/>
    </g>
    <!-- mrs&#45;&gt;mrs.infrastructure -->
    <g id="edge4" class="edge">
        <title>mrs&#45;&gt;mrs.infrastructure</title>
        <path fill="none" stroke="black"
              d="M627.5,-254.79C627.5,-218.79 627.5,-142 627.5,-142 627.5,-142 717.75,-142 717.75,-142"/>
        <polygon fill="black" stroke="black" points="717.75,-145.5 727.75,-142 717.75,-138.5 717.75,-145.5"/>
    </g>
    <!-- mrs&#45;&gt;org.springframework -->
    <g id="edge18" class="edge">
        <title>mrs&#45;&gt;org.springframework</title>
        <path fill="none" stroke="black"
              d="M596.79,-273C479.96,-273 26.8,-273 26.8,-273 26.8,-273 26.8,-85.04 26.8,-85.04"/>
        <polygon fill="black" stroke="black" points="30.3,-85.04 26.8,-75.04 23.3,-85.04 30.3,-85.04"/>
    </g>
</g>
</svg>
