<svg width="662px" height="243px"
 viewBox="0.00 0.00 662.00 243.00" xmlns="http://www.w3.org/2000/svg" xmlns:xlink="http://www.w3.org/1999/xlink">
<g id="graph0" class="graph" transform="scale(1.0 1.0) rotate(0) translate(4 239)">
<title>アーキテクチャ図</title>
<polygon fill="white" stroke="transparent" points="-4,4 -4,-239 658,-239 658,4 -4,4"/>
<text text-anchor="middle" x="327" y="-7.8" font-family="Times,serif" font-size="14.00">アーキテクチャ図</text>
<g id="clust1" class="cluster">
<title>clusterArchitecture</title>
<polygon fill="lightyellow" stroke="#eedd82" points="8,-31 8,-227 420,-227 420,-31 8,-31"/>
</g>
<!-- mrs.application -->
<g id="node1" class="node">
<title>mrs.application</title>
<polygon fill="#eedd82" stroke="black" points="411.5,-147 212.5,-147 212.5,-143 208.5,-143 208.5,-139 212.5,-139 212.5,-119 208.5,-119 208.5,-115 212.5,-115 212.5,-111 411.5,-111 411.5,-147"/>
<polyline fill="none" stroke="black" points="212.5,-143 216.5,-143 216.5,-139 212.5,-139 "/>
<polyline fill="none" stroke="black" points="212.5,-119 216.5,-119 216.5,-115 212.5,-115 "/>
<text text-anchor="middle" x="312" y="-124" font-family="Times,serif" font-size="20.00">アプリケーション層</text>
</g>
<!-- mrs.domain -->
<g id="node2" class="node">
<title>mrs.domain</title>
<polygon fill="#eedd82" stroke="black" points="193.5,-75 36.5,-75 36.5,-71 32.5,-71 32.5,-67 36.5,-67 36.5,-47 32.5,-47 32.5,-43 36.5,-43 36.5,-39 193.5,-39 193.5,-75"/>
<polyline fill="none" stroke="black" points="36.5,-71 40.5,-71 40.5,-67 36.5,-67 "/>
<polyline fill="none" stroke="black" points="36.5,-47 40.5,-47 40.5,-43 36.5,-43 "/>
<text text-anchor="middle" x="115" y="-52" font-family="Times,serif" font-size="20.00">ビジネスルール</text>
</g>
<!-- mrs.application&#45;&gt;mrs.domain -->
<g id="edge4" class="edge">
<title>mrs.application&#45;&gt;mrs.domain</title>
<path fill="none" stroke="black" d="M312,-110.62C312,-86.72 312,-48 312,-48 312,-48 203.71,-48 203.71,-48"/>
<polygon fill="black" stroke="black" points="203.71,-44.5 193.71,-48 203.71,-51.5 203.71,-44.5"/>
</g>
<!-- org.springframework -->
<g id="node5" class="node">
<title>org.springframework</title>
<polygon fill="lightgrey" stroke="black" points="654,-75 522,-75 522,-71 518,-71 518,-67 522,-67 522,-47 518,-47 518,-43 522,-43 522,-39 654,-39 654,-75"/>
<polyline fill="none" stroke="black" points="522,-71 526,-71 526,-67 522,-67 "/>
<polyline fill="none" stroke="black" points="522,-47 526,-47 526,-43 522,-43 "/>
<text text-anchor="middle" x="588" y="-53.3" font-family="Times,serif" font-size="14.00">org.springframework</text>
</g>
<!-- mrs.application&#45;&gt;org.springframework -->
<g id="edge3" class="edge">
<title>mrs.application&#45;&gt;org.springframework</title>
<path fill="none" stroke="black" d="M411.54,-123C478.65,-123 555,-123 555,-123 555,-123 555,-85.03 555,-85.03"/>
<polygon fill="black" stroke="black" points="558.5,-85.03 555,-75.03 551.5,-85.03 558.5,-85.03"/>
</g>
<!-- mrs.infrastructure -->
<g id="node3" class="node">
<title>mrs.infrastructure</title>
<polygon fill="#eedd82" stroke="black" points="194,-147 36,-147 36,-143 32,-143 32,-139 36,-139 36,-119 32,-119 32,-115 36,-115 36,-111 194,-111 194,-147"/>
<polyline fill="none" stroke="black" points="36,-143 40,-143 40,-139 36,-139 "/>
<polyline fill="none" stroke="black" points="36,-119 40,-119 40,-115 36,-115 "/>
<text text-anchor="middle" x="115" y="-124" font-family="Times,serif" font-size="20.00">データソース層</text>
</g>
<!-- mrs.infrastructure&#45;&gt;mrs.domain -->
<g id="edge5" class="edge">
<title>mrs.infrastructure&#45;&gt;mrs.domain</title>
<path fill="none" stroke="black" d="M115,-110.83C115,-110.83 115,-85.41 115,-85.41"/>
<polygon fill="black" stroke="black" points="118.5,-85.41 115,-75.41 111.5,-85.41 118.5,-85.41"/>
</g>
<!-- org.apache -->
<g id="node7" class="node">
<title>org.apache</title>
<polygon fill="lightgrey" stroke="black" points="504,-75 428,-75 428,-71 424,-71 424,-67 428,-67 428,-47 424,-47 424,-43 428,-43 428,-39 504,-39 504,-75"/>
<polyline fill="none" stroke="black" points="428,-71 432,-71 432,-67 428,-67 "/>
<polyline fill="none" stroke="black" points="428,-47 432,-47 432,-43 428,-43 "/>
<text text-anchor="middle" x="466" y="-53.3" font-family="Times,serif" font-size="14.00">org.apache</text>
</g>
<!-- mrs.infrastructure&#45;&gt;org.apache -->
<g id="edge9" class="edge">
<title>mrs.infrastructure&#45;&gt;org.apache</title>
<path fill="none" stroke="black" d="M194.04,-129C197.87,-129 200.17,-129 200.17,-129 200.17,-129 200.17,-66 200.17,-66 200.17,-66 417.91,-66 417.91,-66"/>
<polygon fill="black" stroke="black" points="417.91,-69.5 427.91,-66 417.91,-62.5 417.91,-69.5"/>
</g>
<!-- mrs.presentation -->
<g id="node4" class="node">
<title>mrs.presentation</title>
<polygon fill="#eedd82" stroke="black" points="411.5,-219 192.5,-219 192.5,-215 188.5,-215 188.5,-211 192.5,-211 192.5,-191 188.5,-191 188.5,-187 192.5,-187 192.5,-183 411.5,-183 411.5,-219"/>
<polyline fill="none" stroke="black" points="192.5,-215 196.5,-215 196.5,-211 192.5,-211 "/>
<polyline fill="none" stroke="black" points="192.5,-191 196.5,-191 196.5,-187 192.5,-187 "/>
<text text-anchor="middle" x="302" y="-196" font-family="Times,serif" font-size="20.00">プレゼンテーション層</text>
</g>
<!-- mrs.presentation&#45;&gt;mrs.application -->
<g id="edge1" class="edge">
<title>mrs.presentation&#45;&gt;mrs.application</title>
<path fill="none" stroke="black" d="M278.83,-182.83C278.83,-182.83 278.83,-157.41 278.83,-157.41"/>
<polygon fill="black" stroke="black" points="282.33,-157.41 278.83,-147.41 275.33,-157.41 282.33,-157.41"/>
</g>
<!-- mrs.presentation&#45;&gt;mrs.domain -->
<g id="edge6" class="edge">
<title>mrs.presentation&#45;&gt;mrs.domain</title>
<path fill="none" stroke="black" d="M206.33,-182.76C206.33,-144.01 206.33,-57 206.33,-57 206.33,-57 203.63,-57 203.63,-57"/>
<polygon fill="black" stroke="black" points="203.63,-53.5 193.63,-57 203.63,-60.5 203.63,-53.5"/>
</g>
<!-- mrs.presentation&#45;&gt;org.springframework -->
<g id="edge2" class="edge">
<title>mrs.presentation&#45;&gt;org.springframework</title>
<path fill="none" stroke="black" d="M345.17,-182.58C345.17,-173.72 345.17,-165 345.17,-165 345.17,-165 588,-165 588,-165 588,-165 588,-85.32 588,-85.32"/>
<polygon fill="black" stroke="black" points="591.5,-85.32 588,-75.32 584.5,-85.32 591.5,-85.32"/>
</g>
<!-- mrs -->
<g id="node6" class="node">
<title>mrs</title>
<polygon fill="lightgrey" stroke="black" points="494,-219 440,-219 440,-215 436,-215 436,-211 440,-211 440,-191 436,-191 436,-187 440,-187 440,-183 494,-183 494,-219"/>
<polyline fill="none" stroke="black" points="440,-215 444,-215 444,-211 440,-211 "/>
<polyline fill="none" stroke="black" points="440,-191 444,-191 444,-187 440,-187 "/>
<text text-anchor="middle" x="467" y="-197.3" font-family="Times,serif" font-size="14.00">mrs</text>
</g>
<!-- mrs&#45;&gt;mrs.application -->
<g id="edge8" class="edge">
<title>mrs&#45;&gt;mrs.application</title>
<path fill="none" stroke="black" d="M467,-182.97C467,-163.42 467,-135 467,-135 467,-135 421.92,-135 421.92,-135"/>
<polygon fill="black" stroke="black" points="421.92,-131.5 411.92,-135 421.92,-138.5 421.92,-131.5"/>
</g>
<!-- mrs&#45;&gt;org.springframework -->
<g id="edge7" class="edge">
<title>mrs&#45;&gt;org.springframework</title>
<path fill="none" stroke="black" d="M494.18,-201C538.39,-201 621,-201 621,-201 621,-201 621,-85.24 621,-85.24"/>
<polygon fill="black" stroke="black" points="624.5,-85.24 621,-75.24 617.5,-85.24 624.5,-85.24"/>
</g>
</g>
</svg>
