<svg width="352px" height="243px"
 viewBox="0.00 0.00 352.00 243.00" xmlns="http://www.w3.org/2000/svg" xmlns:xlink="http://www.w3.org/1999/xlink">
<g id="graph0" class="graph" transform="scale(1.0 1.0) rotate(0) translate(4 239)">
<title>アーキテクチャ図</title>
<polygon fill="white" stroke="none" points="-4,4 -4,-239 348,-239 348,4 -4,4"/>
<text text-anchor="middle" x="172" y="-7.8" font-family="Times New Roman,serif" font-size="14.00">アーキテクチャ図</text>
<g id="clust1" class="cluster"><title>clusterArchitecture</title>
<polygon fill="lightyellow" stroke="#eedd82" points="8,-31 8,-227 202,-227 202,-31 8,-31"/>
</g>
<!-- mrs.application -->
<g id="node1" class="node"><title>mrs.application</title>
<polygon fill="#eedd82" stroke="black" points="194,-147 36,-147 36,-143 32,-143 32,-139 36,-139 36,-119 32,-119 32,-115 36,-115 36,-111 194,-111 194,-147"/>
<polyline fill="none" stroke="black" points="36,-143 40,-143 40,-139 36,-139 "/>
<polyline fill="none" stroke="black" points="36,-119 40,-119 40,-115 36,-115 "/>
<text text-anchor="middle" x="115" y="-124" font-family="Times New Roman,serif" font-size="20.00">アプリケーション層</text>
</g>
<!-- mrs.domain -->
<g id="node2" class="node"><title>mrs.domain</title>
<polygon fill="#eedd82" stroke="black" points="160.5,-75 33.5,-75 33.5,-71 29.5,-71 29.5,-67 33.5,-67 33.5,-47 29.5,-47 29.5,-43 33.5,-43 33.5,-39 160.5,-39 160.5,-75"/>
<polyline fill="none" stroke="black" points="33.5,-71 37.5,-71 37.5,-67 33.5,-67 "/>
<polyline fill="none" stroke="black" points="33.5,-47 37.5,-47 37.5,-43 33.5,-43 "/>
<text text-anchor="middle" x="97" y="-52" font-family="Times New Roman,serif" font-size="20.00">ビジネスルール</text>
</g>
<!-- mrs.application&#45;&gt;mrs.domain -->
<g id="edge4" class="edge"><title>mrs.application&#45;&gt;mrs.domain</title>
<path fill="none" stroke="black" d="M98.25,-110.831C98.25,-110.831 98.25,-85.4133 98.25,-85.4133"/>
<polygon fill="black" stroke="black" points="101.75,-85.4132 98.25,-75.4133 94.7501,-85.4133 101.75,-85.4132"/>
</g>
<!-- org.springframework -->
<g id="node4" class="node"><title>org.springframework</title>
<polygon fill="lightgrey" stroke="black" points="344,-75 210,-75 210,-71 206,-71 206,-67 210,-67 210,-47 206,-47 206,-43 210,-43 210,-39 344,-39 344,-75"/>
<polyline fill="none" stroke="black" points="210,-71 214,-71 214,-67 210,-67 "/>
<polyline fill="none" stroke="black" points="210,-47 214,-47 214,-43 210,-43 "/>
<text text-anchor="middle" x="277" y="-53.3" font-family="Times New Roman,serif" font-size="14.00">org.springframework</text>
</g>
<!-- mrs.application&#45;&gt;org.springframework -->
<g id="edge3" class="edge"><title>mrs.application&#45;&gt;org.springframework</title>
<path fill="none" stroke="black" d="M194.085,-123C206.863,-123 216,-123 216,-123 216,-123 216,-85.0348 216,-85.0348"/>
<polygon fill="black" stroke="black" points="219.5,-85.0348 216,-75.0348 212.5,-85.0348 219.5,-85.0348"/>
</g>
<!-- mrs.presentation -->
<g id="node3" class="node"><title>mrs.presentation</title>
<polygon fill="#eedd82" stroke="black" points="194,-219 20,-219 20,-215 16,-215 16,-211 20,-211 20,-191 16,-191 16,-187 20,-187 20,-183 194,-183 194,-219"/>
<polyline fill="none" stroke="black" points="20,-215 24,-215 24,-211 20,-211 "/>
<polyline fill="none" stroke="black" points="20,-191 24,-191 24,-187 20,-187 "/>
<text text-anchor="middle" x="107" y="-196" font-family="Times New Roman,serif" font-size="20.00">プレゼンテーション層</text>
</g>
<!-- mrs.presentation&#45;&gt;mrs.application -->
<g id="edge1" class="edge"><title>mrs.presentation&#45;&gt;mrs.application</title>
<path fill="none" stroke="black" d="M115,-182.831C115,-182.831 115,-157.413 115,-157.413"/>
<polygon fill="black" stroke="black" points="118.5,-157.413 115,-147.413 111.5,-157.413 118.5,-157.413"/>
</g>
<!-- mrs.presentation&#45;&gt;mrs.domain -->
<g id="edge5" class="edge"><title>mrs.presentation&#45;&gt;mrs.domain</title>
<path fill="none" stroke="black" d="M26.75,-182.762C26.75,-144.014 26.75,-57 26.75,-57 26.75,-57 27.4236,-57 27.4236,-57"/>
<polygon fill="black" stroke="black" points="23.4859,-60.5002 33.4859,-57 23.4858,-53.5002 23.4859,-60.5002"/>
</g>
<!-- mrs.presentation&#45;&gt;org.springframework -->
<g id="edge2" class="edge"><title>mrs.presentation&#45;&gt;org.springframework</title>
<path fill="none" stroke="black" d="M194.162,-201C210.201,-201 222,-201 222,-201 222,-201 222,-85.2377 222,-85.2377"/>
<polygon fill="black" stroke="black" points="225.5,-85.2377 222,-75.2377 218.5,-85.2377 225.5,-85.2377"/>
</g>
<!-- mrs -->
<g id="node5" class="node"><title>mrs</title>
<polygon fill="lightgrey" stroke="black" points="282,-219 228,-219 228,-215 224,-215 224,-211 228,-211 228,-191 224,-191 224,-187 228,-187 228,-183 282,-183 282,-219"/>
<polyline fill="none" stroke="black" points="228,-215 232,-215 232,-211 228,-211 "/>
<polyline fill="none" stroke="black" points="228,-191 232,-191 232,-187 228,-187 "/>
<text text-anchor="middle" x="255" y="-197.3" font-family="Times New Roman,serif" font-size="14.00">mrs</text>
</g>
<!-- mrs&#45;&gt;mrs.application -->
<g id="edge7" class="edge"><title>mrs&#45;&gt;mrs.application</title>
<path fill="none" stroke="black" d="M246,-182.965C246,-163.424 246,-135 246,-135 246,-135 204.225,-135 204.225,-135"/>
<polygon fill="black" stroke="black" points="204.225,-131.5 194.225,-135 204.225,-138.5 204.225,-131.5"/>
</g>
<!-- mrs&#45;&gt;org.springframework -->
<g id="edge6" class="edge"><title>mrs&#45;&gt;org.springframework</title>
<path fill="none" stroke="black" d="M264,-182.762C264,-182.762 264,-85.0896 264,-85.0896"/>
<polygon fill="black" stroke="black" points="267.5,-85.0896 264,-75.0896 260.5,-85.0897 267.5,-85.0896"/>
</g>
</g>
</svg>
