<svg width="848px" height="243px"
     viewBox="0.00 0.00 847.50 243.00" xmlns="http://www.w3.org/2000/svg">
    <g id="graph0" class="graph" transform="scale(1.0 1.0) rotate(0) translate(4 239)">
        <title>アーキテクチャ図</title>
        <polygon fill="white" stroke="none" points="-4,4 -4,-239 843.5,-239 843.5,4 -4,4"/>
        <text text-anchor="middle" x="419.75" y="-7.8" font-family="Times New Roman,serif" font-size="14.00">アーキテクチャ図
        </text>
        <g id="clust1" class="cluster">
            <title>clusterArchitecture</title>
            <polygon fill="lightyellow" stroke="#eedd82" points="361.5,-31 361.5,-227 697.5,-227 697.5,-31 361.5,-31"/>
        </g>
        <!-- mrs.application -->
        <g id="node1" class="node">
            <title>mrs.application</title>
            <polygon fill="#eedd82" stroke="black"
                     points="674.5,-147 516.5,-147 516.5,-143 512.5,-143 512.5,-139 516.5,-139 516.5,-119 512.5,-119 512.5,-115 516.5,-115 516.5,-111 674.5,-111 674.5,-147"/>
            <polyline fill="none" stroke="black" points="516.5,-143 520.5,-143 520.5,-139 516.5,-139 "/>
            <polyline fill="none" stroke="black" points="516.5,-119 520.5,-119 520.5,-115 516.5,-115 "/>
            <text text-anchor="middle" x="595.5" y="-124" font-family="Times New Roman,serif" font-size="20.00">
                アプリケーション層
            </text>
        </g>
        <!-- mrs.domain -->
        <g id="node2" class="node">
            <title>mrs.domain</title>
            <polygon fill="#eedd82" stroke="black"
                     points="561,-75 434,-75 434,-71 430,-71 430,-67 434,-67 434,-47 430,-47 430,-43 434,-43 434,-39 561,-39 561,-75"/>
            <polyline fill="none" stroke="black" points="434,-71 438,-71 438,-67 434,-67 "/>
            <polyline fill="none" stroke="black" points="434,-47 438,-47 438,-43 434,-43 "/>
            <text text-anchor="middle" x="497.5" y="-52" font-family="Times New Roman,serif" font-size="20.00">ビジネスルール
            </text>
        </g>
        <!-- mrs.application&#45;&gt;mrs.domain -->
        <g id="edge7" class="edge">
            <title>mrs.application&#45;&gt;mrs.domain</title>
            <path fill="none" stroke="black" d="M538.75,-110.831C538.75,-110.831 538.75,-85.4133 538.75,-85.4133"/>
            <polygon fill="black" stroke="black"
                     points="542.25,-85.4132 538.75,-75.4133 535.25,-85.4133 542.25,-85.4132"/>
        </g>
<!-- org.springframework -->
        <g id="node5" class="node">
            <title>org.springframework</title>
            <polygon fill="lightgrey" stroke="black"
                     points="839.5,-75 705.5,-75 705.5,-71 701.5,-71 701.5,-67 705.5,-67 705.5,-47 701.5,-47 701.5,-43 705.5,-43 705.5,-39 839.5,-39 839.5,-75"/>
            <polyline fill="none" stroke="black" points="705.5,-71 709.5,-71 709.5,-67 705.5,-67 "/>
            <polyline fill="none" stroke="black" points="705.5,-47 709.5,-47 709.5,-43 705.5,-43 "/>
            <text text-anchor="middle" x="772.5" y="-53.3" font-family="Times New Roman,serif" font-size="14.00">
                org.springframework
            </text>
        </g>
<!-- mrs.application&#45;&gt;org.springframework -->
        <g id="edge6" class="edge">
            <title>mrs.application&#45;&gt;org.springframework</title>
            <path fill="none" stroke="black"
                  d="M674.582,-123C699.898,-123 721.5,-123 721.5,-123 721.5,-123 721.5,-85.0348 721.5,-85.0348"/>
            <polygon fill="black" stroke="black" points="725,-85.0348 721.5,-75.0348 718,-85.0348 725,-85.0348"/>
        </g>
<!-- mrs.infrastructure -->
        <g id="node3" class="node">
            <title>mrs.infrastructure</title>
            <polygon fill="#eedd82" stroke="black"
                     points="497,-219 370,-219 370,-215 366,-215 366,-211 370,-211 370,-191 366,-191 366,-187 370,-187 370,-183 497,-183 497,-219"/>
            <polyline fill="none" stroke="black" points="370,-215 374,-215 374,-211 370,-211 "/>
            <polyline fill="none" stroke="black" points="370,-191 374,-191 374,-187 370,-187 "/>
            <text text-anchor="middle" x="433.5" y="-196" font-family="Times New Roman,serif" font-size="20.00">
                データソース層
            </text>
        </g>
        <!-- mrs.infrastructure&#45;&gt;mrs.application -->
        <g id="edge2" class="edge">
            <title>mrs.infrastructure&#45;&gt;mrs.application</title>
            <path fill="none" stroke="black"
                  d="M481.25,-182.965C481.25,-163.424 481.25,-135 481.25,-135 481.25,-135 506.461,-135 506.461,-135"/>
            <polygon fill="black" stroke="black" points="506.461,-138.5 516.461,-135 506.461,-131.5 506.461,-138.5"/>
        </g>
        <!-- mrs.infrastructure&#45;&gt;mrs.domain -->
        <g id="edge8" class="edge">
            <title>mrs.infrastructure&#45;&gt;mrs.domain</title>
            <path fill="none" stroke="black" d="M449.75,-182.762C449.75,-182.762 449.75,-85.0896 449.75,-85.0896"/>
            <polygon fill="black" stroke="black"
                     points="453.25,-85.0896 449.75,-75.0896 446.25,-85.0897 453.25,-85.0896"/>
        </g>
        <!-- mrs.infrastructure&#45;&gt;org.springframework -->
        <g id="edge1" class="edge">
            <title>mrs.infrastructure&#45;&gt;org.springframework</title>
            <path fill="none" stroke="black"
                  d="M465.5,-182.679C465.5,-151.866 465.5,-93 465.5,-93 465.5,-93 713.5,-93 713.5,-93 713.5,-93 713.5,-85.4218 713.5,-85.4218"/>
            <polygon fill="black" stroke="black" points="717,-85.4218 713.5,-75.4218 710,-85.4219 717,-85.4218"/>
        </g>
        <!-- com.google -->
        <g id="node6" class="node">
            <title>com.google</title>
            <polygon fill="lightgrey" stroke="black"
                     points="83,-147 0,-147 0,-143 -4,-143 -4,-139 0,-139 0,-119 -4,-119 -4,-115 0,-115 0,-111 83,-111 83,-147"/>
            <polyline fill="none" stroke="black" points="0,-143 4,-143 4,-139 0,-139 "/>
            <polyline fill="none" stroke="black" points="0,-119 4,-119 4,-115 0,-115 "/>
            <text text-anchor="middle" x="41.5" y="-125.3" font-family="Times New Roman,serif" font-size="14.00">
                com.google
            </text>
        </g>
        <!-- mrs.infrastructure&#45;&gt;com.google -->
        <g id="edge3" class="edge">
            <title>mrs.infrastructure&#45;&gt;com.google</title>
            <path fill="none" stroke="black"
                  d="M369.646,-207C258.568,-207 41.5,-207 41.5,-207 41.5,-207 41.5,-157.091 41.5,-157.091"/>
            <polygon fill="black" stroke="black"
                     points="45.0001,-157.091 41.5,-147.091 38.0001,-157.091 45.0001,-157.091"/>
        </g>
        <!-- springfox.documentation -->
        <g id="node8" class="node">
            <title>springfox.documentation</title>
            <polygon fill="lightgrey" stroke="black"
                     points="257.5,-147 101.5,-147 101.5,-143 97.5,-143 97.5,-139 101.5,-139 101.5,-119 97.5,-119 97.5,-115 101.5,-115 101.5,-111 257.5,-111 257.5,-147"/>
            <polyline fill="none" stroke="black" points="101.5,-143 105.5,-143 105.5,-139 101.5,-139 "/>
            <polyline fill="none" stroke="black" points="101.5,-119 105.5,-119 105.5,-115 101.5,-115 "/>
            <text text-anchor="middle" x="179.5" y="-125.3" font-family="Times New Roman,serif" font-size="14.00">
                springfox.documentation
            </text>
        </g>
        <!-- mrs.infrastructure&#45;&gt;springfox.documentation -->
        <g id="edge12" class="edge">
            <title>mrs.infrastructure&#45;&gt;springfox.documentation</title>
            <path fill="none" stroke="black"
                  d="M369.733,-195C294.493,-195 179.5,-195 179.5,-195 179.5,-195 179.5,-157.035 179.5,-157.035"/>
            <polygon fill="black" stroke="black" points="183,-157.035 179.5,-147.035 176,-157.035 183,-157.035"/>
        </g>
        <!-- org.apache -->
        <g id="node9" class="node">
            <title>org.apache</title>
            <polygon fill="lightgrey" stroke="black"
                     points="353.5,-147 275.5,-147 275.5,-143 271.5,-143 271.5,-139 275.5,-139 275.5,-119 271.5,-119 271.5,-115 275.5,-115 275.5,-111 353.5,-111 353.5,-147"/>
            <polyline fill="none" stroke="black" points="275.5,-143 279.5,-143 279.5,-139 275.5,-139 "/>
            <polyline fill="none" stroke="black" points="275.5,-119 279.5,-119 279.5,-115 275.5,-115 "/>
            <text text-anchor="middle" x="314.5" y="-125.3" font-family="Times New Roman,serif" font-size="14.00">
                org.apache
            </text>
        </g>
        <!-- mrs.infrastructure&#45;&gt;org.apache -->
        <g id="edge13" class="edge">
            <title>mrs.infrastructure&#45;&gt;org.apache</title>
            <path fill="none" stroke="black"
                  d="M402,-182.909C402,-159.867 402,-123 402,-123 402,-123 363.643,-123 363.643,-123"/>
            <polygon fill="black" stroke="black" points="363.643,-119.5 353.643,-123 363.643,-126.5 363.643,-119.5"/>
        </g>
        <!-- mrs.presentation -->
        <g id="node4" class="node">
            <title>mrs.presentation</title>
            <polygon fill="#eedd82" stroke="black"
                     points="689.5,-219 515.5,-219 515.5,-215 511.5,-215 511.5,-211 515.5,-211 515.5,-191 511.5,-191 511.5,-187 515.5,-187 515.5,-183 689.5,-183 689.5,-219"/>
            <polyline fill="none" stroke="black" points="515.5,-215 519.5,-215 519.5,-211 515.5,-211 "/>
            <polyline fill="none" stroke="black" points="515.5,-191 519.5,-191 519.5,-187 515.5,-187 "/>
            <text text-anchor="middle" x="602.5" y="-196" font-family="Times New Roman,serif" font-size="20.00">
                プレゼンテーション層
            </text>
        </g>
        <!-- mrs.presentation&#45;&gt;mrs.application -->
        <g id="edge4" class="edge">
            <title>mrs.presentation&#45;&gt;mrs.application</title>
            <path fill="none" stroke="black" d="M595.5,-182.831C595.5,-182.831 595.5,-157.413 595.5,-157.413"/>
            <polygon fill="black" stroke="black" points="599,-157.413 595.5,-147.413 592,-157.413 599,-157.413"/>
        </g>
        <!-- mrs.presentation&#45;&gt;mrs.domain -->
        <g id="edge9" class="edge">
            <title>mrs.presentation&#45;&gt;mrs.domain</title>
            <path fill="none" stroke="black"
                  d="M515.479,-201C509.776,-201 506.25,-201 506.25,-201 506.25,-201 506.25,-85.2377 506.25,-85.2377"/>
            <polygon fill="black" stroke="black"
                     points="509.75,-85.2377 506.25,-75.2377 502.75,-85.2377 509.75,-85.2377"/>
        </g>
<!-- mrs.presentation&#45;&gt;org.springframework -->
        <g id="edge5" class="edge">
            <title>mrs.presentation&#45;&gt;org.springframework</title>
            <path fill="none" stroke="black"
                  d="M682,-182.762C682,-144.014 682,-57 682,-57 682,-57 695.306,-57 695.306,-57"/>
            <polygon fill="black" stroke="black"
                     points="695.306,-60.5001 705.306,-57 695.306,-53.5001 695.306,-60.5001"/>
        </g>
<!-- mrs -->
        <g id="node7" class="node">
            <title>mrs</title>
            <polygon fill="lightgrey" stroke="black"
                     points="783.5,-219 729.5,-219 729.5,-215 725.5,-215 725.5,-211 729.5,-211 729.5,-191 725.5,-191 725.5,-187 729.5,-187 729.5,-183 783.5,-183 783.5,-219"/>
            <polyline fill="none" stroke="black" points="729.5,-215 733.5,-215 733.5,-211 729.5,-211 "/>
            <polyline fill="none" stroke="black" points="729.5,-191 733.5,-191 733.5,-187 729.5,-187 "/>
            <text text-anchor="middle" x="756.5" y="-197.3" font-family="Times New Roman,serif" font-size="14.00">mrs
            </text>
        </g>
<!-- mrs&#45;&gt;mrs.application -->
        <g id="edge11" class="edge">
            <title>mrs&#45;&gt;mrs.application</title>
            <path fill="none" stroke="black"
                  d="M747.5,-182.965C747.5,-163.424 747.5,-135 747.5,-135 747.5,-135 684.616,-135 684.616,-135"/>
            <polygon fill="black" stroke="black" points="684.616,-131.5 674.616,-135 684.616,-138.5 684.616,-131.5"/>
        </g>
<!-- mrs&#45;&gt;org.springframework -->
        <g id="edge10" class="edge">
            <title>mrs&#45;&gt;org.springframework</title>
            <path fill="none" stroke="black" d="M765.5,-182.762C765.5,-182.762 765.5,-85.0896 765.5,-85.0896"/>
            <polygon fill="black" stroke="black" points="769,-85.0896 765.5,-75.0896 762,-85.0897 769,-85.0896"/>
        </g>
</g>
</svg>
