<svg width="644px" height="243px"
 viewBox="0.00 0.00 644.00 243.00" xmlns="http://www.w3.org/2000/svg" xmlns:xlink="http://www.w3.org/1999/xlink">
<g id="graph0" class="graph" transform="scale(1.0 1.0) rotate(0) translate(4 239)">
<title>アーキテクチャ図</title>
<polygon fill="white" stroke="transparent" points="-4,4 -4,-239 640,-239 640,4 -4,4"/>
<text text-anchor="middle" x="318" y="-7.8" font-family="Times,serif" font-size="14.00">アーキテクチャ図</text>
<g id="clust1" class="cluster">
<title>clusterArchitecture</title>
<polygon fill="lightyellow" stroke="#eedd82" points="84,-31 84,-227 496,-227 496,-31 84,-31"/>
</g>
<!-- mrs.application -->
<g id="node1" class="node">
<title>mrs.application</title>
<polygon fill="#eedd82" stroke="black" points="471.5,-147 272.5,-147 272.5,-143 268.5,-143 268.5,-139 272.5,-139 272.5,-119 268.5,-119 268.5,-115 272.5,-115 272.5,-111 471.5,-111 471.5,-147"/>
<polyline fill="none" stroke="black" points="272.5,-143 276.5,-143 276.5,-139 272.5,-139 "/>
<polyline fill="none" stroke="black" points="272.5,-119 276.5,-119 276.5,-115 272.5,-115 "/>
<text text-anchor="middle" x="372" y="-124" font-family="Times,serif" font-size="20.00">アプリケーション層</text>
</g>
<!-- mrs.domain -->
<g id="node2" class="node">
<title>mrs.domain</title>
<polygon fill="#eedd82" stroke="black" points="331.5,-75 174.5,-75 174.5,-71 170.5,-71 170.5,-67 174.5,-67 174.5,-47 170.5,-47 170.5,-43 174.5,-43 174.5,-39 331.5,-39 331.5,-75"/>
<polyline fill="none" stroke="black" points="174.5,-71 178.5,-71 178.5,-67 174.5,-67 "/>
<polyline fill="none" stroke="black" points="174.5,-47 178.5,-47 178.5,-43 174.5,-43 "/>
<text text-anchor="middle" x="253" y="-52" font-family="Times,serif" font-size="20.00">ビジネスルール</text>
</g>
<!-- mrs.application&#45;&gt;mrs.domain -->
<g id="edge6" class="edge">
<title>mrs.application&#45;&gt;mrs.domain</title>
<path fill="none" stroke="black" d="M302,-110.83C302,-110.83 302,-85.41 302,-85.41"/>
<polygon fill="black" stroke="black" points="305.5,-85.41 302,-75.41 298.5,-85.41 305.5,-85.41"/>
</g>
<!-- org.springframework -->
<g id="node5" class="node">
<title>org.springframework</title>
<polygon fill="lightgrey" stroke="black" points="636,-75 504,-75 504,-71 500,-71 500,-67 504,-67 504,-47 500,-47 500,-43 504,-43 504,-39 636,-39 636,-75"/>
<polyline fill="none" stroke="black" points="504,-71 508,-71 508,-67 504,-67 "/>
<polyline fill="none" stroke="black" points="504,-47 508,-47 508,-43 504,-43 "/>
<text text-anchor="middle" x="570" y="-53.3" font-family="Times,serif" font-size="14.00">org.springframework</text>
</g>
<!-- mrs.application&#45;&gt;org.springframework -->
<g id="edge5" class="edge">
<title>mrs.application&#45;&gt;org.springframework</title>
<path fill="none" stroke="black" d="M471.51,-123C494.31,-123 512,-123 512,-123 512,-123 512,-85.03 512,-85.03"/>
<polygon fill="black" stroke="black" points="515.5,-85.03 512,-75.03 508.5,-85.03 515.5,-85.03"/>
</g>
<!-- mrs.infrastructure -->
<g id="node3" class="node">
<title>mrs.infrastructure</title>
<polygon fill="#eedd82" stroke="black" points="250,-219 92,-219 92,-215 88,-215 88,-211 92,-211 92,-191 88,-191 88,-187 92,-187 92,-183 250,-183 250,-219"/>
<polyline fill="none" stroke="black" points="92,-215 96,-215 96,-211 92,-211 "/>
<polyline fill="none" stroke="black" points="92,-191 96,-191 96,-187 92,-187 "/>
<text text-anchor="middle" x="171" y="-196" font-family="Times,serif" font-size="20.00">データソース層</text>
</g>
<!-- mrs.infrastructure&#45;&gt;mrs.application -->
<g id="edge2" class="edge">
<title>mrs.infrastructure&#45;&gt;mrs.application</title>
<path fill="none" stroke="black" d="M231.12,-182.83C231.12,-161.5 231.12,-129 231.12,-129 231.12,-129 262.25,-129 262.25,-129"/>
<polygon fill="black" stroke="black" points="262.25,-132.5 272.25,-129 262.25,-125.5 262.25,-132.5"/>
</g>
<!-- mrs.infrastructure&#45;&gt;mrs.domain -->
<g id="edge7" class="edge">
<title>mrs.infrastructure&#45;&gt;mrs.domain</title>
<path fill="none" stroke="black" d="M212.25,-182.76C212.25,-182.76 212.25,-85.09 212.25,-85.09"/>
<polygon fill="black" stroke="black" points="215.75,-85.09 212.25,-75.09 208.75,-85.09 215.75,-85.09"/>
</g>
<!-- mrs.infrastructure&#45;&gt;org.springframework -->
<g id="edge1" class="edge">
<title>mrs.infrastructure&#45;&gt;org.springframework</title>
<path fill="none" stroke="black" d="M193.38,-182.58C193.38,-173.72 193.38,-165 193.38,-165 193.38,-165 520,-165 520,-165 520,-165 520,-85.32 520,-85.32"/>
<polygon fill="black" stroke="black" points="523.5,-85.32 520,-75.32 516.5,-85.32 523.5,-85.32"/>
</g>
<!-- org.apache -->
<g id="node7" class="node">
<title>org.apache</title>
<polygon fill="lightgrey" stroke="black" points="76,-147 0,-147 0,-143 -4,-143 -4,-139 0,-139 0,-119 -4,-119 -4,-115 0,-115 0,-111 76,-111 76,-147"/>
<polyline fill="none" stroke="black" points="0,-143 4,-143 4,-139 0,-139 "/>
<polyline fill="none" stroke="black" points="0,-119 4,-119 4,-115 0,-115 "/>
<text text-anchor="middle" x="38" y="-125.3" font-family="Times,serif" font-size="14.00">org.apache</text>
</g>
<!-- mrs.infrastructure&#45;&gt;org.apache -->
<g id="edge11" class="edge">
<title>mrs.infrastructure&#45;&gt;org.apache</title>
<path fill="none" stroke="black" d="M91.71,-201C63.23,-201 38,-201 38,-201 38,-201 38,-157.17 38,-157.17"/>
<polygon fill="black" stroke="black" points="41.5,-157.17 38,-147.17 34.5,-157.17 41.5,-157.17"/>
</g>
<!-- mrs.presentation -->
<g id="node4" class="node">
<title>mrs.presentation</title>
<polygon fill="#eedd82" stroke="black" points="487.5,-219 268.5,-219 268.5,-215 264.5,-215 264.5,-211 268.5,-211 268.5,-191 264.5,-191 264.5,-187 268.5,-187 268.5,-183 487.5,-183 487.5,-219"/>
<polyline fill="none" stroke="black" points="268.5,-215 272.5,-215 272.5,-211 268.5,-211 "/>
<polyline fill="none" stroke="black" points="268.5,-191 272.5,-191 272.5,-187 268.5,-187 "/>
<text text-anchor="middle" x="378" y="-196" font-family="Times,serif" font-size="20.00">プレゼンテーション層</text>
</g>
<!-- mrs.presentation&#45;&gt;mrs.application -->
<g id="edge3" class="edge">
<title>mrs.presentation&#45;&gt;mrs.application</title>
<path fill="none" stroke="black" d="M372,-182.83C372,-182.83 372,-157.41 372,-157.41"/>
<polygon fill="black" stroke="black" points="375.5,-157.41 372,-147.41 368.5,-157.41 375.5,-157.41"/>
</g>
<!-- mrs.presentation&#45;&gt;mrs.domain -->
<g id="edge8" class="edge">
<title>mrs.presentation&#45;&gt;mrs.domain</title>
<path fill="none" stroke="black" d="M268.18,-201C262.6,-201 259.25,-201 259.25,-201 259.25,-201 259.25,-85.24 259.25,-85.24"/>
<polygon fill="black" stroke="black" points="262.75,-85.24 259.25,-75.24 255.75,-85.24 262.75,-85.24"/>
</g>
<!-- mrs.presentation&#45;&gt;org.springframework -->
<g id="edge4" class="edge">
<title>mrs.presentation&#45;&gt;org.springframework</title>
<path fill="none" stroke="black" d="M479.5,-182.76C479.5,-144.01 479.5,-57 479.5,-57 479.5,-57 493.75,-57 493.75,-57"/>
<polygon fill="black" stroke="black" points="493.75,-60.5 503.75,-57 493.75,-53.5 493.75,-60.5"/>
</g>
<!-- mrs -->
<g id="node6" class="node">
<title>mrs</title>
<polygon fill="lightgrey" stroke="black" points="582,-219 528,-219 528,-215 524,-215 524,-211 528,-211 528,-191 524,-191 524,-187 528,-187 528,-183 582,-183 582,-219"/>
<polyline fill="none" stroke="black" points="528,-215 532,-215 532,-211 528,-211 "/>
<polyline fill="none" stroke="black" points="528,-191 532,-191 532,-187 528,-187 "/>
<text text-anchor="middle" x="555" y="-197.3" font-family="Times,serif" font-size="14.00">mrs</text>
</g>
<!-- mrs&#45;&gt;mrs.application -->
<g id="edge10" class="edge">
<title>mrs&#45;&gt;mrs.application</title>
<path fill="none" stroke="black" d="M546,-182.97C546,-163.42 546,-135 546,-135 546,-135 481.7,-135 481.7,-135"/>
<polygon fill="black" stroke="black" points="481.7,-131.5 471.7,-135 481.7,-138.5 481.7,-131.5"/>
</g>
<!-- mrs&#45;&gt;org.springframework -->
<g id="edge9" class="edge">
<title>mrs&#45;&gt;org.springframework</title>
<path fill="none" stroke="black" d="M564,-182.76C564,-182.76 564,-85.09 564,-85.09"/>
<polygon fill="black" stroke="black" points="567.5,-85.09 564,-75.09 560.5,-85.09 567.5,-85.09"/>
</g>
</g>
</svg>
