<svg width="572px" height="243px"
     viewBox="0.00 0.00 572.00 243.00" xmlns="http://www.w3.org/2000/svg">
    <g id="graph0" class="graph" transform="scale(1.0 1.0) rotate(0) translate(4 239)">
        <title>アーキテクチャ図</title>
        <polygon fill="white" stroke="none" points="-4,4 -4,-239 568,-239 568,4 -4,4"/>
        <text text-anchor="middle" x="282" y="-7.8" font-family="Times New Roman,serif" font-size="14.00">アーキテクチャ図
        </text>
        <g id="clust1" class="cluster">
            <title>clusterArchitecture</title>
            <polygon fill="lightyellow" stroke="#eedd82" points="86,-31 86,-227 422,-227 422,-31 86,-31"/>
        </g>
        <!-- mrs.application -->
        <g id="node1" class="node">
            <title>mrs.application</title>
            <polygon fill="#eedd82" stroke="black"
                     points="399,-147 241,-147 241,-143 237,-143 237,-139 241,-139 241,-119 237,-119 237,-115 241,-115 241,-111 399,-111 399,-147"/>
            <polyline fill="none" stroke="black" points="241,-143 245,-143 245,-139 241,-139 "/>
            <polyline fill="none" stroke="black" points="241,-119 245,-119 245,-115 241,-115 "/>
            <text text-anchor="middle" x="320" y="-124" font-family="Times New Roman,serif" font-size="20.00">
                アプリケーション層
            </text>
        </g>
        <!-- mrs.domain -->
        <g id="node2" class="node">
            <title>mrs.domain</title>
            <polygon fill="#eedd82" stroke="black"
                     points="285.5,-75 158.5,-75 158.5,-71 154.5,-71 154.5,-67 158.5,-67 158.5,-47 154.5,-47 154.5,-43 158.5,-43 158.5,-39 285.5,-39 285.5,-75"/>
            <polyline fill="none" stroke="black" points="158.5,-71 162.5,-71 162.5,-67 158.5,-67 "/>
            <polyline fill="none" stroke="black" points="158.5,-47 162.5,-47 162.5,-43 158.5,-43 "/>
            <text text-anchor="middle" x="222" y="-52" font-family="Times New Roman,serif" font-size="20.00">ビジネスルール
            </text>
        </g>
<!-- mrs.application&#45;&gt;mrs.domain -->
        <g id="edge6" class="edge">
            <title>mrs.application&#45;&gt;mrs.domain</title>
            <path fill="none" stroke="black" d="M263.25,-110.831C263.25,-110.831 263.25,-85.4133 263.25,-85.4133"/>
            <polygon fill="black" stroke="black"
                     points="266.75,-85.4132 263.25,-75.4133 259.75,-85.4133 266.75,-85.4132"/>
        </g>
<!-- org.springframework -->
        <g id="node5" class="node">
            <title>org.springframework</title>
            <polygon fill="lightgrey" stroke="black"
                     points="564,-75 430,-75 430,-71 426,-71 426,-67 430,-67 430,-47 426,-47 426,-43 430,-43 430,-39 564,-39 564,-75"/>
            <polyline fill="none" stroke="black" points="430,-71 434,-71 434,-67 430,-67 "/>
            <polyline fill="none" stroke="black" points="430,-47 434,-47 434,-43 430,-43 "/>
            <text text-anchor="middle" x="497" y="-53.3" font-family="Times New Roman,serif" font-size="14.00">
                org.springframework
            </text>
        </g>
        <!-- mrs.application&#45;&gt;org.springframework -->
        <g id="edge5" class="edge">
            <title>mrs.application&#45;&gt;org.springframework</title>
            <path fill="none" stroke="black"
                  d="M399.082,-123C424.398,-123 446,-123 446,-123 446,-123 446,-85.0348 446,-85.0348"/>
            <polygon fill="black" stroke="black" points="449.5,-85.0348 446,-75.0348 442.5,-85.0348 449.5,-85.0348"/>
        </g>
        <!-- mrs.infrastructure -->
        <g id="node3" class="node">
            <title>mrs.infrastructure</title>
            <polygon fill="#eedd82" stroke="black"
                     points="221.5,-219 94.5,-219 94.5,-215 90.5,-215 90.5,-211 94.5,-211 94.5,-191 90.5,-191 90.5,-187 94.5,-187 94.5,-183 221.5,-183 221.5,-219"/>
            <polyline fill="none" stroke="black" points="94.5,-215 98.5,-215 98.5,-211 94.5,-211 "/>
            <polyline fill="none" stroke="black" points="94.5,-191 98.5,-191 98.5,-187 94.5,-187 "/>
            <text text-anchor="middle" x="158" y="-196" font-family="Times New Roman,serif" font-size="20.00">データソース層
            </text>
        </g>
        <!-- mrs.infrastructure&#45;&gt;mrs.application -->
        <g id="edge2" class="edge">
            <title>mrs.infrastructure&#45;&gt;mrs.application</title>
            <path fill="none" stroke="black"
                  d="M205.75,-182.965C205.75,-163.424 205.75,-135 205.75,-135 205.75,-135 230.961,-135 230.961,-135"/>
            <polygon fill="black" stroke="black" points="230.961,-138.5 240.961,-135 230.961,-131.5 230.961,-138.5"/>
        </g>
        <!-- mrs.infrastructure&#45;&gt;mrs.domain -->
        <g id="edge7" class="edge">
            <title>mrs.infrastructure&#45;&gt;mrs.domain</title>
            <path fill="none" stroke="black" d="M174.25,-182.762C174.25,-182.762 174.25,-85.0896 174.25,-85.0896"/>
            <polygon fill="black" stroke="black"
                     points="177.75,-85.0896 174.25,-75.0896 170.75,-85.0897 177.75,-85.0896"/>
        </g>
        <!-- mrs.infrastructure&#45;&gt;org.springframework -->
        <g id="edge1" class="edge">
            <title>mrs.infrastructure&#45;&gt;org.springframework</title>
            <path fill="none" stroke="black"
                  d="M190,-182.679C190,-151.866 190,-93 190,-93 190,-93 438,-93 438,-93 438,-93 438,-85.4218 438,-85.4218"/>
            <polygon fill="black" stroke="black" points="441.5,-85.4218 438,-75.4218 434.5,-85.4219 441.5,-85.4218"/>
        </g>
        <!-- org.apache -->
        <g id="node7" class="node">
            <title>org.apache</title>
            <polygon fill="lightgrey" stroke="black"
                     points="78,-147 0,-147 0,-143 -4,-143 -4,-139 0,-139 0,-119 -4,-119 -4,-115 0,-115 0,-111 78,-111 78,-147"/>
            <polyline fill="none" stroke="black" points="0,-143 4,-143 4,-139 0,-139 "/>
            <polyline fill="none" stroke="black" points="0,-119 4,-119 4,-115 0,-115 "/>
            <text text-anchor="middle" x="39" y="-125.3" font-family="Times New Roman,serif" font-size="14.00">
                org.apache
            </text>
        </g>
        <!-- mrs.infrastructure&#45;&gt;org.apache -->
        <g id="edge11" class="edge">
            <title>mrs.infrastructure&#45;&gt;org.apache</title>
            <path fill="none" stroke="black"
                  d="M126.5,-182.909C126.5,-159.867 126.5,-123 126.5,-123 126.5,-123 88.1433,-123 88.1433,-123"/>
            <polygon fill="black" stroke="black" points="88.1434,-119.5 78.1433,-123 88.1433,-126.5 88.1434,-119.5"/>
        </g>
<!-- mrs.presentation -->
        <g id="node4" class="node">
            <title>mrs.presentation</title>
            <polygon fill="#eedd82" stroke="black"
                     points="414,-219 240,-219 240,-215 236,-215 236,-211 240,-211 240,-191 236,-191 236,-187 240,-187 240,-183 414,-183 414,-219"/>
            <polyline fill="none" stroke="black" points="240,-215 244,-215 244,-211 240,-211 "/>
            <polyline fill="none" stroke="black" points="240,-191 244,-191 244,-187 240,-187 "/>
            <text text-anchor="middle" x="327" y="-196" font-family="Times New Roman,serif" font-size="20.00">
                プレゼンテーション層
            </text>
        </g>
<!-- mrs.presentation&#45;&gt;mrs.application -->
        <g id="edge3" class="edge">
            <title>mrs.presentation&#45;&gt;mrs.application</title>
            <path fill="none" stroke="black" d="M320,-182.831C320,-182.831 320,-157.413 320,-157.413"/>
            <polygon fill="black" stroke="black" points="323.5,-157.413 320,-147.413 316.5,-157.413 323.5,-157.413"/>
        </g>
<!-- mrs.presentation&#45;&gt;mrs.domain -->
        <g id="edge8" class="edge">
            <title>mrs.presentation&#45;&gt;mrs.domain</title>
            <path fill="none" stroke="black"
                  d="M239.979,-201C234.276,-201 230.75,-201 230.75,-201 230.75,-201 230.75,-85.2377 230.75,-85.2377"/>
            <polygon fill="black" stroke="black"
                     points="234.25,-85.2377 230.75,-75.2377 227.25,-85.2377 234.25,-85.2377"/>
        </g>
<!-- mrs.presentation&#45;&gt;org.springframework -->
        <g id="edge4" class="edge">
            <title>mrs.presentation&#45;&gt;org.springframework</title>
            <path fill="none" stroke="black"
                  d="M406.5,-182.762C406.5,-144.014 406.5,-57 406.5,-57 406.5,-57 419.806,-57 419.806,-57"/>
            <polygon fill="black" stroke="black"
                     points="419.806,-60.5001 429.806,-57 419.806,-53.5001 419.806,-60.5001"/>
        </g>
<!-- mrs -->
        <g id="node6" class="node">
            <title>mrs</title>
            <polygon fill="lightgrey" stroke="black"
                     points="508,-219 454,-219 454,-215 450,-215 450,-211 454,-211 454,-191 450,-191 450,-187 454,-187 454,-183 508,-183 508,-219"/>
            <polyline fill="none" stroke="black" points="454,-215 458,-215 458,-211 454,-211 "/>
            <polyline fill="none" stroke="black" points="454,-191 458,-191 458,-187 454,-187 "/>
            <text text-anchor="middle" x="481" y="-197.3" font-family="Times New Roman,serif" font-size="14.00">mrs
            </text>
        </g>
<!-- mrs&#45;&gt;mrs.application -->
        <g id="edge10" class="edge">
            <title>mrs&#45;&gt;mrs.application</title>
            <path fill="none" stroke="black"
                  d="M472,-182.965C472,-163.424 472,-135 472,-135 472,-135 409.116,-135 409.116,-135"/>
            <polygon fill="black" stroke="black" points="409.116,-131.5 399.116,-135 409.116,-138.5 409.116,-131.5"/>
        </g>
<!-- mrs&#45;&gt;org.springframework -->
        <g id="edge9" class="edge">
            <title>mrs&#45;&gt;org.springframework</title>
            <path fill="none" stroke="black" d="M490,-182.762C490,-182.762 490,-85.0896 490,-85.0896"/>
            <polygon fill="black" stroke="black" points="493.5,-85.0896 490,-75.0896 486.5,-85.0897 493.5,-85.0896"/>
        </g>
</g>
</svg>
