<svg width="915px" height="243px"
     viewBox="0.00 0.00 914.50 243.00" xmlns="http://www.w3.org/2000/svg">
<g id="graph0" class="graph" transform="scale(1.0 1.0) rotate(0) translate(4 239)">
    <title>アーキテクチャ図</title>
    <polygon fill="white" stroke="transparent" points="-4,4 -4,-239 910.5,-239 910.5,4 -4,4"/>
    <text text-anchor="middle" x="453.25" y="-7.8" font-family="Times,serif" font-size="14.00">アーキテクチャ図</text>
    <g id="clust1" class="cluster">
        <title>clusterArchitecture</title>
        <polygon fill="lightyellow" stroke="#eedd82" points="354.5,-31 354.5,-227 766.5,-227 766.5,-31 354.5,-31"/>
    </g>
    <!-- mrs.application -->
    <g id="node1" class="node">
        <title>mrs.application</title>
        <polygon fill="#eedd82" stroke="black"
                 points="742,-147 543,-147 543,-143 539,-143 539,-139 543,-139 543,-119 539,-119 539,-115 543,-115 543,-111 742,-111 742,-147"/>
        <polyline fill="none" stroke="black" points="543,-143 547,-143 547,-139 543,-139 "/>
        <polyline fill="none" stroke="black" points="543,-119 547,-119 547,-115 543,-115 "/>
        <text text-anchor="middle" x="642.5" y="-124" font-family="Times,serif" font-size="20.00">アプリケーション層</text>
    </g>
    <!-- mrs.domain -->
    <g id="node2" class="node">
        <title>mrs.domain</title>
        <polygon fill="#eedd82" stroke="black"
                 points="602,-75 445,-75 445,-71 441,-71 441,-67 445,-67 445,-47 441,-47 441,-43 445,-43 445,-39 602,-39 602,-75"/>
        <polyline fill="none" stroke="black" points="445,-71 449,-71 449,-67 445,-67 "/>
        <polyline fill="none" stroke="black" points="445,-47 449,-47 449,-43 445,-43 "/>
        <text text-anchor="middle" x="523.5" y="-52" font-family="Times,serif" font-size="20.00">ビジネスルール</text>
    </g>
    <!-- mrs.application&#45;&gt;mrs.domain -->
    <g id="edge7" class="edge">
        <title>mrs.application&#45;&gt;mrs.domain</title>
        <path fill="none" stroke="black" d="M572.5,-110.83C572.5,-110.83 572.5,-85.41 572.5,-85.41"/>
        <polygon fill="black" stroke="black" points="576,-85.41 572.5,-75.41 569,-85.41 576,-85.41"/>
    </g>
    <!-- org.springframework -->
    <g id="node5" class="node">
        <title>org.springframework</title>
        <polygon fill="lightgrey" stroke="black"
                 points="906.5,-75 774.5,-75 774.5,-71 770.5,-71 770.5,-67 774.5,-67 774.5,-47 770.5,-47 770.5,-43 774.5,-43 774.5,-39 906.5,-39 906.5,-75"/>
        <polyline fill="none" stroke="black" points="774.5,-71 778.5,-71 778.5,-67 774.5,-67 "/>
        <polyline fill="none" stroke="black" points="774.5,-47 778.5,-47 778.5,-43 774.5,-43 "/>
        <text text-anchor="middle" x="840.5" y="-53.3" font-family="Times,serif" font-size="14.00">org.springframework
        </text>
    </g>
    <!-- mrs.application&#45;&gt;org.springframework -->
    <g id="edge6" class="edge">
        <title>mrs.application&#45;&gt;org.springframework</title>
        <path fill="none" stroke="black"
              d="M742.01,-123C764.81,-123 782.5,-123 782.5,-123 782.5,-123 782.5,-85.03 782.5,-85.03"/>
        <polygon fill="black" stroke="black" points="786,-85.03 782.5,-75.03 779,-85.03 786,-85.03"/>
    </g>
    <!-- mrs.infrastructure -->
    <g id="node3" class="node">
        <title>mrs.infrastructure</title>
        <polygon fill="#eedd82" stroke="black"
                 points="520.5,-219 362.5,-219 362.5,-215 358.5,-215 358.5,-211 362.5,-211 362.5,-191 358.5,-191 358.5,-187 362.5,-187 362.5,-183 520.5,-183 520.5,-219"/>
        <polyline fill="none" stroke="black" points="362.5,-215 366.5,-215 366.5,-211 362.5,-211 "/>
        <polyline fill="none" stroke="black" points="362.5,-191 366.5,-191 366.5,-187 362.5,-187 "/>
        <text text-anchor="middle" x="441.5" y="-196" font-family="Times,serif" font-size="20.00">データソース層</text>
    </g>
    <!-- mrs.infrastructure&#45;&gt;mrs.application -->
    <g id="edge2" class="edge">
        <title>mrs.infrastructure&#45;&gt;mrs.application</title>
        <path fill="none" stroke="black"
              d="M501.62,-182.83C501.62,-161.5 501.62,-129 501.62,-129 501.62,-129 532.75,-129 532.75,-129"/>
        <polygon fill="black" stroke="black" points="532.75,-132.5 542.75,-129 532.75,-125.5 532.75,-132.5"/>
    </g>
    <!-- mrs.infrastructure&#45;&gt;mrs.domain -->
    <g id="edge8" class="edge">
        <title>mrs.infrastructure&#45;&gt;mrs.domain</title>
        <path fill="none" stroke="black" d="M482.75,-182.76C482.75,-182.76 482.75,-85.09 482.75,-85.09"/>
        <polygon fill="black" stroke="black" points="486.25,-85.09 482.75,-75.09 479.25,-85.09 486.25,-85.09"/>
    </g>
    <!-- mrs.infrastructure&#45;&gt;org.springframework -->
    <g id="edge1" class="edge">
        <title>mrs.infrastructure&#45;&gt;org.springframework</title>
        <path fill="none" stroke="black"
              d="M463.88,-182.58C463.88,-173.72 463.88,-165 463.88,-165 463.88,-165 790.5,-165 790.5,-165 790.5,-165 790.5,-85.32 790.5,-85.32"/>
        <polygon fill="black" stroke="black" points="794,-85.32 790.5,-75.32 787,-85.32 794,-85.32"/>
    </g>
    <!-- com.google -->
    <g id="node6" class="node">
        <title>com.google</title>
        <polygon fill="lightgrey" stroke="black"
                 points="81,-147 0,-147 0,-143 -4,-143 -4,-139 0,-139 0,-119 -4,-119 -4,-115 0,-115 0,-111 81,-111 81,-147"/>
        <polyline fill="none" stroke="black" points="0,-143 4,-143 4,-139 0,-139 "/>
        <polyline fill="none" stroke="black" points="0,-119 4,-119 4,-115 0,-115 "/>
        <text text-anchor="middle" x="40.5" y="-125.3" font-family="Times,serif" font-size="14.00">com.google</text>
    </g>
    <!-- mrs.infrastructure&#45;&gt;com.google -->
    <g id="edge3" class="edge">
        <title>mrs.infrastructure&#45;&gt;com.google</title>
        <path fill="none" stroke="black"
              d="M362.28,-210C245.41,-210 40.5,-210 40.5,-210 40.5,-210 40.5,-157.38 40.5,-157.38"/>
        <polygon fill="black" stroke="black" points="44,-157.38 40.5,-147.38 37,-157.38 44,-157.38"/>
    </g>
    <!-- springfox.documentation -->
    <g id="node8" class="node">
        <title>springfox.documentation</title>
        <polygon fill="lightgrey" stroke="black"
                 points="252,-147 99,-147 99,-143 95,-143 95,-139 99,-139 99,-119 95,-119 95,-115 99,-115 99,-111 252,-111 252,-147"/>
        <polyline fill="none" stroke="black" points="99,-143 103,-143 103,-139 99,-139 "/>
        <polyline fill="none" stroke="black" points="99,-119 103,-119 103,-115 99,-115 "/>
        <text text-anchor="middle" x="175.5" y="-125.3" font-family="Times,serif" font-size="14.00">
            springfox.documentation
        </text>
    </g>
    <!-- mrs.infrastructure&#45;&gt;springfox.documentation -->
    <g id="edge11" class="edge">
        <title>mrs.infrastructure&#45;&gt;springfox.documentation</title>
        <path fill="none" stroke="black"
              d="M362.41,-201C284,-201 175.5,-201 175.5,-201 175.5,-201 175.5,-157.17 175.5,-157.17"/>
        <polygon fill="black" stroke="black" points="179,-157.17 175.5,-147.17 172,-157.17 179,-157.17"/>
    </g>
    <!-- org.apache -->
    <g id="node9" class="node">
        <title>org.apache</title>
        <polygon fill="lightgrey" stroke="black"
                 points="346.5,-147 270.5,-147 270.5,-143 266.5,-143 266.5,-139 270.5,-139 270.5,-119 266.5,-119 266.5,-115 270.5,-115 270.5,-111 346.5,-111 346.5,-147"/>
        <polyline fill="none" stroke="black" points="270.5,-143 274.5,-143 274.5,-139 270.5,-139 "/>
        <polyline fill="none" stroke="black" points="270.5,-119 274.5,-119 274.5,-115 270.5,-115 "/>
        <text text-anchor="middle" x="308.5" y="-125.3" font-family="Times,serif" font-size="14.00">org.apache</text>
    </g>
    <!-- mrs.infrastructure&#45;&gt;org.apache -->
    <g id="edge13" class="edge">
        <title>mrs.infrastructure&#45;&gt;org.apache</title>
        <path fill="none" stroke="black"
              d="M362.21,-192C333.73,-192 308.5,-192 308.5,-192 308.5,-192 308.5,-157.22 308.5,-157.22"/>
        <polygon fill="black" stroke="black" points="312,-157.22 308.5,-147.22 305,-157.22 312,-157.22"/>
    </g>
    <!-- mrs.presentation -->
    <g id="node4" class="node">
        <title>mrs.presentation</title>
        <polygon fill="#eedd82" stroke="black"
                 points="758,-219 539,-219 539,-215 535,-215 535,-211 539,-211 539,-191 535,-191 535,-187 539,-187 539,-183 758,-183 758,-219"/>
        <polyline fill="none" stroke="black" points="539,-215 543,-215 543,-211 539,-211 "/>
        <polyline fill="none" stroke="black" points="539,-191 543,-191 543,-187 539,-187 "/>
        <text text-anchor="middle" x="648.5" y="-196" font-family="Times,serif" font-size="20.00">プレゼンテーション層</text>
    </g>
    <!-- mrs.presentation&#45;&gt;mrs.application -->
    <g id="edge4" class="edge">
        <title>mrs.presentation&#45;&gt;mrs.application</title>
        <path fill="none" stroke="black" d="M642.5,-182.83C642.5,-182.83 642.5,-157.41 642.5,-157.41"/>
        <polygon fill="black" stroke="black" points="646,-157.41 642.5,-147.41 639,-157.41 646,-157.41"/>
    </g>
    <!-- mrs.presentation&#45;&gt;mrs.domain -->
    <g id="edge9" class="edge">
        <title>mrs.presentation&#45;&gt;mrs.domain</title>
        <path fill="none" stroke="black"
              d="M538.68,-201C533.1,-201 529.75,-201 529.75,-201 529.75,-201 529.75,-85.24 529.75,-85.24"/>
        <polygon fill="black" stroke="black" points="533.25,-85.24 529.75,-75.24 526.25,-85.24 533.25,-85.24"/>
    </g>
    <!-- mrs.presentation&#45;&gt;org.springframework -->
    <g id="edge5" class="edge">
        <title>mrs.presentation&#45;&gt;org.springframework</title>
        <path fill="none" stroke="black" d="M750,-182.76C750,-144.01 750,-57 750,-57 750,-57 764.25,-57 764.25,-57"/>
        <polygon fill="black" stroke="black" points="764.25,-60.5 774.25,-57 764.25,-53.5 764.25,-60.5"/>
    </g>
    <!-- mrs -->
    <g id="node7" class="node">
        <title>mrs</title>
        <polygon fill="lightgrey" stroke="black"
                 points="852.5,-219 798.5,-219 798.5,-215 794.5,-215 794.5,-211 798.5,-211 798.5,-191 794.5,-191 794.5,-187 798.5,-187 798.5,-183 852.5,-183 852.5,-219"/>
        <polyline fill="none" stroke="black" points="798.5,-215 802.5,-215 802.5,-211 798.5,-211 "/>
        <polyline fill="none" stroke="black" points="798.5,-191 802.5,-191 802.5,-187 798.5,-187 "/>
        <text text-anchor="middle" x="825.5" y="-197.3" font-family="Times,serif" font-size="14.00">mrs</text>
    </g>
    <!-- mrs&#45;&gt;mrs.application -->
    <g id="edge12" class="edge">
        <title>mrs&#45;&gt;mrs.application</title>
        <path fill="none" stroke="black"
              d="M816.5,-182.97C816.5,-163.42 816.5,-135 816.5,-135 816.5,-135 752.2,-135 752.2,-135"/>
        <polygon fill="black" stroke="black" points="752.2,-131.5 742.2,-135 752.2,-138.5 752.2,-131.5"/>
    </g>
    <!-- mrs&#45;&gt;org.springframework -->
    <g id="edge10" class="edge">
        <title>mrs&#45;&gt;org.springframework</title>
        <path fill="none" stroke="black" d="M834.5,-182.76C834.5,-182.76 834.5,-85.09 834.5,-85.09"/>
        <polygon fill="black" stroke="black" points="838,-85.09 834.5,-75.09 831,-85.09 838,-85.09"/>
    </g>
</g>
</svg>
