<svg width="634px" height="190px"
 viewBox="0.00 0.00 634.00 190.00" xmlns="http://www.w3.org/2000/svg" xmlns:xlink="http://www.w3.org/1999/xlink">
<g id="graph0" class="graph" transform="scale(1.0 1.0) rotate(0) translate(4 186)">
<title>集中ビジネスルールツリー図</title>
<polygon fill="white" stroke="transparent" points="-4,4 -4,-186 630,-186 630,4 -4,4"/>
<text text-anchor="middle" x="313" y="-7.8" font-family="Times,serif" font-size="14.00">集中ビジネスルールツリー図</text>
<!-- mrs.domain.model.reservation.ReservableRoom -->
<g id="node1" class="node">
<title>mrs.domain.model.reservation.ReservableRoom</title>
<polygon fill="#eedd82" stroke="black" points="341,-130 117,-130 117,-89 341,-89 341,-130"/>
<text text-anchor="middle" x="229" y="-102" font-family="Times,serif" font-size="30.00">ReservableRoom</text>
</g>
<!-- mrs.domain.model.reservation.ReservableRoomId -->
<g id="node2" class="node">
<title>mrs.domain.model.reservation.ReservableRoomId</title>
<polygon fill="#eedd82" stroke="black" points="626,-182 377,-182 377,-141 626,-141 626,-182"/>
<text text-anchor="middle" x="501.5" y="-154" font-family="Times,serif" font-size="30.00">ReservableRoomId</text>
</g>
<!-- mrs.domain.model.reservation.ReservableRoom&#45;&gt;mrs.domain.model.reservation.ReservableRoomId -->
<g id="edge1" class="edge">
<title>mrs.domain.model.reservation.ReservableRoom&#45;&gt;mrs.domain.model.reservation.ReservableRoomId</title>
<path fill="none" stroke="black" d="M336.91,-130.05C352.17,-132.99 367.94,-136.02 383.39,-138.99"/>
<polygon fill="black" stroke="black" points="383,-142.48 393.48,-140.93 384.32,-135.6 383,-142.48"/>
</g>
<!-- mrs.domain.model.room.MeetingRoom -->
<g id="node4" class="node">
<title>mrs.domain.model.room.MeetingRoom</title>
<polygon fill="#eedd82" stroke="black" points="597,-123 406,-123 406,-82 597,-82 597,-123"/>
<text text-anchor="middle" x="501.5" y="-95" font-family="Times,serif" font-size="30.00">MeetingRoom</text>
</g>
<!-- mrs.domain.model.reservation.ReservableRoom&#45;&gt;mrs.domain.model.room.MeetingRoom -->
<g id="edge3" class="edge">
<title>mrs.domain.model.reservation.ReservableRoom&#45;&gt;mrs.domain.model.room.MeetingRoom</title>
<path fill="none" stroke="black" d="M341.19,-106.62C359.1,-106.16 377.59,-105.68 395.35,-105.22"/>
<polygon fill="black" stroke="black" points="395.8,-108.71 405.71,-104.95 395.62,-101.71 395.8,-108.71"/>
</g>
<!-- mrs.domain.model.reservation.Reservation -->
<g id="node3" class="node">
<title>mrs.domain.model.reservation.Reservation</title>
<polygon fill="lemonchiffon" stroke="black" points="81,-127.5 0,-127.5 0,-91.5 81,-91.5 81,-127.5"/>
<text text-anchor="middle" x="40.5" y="-105.8" font-family="Times,serif" font-size="14.00">Reservation</text>
</g>
<!-- mrs.domain.model.reservation.Reservation&#45;&gt;mrs.domain.model.reservation.ReservableRoom -->
<g id="edge5" class="edge">
<title>mrs.domain.model.reservation.Reservation&#45;&gt;mrs.domain.model.reservation.ReservableRoom</title>
<path fill="none" stroke="black" d="M81.05,-109.5C88.98,-109.5 97.7,-109.5 106.81,-109.5"/>
<polygon fill="black" stroke="black" points="106.83,-113 116.83,-109.5 106.83,-106 106.83,-113"/>
</g>
<!-- mrs.domain.model.reservation.Reservation&#45;&gt;mrs.domain.model.reservation.ReservableRoomId -->
<g id="edge2" class="edge">
<title>mrs.domain.model.reservation.Reservation&#45;&gt;mrs.domain.model.reservation.ReservableRoomId</title>
<path fill="none" stroke="black" d="M81.16,-127.35C92.52,-131.74 105.06,-135.91 117,-138.5 198.56,-156.17 292,-162.06 366.23,-163.47"/>
<polygon fill="black" stroke="black" points="366.51,-166.97 376.57,-163.63 366.63,-159.97 366.51,-166.97"/>
</g>
<!-- mrs.domain.model.user.User -->
<g id="node6" class="node">
<title>mrs.domain.model.user.User</title>
<polygon fill="#eedd82" stroke="black" points="266,-69 192,-69 192,-28 266,-28 266,-69"/>
<text text-anchor="middle" x="229" y="-41" font-family="Times,serif" font-size="30.00">User</text>
</g>
<!-- mrs.domain.model.reservation.Reservation&#45;&gt;mrs.domain.model.user.User -->
<g id="edge6" class="edge">
<title>mrs.domain.model.reservation.Reservation&#45;&gt;mrs.domain.model.user.User</title>
<path fill="none" stroke="black" d="M81.17,-92.82C92.64,-88.25 105.24,-83.47 117,-79.5 138.17,-72.36 161.98,-65.55 182.11,-60.15"/>
<polygon fill="black" stroke="black" points="183.2,-63.48 191.96,-57.53 181.4,-56.71 183.2,-63.48"/>
</g>
<!-- mrs.domain.model.user.RoleName -->
<g id="node5" class="node">
<title>mrs.domain.model.user.RoleName</title>
<polygon fill="#eedd82" stroke="black" points="574.5,-64 428.5,-64 428.5,-23 574.5,-23 574.5,-64"/>
<text text-anchor="middle" x="501.5" y="-36" font-family="Times,serif" font-size="30.00">RoleName</text>
</g>
<!-- mrs.domain.model.user.User&#45;&gt;mrs.domain.model.user.RoleName -->
<g id="edge4" class="edge">
<title>mrs.domain.model.user.User&#45;&gt;mrs.domain.model.user.RoleName</title>
<path fill="none" stroke="black" d="M266.2,-47.83C304.85,-47.12 367.4,-45.96 418.15,-45.02"/>
<polygon fill="black" stroke="black" points="418.53,-48.52 428.46,-44.83 418.4,-41.52 418.53,-48.52"/>
</g>
</g>
</svg>
