<svg width="798px" height="360px"
     viewBox="0.00 0.00 798.00 360.00" xmlns="http://www.w3.org/2000/svg">
    <g id="graph0" class="graph" transform="scale(1.0 1.0) rotate(0) translate(4 356)">
        <title>ビジネスルール関連図</title>
        <polygon fill="white" stroke="transparent" points="-4,4 -4,-356 794,-356 794,4 -4,4"/>
        <text text-anchor="middle" x="395" y="-7.8" font-family="Times,serif" font-size="14.00">ビジネスルール関連図</text>
        <g id="clust1" class="cluster">
            <title>cluster_mrs.domain.model.reservation</title>
            <polygon fill="lemonchiffon" stroke="#eedd82" stroke-width="2"
                     points="8,-105 8,-344 160,-344 160,-105 8,-105"/>
            <text text-anchor="middle" x="84" y="-328.8" font-family="Times,serif" font-size="14.00">reservation</text>
        </g>
        <g id="clust2" class="cluster">
            <title>cluster_mrs.domain.model.room</title>
            <polygon fill="lemonchiffon" stroke="#eedd82" stroke-width="2"
                     points="168,-31 168,-182 360,-182 360,-31 168,-31"/>
            <text text-anchor="middle" x="264" y="-166.8" font-family="Times,serif" font-size="14.00">room</text>
        </g>
        <g id="clust3" class="cluster">
            <title>cluster_mrs.domain.model.user</title>
            <polygon fill="lemonchiffon" stroke="#eedd82" stroke-width="2"
                     points="368,-105 368,-259 782,-259 782,-105 368,-105"/>
            <text text-anchor="middle" x="575" y="-243.8" font-family="Times,serif" font-size="14.00">user</text>
        </g>
        <g id="clust4" class="cluster">
            <title>cluster_mrs.domain.type.date</title>
            <polygon fill="lemonchiffon" stroke="#eedd82" stroke-width="2"
                     points="389,-267 389,-344 561,-344 561,-267 389,-267"/>
            <text text-anchor="middle" x="475" y="-328.8" font-family="Times,serif" font-size="14.00">date</text>
        </g>
        <!-- mrs.domain.model.reservation.ReservableRoom -->
        <g id="node1" class="node">
            <title>mrs.domain.model.reservation.ReservableRoom</title>
            <polygon fill="#eedd82" stroke="black" points="152,-228 36,-228 36,-190 152,-190 152,-228"/>
            <text text-anchor="middle" x="94" y="-212.8" font-family="Times,serif" font-size="14.00">予約可能会議室</text>
            <text text-anchor="middle" x="94" y="-197.8" font-family="Times,serif" font-size="14.00">ReservableRoom
            </text>
        </g>
        <!-- mrs.domain.model.reservation.ReservableRoomId -->
        <g id="node2" class="node">
            <title>mrs.domain.model.reservation.ReservableRoomId</title>
            <polygon fill="#eedd82" stroke="black" points="149.5,-151 18.5,-151 18.5,-113 149.5,-113 149.5,-151"/>
            <text text-anchor="middle" x="84" y="-135.8" font-family="Times,serif" font-size="14.00">予約可能会議室ID</text>
            <text text-anchor="middle" x="84" y="-120.8" font-family="Times,serif" font-size="14.00">ReservableRoomId
            </text>
        </g>
        <!-- mrs.domain.model.reservation.ReservableRoom&#45;&gt;mrs.domain.model.reservation.ReservableRoomId -->
        <g id="edge3" class="edge">
            <title>mrs.domain.model.reservation.ReservableRoom&#45;&gt;mrs.domain.model.reservation.ReservableRoomId
            </title>
            <path fill="none" stroke="black" d="M91.58,-189.84C90.43,-181.25 89.04,-170.79 87.76,-161.19"/>
            <polygon fill="black" stroke="black" points="91.22,-160.7 86.43,-151.25 84.29,-161.62 91.22,-160.7"/>
        </g>
        <!-- mrs.domain.model.room.MeetingRoom -->
        <g id="node4" class="node">
            <title>mrs.domain.model.room.MeetingRoom</title>
            <polygon fill="#eedd82" stroke="black" points="272,-151 176,-151 176,-113 272,-113 272,-151"/>
            <text text-anchor="middle" x="224" y="-135.8" font-family="Times,serif" font-size="14.00">会議室</text>
            <text text-anchor="middle" x="224" y="-120.8" font-family="Times,serif" font-size="14.00">MeetingRoom</text>
        </g>
        <!-- mrs.domain.model.reservation.ReservableRoom&#45;&gt;mrs.domain.model.room.MeetingRoom -->
        <g id="edge4" class="edge">
            <title>mrs.domain.model.reservation.ReservableRoom&#45;&gt;mrs.domain.model.room.MeetingRoom</title>
            <path fill="none" stroke="black"
                  d="M148.32,-189.87C153.73,-187.46 159.05,-184.84 164,-182 175.79,-175.25 187.61,-166.2 197.61,-157.71"/>
            <polygon fill="black" stroke="black" points="199.97,-160.3 205.2,-151.08 195.37,-155.02 199.97,-160.3"/>
        </g>
<!-- mrs.domain.model.reservation.Reservation -->
        <g id="node3" class="node">
            <title>mrs.domain.model.reservation.Reservation</title>
            <polygon fill="#eedd82" stroke="black" points="134.5,-313 53.5,-313 53.5,-275 134.5,-275 134.5,-313"/>
            <text text-anchor="middle" x="94" y="-297.8" font-family="Times,serif" font-size="14.00">予約</text>
            <text text-anchor="middle" x="94" y="-282.8" font-family="Times,serif" font-size="14.00">Reservation</text>
        </g>
<!-- mrs.domain.model.reservation.Reservation&#45;&gt;mrs.domain.model.reservation.ReservableRoom -->
        <g id="edge5" class="edge">
            <title>mrs.domain.model.reservation.Reservation&#45;&gt;mrs.domain.model.reservation.ReservableRoom</title>
            <path fill="none" stroke="black" d="M94,-274.99C94,-264.3 94,-250.5 94,-238.37"/>
            <polygon fill="black" stroke="black" points="97.5,-238.26 94,-228.26 90.5,-238.26 97.5,-238.26"/>
        </g>
        <!-- mrs.domain.model.reservation.Reservation&#45;&gt;mrs.domain.model.reservation.ReservableRoomId -->
        <g id="edge6" class="edge">
            <title>mrs.domain.model.reservation.Reservation&#45;&gt;mrs.domain.model.reservation.ReservableRoomId
            </title>
            <path fill="none" stroke="black"
                  d="M53.42,-281.1C43.02,-276.02 33.07,-268.89 27,-259 10.96,-232.87 15.26,-218.33 27,-190 32.07,-177.76 41.19,-166.77 50.67,-157.79"/>
            <polygon fill="black" stroke="black" points="53.12,-160.29 58.27,-151.03 48.47,-155.06 53.12,-160.29"/>
        </g>
        <!-- mrs.domain.model.user.User -->
        <g id="node10" class="node">
            <title>mrs.domain.model.user.User</title>
            <polygon fill="#eedd82" stroke="black" points="528,-228 454,-228 454,-190 528,-190 528,-228"/>
            <text text-anchor="middle" x="491" y="-212.8" font-family="Times,serif" font-size="14.00">ユーザー</text>
            <text text-anchor="middle" x="491" y="-197.8" font-family="Times,serif" font-size="14.00">User</text>
        </g>
        <!-- mrs.domain.model.reservation.Reservation&#45;&gt;mrs.domain.model.user.User -->
        <g id="edge7" class="edge">
            <title>mrs.domain.model.reservation.Reservation&#45;&gt;mrs.domain.model.user.User</title>
            <path fill="none" stroke="black" d="M134.62,-284.51C208.66,-269.03 365.19,-236.3 443.82,-219.86"/>
            <polygon fill="black" stroke="black" points="444.86,-223.22 453.93,-217.75 443.42,-216.37 444.86,-223.22"/>
        </g>
        <!-- mrs.domain.model.room.RoomId -->
        <g id="node5" class="node">
            <title>mrs.domain.model.room.RoomId</title>
            <polygon fill="#eedd82" stroke="black" points="250,-77 176,-77 176,-39 250,-39 250,-77"/>
            <text text-anchor="middle" x="213" y="-61.8" font-family="Times,serif" font-size="14.00">会議室ID</text>
            <text text-anchor="middle" x="213" y="-46.8" font-family="Times,serif" font-size="14.00">RoomId</text>
        </g>
        <!-- mrs.domain.model.room.MeetingRoom&#45;&gt;mrs.domain.model.room.RoomId -->
        <g id="edge1" class="edge">
            <title>mrs.domain.model.room.MeetingRoom&#45;&gt;mrs.domain.model.room.RoomId</title>
            <path fill="none" stroke="black" d="M221.22,-112.83C220.05,-105.13 218.65,-95.97 217.34,-87.42"/>
            <polygon fill="black" stroke="black" points="220.78,-86.77 215.81,-77.41 213.86,-87.83 220.78,-86.77"/>
        </g>
        <!-- mrs.domain.model.room.RoomName -->
        <g id="node6" class="node">
            <title>mrs.domain.model.room.RoomName</title>
            <polygon fill="#eedd82" stroke="black" points="351.5,-77 268.5,-77 268.5,-39 351.5,-39 351.5,-77"/>
            <text text-anchor="middle" x="310" y="-61.8" font-family="Times,serif" font-size="14.00">会議室名</text>
            <text text-anchor="middle" x="310" y="-46.8" font-family="Times,serif" font-size="14.00">RoomName</text>
        </g>
        <!-- mrs.domain.model.room.MeetingRoom&#45;&gt;mrs.domain.model.room.RoomName -->
        <g id="edge2" class="edge">
            <title>mrs.domain.model.room.MeetingRoom&#45;&gt;mrs.domain.model.room.RoomName</title>
            <path fill="none" stroke="black" d="M245.7,-112.83C256.19,-104.05 268.95,-93.37 280.32,-83.85"/>
            <polygon fill="black" stroke="black" points="282.88,-86.27 288.31,-77.16 278.39,-80.9 282.88,-86.27"/>
        </g>
        <!-- mrs.domain.model.user.Name -->
        <g id="node7" class="node">
            <title>mrs.domain.model.user.Name</title>
            <polygon fill="#eedd82" stroke="black" points="430,-151 376,-151 376,-113 430,-113 430,-151"/>
            <text text-anchor="middle" x="403" y="-135.8" font-family="Times,serif" font-size="14.00">氏名</text>
            <text text-anchor="middle" x="403" y="-120.8" font-family="Times,serif" font-size="14.00">Name</text>
        </g>
        <!-- mrs.domain.model.user.Password -->
        <g id="node8" class="node">
            <title>mrs.domain.model.user.Password</title>
            <polygon fill="#eedd82" stroke="black" points="534,-151 448,-151 448,-113 534,-113 534,-151"/>
            <text text-anchor="middle" x="491" y="-135.8" font-family="Times,serif" font-size="14.00">パスワード</text>
            <text text-anchor="middle" x="491" y="-120.8" font-family="Times,serif" font-size="14.00">Password</text>
        </g>
        <!-- mrs.domain.model.user.RoleName -->
        <g id="node9" class="node">
            <title>mrs.domain.model.user.RoleName</title>
            <polygon fill="#eedd82" stroke="black" points="668,-151 552,-151 552,-113 668,-113 668,-151"/>
            <text text-anchor="middle" x="610" y="-135.8" font-family="Times,serif" font-size="14.00">ユーザーの役割</text>
            <text text-anchor="middle" x="610" y="-120.8" font-family="Times,serif" font-size="14.00">RoleName</text>
        </g>
        <!-- mrs.domain.model.user.User&#45;&gt;mrs.domain.model.user.Name -->
        <g id="edge8" class="edge">
            <title>mrs.domain.model.user.User&#45;&gt;mrs.domain.model.user.Name</title>
            <path fill="none" stroke="black"
                  d="M453.83,-192.17C448.59,-189.17 443.48,-185.77 439,-182 431.61,-175.77 424.9,-167.73 419.33,-159.97"/>
            <polygon fill="black" stroke="black" points="422.06,-157.76 413.55,-151.44 416.27,-161.68 422.06,-157.76"/>
        </g>
        <!-- mrs.domain.model.user.User&#45;&gt;mrs.domain.model.user.Password -->
        <g id="edge9" class="edge">
            <title>mrs.domain.model.user.User&#45;&gt;mrs.domain.model.user.Password</title>
            <path fill="none" stroke="black" d="M491,-189.84C491,-181.34 491,-171.01 491,-161.5"/>
            <polygon fill="black" stroke="black" points="494.5,-161.25 491,-151.25 487.5,-161.25 494.5,-161.25"/>
        </g>
        <!-- mrs.domain.model.user.User&#45;&gt;mrs.domain.model.user.RoleName -->
        <g id="edge10" class="edge">
            <title>mrs.domain.model.user.User&#45;&gt;mrs.domain.model.user.RoleName</title>
            <path fill="none" stroke="black"
                  d="M528.06,-190.43C533.16,-187.74 538.26,-184.89 543,-182 555.16,-174.59 567.91,-165.6 578.99,-157.35"/>
            <polygon fill="black" stroke="black" points="581.23,-160.05 587.1,-151.23 577.01,-154.46 581.23,-160.05"/>
        </g>
        <!-- mrs.domain.model.user.UserId -->
        <g id="node11" class="node">
            <title>mrs.domain.model.user.UserId</title>
            <polygon fill="#eedd82" stroke="black" points="774,-151 686,-151 686,-113 774,-113 774,-151"/>
            <text text-anchor="middle" x="730" y="-135.8" font-family="Times,serif" font-size="14.00">ユーザーID</text>
            <text text-anchor="middle" x="730" y="-120.8" font-family="Times,serif" font-size="14.00">UserId</text>
        </g>
        <!-- mrs.domain.model.user.User&#45;&gt;mrs.domain.model.user.UserId -->
        <g id="edge11" class="edge">
            <title>mrs.domain.model.user.User&#45;&gt;mrs.domain.model.user.UserId</title>
            <path fill="none" stroke="black"
                  d="M528.14,-205.45C574.65,-201.79 651.37,-194.15 677,-182 688.68,-176.47 699.55,-167.44 708.37,-158.63"/>
            <polygon fill="black" stroke="black" points="710.92,-161.03 715.26,-151.37 705.84,-156.21 710.92,-161.03"/>
        </g>
        <!-- mrs.domain.type.date.CurrentDate -->
        <g id="node12" class="node">
            <title>mrs.domain.type.date.CurrentDate</title>
            <polygon fill="#eedd82" stroke="red" points="552.5,-313 469.5,-313 469.5,-275 552.5,-275 552.5,-313"/>
            <text text-anchor="middle" x="511" y="-297.8" font-family="Times,serif" font-size="14.00">現在日</text>
            <text text-anchor="middle" x="511" y="-282.8" font-family="Times,serif" font-size="14.00">CurrentDate</text>
        </g>
        <!-- mrs.domain.type.date.Days -->
        <g id="node13" class="node">
            <title>mrs.domain.type.date.Days</title>
            <polygon fill="#eedd82" stroke="red" points="451,-313 397,-313 397,-275 451,-275 451,-313"/>
            <text text-anchor="middle" x="424" y="-297.8" font-family="Times,serif" font-size="14.00">日数</text>
            <text text-anchor="middle" x="424" y="-282.8" font-family="Times,serif" font-size="14.00">Days</text>
        </g>
    </g>
</svg>
