<svg width="592px" height="171px"
     viewBox="0.00 0.00 592.00 171.00" xmlns="http://www.w3.org/2000/svg">
<g id="graph0" class="graph" transform="scale(1.0 1.0) rotate(0) translate(4 167)">
    <title>集中ビジネスルールツリー図</title>
    <polygon fill="white" stroke="transparent" points="-4,4 -4,-167 588,-167 588,4 -4,4"/>
    <text text-anchor="middle" x="292" y="-7.8" font-family="Times,serif" font-size="14.00">集中ビジネスルールツリー図</text>
    <!-- mrs.domain.model.reservation.ReservableRoom -->
    <g id="node1" class="node">
        <title>mrs.domain.model.reservation.ReservableRoom</title>
        <polygon fill="lemonchiffon" stroke="black" points="116,-163 0,-163 0,-125 116,-125 116,-163"/>
        <text text-anchor="middle" x="58" y="-147.8" font-family="Times,serif" font-size="14.00">予約可能会議室</text>
        <text text-anchor="middle" x="58" y="-132.8" font-family="Times,serif" font-size="14.00">ReservableRoom</text>
    </g>
    <!-- mrs.domain.model.reservation.ReservableRoomId -->
    <g id="node2" class="node">
        <title>mrs.domain.model.reservation.ReservableRoomId</title>
        <polygon fill="#eedd82" stroke="black" points="410,-153 152,-153 152,-79 410,-79 410,-153"/>
        <text text-anchor="middle" x="281" y="-125" font-family="Times,serif" font-size="30.00">予約可能会議室ID</text>
        <text text-anchor="middle" x="281" y="-92" font-family="Times,serif" font-size="30.00">ReservableRoomId</text>
    </g>
    <!-- mrs.domain.model.reservation.ReservableRoom&#45;&gt;mrs.domain.model.reservation.ReservableRoomId -->
    <g id="edge3" class="edge">
        <title>mrs.domain.model.reservation.ReservableRoom&#45;&gt;mrs.domain.model.reservation.ReservableRoomId</title>
        <path fill="none" stroke="black" d="M116.2,-136.75C124.28,-135.73 132.87,-134.64 141.71,-133.52"/>
        <polygon fill="black" stroke="black" points="142.3,-136.97 151.78,-132.24 141.42,-130.03 142.3,-136.97"/>
    </g>
    <!-- mrs.domain.model.room.RoomId -->
    <g id="node5" class="node">
        <title>mrs.domain.model.room.RoomId</title>
        <polygon fill="#eedd82" stroke="black" points="584,-116 446,-116 446,-42 584,-42 584,-116"/>
        <text text-anchor="middle" x="515" y="-88" font-family="Times,serif" font-size="30.00">会議室ID</text>
        <text text-anchor="middle" x="515" y="-55" font-family="Times,serif" font-size="30.00">RoomId</text>
    </g>
    <!-- mrs.domain.model.reservation.ReservableRoomId&#45;&gt;mrs.domain.model.room.RoomId -->
    <g id="edge1" class="edge">
        <title>mrs.domain.model.reservation.ReservableRoomId&#45;&gt;mrs.domain.model.room.RoomId</title>
        <path fill="none" stroke="black" d="M410.21,-95.55C418.93,-94.16 427.55,-92.79 435.89,-91.46"/>
        <polygon fill="black" stroke="black" points="436.57,-94.89 445.89,-89.86 435.46,-87.98 436.57,-94.89"/>
    </g>
    <!-- mrs.domain.model.reservation.Reservation -->
    <g id="node3" class="node">
        <title>mrs.domain.model.reservation.Reservation</title>
        <polygon fill="lemonchiffon" stroke="black" points="98.5,-107 17.5,-107 17.5,-69 98.5,-69 98.5,-107"/>
        <text text-anchor="middle" x="58" y="-91.8" font-family="Times,serif" font-size="14.00">予約</text>
        <text text-anchor="middle" x="58" y="-76.8" font-family="Times,serif" font-size="14.00">Reservation</text>
    </g>
    <!-- mrs.domain.model.reservation.Reservation&#45;&gt;mrs.domain.model.reservation.ReservableRoomId -->
    <g id="edge4" class="edge">
        <title>mrs.domain.model.reservation.Reservation&#45;&gt;mrs.domain.model.reservation.ReservableRoomId</title>
        <path fill="none" stroke="black" d="M98.51,-93.01C111.14,-94.61 125.91,-96.48 141.48,-98.45"/>
        <polygon fill="black" stroke="black" points="141.45,-101.97 151.81,-99.76 142.33,-95.03 141.45,-101.97"/>
    </g>
    <!-- mrs.domain.model.room.MeetingRoom -->
    <g id="node4" class="node">
        <title>mrs.domain.model.room.MeetingRoom</title>
        <polygon fill="lemonchiffon" stroke="black" points="329,-61 233,-61 233,-23 329,-23 329,-61"/>
        <text text-anchor="middle" x="281" y="-45.8" font-family="Times,serif" font-size="14.00">会議室</text>
        <text text-anchor="middle" x="281" y="-30.8" font-family="Times,serif" font-size="14.00">MeetingRoom</text>
    </g>
    <!-- mrs.domain.model.room.MeetingRoom&#45;&gt;mrs.domain.model.room.RoomId -->
    <g id="edge2" class="edge">
        <title>mrs.domain.model.room.MeetingRoom&#45;&gt;mrs.domain.model.room.RoomId</title>
        <path fill="none" stroke="black" d="M329.23,-49.53C359.74,-54.4 400.18,-60.85 435.44,-66.47"/>
        <polygon fill="black" stroke="black" points="435.3,-69.99 445.72,-68.11 436.4,-63.08 435.3,-69.99"/>
    </g>
</g>
</svg>
