<svg width="1048px" height="426px"
     viewBox="0.00 0.00 1048.00 426.00" xmlns="http://www.w3.org/2000/svg">
    <g id="graph0" class="graph" transform="scale(1.0 1.0) rotate(0) translate(4 422)">
        <title>ビジネスルール関連図</title>
        <polygon fill="white" stroke="transparent" points="-4,4 -4,-422 1044,-422 1044,4 -4,4"/>
        <text text-anchor="middle" x="520" y="-7.8" font-family="Times,serif" font-size="14.00">ビジネスルール関連図</text>
        <g id="clust1" class="cluster">
            <title>cluster_mrs.domain.model.reservation</title>
            <polygon fill="lemonchiffon" stroke="#eedd82" stroke-width="2"
                     points="8,-31 8,-410 450,-410 450,-31 8,-31"/>
            <text text-anchor="middle" x="229" y="-394.8" font-family="Times,serif" font-size="14.00">reservation</text>
        </g>
        <g id="clust2" class="cluster">
            <title>cluster_mrs.domain.model.room</title>
            <polygon fill="lemonchiffon" stroke="#eedd82" stroke-width="2"
                     points="458,-31 458,-182 650,-182 650,-31 458,-31"/>
            <text text-anchor="middle" x="554" y="-166.8" font-family="Times,serif" font-size="14.00">room</text>
        </g>
        <g id="clust3" class="cluster">
            <title>cluster_mrs.domain.model.user</title>
            <polygon fill="lemonchiffon" stroke="#eedd82" stroke-width="2"
                     points="658,-105 658,-259 1032,-259 1032,-105 658,-105"/>
            <text text-anchor="middle" x="845" y="-243.8" font-family="Times,serif" font-size="14.00">user</text>
        </g>
        <g id="clust4" class="cluster">
            <title>cluster_mrs.domain.type.date</title>
            <polygon fill="lemonchiffon" stroke="#eedd82" stroke-width="2"
                     points="659,-333 659,-410 831,-410 831,-333 659,-333"/>
            <text text-anchor="middle" x="745" y="-394.8" font-family="Times,serif" font-size="14.00">date</text>
        </g>
        <!-- mrs.domain.model.reservation.ReservableRoom -->
        <g id="node1" class="node">
            <title>mrs.domain.model.reservation.ReservableRoom</title>
            <polygon fill="#eedd82" stroke="black" points="442,-228 326,-228 326,-190 442,-190 442,-228"/>
            <text text-anchor="middle" x="384" y="-212.8" font-family="Times,serif" font-size="14.00">予約可能会議室</text>
            <text text-anchor="middle" x="384" y="-197.8" font-family="Times,serif" font-size="14.00">ReservableRoom
            </text>
        </g>
        <!-- mrs.domain.model.reservation.ReservableRoomId -->
        <g id="node2" class="node">
            <title>mrs.domain.model.reservation.ReservableRoomId</title>
            <polygon fill="#eedd82" stroke="black" points="439.5,-151 308.5,-151 308.5,-113 439.5,-113 439.5,-151"/>
            <text text-anchor="middle" x="374" y="-135.8" font-family="Times,serif" font-size="14.00">予約可能会議室ID</text>
            <text text-anchor="middle" x="374" y="-120.8" font-family="Times,serif" font-size="14.00">ReservableRoomId
            </text>
        </g>
        <!-- mrs.domain.model.reservation.ReservableRoom&#45;&gt;mrs.domain.model.reservation.ReservableRoomId -->
        <g id="edge4" class="edge">
            <title>mrs.domain.model.reservation.ReservableRoom&#45;&gt;mrs.domain.model.reservation.ReservableRoomId
            </title>
            <path fill="none" stroke="black" d="M381.58,-189.84C380.43,-181.25 379.04,-170.79 377.76,-161.19"/>
            <polygon fill="black" stroke="black" points="381.22,-160.7 376.43,-151.25 374.29,-161.62 381.22,-160.7"/>
        </g>
        <!-- mrs.domain.model.room.MeetingRoom -->
        <g id="node10" class="node">
            <title>mrs.domain.model.room.MeetingRoom</title>
            <polygon fill="#eedd82" stroke="black" points="562,-151 466,-151 466,-113 562,-113 562,-151"/>
            <text text-anchor="middle" x="514" y="-135.8" font-family="Times,serif" font-size="14.00">会議室</text>
            <text text-anchor="middle" x="514" y="-120.8" font-family="Times,serif" font-size="14.00">MeetingRoom</text>
        </g>
        <!-- mrs.domain.model.reservation.ReservableRoom&#45;&gt;mrs.domain.model.room.MeetingRoom -->
        <g id="edge5" class="edge">
            <title>mrs.domain.model.reservation.ReservableRoom&#45;&gt;mrs.domain.model.room.MeetingRoom</title>
            <path fill="none" stroke="black"
                  d="M438.32,-189.87C443.73,-187.46 449.05,-184.84 454,-182 465.79,-175.25 477.61,-166.2 487.61,-157.71"/>
            <polygon fill="black" stroke="black" points="489.97,-160.3 495.2,-151.08 485.37,-155.02 489.97,-160.3"/>
        </g>
        <!-- mrs.domain.model.reservation.ReservedDate -->
        <g id="node7" class="node">
            <title>mrs.domain.model.reservation.ReservedDate</title>
            <polygon fill="#eedd82" stroke="black" points="333,-77 241,-77 241,-39 333,-39 333,-77"/>
            <text text-anchor="middle" x="287" y="-61.8" font-family="Times,serif" font-size="14.00">予約日</text>
            <text text-anchor="middle" x="287" y="-46.8" font-family="Times,serif" font-size="14.00">ReservedDate</text>
        </g>
        <!-- mrs.domain.model.reservation.ReservableRoomId&#45;&gt;mrs.domain.model.reservation.ReservedDate -->
        <g id="edge8" class="edge">
            <title>mrs.domain.model.reservation.ReservableRoomId&#45;&gt;mrs.domain.model.reservation.ReservedDate
            </title>
            <path fill="none" stroke="black" d="M352.05,-112.83C341.33,-103.96 328.28,-93.16 316.69,-83.57"/>
            <polygon fill="black" stroke="black" points="318.88,-80.84 308.95,-77.16 314.42,-86.23 318.88,-80.84"/>
        </g>
        <!-- mrs.domain.model.room.RoomId -->
        <g id="node11" class="node">
            <title>mrs.domain.model.room.RoomId</title>
            <polygon fill="#eedd82" stroke="black" points="540,-77 466,-77 466,-39 540,-39 540,-77"/>
            <text text-anchor="middle" x="503" y="-61.8" font-family="Times,serif" font-size="14.00">会議室ID</text>
            <text text-anchor="middle" x="503" y="-46.8" font-family="Times,serif" font-size="14.00">RoomId</text>
        </g>
        <!-- mrs.domain.model.reservation.ReservableRoomId&#45;&gt;mrs.domain.model.room.RoomId -->
        <g id="edge9" class="edge">
            <title>mrs.domain.model.reservation.ReservableRoomId&#45;&gt;mrs.domain.model.room.RoomId</title>
            <path fill="none" stroke="black" d="M406.55,-112.83C423.2,-103.54 443.66,-92.12 461.44,-82.2"/>
            <polygon fill="black" stroke="black" points="463.43,-85.09 470.46,-77.16 460.02,-78.98 463.43,-85.09"/>
        </g>
        <!-- mrs.domain.model.reservation.ReservableRooms -->
        <g id="node3" class="node">
            <title>mrs.domain.model.reservation.ReservableRooms</title>
            <polygon fill="#eedd82" stroke="black" points="441.5,-305 296.5,-305 296.5,-267 441.5,-267 441.5,-305"/>
            <text text-anchor="middle" x="369" y="-289.8" font-family="Times,serif" font-size="14.00">予約可能会議室一覧</text>
            <text text-anchor="middle" x="369" y="-274.8" font-family="Times,serif" font-size="14.00">ReservableRooms
            </text>
        </g>
        <!-- mrs.domain.model.reservation.ReservableRooms&#45;&gt;mrs.domain.model.reservation.ReservableRoom -->
        <g id="edge3" class="edge">
            <title>mrs.domain.model.reservation.ReservableRooms&#45;&gt;mrs.domain.model.reservation.ReservableRoom
            </title>
            <path fill="none" stroke="black" d="M372.63,-266.84C374.35,-258.25 376.44,-247.79 378.36,-238.19"/>
            <polygon fill="black" stroke="black" points="381.82,-238.74 380.35,-228.25 374.96,-237.37 381.82,-238.74"/>
        </g>
        <!-- mrs.domain.model.reservation.Reservation -->
        <g id="node4" class="node">
            <title>mrs.domain.model.reservation.Reservation</title>
            <polygon fill="#eedd82" stroke="black" points="278.5,-305 197.5,-305 197.5,-267 278.5,-267 278.5,-305"/>
            <text text-anchor="middle" x="238" y="-289.8" font-family="Times,serif" font-size="14.00">予約</text>
            <text text-anchor="middle" x="238" y="-274.8" font-family="Times,serif" font-size="14.00">Reservation</text>
        </g>
        <!-- mrs.domain.model.reservation.Reservation&#45;&gt;mrs.domain.model.reservation.ReservableRoom -->
        <g id="edge10" class="edge">
            <title>mrs.domain.model.reservation.Reservation&#45;&gt;mrs.domain.model.reservation.ReservableRoom</title>
            <path fill="none" stroke="black"
                  d="M278.63,-270.28C281.8,-269.16 284.95,-268.06 288,-267 298.62,-263.32 301.92,-263.99 312,-259 326.09,-252.02 340.62,-242.63 352.9,-233.93"/>
            <polygon fill="black" stroke="black" points="354.96,-236.76 361.01,-228.06 350.86,-231.09 354.96,-236.76"/>
        </g>
        <!-- mrs.domain.model.reservation.Reservation&#45;&gt;mrs.domain.model.reservation.ReservableRoomId -->
        <g id="edge11" class="edge">
            <title>mrs.domain.model.reservation.Reservation&#45;&gt;mrs.domain.model.reservation.ReservableRoomId
            </title>
            <path fill="none" stroke="black"
                  d="M278.77,-269.77C283.65,-266.74 288.23,-263.17 292,-259 313.87,-234.8 299.49,-217.52 317,-190 324.35,-178.45 334.41,-167.4 344.03,-158.16"/>
            <polygon fill="black" stroke="black" points="346.63,-160.52 351.59,-151.16 341.88,-155.38 346.63,-160.52"/>
        </g>
<!-- mrs.domain.model.reservation.ReservationId -->
        <g id="node5" class="node">
            <title>mrs.domain.model.reservation.ReservationId</title>
            <polygon fill="#eedd82" stroke="black" points="108,-228 16,-228 16,-190 108,-190 108,-228"/>
            <text text-anchor="middle" x="62" y="-212.8" font-family="Times,serif" font-size="14.00">予約ID</text>
            <text text-anchor="middle" x="62" y="-197.8" font-family="Times,serif" font-size="14.00">ReservationId
            </text>
        </g>
        <!-- mrs.domain.model.reservation.Reservation&#45;&gt;mrs.domain.model.reservation.ReservationId -->
        <g id="edge12" class="edge">
            <title>mrs.domain.model.reservation.Reservation&#45;&gt;mrs.domain.model.reservation.ReservationId</title>
            <path fill="none" stroke="black"
                  d="M197.3,-281.53C172.96,-278.2 142,-271.69 117,-259 105.42,-253.12 94.37,-244.19 85.25,-235.56"/>
            <polygon fill="black" stroke="black" points="87.65,-233.01 78.08,-228.46 82.72,-237.98 87.65,-233.01"/>
        </g>
        <!-- mrs.domain.model.reservation.Reservation&#45;&gt;mrs.domain.model.reservation.ReservedDate -->
        <g id="edge13" class="edge">
            <title>mrs.domain.model.reservation.Reservation&#45;&gt;mrs.domain.model.reservation.ReservedDate</title>
            <path fill="none" stroke="black"
                  d="M259.65,-266.89C261.71,-264.42 263.56,-261.77 265,-259 293.86,-203.5 293.11,-127.78 290.05,-87.28"/>
            <polygon fill="black" stroke="black" points="293.52,-86.74 289.17,-77.08 286.54,-87.34 293.52,-86.74"/>
        </g>
        <!-- mrs.domain.model.reservation.ReservedDateTime -->
        <g id="node8" class="node">
            <title>mrs.domain.model.reservation.ReservedDateTime</title>
            <polygon fill="#eedd82" stroke="black" points="248,-228 126,-228 126,-190 248,-190 248,-228"/>
            <text text-anchor="middle" x="187" y="-212.8" font-family="Times,serif" font-size="14.00">予約日時</text>
            <text text-anchor="middle" x="187" y="-197.8" font-family="Times,serif" font-size="14.00">ReservedDateTime
            </text>
        </g>
        <!-- mrs.domain.model.reservation.Reservation&#45;&gt;mrs.domain.model.reservation.ReservedDateTime -->
        <g id="edge14" class="edge">
            <title>mrs.domain.model.reservation.Reservation&#45;&gt;mrs.domain.model.reservation.ReservedDateTime
            </title>
            <path fill="none" stroke="black" d="M225.65,-266.84C219.5,-257.79 211.93,-246.67 205.13,-236.67"/>
            <polygon fill="black" stroke="black" points="207.93,-234.55 199.41,-228.25 202.14,-238.49 207.93,-234.55"/>
        </g>
        <!-- mrs.domain.model.reservation.ReservedTime -->
        <g id="node9" class="node">
            <title>mrs.domain.model.reservation.ReservedTime</title>
            <polygon fill="#eedd82" stroke="black" points="268,-151 172,-151 172,-113 268,-113 268,-151"/>
            <text text-anchor="middle" x="220" y="-135.8" font-family="Times,serif" font-size="14.00">予約時間</text>
            <text text-anchor="middle" x="220" y="-120.8" font-family="Times,serif" font-size="14.00">ReservedTime
            </text>
        </g>
        <!-- mrs.domain.model.reservation.Reservation&#45;&gt;mrs.domain.model.reservation.ReservedTime -->
        <g id="edge15" class="edge">
            <title>mrs.domain.model.reservation.Reservation&#45;&gt;mrs.domain.model.reservation.ReservedTime</title>
            <path fill="none" stroke="black"
                  d="M253.42,-266.75C254.88,-264.27 256.13,-261.66 257,-259 266.52,-229.85 265.71,-219.4 257,-190 253.8,-179.2 247.84,-168.52 241.63,-159.39"/>
            <polygon fill="black" stroke="black" points="244.36,-157.2 235.67,-151.14 238.69,-161.3 244.36,-157.2"/>
        </g>
<!-- mrs.domain.model.user.User -->
        <g id="node16" class="node">
            <title>mrs.domain.model.user.User</title>
            <polygon fill="#eedd82" stroke="black" points="841,-228 767,-228 767,-190 841,-190 841,-228"/>
            <text text-anchor="middle" x="804" y="-212.8" font-family="Times,serif" font-size="14.00">ユーザー</text>
            <text text-anchor="middle" x="804" y="-197.8" font-family="Times,serif" font-size="14.00">User</text>
        </g>
<!-- mrs.domain.model.reservation.Reservation&#45;&gt;mrs.domain.model.user.User -->
        <g id="edge16" class="edge">
            <title>mrs.domain.model.reservation.Reservation&#45;&gt;mrs.domain.model.user.User</title>
            <path fill="none" stroke="black"
                  d="M278.65,-269.25C281.78,-268.38 284.92,-267.61 288,-267 360.44,-252.55 380.46,-265.91 454,-259 562.72,-248.79 689.44,-229.09 756.58,-218.04"/>
            <polygon fill="black" stroke="black" points="757.54,-221.42 766.84,-216.34 756.4,-214.52 757.54,-221.42"/>
        </g>
        <!-- mrs.domain.model.reservation.Reservations -->
        <g id="node6" class="node">
            <title>mrs.domain.model.reservation.Reservations</title>
            <polygon fill="#eedd82" stroke="black" points="281,-379 195,-379 195,-341 281,-341 281,-379"/>
            <text text-anchor="middle" x="238" y="-363.8" font-family="Times,serif" font-size="14.00">予約一覧</text>
            <text text-anchor="middle" x="238" y="-348.8" font-family="Times,serif" font-size="14.00">Reservations
            </text>
        </g>
        <!-- mrs.domain.model.reservation.Reservations&#45;&gt;mrs.domain.model.reservation.Reservation -->
        <g id="edge17" class="edge">
            <title>mrs.domain.model.reservation.Reservations&#45;&gt;mrs.domain.model.reservation.Reservation</title>
            <path fill="none" stroke="black" d="M238,-340.83C238,-333.13 238,-323.97 238,-315.42"/>
            <polygon fill="black" stroke="black" points="241.5,-315.41 238,-305.41 234.5,-315.41 241.5,-315.41"/>
        </g>
        <!-- mrs.domain.model.reservation.ReservedDateTime&#45;&gt;mrs.domain.model.reservation.ReservedDate -->
        <g id="edge6" class="edge">
            <title>mrs.domain.model.reservation.ReservedDateTime&#45;&gt;mrs.domain.model.reservation.ReservedDate
            </title>
            <path fill="none" stroke="black"
                  d="M167.34,-189.84C165.59,-187.38 164.07,-184.75 163,-182 150.54,-150.13 143.46,-133.09 163,-105 178.4,-82.87 205.75,-71.36 230.86,-65.39"/>
            <polygon fill="black" stroke="black" points="231.66,-68.8 240.71,-63.29 230.2,-61.95 231.66,-68.8"/>
        </g>
        <!-- mrs.domain.model.reservation.ReservedDateTime&#45;&gt;mrs.domain.model.reservation.ReservedTime -->
        <g id="edge7" class="edge">
            <title>mrs.domain.model.reservation.ReservedDateTime&#45;&gt;mrs.domain.model.reservation.ReservedTime
            </title>
            <path fill="none" stroke="black" d="M194.99,-189.84C198.85,-181.07 203.57,-170.34 207.87,-160.58"/>
            <polygon fill="black" stroke="black" points="211.15,-161.81 211.97,-151.25 204.74,-158.99 211.15,-161.81"/>
        </g>
        <!-- mrs.domain.model.room.MeetingRoom&#45;&gt;mrs.domain.model.room.RoomId -->
        <g id="edge1" class="edge">
            <title>mrs.domain.model.room.MeetingRoom&#45;&gt;mrs.domain.model.room.RoomId</title>
            <path fill="none" stroke="black" d="M511.22,-112.83C510.05,-105.13 508.65,-95.97 507.34,-87.42"/>
            <polygon fill="black" stroke="black" points="510.78,-86.77 505.81,-77.41 503.86,-87.83 510.78,-86.77"/>
        </g>
        <!-- mrs.domain.model.room.RoomName -->
        <g id="node12" class="node">
            <title>mrs.domain.model.room.RoomName</title>
            <polygon fill="#eedd82" stroke="black" points="641.5,-77 558.5,-77 558.5,-39 641.5,-39 641.5,-77"/>
            <text text-anchor="middle" x="600" y="-61.8" font-family="Times,serif" font-size="14.00">会議室名</text>
            <text text-anchor="middle" x="600" y="-46.8" font-family="Times,serif" font-size="14.00">RoomName</text>
        </g>
<!-- mrs.domain.model.room.MeetingRoom&#45;&gt;mrs.domain.model.room.RoomName -->
        <g id="edge2" class="edge">
            <title>mrs.domain.model.room.MeetingRoom&#45;&gt;mrs.domain.model.room.RoomName</title>
            <path fill="none" stroke="black" d="M535.7,-112.83C546.19,-104.05 558.95,-93.37 570.32,-83.85"/>
            <polygon fill="black" stroke="black" points="572.88,-86.27 578.31,-77.16 568.39,-80.9 572.88,-86.27"/>
        </g>
        <!-- mrs.domain.model.user.Name -->
        <g id="node13" class="node">
            <title>mrs.domain.model.user.Name</title>
            <polygon fill="#eedd82" stroke="black" points="920,-151 866,-151 866,-113 920,-113 920,-151"/>
            <text text-anchor="middle" x="893" y="-135.8" font-family="Times,serif" font-size="14.00">氏名</text>
            <text text-anchor="middle" x="893" y="-120.8" font-family="Times,serif" font-size="14.00">Name</text>
        </g>
        <!-- mrs.domain.model.user.Password -->
        <g id="node14" class="node">
            <title>mrs.domain.model.user.Password</title>
            <polygon fill="#eedd82" stroke="black" points="1024,-151 938,-151 938,-113 1024,-113 1024,-151"/>
            <text text-anchor="middle" x="981" y="-135.8" font-family="Times,serif" font-size="14.00">パスワード</text>
            <text text-anchor="middle" x="981" y="-120.8" font-family="Times,serif" font-size="14.00">Password</text>
        </g>
        <!-- mrs.domain.model.user.RoleName -->
        <g id="node15" class="node">
            <title>mrs.domain.model.user.RoleName</title>
            <polygon fill="#eedd82" stroke="black" points="741.5,-151 666.5,-151 666.5,-113 741.5,-113 741.5,-151"/>
            <text text-anchor="middle" x="704" y="-135.8" font-family="Times,serif" font-size="14.00">役割</text>
            <text text-anchor="middle" x="704" y="-120.8" font-family="Times,serif" font-size="14.00">RoleName</text>
        </g>
        <!-- mrs.domain.model.user.User&#45;&gt;mrs.domain.model.user.Name -->
        <g id="edge18" class="edge">
            <title>mrs.domain.model.user.User&#45;&gt;mrs.domain.model.user.Name</title>
            <path fill="none" stroke="black"
                  d="M841.06,-192.71C846.69,-189.59 852.2,-186.01 857,-182 864.41,-175.8 871.13,-167.77 876.7,-160.01"/>
            <polygon fill="black" stroke="black" points="879.76,-161.72 882.47,-151.47 873.97,-157.79 879.76,-161.72"/>
        </g>
        <!-- mrs.domain.model.user.User&#45;&gt;mrs.domain.model.user.Password -->
        <g id="edge19" class="edge">
            <title>mrs.domain.model.user.User&#45;&gt;mrs.domain.model.user.Password</title>
            <path fill="none" stroke="black"
                  d="M841.06,-205.63C866.92,-202.73 901.58,-196.29 929,-182 940.23,-176.15 950.77,-167.17 959.39,-158.49"/>
            <polygon fill="black" stroke="black" points="962.12,-160.7 966.44,-151.03 957.03,-155.9 962.12,-160.7"/>
        </g>
        <!-- mrs.domain.model.user.User&#45;&gt;mrs.domain.model.user.RoleName -->
        <g id="edge20" class="edge">
            <title>mrs.domain.model.user.User&#45;&gt;mrs.domain.model.user.RoleName</title>
            <path fill="none" stroke="black"
                  d="M766.82,-191.85C761.33,-188.87 755.88,-185.57 751,-182 742.01,-175.43 733.25,-167.03 725.78,-159.05"/>
            <polygon fill="black" stroke="black" points="728.07,-156.37 718.77,-151.29 722.88,-161.06 728.07,-156.37"/>
        </g>
        <!-- mrs.domain.model.user.UserId -->
        <g id="node17" class="node">
            <title>mrs.domain.model.user.UserId</title>
            <polygon fill="#eedd82" stroke="black" points="848,-151 760,-151 760,-113 848,-113 848,-151"/>
            <text text-anchor="middle" x="804" y="-135.8" font-family="Times,serif" font-size="14.00">ユーザーID</text>
            <text text-anchor="middle" x="804" y="-120.8" font-family="Times,serif" font-size="14.00">UserId</text>
        </g>
        <!-- mrs.domain.model.user.User&#45;&gt;mrs.domain.model.user.UserId -->
        <g id="edge21" class="edge">
            <title>mrs.domain.model.user.User&#45;&gt;mrs.domain.model.user.UserId</title>
            <path fill="none" stroke="black" d="M804,-189.84C804,-181.34 804,-171.01 804,-161.5"/>
            <polygon fill="black" stroke="black" points="807.5,-161.25 804,-151.25 800.5,-161.25 807.5,-161.25"/>
        </g>
        <!-- mrs.domain.type.date.CurrentDate -->
        <g id="node18" class="node">
            <title>mrs.domain.type.date.CurrentDate</title>
            <polygon fill="#eedd82" stroke="red" points="822.5,-379 739.5,-379 739.5,-341 822.5,-341 822.5,-379"/>
            <text text-anchor="middle" x="781" y="-363.8" font-family="Times,serif" font-size="14.00">現在日</text>
            <text text-anchor="middle" x="781" y="-348.8" font-family="Times,serif" font-size="14.00">CurrentDate</text>
        </g>
        <!-- mrs.domain.type.date.Days -->
        <g id="node19" class="node">
            <title>mrs.domain.type.date.Days</title>
            <polygon fill="#eedd82" stroke="red" points="721,-379 667,-379 667,-341 721,-341 721,-379"/>
            <text text-anchor="middle" x="694" y="-363.8" font-family="Times,serif" font-size="14.00">日数</text>
            <text text-anchor="middle" x="694" y="-348.8" font-family="Times,serif" font-size="14.00">Days</text>
        </g>
    </g>
</svg>
