<svg width="1022px" height="360px"
     viewBox="0.00 0.00 1022.00 360.00" xmlns="http://www.w3.org/2000/svg">
<g id="graph0" class="graph" transform="scale(1.0 1.0) rotate(0) translate(4 356)">
    <title>ビジネスルール関連図</title>
    <polygon fill="white" stroke="transparent" points="-4,4 -4,-356 1018,-356 1018,4 -4,4"/>
    <text text-anchor="middle" x="507" y="-7.8" font-family="Times,serif" font-size="14.00">ビジネスルール関連図</text>
    <g id="clust1" class="cluster">
        <title>cluster_mrs.domain.model.reservation</title>
        <polygon fill="lemonchiffon" stroke="#eedd82" stroke-width="2" points="8,-31 8,-344 384,-344 384,-31 8,-31"/>
        <text text-anchor="middle" x="196" y="-328.8" font-family="Times,serif" font-size="14.00">reservation</text>
    </g>
    <g id="clust2" class="cluster">
        <title>cluster_mrs.domain.model.room</title>
        <polygon fill="lemonchiffon" stroke="#eedd82" stroke-width="2"
                 points="392,-31 392,-182 584,-182 584,-31 392,-31"/>
        <text text-anchor="middle" x="488" y="-166.8" font-family="Times,serif" font-size="14.00">room</text>
    </g>
    <g id="clust3" class="cluster">
        <title>cluster_mrs.domain.model.user</title>
        <polygon fill="lemonchiffon" stroke="#eedd82" stroke-width="2"
                 points="592,-105 592,-259 1006,-259 1006,-105 592,-105"/>
        <text text-anchor="middle" x="799" y="-243.8" font-family="Times,serif" font-size="14.00">user</text>
    </g>
    <g id="clust4" class="cluster">
        <title>cluster_mrs.domain.type.date</title>
        <polygon fill="lemonchiffon" stroke="#eedd82" stroke-width="2"
                 points="613,-267 613,-344 785,-344 785,-267 613,-267"/>
        <text text-anchor="middle" x="699" y="-328.8" font-family="Times,serif" font-size="14.00">date</text>
    </g>
    <!-- mrs.domain.model.reservation.ReservableRoom -->
    <g id="node1" class="node">
        <title>mrs.domain.model.reservation.ReservableRoom</title>
        <polygon fill="#eedd82" stroke="black" points="376,-228 260,-228 260,-190 376,-190 376,-228"/>
        <text text-anchor="middle" x="318" y="-212.8" font-family="Times,serif" font-size="14.00">予約可能会議室</text>
        <text text-anchor="middle" x="318" y="-197.8" font-family="Times,serif" font-size="14.00">ReservableRoom</text>
    </g>
    <!-- mrs.domain.model.reservation.ReservableRoomId -->
    <g id="node2" class="node">
        <title>mrs.domain.model.reservation.ReservableRoomId</title>
        <polygon fill="#eedd82" stroke="black" points="375.5,-151 244.5,-151 244.5,-113 375.5,-113 375.5,-151"/>
        <text text-anchor="middle" x="310" y="-135.8" font-family="Times,serif" font-size="14.00">予約可能会議室ID</text>
        <text text-anchor="middle" x="310" y="-120.8" font-family="Times,serif" font-size="14.00">ReservableRoomId
        </text>
    </g>
    <!-- mrs.domain.model.reservation.ReservableRoom&#45;&gt;mrs.domain.model.reservation.ReservableRoomId -->
    <g id="edge4" class="edge">
        <title>mrs.domain.model.reservation.ReservableRoom&#45;&gt;mrs.domain.model.reservation.ReservableRoomId</title>
        <path fill="none" stroke="black" d="M316.06,-189.84C315.16,-181.34 314.05,-171.01 313.04,-161.5"/>
        <polygon fill="black" stroke="black" points="316.49,-160.82 311.95,-151.25 309.53,-161.56 316.49,-160.82"/>
    </g>
    <!-- mrs.domain.model.room.MeetingRoom -->
    <g id="node8" class="node">
        <title>mrs.domain.model.room.MeetingRoom</title>
        <polygon fill="#eedd82" stroke="black" points="496,-151 400,-151 400,-113 496,-113 496,-151"/>
        <text text-anchor="middle" x="448" y="-135.8" font-family="Times,serif" font-size="14.00">会議室</text>
        <text text-anchor="middle" x="448" y="-120.8" font-family="Times,serif" font-size="14.00">MeetingRoom</text>
    </g>
    <!-- mrs.domain.model.reservation.ReservableRoom&#45;&gt;mrs.domain.model.room.MeetingRoom -->
    <g id="edge5" class="edge">
        <title>mrs.domain.model.reservation.ReservableRoom&#45;&gt;mrs.domain.model.room.MeetingRoom</title>
        <path fill="none" stroke="black"
              d="M372.32,-189.87C377.73,-187.46 383.05,-184.84 388,-182 399.79,-175.25 411.61,-166.2 421.61,-157.71"/>
        <polygon fill="black" stroke="black" points="423.97,-160.3 429.2,-151.08 419.37,-155.02 423.97,-160.3"/>
    </g>
    <!-- mrs.domain.model.reservation.ReservedDate -->
    <g id="node6" class="node">
        <title>mrs.domain.model.reservation.ReservedDate</title>
        <polygon fill="#eedd82" stroke="black" points="356,-77 264,-77 264,-39 356,-39 356,-77"/>
        <text text-anchor="middle" x="310" y="-61.8" font-family="Times,serif" font-size="14.00">予約日</text>
        <text text-anchor="middle" x="310" y="-46.8" font-family="Times,serif" font-size="14.00">ReservedDate</text>
    </g>
    <!-- mrs.domain.model.reservation.ReservableRoomId&#45;&gt;mrs.domain.model.reservation.ReservedDate -->
    <g id="edge6" class="edge">
        <title>mrs.domain.model.reservation.ReservableRoomId&#45;&gt;mrs.domain.model.reservation.ReservedDate</title>
        <path fill="none" stroke="black" d="M310,-112.83C310,-105.13 310,-95.97 310,-87.42"/>
        <polygon fill="black" stroke="black" points="313.5,-87.41 310,-77.41 306.5,-87.41 313.5,-87.41"/>
    </g>
    <!-- mrs.domain.model.room.RoomId -->
    <g id="node9" class="node">
        <title>mrs.domain.model.room.RoomId</title>
        <polygon fill="#eedd82" stroke="black" points="474,-77 400,-77 400,-39 474,-39 474,-77"/>
        <text text-anchor="middle" x="437" y="-61.8" font-family="Times,serif" font-size="14.00">会議室ID</text>
        <text text-anchor="middle" x="437" y="-46.8" font-family="Times,serif" font-size="14.00">RoomId</text>
    </g>
    <!-- mrs.domain.model.reservation.ReservableRoomId&#45;&gt;mrs.domain.model.room.RoomId -->
    <g id="edge7" class="edge">
        <title>mrs.domain.model.reservation.ReservableRoomId&#45;&gt;mrs.domain.model.room.RoomId</title>
        <path fill="none" stroke="black" d="M342.05,-112.83C358.44,-103.54 378.58,-92.12 396.08,-82.2"/>
        <polygon fill="black" stroke="black" points="397.99,-85.14 404.96,-77.16 394.54,-79.05 397.99,-85.14"/>
    </g>
    <!-- mrs.domain.model.reservation.ReservableRooms -->
    <g id="node3" class="node">
        <title>mrs.domain.model.reservation.ReservableRooms</title>
        <polygon fill="#eedd82" stroke="black" points="376,-313 174,-313 174,-275 376,-275 376,-313"/>
        <text text-anchor="middle" x="275" y="-297.8" font-family="Times,serif" font-size="14.00">予約可能会議室コレクション</text>
        <text text-anchor="middle" x="275" y="-282.8" font-family="Times,serif" font-size="14.00">ReservableRooms</text>
    </g>
    <!-- mrs.domain.model.reservation.ReservableRooms&#45;&gt;mrs.domain.model.reservation.ReservableRoom -->
    <g id="edge3" class="edge">
        <title>mrs.domain.model.reservation.ReservableRooms&#45;&gt;mrs.domain.model.reservation.ReservableRoom</title>
        <path fill="none" stroke="black" d="M284.33,-274.99C290.04,-263.97 297.45,-249.66 303.87,-237.27"/>
        <polygon fill="black" stroke="black" points="307.05,-238.75 308.54,-228.26 300.83,-235.53 307.05,-238.75"/>
    </g>
    <!-- mrs.domain.model.reservation.Reservation -->
    <g id="node4" class="node">
        <title>mrs.domain.model.reservation.Reservation</title>
        <polygon fill="#eedd82" stroke="black" points="155.5,-313 74.5,-313 74.5,-275 155.5,-275 155.5,-313"/>
        <text text-anchor="middle" x="115" y="-297.8" font-family="Times,serif" font-size="14.00">予約</text>
        <text text-anchor="middle" x="115" y="-282.8" font-family="Times,serif" font-size="14.00">Reservation</text>
    </g>
    <!-- mrs.domain.model.reservation.Reservation&#45;&gt;mrs.domain.model.reservation.ReservableRoom -->
    <g id="edge8" class="edge">
        <title>mrs.domain.model.reservation.Reservation&#45;&gt;mrs.domain.model.reservation.ReservableRoom</title>
        <path fill="none" stroke="black"
              d="M145.15,-274.96C151.52,-271.83 158.34,-268.96 165,-267 201.83,-256.17 215.1,-272.6 251,-259 265.53,-253.5 279.71,-243.93 291.25,-234.71"/>
        <polygon fill="black" stroke="black" points="293.72,-237.21 299.16,-228.12 289.24,-231.83 293.72,-237.21"/>
    </g>
    <!-- mrs.domain.model.reservation.Reservation&#45;&gt;mrs.domain.model.reservation.ReservableRoomId -->
    <g id="edge9" class="edge">
        <title>mrs.domain.model.reservation.Reservation&#45;&gt;mrs.domain.model.reservation.ReservableRoomId</title>
        <path fill="none" stroke="black"
              d="M74.47,-287.68C56.82,-283.12 37.74,-274.67 27,-259 9.66,-233.71 7.57,-213.73 27,-190 52.74,-158.56 159.38,-144.08 234.13,-137.69"/>
        <polygon fill="black" stroke="black" points="234.77,-141.15 244.45,-136.84 234.2,-134.17 234.77,-141.15"/>
    </g>
    <!-- mrs.domain.model.reservation.ReservationId -->
    <g id="node5" class="node">
        <title>mrs.domain.model.reservation.ReservationId</title>
        <polygon fill="#eedd82" stroke="black" points="128,-228 36,-228 36,-190 128,-190 128,-228"/>
        <text text-anchor="middle" x="82" y="-212.8" font-family="Times,serif" font-size="14.00">予約ID</text>
        <text text-anchor="middle" x="82" y="-197.8" font-family="Times,serif" font-size="14.00">ReservationId</text>
    </g>
    <!-- mrs.domain.model.reservation.Reservation&#45;&gt;mrs.domain.model.reservation.ReservationId -->
    <g id="edge10" class="edge">
        <title>mrs.domain.model.reservation.Reservation&#45;&gt;mrs.domain.model.reservation.ReservationId</title>
        <path fill="none" stroke="black" d="M107.84,-274.99C103.5,-264.08 97.88,-249.94 92.99,-237.64"/>
        <polygon fill="black" stroke="black" points="96.21,-236.26 89.26,-228.26 89.7,-238.85 96.21,-236.26"/>
    </g>
    <!-- mrs.domain.model.reservation.ReservedTime -->
    <g id="node7" class="node">
        <title>mrs.domain.model.reservation.ReservedTime</title>
        <polygon fill="#eedd82" stroke="black" points="242,-228 146,-228 146,-190 242,-190 242,-228"/>
        <text text-anchor="middle" x="194" y="-212.8" font-family="Times,serif" font-size="14.00">予約時間</text>
        <text text-anchor="middle" x="194" y="-197.8" font-family="Times,serif" font-size="14.00">ReservedTime</text>
    </g>
    <!-- mrs.domain.model.reservation.Reservation&#45;&gt;mrs.domain.model.reservation.ReservedTime -->
    <g id="edge11" class="edge">
        <title>mrs.domain.model.reservation.Reservation&#45;&gt;mrs.domain.model.reservation.ReservedTime</title>
        <path fill="none" stroke="black" d="M132.14,-274.99C143.04,-263.54 157.32,-248.53 169.42,-235.82"/>
        <polygon fill="black" stroke="black" points="172.26,-237.92 176.62,-228.26 167.19,-233.09 172.26,-237.92"/>
    </g>
    <!-- mrs.domain.model.user.User -->
    <g id="node14" class="node">
        <title>mrs.domain.model.user.User</title>
        <polygon fill="#eedd82" stroke="black" points="752,-228 678,-228 678,-190 752,-190 752,-228"/>
        <text text-anchor="middle" x="715" y="-212.8" font-family="Times,serif" font-size="14.00">ユーザー</text>
        <text text-anchor="middle" x="715" y="-197.8" font-family="Times,serif" font-size="14.00">User</text>
    </g>
    <!-- mrs.domain.model.reservation.Reservation&#45;&gt;mrs.domain.model.user.User -->
    <g id="edge12" class="edge">
        <title>mrs.domain.model.reservation.Reservation&#45;&gt;mrs.domain.model.user.User</title>
        <path fill="none" stroke="black"
              d="M144.53,-274.93C151.06,-271.72 158.09,-268.82 165,-267 212.95,-254.36 338.62,-263.57 388,-259 488.17,-249.73 604.43,-230.19 667.81,-218.78"/>
        <polygon fill="black" stroke="black" points="668.68,-222.18 677.9,-216.96 667.43,-215.3 668.68,-222.18"/>
    </g>
    <!-- mrs.domain.model.room.MeetingRoom&#45;&gt;mrs.domain.model.room.RoomId -->
    <g id="edge1" class="edge">
        <title>mrs.domain.model.room.MeetingRoom&#45;&gt;mrs.domain.model.room.RoomId</title>
        <path fill="none" stroke="black" d="M445.22,-112.83C444.05,-105.13 442.65,-95.97 441.34,-87.42"/>
        <polygon fill="black" stroke="black" points="444.78,-86.77 439.81,-77.41 437.86,-87.83 444.78,-86.77"/>
    </g>
    <!-- mrs.domain.model.room.RoomName -->
    <g id="node10" class="node">
        <title>mrs.domain.model.room.RoomName</title>
        <polygon fill="#eedd82" stroke="black" points="575.5,-77 492.5,-77 492.5,-39 575.5,-39 575.5,-77"/>
        <text text-anchor="middle" x="534" y="-61.8" font-family="Times,serif" font-size="14.00">会議室名</text>
        <text text-anchor="middle" x="534" y="-46.8" font-family="Times,serif" font-size="14.00">RoomName</text>
    </g>
    <!-- mrs.domain.model.room.MeetingRoom&#45;&gt;mrs.domain.model.room.RoomName -->
    <g id="edge2" class="edge">
        <title>mrs.domain.model.room.MeetingRoom&#45;&gt;mrs.domain.model.room.RoomName</title>
        <path fill="none" stroke="black" d="M469.7,-112.83C480.19,-104.05 492.95,-93.37 504.32,-83.85"/>
        <polygon fill="black" stroke="black" points="506.88,-86.27 512.31,-77.16 502.39,-80.9 506.88,-86.27"/>
    </g>
    <!-- mrs.domain.model.user.Name -->
    <g id="node11" class="node">
        <title>mrs.domain.model.user.Name</title>
        <polygon fill="#eedd82" stroke="black" points="654,-151 600,-151 600,-113 654,-113 654,-151"/>
        <text text-anchor="middle" x="627" y="-135.8" font-family="Times,serif" font-size="14.00">氏名</text>
        <text text-anchor="middle" x="627" y="-120.8" font-family="Times,serif" font-size="14.00">Name</text>
    </g>
    <!-- mrs.domain.model.user.Password -->
    <g id="node12" class="node">
        <title>mrs.domain.model.user.Password</title>
        <polygon fill="#eedd82" stroke="black" points="758,-151 672,-151 672,-113 758,-113 758,-151"/>
        <text text-anchor="middle" x="715" y="-135.8" font-family="Times,serif" font-size="14.00">パスワード</text>
        <text text-anchor="middle" x="715" y="-120.8" font-family="Times,serif" font-size="14.00">Password</text>
    </g>
    <!-- mrs.domain.model.user.RoleName -->
    <g id="node13" class="node">
        <title>mrs.domain.model.user.RoleName</title>
        <polygon fill="#eedd82" stroke="black" points="892,-151 776,-151 776,-113 892,-113 892,-151"/>
        <text text-anchor="middle" x="834" y="-135.8" font-family="Times,serif" font-size="14.00">ユーザーの役割</text>
        <text text-anchor="middle" x="834" y="-120.8" font-family="Times,serif" font-size="14.00">RoleName</text>
    </g>
    <!-- mrs.domain.model.user.User&#45;&gt;mrs.domain.model.user.Name -->
    <g id="edge13" class="edge">
        <title>mrs.domain.model.user.User&#45;&gt;mrs.domain.model.user.Name</title>
        <path fill="none" stroke="black"
              d="M677.83,-192.17C672.59,-189.17 667.48,-185.77 663,-182 655.61,-175.77 648.9,-167.73 643.33,-159.97"/>
        <polygon fill="black" stroke="black" points="646.06,-157.76 637.55,-151.44 640.27,-161.68 646.06,-157.76"/>
    </g>
    <!-- mrs.domain.model.user.User&#45;&gt;mrs.domain.model.user.Password -->
    <g id="edge14" class="edge">
        <title>mrs.domain.model.user.User&#45;&gt;mrs.domain.model.user.Password</title>
        <path fill="none" stroke="black" d="M715,-189.84C715,-181.34 715,-171.01 715,-161.5"/>
        <polygon fill="black" stroke="black" points="718.5,-161.25 715,-151.25 711.5,-161.25 718.5,-161.25"/>
    </g>
    <!-- mrs.domain.model.user.User&#45;&gt;mrs.domain.model.user.RoleName -->
    <g id="edge15" class="edge">
        <title>mrs.domain.model.user.User&#45;&gt;mrs.domain.model.user.RoleName</title>
        <path fill="none" stroke="black"
              d="M752.06,-190.43C757.16,-187.74 762.26,-184.89 767,-182 779.16,-174.59 791.91,-165.6 802.99,-157.35"/>
        <polygon fill="black" stroke="black" points="805.23,-160.05 811.1,-151.23 801.01,-154.46 805.23,-160.05"/>
    </g>
    <!-- mrs.domain.model.user.UserId -->
    <g id="node15" class="node">
        <title>mrs.domain.model.user.UserId</title>
        <polygon fill="#eedd82" stroke="black" points="998,-151 910,-151 910,-113 998,-113 998,-151"/>
        <text text-anchor="middle" x="954" y="-135.8" font-family="Times,serif" font-size="14.00">ユーザーID</text>
        <text text-anchor="middle" x="954" y="-120.8" font-family="Times,serif" font-size="14.00">UserId</text>
    </g>
    <!-- mrs.domain.model.user.User&#45;&gt;mrs.domain.model.user.UserId -->
    <g id="edge16" class="edge">
        <title>mrs.domain.model.user.User&#45;&gt;mrs.domain.model.user.UserId</title>
        <path fill="none" stroke="black"
              d="M752.14,-205.45C798.65,-201.79 875.37,-194.15 901,-182 912.68,-176.47 923.55,-167.44 932.37,-158.63"/>
        <polygon fill="black" stroke="black" points="934.92,-161.03 939.26,-151.37 929.84,-156.21 934.92,-161.03"/>
    </g>
    <!-- mrs.domain.type.date.CurrentDate -->
    <g id="node16" class="node">
        <title>mrs.domain.type.date.CurrentDate</title>
        <polygon fill="#eedd82" stroke="red" points="776.5,-313 693.5,-313 693.5,-275 776.5,-275 776.5,-313"/>
        <text text-anchor="middle" x="735" y="-297.8" font-family="Times,serif" font-size="14.00">現在日</text>
        <text text-anchor="middle" x="735" y="-282.8" font-family="Times,serif" font-size="14.00">CurrentDate</text>
    </g>
    <!-- mrs.domain.type.date.Days -->
    <g id="node17" class="node">
        <title>mrs.domain.type.date.Days</title>
        <polygon fill="#eedd82" stroke="red" points="675,-313 621,-313 621,-275 675,-275 675,-313"/>
        <text text-anchor="middle" x="648" y="-297.8" font-family="Times,serif" font-size="14.00">日数</text>
        <text text-anchor="middle" x="648" y="-282.8" font-family="Times,serif" font-size="14.00">Days</text>
    </g>
</g>
</svg>
