<svg width="941px" height="171px"
     viewBox="0.00 0.00 941.00 171.00" xmlns="http://www.w3.org/2000/svg">
    <g id="graph0" class="graph" transform="scale(1.0 1.0) rotate(0) translate(4 167)">
        <title>集中ビジネスルールツリー図</title>
        <polygon fill="white" stroke="transparent" points="-4,4 -4,-167 937,-167 937,4 -4,4"/>
        <text text-anchor="middle" x="466.5" y="-7.8" font-family="Times,serif" font-size="14.00">集中ビジネスルールツリー図</text>
        <!-- mrs.domain.model.reservation.ReservableRoom -->
        <g id="node1" class="node">
            <title>mrs.domain.model.reservation.ReservableRoom</title>
            <polygon fill="#eedd82" stroke="black" points="465,-140 238,-140 238,-66 465,-66 465,-140"/>
            <text text-anchor="middle" x="351.5" y="-112" font-family="Times,serif" font-size="30.00">予約可能会議室</text>
            <text text-anchor="middle" x="351.5" y="-79" font-family="Times,serif" font-size="30.00">ReservableRoom
            </text>
        </g>
        <!-- mrs.domain.model.reservation.ReservableRoomId -->
        <g id="node2" class="node">
            <title>mrs.domain.model.reservation.ReservableRoomId</title>
            <polygon fill="#eedd82" stroke="black" points="759,-107 501,-107 501,-33 759,-33 759,-107"/>
            <text text-anchor="middle" x="630" y="-79" font-family="Times,serif" font-size="30.00">予約可能会議室ID</text>
            <text text-anchor="middle" x="630" y="-46" font-family="Times,serif" font-size="30.00">ReservableRoomId
            </text>
        </g>
        <!-- mrs.domain.model.reservation.ReservableRoom&#45;&gt;mrs.domain.model.reservation.ReservableRoomId -->
        <g id="edge3" class="edge">
            <title>mrs.domain.model.reservation.ReservableRoom&#45;&gt;mrs.domain.model.reservation.ReservableRoomId
            </title>
            <path fill="none" stroke="black" d="M465.36,-89.53C473.73,-88.53 482.23,-87.52 490.73,-86.5"/>
            <polygon fill="black" stroke="black" points="491.19,-89.97 500.71,-85.31 490.36,-83.02 491.19,-89.97"/>
        </g>
        <!-- mrs.domain.model.room.RoomId -->
        <g id="node6" class="node">
            <title>mrs.domain.model.room.RoomId</title>
            <polygon fill="#eedd82" stroke="black" points="933,-144 795,-144 795,-70 933,-70 933,-144"/>
            <text text-anchor="middle" x="864" y="-116" font-family="Times,serif" font-size="30.00">会議室ID</text>
            <text text-anchor="middle" x="864" y="-83" font-family="Times,serif" font-size="30.00">RoomId</text>
        </g>
        <!-- mrs.domain.model.reservation.ReservableRoomId&#45;&gt;mrs.domain.model.room.RoomId -->
        <g id="edge1" class="edge">
            <title>mrs.domain.model.reservation.ReservableRoomId&#45;&gt;mrs.domain.model.room.RoomId</title>
            <path fill="none" stroke="black" d="M759.21,-90.45C767.93,-91.84 776.55,-93.21 784.89,-94.54"/>
            <polygon fill="black" stroke="black" points="784.46,-98.02 794.89,-96.14 785.57,-91.11 784.46,-98.02"/>
        </g>
        <!-- mrs.domain.model.reservation.ReservableRooms -->
        <g id="node3" class="node">
            <title>mrs.domain.model.reservation.ReservableRooms</title>
            <polygon fill="lemonchiffon" stroke="black" points="202,-122 0,-122 0,-84 202,-84 202,-122"/>
            <text text-anchor="middle" x="101" y="-106.8" font-family="Times,serif" font-size="14.00">予約可能会議室コレクション
            </text>
            <text text-anchor="middle" x="101" y="-91.8" font-family="Times,serif" font-size="14.00">ReservableRooms
            </text>
        </g>
        <!-- mrs.domain.model.reservation.ReservableRooms&#45;&gt;mrs.domain.model.reservation.ReservableRoom -->
        <g id="edge5" class="edge">
            <title>mrs.domain.model.reservation.ReservableRooms&#45;&gt;mrs.domain.model.reservation.ReservableRoom
            </title>
            <path fill="none" stroke="black" d="M202,-103C210.43,-103 219.02,-103 227.6,-103"/>
            <polygon fill="black" stroke="black" points="227.66,-106.5 237.66,-103 227.66,-99.5 227.66,-106.5"/>
        </g>
        <!-- mrs.domain.model.reservation.Reservation -->
        <g id="node4" class="node">
            <title>mrs.domain.model.reservation.Reservation</title>
            <polygon fill="lemonchiffon" stroke="black" points="141.5,-61 60.5,-61 60.5,-23 141.5,-23 141.5,-61"/>
            <text text-anchor="middle" x="101" y="-45.8" font-family="Times,serif" font-size="14.00">予約</text>
            <text text-anchor="middle" x="101" y="-30.8" font-family="Times,serif" font-size="14.00">Reservation</text>
        </g>
        <!-- mrs.domain.model.reservation.Reservation&#45;&gt;mrs.domain.model.reservation.ReservableRoom -->
        <g id="edge6" class="edge">
            <title>mrs.domain.model.reservation.Reservation&#45;&gt;mrs.domain.model.reservation.ReservableRoom</title>
            <path fill="none" stroke="black" d="M141.65,-51.73C165.2,-57.52 196.48,-65.19 227.65,-72.84"/>
            <polygon fill="black" stroke="black" points="227.2,-76.34 237.75,-75.32 228.87,-69.54 227.2,-76.34"/>
        </g>
        <!-- mrs.domain.model.reservation.Reservation&#45;&gt;mrs.domain.model.reservation.ReservableRoomId -->
        <g id="edge4" class="edge">
            <title>mrs.domain.model.reservation.Reservation&#45;&gt;mrs.domain.model.reservation.ReservableRoomId
            </title>
            <path fill="none" stroke="black"
                  d="M141.51,-43.14C208.21,-45.18 347.42,-49.91 465,-57 473.3,-57.5 481.83,-58.05 490.44,-58.64"/>
            <polygon fill="black" stroke="black" points="490.34,-62.15 500.56,-59.35 490.83,-55.16 490.34,-62.15"/>
        </g>
        <!-- mrs.domain.model.room.MeetingRoom -->
        <g id="node5" class="node">
            <title>mrs.domain.model.room.MeetingRoom</title>
            <polygon fill="lemonchiffon" stroke="black" points="678,-163 582,-163 582,-125 678,-125 678,-163"/>
            <text text-anchor="middle" x="630" y="-147.8" font-family="Times,serif" font-size="14.00">会議室</text>
            <text text-anchor="middle" x="630" y="-132.8" font-family="Times,serif" font-size="14.00">MeetingRoom</text>
        </g>
        <!-- mrs.domain.model.room.MeetingRoom&#45;&gt;mrs.domain.model.room.RoomId -->
        <g id="edge2" class="edge">
            <title>mrs.domain.model.room.MeetingRoom&#45;&gt;mrs.domain.model.room.RoomId</title>
            <path fill="none" stroke="black" d="M678.23,-136.47C708.74,-131.6 749.18,-125.15 784.44,-119.53"/>
            <polygon fill="black" stroke="black" points="785.4,-122.92 794.72,-117.89 784.3,-116.01 785.4,-122.92"/>
        </g>
    </g>
</svg>
