<svg width="1405px" height="426px"
     viewBox="0.00 0.00 1405.00 426.00" xmlns="http://www.w3.org/2000/svg">
    <g id="graph0" class="graph" transform="scale(1.0 1.0) rotate(0) translate(4 422)">
        <title>ビジネスルール関連図</title>
        <polygon fill="white" stroke="none" points="-4,4 -4,-422 1401,-422 1401,4 -4,4"/>
        <text text-anchor="middle" x="698.5" y="-7.8" font-family="Times New Roman,serif" font-size="14.00">ビジネスルール関連図
        </text>
        <g id="clust1" class="cluster">
            <title>cluster_mrs.domain.model</title>
            <polygon fill="lemonchiffon" stroke="#eedd82" stroke-width="2"
                     points="8,-334 8,-409 415,-409 415,-334 8,-334"/>
            <text text-anchor="middle" x="211.5" y="-393.8" font-family="Times New Roman,serif" font-size="14.00">
                mrs.domain.model
            </text>
        </g>
        <g id="clust2" class="cluster">
            <title>cluster_mrs.domain.model.reservation</title>
            <polygon fill="lemonchiffon" stroke="#eedd82" stroke-width="2"
                     points="423,-31 423,-410 823,-410 823,-31 423,-31"/>
            <text text-anchor="middle" x="623" y="-394.8" font-family="Times New Roman,serif" font-size="14.00">
                reservation
            </text>
        </g>
        <g id="clust3" class="cluster">
            <title>cluster_mrs.domain.model.room</title>
            <polygon fill="lemonchiffon" stroke="#eedd82" stroke-width="2"
                     points="831,-31 831,-182 1019,-182 1019,-31 831,-31"/>
            <text text-anchor="middle" x="925" y="-166.8" font-family="Times New Roman,serif" font-size="14.00">room
            </text>
        </g>
        <g id="clust5" class="cluster">
            <title>cluster_mrs.domain.model.user</title>
            <polygon fill="lemonchiffon" stroke="#eedd82" stroke-width="2"
                     points="1027,-105 1027,-259 1389,-259 1389,-105 1027,-105"/>
            <text text-anchor="middle" x="1208" y="-243.8" font-family="Times New Roman,serif" font-size="14.00">user
            </text>
        </g>
        <g id="clust4" class="cluster">
            <title>cluster_mrs.domain.model.todo</title>
            <polygon fill="lemonchiffon" stroke="#eedd82" stroke-width="2"
                     points="978,-333 978,-410 1062,-410 1062,-333 978,-333"/>
            <text text-anchor="middle" x="1020" y="-394.8" font-family="Times New Roman,serif" font-size="14.00">todo
            </text>
        </g>
        <g id="clust6" class="cluster">
            <title>cluster_mrs.domain.type.date</title>
            <polygon fill="lemonchiffon" stroke="#eedd82" stroke-width="2"
                     points="1143,-333 1143,-410 1315,-410 1315,-333 1143,-333"/>
            <text text-anchor="middle" x="1229" y="-394.8" font-family="Times New Roman,serif" font-size="14.00">date
            </text>
        </g>
        <!-- mrs.domain.model.MeetingRoom -->
        <g id="node1" class="node">
            <title>mrs.domain.model.MeetingRoom</title>
            <polygon fill="#eedd82" stroke="red" points="407,-378 311,-378 311,-342 407,-342 407,-378"/>
            <text text-anchor="middle" x="359" y="-356.3" font-family="Times New Roman,serif" font-size="14.00">
                MeetingRoom
            </text>
        </g>
        <!-- mrs.domain.model.ReservableRoom -->
        <g id="node2" class="node">
            <title>mrs.domain.model.ReservableRoom</title>
            <polygon fill="#eedd82" stroke="red" points="292.5,-378 179.5,-378 179.5,-342 292.5,-342 292.5,-378"/>
            <text text-anchor="middle" x="236" y="-356.3" font-family="Times New Roman,serif" font-size="14.00">
                ReservableRoom
            </text>
        </g>
        <!-- mrs.domain.model.TestTable -->
        <g id="node3" class="node">
            <title>mrs.domain.model.TestTable</title>
            <polygon fill="#eedd82" stroke="red" points="161.5,-378 88.5,-378 88.5,-342 161.5,-342 161.5,-378"/>
            <text text-anchor="middle" x="125" y="-356.3" font-family="Times New Roman,serif" font-size="14.00">
                TestTable
            </text>
        </g>
        <!-- mrs.domain.model.Usr -->
        <g id="node4" class="node">
            <title>mrs.domain.model.Usr</title>
            <polygon fill="#eedd82" stroke="red" points="70,-378 16,-378 16,-342 70,-342 70,-378"/>
            <text text-anchor="middle" x="43" y="-356.3" font-family="Times New Roman,serif" font-size="14.00">Usr
            </text>
        </g>
        <!-- mrs.domain.model.reservation.ReservableRoom -->
        <g id="node5" class="node">
            <title>mrs.domain.model.reservation.ReservableRoom</title>
            <polygon fill="#eedd82" stroke="black" points="814.5,-228 701.5,-228 701.5,-190 814.5,-190 814.5,-228"/>
            <text text-anchor="middle" x="758" y="-212.8" font-family="Times New Roman,serif" font-size="14.00">
                予約可能会議室
            </text>
            <text text-anchor="middle" x="758" y="-197.8" font-family="Times New Roman,serif" font-size="14.00">
                ReservableRoom
            </text>
        </g>
        <!-- mrs.domain.model.reservation.ReservableRoomId -->
        <g id="node6" class="node">
            <title>mrs.domain.model.reservation.ReservableRoomId</title>
            <polygon fill="#eedd82" stroke="black" points="779.5,-151 654.5,-151 654.5,-113 779.5,-113 779.5,-151"/>
            <text text-anchor="middle" x="717" y="-135.8" font-family="Times New Roman,serif" font-size="14.00">
                予約可能会議室ID
            </text>
            <text text-anchor="middle" x="717" y="-120.8" font-family="Times New Roman,serif" font-size="14.00">
                ReservableRoomId
            </text>
        </g>
<!-- mrs.domain.model.reservation.ReservableRoom&#45;&gt;mrs.domain.model.reservation.ReservableRoomId -->
        <g id="edge1" class="edge">
            <title>mrs.domain.model.reservation.ReservableRoom&#45;&gt;mrs.domain.model.reservation.ReservableRoomId
            </title>
            <path fill="none" stroke="black" d="M748.075,-189.845C743.226,-180.974 737.29,-170.115 731.91,-160.274"/>
            <polygon fill="black" stroke="black"
                     points="734.844,-158.344 726.976,-151.248 728.701,-161.702 734.844,-158.344"/>
        </g>
<!-- mrs.domain.model.room.MeetingRoom -->
        <g id="node13" class="node">
            <title>mrs.domain.model.room.MeetingRoom</title>
            <polygon fill="#eedd82" stroke="black" points="935,-151 839,-151 839,-113 935,-113 935,-151"/>
            <text text-anchor="middle" x="887" y="-135.8" font-family="Times New Roman,serif" font-size="14.00">会議室
            </text>
            <text text-anchor="middle" x="887" y="-120.8" font-family="Times New Roman,serif" font-size="14.00">
                MeetingRoom
            </text>
        </g>
<!-- mrs.domain.model.reservation.ReservableRoom&#45;&gt;mrs.domain.model.room.MeetingRoom -->
        <g id="edge2" class="edge">
            <title>mrs.domain.model.reservation.ReservableRoom&#45;&gt;mrs.domain.model.room.MeetingRoom</title>
            <path fill="none" stroke="black"
                  d="M811.18,-189.988C816.639,-187.543 822.008,-184.875 827,-182 838.77,-175.22 850.593,-166.163 860.593,-157.681"/>
            <polygon fill="black" stroke="black"
                     points="862.953,-160.267 868.188,-151.056 858.351,-154.992 862.953,-160.267"/>
        </g>
<!-- mrs.domain.model.reservation.ReservedDate -->
        <g id="node11" class="node">
            <title>mrs.domain.model.reservation.ReservedDate</title>
            <polygon fill="#eedd82" stroke="black" points="661.5,-77 566.5,-77 566.5,-39 661.5,-39 661.5,-77"/>
            <text text-anchor="middle" x="614" y="-61.8" font-family="Times New Roman,serif" font-size="14.00">予約日
            </text>
            <text text-anchor="middle" x="614" y="-46.8" font-family="Times New Roman,serif" font-size="14.00">
                ReservedDate
            </text>
        </g>
<!-- mrs.domain.model.reservation.ReservableRoomId&#45;&gt;mrs.domain.model.reservation.ReservedDate -->
        <g id="edge3" class="edge">
            <title>mrs.domain.model.reservation.ReservableRoomId&#45;&gt;mrs.domain.model.reservation.ReservedDate
            </title>
            <path fill="none" stroke="black" d="M691.009,-112.831C678.078,-103.793 662.278,-92.7476 648.362,-83.0198"/>
            <polygon fill="black" stroke="black"
                     points="650.184,-80.0235 639.983,-77.1628 646.174,-85.7608 650.184,-80.0235"/>
        </g>
<!-- mrs.domain.model.room.RoomId -->
        <g id="node14" class="node">
            <title>mrs.domain.model.room.RoomId</title>
            <polygon fill="#eedd82" stroke="black" points="908.5,-77 839.5,-77 839.5,-39 908.5,-39 908.5,-77"/>
            <text text-anchor="middle" x="874" y="-61.8" font-family="Times New Roman,serif" font-size="14.00">会議室ID
            </text>
            <text text-anchor="middle" x="874" y="-46.8" font-family="Times New Roman,serif" font-size="14.00">RoomId
            </text>
        </g>
<!-- mrs.domain.model.reservation.ReservableRoomId&#45;&gt;mrs.domain.model.room.RoomId -->
        <g id="edge4" class="edge">
            <title>mrs.domain.model.reservation.ReservableRoomId&#45;&gt;mrs.domain.model.room.RoomId</title>
            <path fill="none" stroke="black" d="M756.618,-112.831C779.053,-102.543 807.156,-89.6545 830.24,-79.0685"/>
            <polygon fill="black" stroke="black"
                     points="831.836,-82.1869 839.467,-74.8369 828.918,-75.8241 831.836,-82.1869"/>
        </g>
<!-- mrs.domain.model.reservation.ReservableRooms -->
        <g id="node7" class="node">
            <title>mrs.domain.model.reservation.ReservableRooms</title>
            <polygon fill="#eedd82" stroke="black" points="814.5,-305 683.5,-305 683.5,-267 814.5,-267 814.5,-305"/>
            <text text-anchor="middle" x="749" y="-289.8" font-family="Times New Roman,serif" font-size="14.00">
                予約可能会議室集合
            </text>
            <text text-anchor="middle" x="749" y="-274.8" font-family="Times New Roman,serif" font-size="14.00">
                ReservableRooms
            </text>
        </g>
<!-- mrs.domain.model.reservation.ReservableRooms&#45;&gt;mrs.domain.model.reservation.ReservableRoom -->
        <g id="edge5" class="edge">
            <title>mrs.domain.model.reservation.ReservableRooms&#45;&gt;mrs.domain.model.reservation.ReservableRoom
            </title>
            <path fill="none" stroke="black" d="M751.179,-266.845C752.21,-258.249 753.466,-247.785 754.617,-238.19"/>
            <polygon fill="black" stroke="black"
                     points="758.094,-238.594 755.81,-228.248 751.144,-237.76 758.094,-238.594"/>
        </g>
<!-- mrs.domain.model.reservation.Reservation -->
        <g id="node8" class="node">
            <title>mrs.domain.model.reservation.Reservation</title>
            <polygon fill="#eedd82" stroke="black" points="665.5,-305 582.5,-305 582.5,-267 665.5,-267 665.5,-305"/>
            <text text-anchor="middle" x="624" y="-289.8" font-family="Times New Roman,serif" font-size="14.00">予約
            </text>
            <text text-anchor="middle" x="624" y="-274.8" font-family="Times New Roman,serif" font-size="14.00">
                Reservation
            </text>
        </g>
<!-- mrs.domain.model.reservation.Reservation&#45;&gt;mrs.domain.model.reservation.ReservableRoom -->
        <g id="edge6" class="edge">
            <title>mrs.domain.model.reservation.Reservation&#45;&gt;mrs.domain.model.reservation.ReservableRoom</title>
            <path fill="none" stroke="black"
                  d="M665.593,-269.31C672.855,-266.156 680.242,-262.672 687,-259 700.343,-251.75 714.254,-242.557 726.19,-234.096"/>
            <polygon fill="black" stroke="black"
                     points="728.434,-236.793 734.496,-228.104 724.338,-231.117 728.434,-236.793"/>
        </g>
<!-- mrs.domain.model.reservation.Reservation&#45;&gt;mrs.domain.model.reservation.ReservableRoomId -->
        <g id="edge7" class="edge">
            <title>mrs.domain.model.reservation.Reservation&#45;&gt;mrs.domain.model.reservation.ReservableRoomId
            </title>
            <path fill="none" stroke="black"
                  d="M664.225,-266.649C667.094,-264.349 669.74,-261.804 672,-259 692.033,-234.138 681.12,-220.018 692,-190 695.553,-180.198 699.979,-169.688 704.115,-160.396"/>
            <polygon fill="black" stroke="black"
                     points="707.327,-161.787 708.272,-151.234 700.953,-158.894 707.327,-161.787"/>
        </g>
        <!-- mrs.domain.model.reservation.ReservationId -->
        <g id="node9" class="node">
            <title>mrs.domain.model.reservation.ReservationId</title>
            <polygon fill="#eedd82" stroke="black" points="526.5,-228 431.5,-228 431.5,-190 526.5,-190 526.5,-228"/>
            <text text-anchor="middle" x="479" y="-212.8" font-family="Times New Roman,serif" font-size="14.00">予約ID
            </text>
            <text text-anchor="middle" x="479" y="-197.8" font-family="Times New Roman,serif" font-size="14.00">
                ReservationId
            </text>
        </g>
        <!-- mrs.domain.model.reservation.Reservation&#45;&gt;mrs.domain.model.reservation.ReservationId -->
        <g id="edge8" class="edge">
            <title>mrs.domain.model.reservation.Reservation&#45;&gt;mrs.domain.model.reservation.ReservationId</title>
            <path fill="none" stroke="black"
                  d="M582.281,-275.164C568.692,-271.123 553.816,-265.774 541,-259 528.653,-252.475 516.323,-243.392 505.948,-234.817"/>
            <polygon fill="black" stroke="black"
                     points="507.963,-231.935 498.084,-228.107 503.42,-237.26 507.963,-231.935"/>
        </g>
        <!-- mrs.domain.model.reservation.Reservation&#45;&gt;mrs.domain.model.reservation.ReservedDate -->
        <g id="edge9" class="edge">
            <title>mrs.domain.model.reservation.Reservation&#45;&gt;mrs.domain.model.reservation.ReservedDate</title>
            <path fill="none" stroke="black"
                  d="M582.373,-277.81C572.085,-273.962 562.234,-268.058 556,-259 518.573,-204.619 564.047,-126.061 593.2,-85.484"/>
            <polygon fill="black" stroke="black"
                     points="596.198,-87.316 599.315,-77.1899 590.564,-83.1622 596.198,-87.316"/>
        </g>
        <!-- mrs.domain.model.reservation.ReservedTime -->
        <g id="node12" class="node">
            <title>mrs.domain.model.reservation.ReservedTime</title>
            <polygon fill="#eedd82" stroke="black" points="663,-228 565,-228 565,-190 663,-190 663,-228"/>
            <text text-anchor="middle" x="614" y="-212.8" font-family="Times New Roman,serif" font-size="14.00">予約時間
            </text>
            <text text-anchor="middle" x="614" y="-197.8" font-family="Times New Roman,serif" font-size="14.00">
                ReservedTime
            </text>
        </g>
        <!-- mrs.domain.model.reservation.Reservation&#45;&gt;mrs.domain.model.reservation.ReservedTime -->
        <g id="edge10" class="edge">
            <title>mrs.domain.model.reservation.Reservation&#45;&gt;mrs.domain.model.reservation.ReservedTime</title>
            <path fill="none" stroke="black" d="M621.579,-266.845C620.433,-258.249 619.038,-247.785 617.759,-238.19"/>
            <polygon fill="black" stroke="black"
                     points="621.224,-237.698 616.433,-228.248 614.286,-238.623 621.224,-237.698"/>
        </g>
        <!-- mrs.domain.model.user.User -->
        <g id="node20" class="node">
            <title>mrs.domain.model.user.User</title>
            <polygon fill="#eedd82" stroke="black" points="1181,-228 1113,-228 1113,-190 1181,-190 1181,-228"/>
            <text text-anchor="middle" x="1147" y="-212.8" font-family="Times New Roman,serif" font-size="14.00">ユーザー
            </text>
            <text text-anchor="middle" x="1147" y="-197.8" font-family="Times New Roman,serif" font-size="14.00">User
            </text>
        </g>
        <!-- mrs.domain.model.reservation.Reservation&#45;&gt;mrs.domain.model.user.User -->
        <g id="edge11" class="edge">
            <title>mrs.domain.model.reservation.Reservation&#45;&gt;mrs.domain.model.user.User</title>
            <path fill="none" stroke="black"
                  d="M665.757,-268.962C668.523,-268.213 671.287,-267.547 674,-267 740.75,-253.546 759.262,-265.94 827,-259 925.835,-248.875 1040.76,-229.369 1102.42,-218.265"/>
            <polygon fill="black" stroke="black"
                     points="1103.36,-221.652 1112.58,-216.426 1102.11,-214.764 1103.36,-221.652"/>
        </g>
        <!-- mrs.domain.model.user.UserId -->
        <g id="node21" class="node">
            <title>mrs.domain.model.user.UserId</title>
            <polygon fill="#eedd82" stroke="black" points="1381,-151 1299,-151 1299,-113 1381,-113 1381,-151"/>
            <text text-anchor="middle" x="1340" y="-135.8" font-family="Times New Roman,serif" font-size="14.00">
                ユーザーID
            </text>
            <text text-anchor="middle" x="1340" y="-120.8" font-family="Times New Roman,serif" font-size="14.00">
                UserId
            </text>
        </g>
        <!-- mrs.domain.model.reservation.Reservation&#45;&gt;mrs.domain.model.user.UserId -->
        <g id="edge12" class="edge">
            <title>mrs.domain.model.reservation.Reservation&#45;&gt;mrs.domain.model.user.UserId</title>
            <path fill="none" stroke="black"
                  d="M665.735,-268.846C668.506,-268.125 671.277,-267.497 674,-267 702.204,-261.852 1162.93,-268.449 1190,-259 1244.83,-239.862 1293.24,-190.203 1319.41,-159.249"/>
            <polygon fill="black" stroke="black"
                     points="1322.2,-161.369 1325.88,-151.434 1316.81,-156.904 1322.2,-161.369"/>
        </g>
        <!-- mrs.domain.model.reservation.Reservations -->
        <g id="node10" class="node">
            <title>mrs.domain.model.reservation.Reservations</title>
            <polygon fill="#eedd82" stroke="black" points="668.5,-379 579.5,-379 579.5,-341 668.5,-341 668.5,-379"/>
            <text text-anchor="middle" x="624" y="-363.8" font-family="Times New Roman,serif" font-size="14.00">予約集合
            </text>
            <text text-anchor="middle" x="624" y="-348.8" font-family="Times New Roman,serif" font-size="14.00">
                Reservations
            </text>
        </g>
        <!-- mrs.domain.model.reservation.Reservations&#45;&gt;mrs.domain.model.reservation.Reservation -->
        <g id="edge13" class="edge">
            <title>mrs.domain.model.reservation.Reservations&#45;&gt;mrs.domain.model.reservation.Reservation</title>
            <path fill="none" stroke="black" d="M624,-340.831C624,-333.131 624,-323.974 624,-315.417"/>
            <polygon fill="black" stroke="black" points="627.5,-315.413 624,-305.413 620.5,-315.413 627.5,-315.413"/>
        </g>
<!-- mrs.domain.model.room.MeetingRoom&#45;&gt;mrs.domain.model.room.RoomId -->
        <g id="edge14" class="edge">
            <title>mrs.domain.model.room.MeetingRoom&#45;&gt;mrs.domain.model.room.RoomId</title>
            <path fill="none" stroke="black" d="M883.72,-112.831C882.329,-105.131 880.676,-95.9743 879.131,-87.4166"/>
            <polygon fill="black" stroke="black"
                     points="882.546,-86.6322 877.325,-77.4133 875.657,-87.8761 882.546,-86.6322"/>
        </g>
<!-- mrs.domain.model.room.RoomName -->
        <g id="node15" class="node">
            <title>mrs.domain.model.room.RoomName</title>
            <polygon fill="#eedd82" stroke="black" points="1011,-77 927,-77 927,-39 1011,-39 1011,-77"/>
            <text text-anchor="middle" x="969" y="-61.8" font-family="Times New Roman,serif" font-size="14.00">会議室名
            </text>
            <text text-anchor="middle" x="969" y="-46.8" font-family="Times New Roman,serif" font-size="14.00">
                RoomName
            </text>
        </g>
<!-- mrs.domain.model.room.MeetingRoom&#45;&gt;mrs.domain.model.room.RoomName -->
        <g id="edge15" class="edge">
            <title>mrs.domain.model.room.MeetingRoom&#45;&gt;mrs.domain.model.room.RoomName</title>
            <path fill="none" stroke="black" d="M907.692,-112.831C917.695,-104.048 929.855,-93.3712 940.7,-83.8489"/>
            <polygon fill="black" stroke="black"
                     points="943.109,-86.3909 948.315,-77.1628 938.491,-81.1308 943.109,-86.3909"/>
        </g>
<!-- mrs.domain.model.todo.Todo -->
        <g id="node16" class="node">
            <title>mrs.domain.model.todo.Todo</title>
            <polygon fill="#eedd82" stroke="red" points="1054,-379 986,-379 986,-341 1054,-341 1054,-379"/>
            <text text-anchor="middle" x="1020" y="-363.8" font-family="Times New Roman,serif" font-size="14.00">やること
            </text>
            <text text-anchor="middle" x="1020" y="-348.8" font-family="Times New Roman,serif" font-size="14.00">Todo
            </text>
        </g>
<!-- mrs.domain.model.user.Name -->
        <g id="node17" class="node">
            <title>mrs.domain.model.user.Name</title>
            <polygon fill="#eedd82" stroke="black" points="1089,-151 1035,-151 1035,-113 1089,-113 1089,-151"/>
            <text text-anchor="middle" x="1062" y="-135.8" font-family="Times New Roman,serif" font-size="14.00">氏名
            </text>
            <text text-anchor="middle" x="1062" y="-120.8" font-family="Times New Roman,serif" font-size="14.00">Name
            </text>
        </g>
<!-- mrs.domain.model.user.Password -->
        <g id="node18" class="node">
            <title>mrs.domain.model.user.Password</title>
            <polygon fill="#eedd82" stroke="black" points="1187,-151 1107,-151 1107,-113 1187,-113 1187,-151"/>
            <text text-anchor="middle" x="1147" y="-135.8" font-family="Times New Roman,serif" font-size="14.00">パスワード
            </text>
            <text text-anchor="middle" x="1147" y="-120.8" font-family="Times New Roman,serif" font-size="14.00">
                Password
            </text>
        </g>
<!-- mrs.domain.model.user.RoleName -->
        <g id="node19" class="node">
            <title>mrs.domain.model.user.RoleName</title>
            <polygon fill="#eedd82" stroke="black"
                     points="1280.5,-151 1205.5,-151 1205.5,-113 1280.5,-113 1280.5,-151"/>
            <text text-anchor="middle" x="1243" y="-135.8" font-family="Times New Roman,serif" font-size="14.00">役割
            </text>
            <text text-anchor="middle" x="1243" y="-120.8" font-family="Times New Roman,serif" font-size="14.00">
                RoleName
            </text>
        </g>
<!-- mrs.domain.model.user.User&#45;&gt;mrs.domain.model.user.Name -->
        <g id="edge16" class="edge">
            <title>mrs.domain.model.user.User&#45;&gt;mrs.domain.model.user.Name</title>
            <path fill="none" stroke="black"
                  d="M1112.76,-192.41C1107.55,-189.327 1102.45,-185.84 1098,-182 1090.69,-175.683 1084,-167.617 1078.43,-159.862"/>
            <polygon fill="black" stroke="black"
                     points="1081.15,-157.647 1072.64,-151.348 1075.37,-161.584 1081.15,-157.647"/>
        </g>
<!-- mrs.domain.model.user.User&#45;&gt;mrs.domain.model.user.Password -->
        <g id="edge17" class="edge">
            <title>mrs.domain.model.user.User&#45;&gt;mrs.domain.model.user.Password</title>
            <path fill="none" stroke="black" d="M1147,-189.845C1147,-181.34 1147,-171.008 1147,-161.496"/>
            <polygon fill="black" stroke="black"
                     points="1150.5,-161.248 1147,-151.248 1143.5,-161.248 1150.5,-161.248"/>
        </g>
<!-- mrs.domain.model.user.User&#45;&gt;mrs.domain.model.user.RoleName -->
        <g id="edge18" class="edge">
            <title>mrs.domain.model.user.User&#45;&gt;mrs.domain.model.user.RoleName</title>
            <path fill="none" stroke="black"
                  d="M1181.08,-191.741C1186.25,-188.762 1191.39,-185.483 1196,-182 1204.89,-175.285 1213.62,-166.851 1221.1,-158.881"/>
            <polygon fill="black" stroke="black"
                     points="1223.99,-160.904 1228.12,-151.148 1218.8,-156.199 1223.99,-160.904"/>
        </g>
<!-- mrs.domain.model.user.User&#45;&gt;mrs.domain.model.user.UserId -->
        <g id="edge19" class="edge">
            <title>mrs.domain.model.user.User&#45;&gt;mrs.domain.model.user.UserId</title>
            <path fill="none" stroke="black"
                  d="M1181,-202.891C1220.19,-196.835 1280.45,-186.944 1290,-182 1301.02,-176.297 1311.2,-167.349 1319.46,-158.652"/>
            <polygon fill="black" stroke="black"
                     points="1322.12,-160.937 1326.2,-151.162 1316.91,-156.256 1322.12,-160.937"/>
        </g>
<!-- mrs.domain.type.date.CurrentDate -->
        <g id="node22" class="node">
            <title>mrs.domain.type.date.CurrentDate</title>
            <polygon fill="#eedd82" stroke="red" points="1307,-379 1223,-379 1223,-341 1307,-341 1307,-379"/>
            <text text-anchor="middle" x="1265" y="-363.8" font-family="Times New Roman,serif" font-size="14.00">現在日
            </text>
            <text text-anchor="middle" x="1265" y="-348.8" font-family="Times New Roman,serif" font-size="14.00">
                CurrentDate
            </text>
        </g>
<!-- mrs.domain.type.date.Days -->
        <g id="node23" class="node">
            <title>mrs.domain.type.date.Days</title>
            <polygon fill="#eedd82" stroke="red" points="1205,-379 1151,-379 1151,-341 1205,-341 1205,-379"/>
            <text text-anchor="middle" x="1178" y="-363.8" font-family="Times New Roman,serif" font-size="14.00">日数
            </text>
            <text text-anchor="middle" x="1178" y="-348.8" font-family="Times New Roman,serif" font-size="14.00">Days
            </text>
        </g>
</g>
</svg>
