<svg width="884px" height="171px"
 viewBox="0.00 0.00 884.00 171.00" xmlns="http://www.w3.org/2000/svg" xmlns:xlink="http://www.w3.org/1999/xlink">
<g id="graph0" class="graph" transform="scale(1.0 1.0) rotate(0) translate(4 167)">
<title>集中ビジネスルールツリー図</title>
<polygon fill="white" stroke="transparent" points="-4,4 -4,-167 880,-167 880,4 -4,4"/>
<text text-anchor="middle" x="438" y="-7.8" font-family="Times,serif" font-size="14.00">集中ビジネスルールツリー図</text>
<!-- mrs.domain.model.reservation.ReservableRoom -->
<g id="node1" class="node">
<title>mrs.domain.model.reservation.ReservableRoom</title>
<polygon fill="#eedd82" stroke="black" points="408,-140 181,-140 181,-66 408,-66 408,-140"/>
<text text-anchor="middle" x="294.5" y="-112" font-family="Times,serif" font-size="30.00">予約可能会議室</text>
<text text-anchor="middle" x="294.5" y="-79" font-family="Times,serif" font-size="30.00">ReservableRoom</text>
</g>
<!-- mrs.domain.model.reservation.ReservableRoomId -->
<g id="node2" class="node">
<title>mrs.domain.model.reservation.ReservableRoomId</title>
<polygon fill="#eedd82" stroke="black" points="702,-107 444,-107 444,-33 702,-33 702,-107"/>
<text text-anchor="middle" x="573" y="-79" font-family="Times,serif" font-size="30.00">予約可能会議室ID</text>
<text text-anchor="middle" x="573" y="-46" font-family="Times,serif" font-size="30.00">ReservableRoomId</text>
</g>
<!-- mrs.domain.model.reservation.ReservableRoom&#45;&gt;mrs.domain.model.reservation.ReservableRoomId -->
<g id="edge5" class="edge">
<title>mrs.domain.model.reservation.ReservableRoom&#45;&gt;mrs.domain.model.reservation.ReservableRoomId</title>
<path fill="none" stroke="black" d="M408.36,-89.53C416.73,-88.53 425.23,-87.52 433.73,-86.5"/>
<polygon fill="black" stroke="black" points="434.19,-89.97 443.71,-85.31 433.36,-83.02 434.19,-89.97"/>
</g>
<!-- mrs.domain.model.room.RoomId -->
<g id="node6" class="node">
<title>mrs.domain.model.room.RoomId</title>
<polygon fill="#eedd82" stroke="black" points="876,-144 738,-144 738,-70 876,-70 876,-144"/>
<text text-anchor="middle" x="807" y="-116" font-family="Times,serif" font-size="30.00">会議室ID</text>
<text text-anchor="middle" x="807" y="-83" font-family="Times,serif" font-size="30.00">RoomId</text>
</g>
<!-- mrs.domain.model.reservation.ReservableRoomId&#45;&gt;mrs.domain.model.room.RoomId -->
<g id="edge3" class="edge">
<title>mrs.domain.model.reservation.ReservableRoomId&#45;&gt;mrs.domain.model.room.RoomId</title>
<path fill="none" stroke="black" d="M702.21,-90.45C710.93,-91.84 719.55,-93.21 727.89,-94.54"/>
<polygon fill="black" stroke="black" points="727.46,-98.02 737.89,-96.14 728.57,-91.11 727.46,-98.02"/>
</g>
<!-- mrs.domain.model.reservation.ReservableRooms -->
<g id="node3" class="node">
<title>mrs.domain.model.reservation.ReservableRooms</title>
<polygon fill="lemonchiffon" stroke="black" points="145,-122 0,-122 0,-84 145,-84 145,-122"/>
<text text-anchor="middle" x="72.5" y="-106.8" font-family="Times,serif" font-size="14.00">予約可能会議室集合</text>
<text text-anchor="middle" x="72.5" y="-91.8" font-family="Times,serif" font-size="14.00">ReservableRooms</text>
</g>
<!-- mrs.domain.model.reservation.ReservableRooms&#45;&gt;mrs.domain.model.reservation.ReservableRoom -->
<g id="edge1" class="edge">
<title>mrs.domain.model.reservation.ReservableRooms&#45;&gt;mrs.domain.model.reservation.ReservableRoom</title>
<path fill="none" stroke="black" d="M145.23,-103C153.43,-103 161.96,-103 170.59,-103"/>
<polygon fill="black" stroke="black" points="170.76,-106.5 180.76,-103 170.76,-99.5 170.76,-106.5"/>
</g>
<!-- mrs.domain.model.reservation.Reservation -->
<g id="node4" class="node">
<title>mrs.domain.model.reservation.Reservation</title>
<polygon fill="lemonchiffon" stroke="black" points="113,-61 32,-61 32,-23 113,-23 113,-61"/>
<text text-anchor="middle" x="72.5" y="-45.8" font-family="Times,serif" font-size="14.00">予約</text>
<text text-anchor="middle" x="72.5" y="-30.8" font-family="Times,serif" font-size="14.00">Reservation</text>
</g>
<!-- mrs.domain.model.reservation.Reservation&#45;&gt;mrs.domain.model.reservation.ReservableRoom -->
<g id="edge2" class="edge">
<title>mrs.domain.model.reservation.Reservation&#45;&gt;mrs.domain.model.reservation.ReservableRoom</title>
<path fill="none" stroke="black" d="M113.09,-52.98C129.71,-57.59 150.05,-63.22 170.99,-69.03"/>
<polygon fill="black" stroke="black" points="170.07,-72.41 180.65,-71.71 171.94,-65.66 170.07,-72.41"/>
</g>
<!-- mrs.domain.model.reservation.Reservation&#45;&gt;mrs.domain.model.reservation.ReservableRoomId -->
<g id="edge6" class="edge">
<title>mrs.domain.model.reservation.Reservation&#45;&gt;mrs.domain.model.reservation.ReservableRoomId</title>
<path fill="none" stroke="black" d="M113.17,-43.34C175.83,-45.55 301.53,-50.4 408,-57 416.3,-57.51 424.83,-58.08 433.43,-58.68"/>
<polygon fill="black" stroke="black" points="433.34,-62.18 443.56,-59.4 433.83,-55.2 433.34,-62.18"/>
</g>
<!-- mrs.domain.model.room.MeetingRoom -->
<g id="node5" class="node">
<title>mrs.domain.model.room.MeetingRoom</title>
<polygon fill="lemonchiffon" stroke="black" points="621,-163 525,-163 525,-125 621,-125 621,-163"/>
<text text-anchor="middle" x="573" y="-147.8" font-family="Times,serif" font-size="14.00">会議室</text>
<text text-anchor="middle" x="573" y="-132.8" font-family="Times,serif" font-size="14.00">MeetingRoom</text>
</g>
<!-- mrs.domain.model.room.MeetingRoom&#45;&gt;mrs.domain.model.room.RoomId -->
<g id="edge4" class="edge">
<title>mrs.domain.model.room.MeetingRoom&#45;&gt;mrs.domain.model.room.RoomId</title>
<path fill="none" stroke="black" d="M621.23,-136.47C651.74,-131.6 692.18,-125.15 727.44,-119.53"/>
<polygon fill="black" stroke="black" points="728.4,-122.92 737.72,-117.89 727.3,-116.01 728.4,-122.92"/>
</g>
</g>
</svg>
