<svg width="932px" height="244px"
     viewBox="0.00 0.00 932.00 243.85" xmlns="http://www.w3.org/2000/svg">
    <g id="graph0" class="graph" transform="scale(1.0 1.0) rotate(0) translate(4 239.85)">
        <title>集中ビジネスルールツリー図</title>
        <polygon fill="white" stroke="transparent" points="-4,4 -4,-239.85 928,-239.85 928,4 -4,4"/>
        <text text-anchor="middle" x="462" y="-7.8" font-family="Times,serif" font-size="14.00">集中ビジネスルールツリー図</text>
        <!-- mrs.domain.model.reservation.ReservableRoom -->
        <g id="node1" class="node">
            <title>mrs.domain.model.reservation.ReservableRoom</title>
            <polygon fill="#eedd82" stroke="black" points="408,-148.1 181,-148.1 181,-74.1 408,-74.1 408,-148.1"/>
            <text text-anchor="middle" x="294.5" y="-120.1" font-family="Times,serif" font-size="30.00">予約可能会議室</text>
            <text text-anchor="middle" x="294.5" y="-87.1" font-family="Times,serif" font-size="30.00">ReservableRoom
            </text>
        </g>
        <!-- mrs.domain.model.reservation.ReservableRoomId -->
        <g id="node2" class="node">
            <title>mrs.domain.model.reservation.ReservableRoomId</title>
            <polygon fill="#eedd82" stroke="black" points="702,-213.1 444,-213.1 444,-139.1 702,-139.1 702,-213.1"/>
            <text text-anchor="middle" x="573" y="-185.1" font-family="Times,serif" font-size="30.00">予約可能会議室ID</text>
            <text text-anchor="middle" x="573" y="-152.1" font-family="Times,serif" font-size="30.00">ReservableRoomId
            </text>
        </g>
        <!-- mrs.domain.model.reservation.ReservableRoom&#45;&gt;mrs.domain.model.reservation.ReservableRoomId -->
        <g id="edge7" class="edge">
            <title>mrs.domain.model.reservation.ReservableRoom&#45;&gt;mrs.domain.model.reservation.ReservableRoomId
            </title>
            <path fill="none" stroke="black" d="M408.36,-137.63C416.73,-139.6 425.23,-141.6 433.73,-143.6"/>
            <polygon fill="black" stroke="black" points="433.17,-147.06 443.71,-145.94 434.77,-140.24 433.17,-147.06"/>
        </g>
        <!-- mrs.domain.model.reservation.ReservedDate -->
        <g id="node5" class="node">
            <title>mrs.domain.model.reservation.ReservedDate</title>
            <polygon fill="#eedd82" stroke="black" points="924,-213.1 738,-213.1 738,-139.1 924,-139.1 924,-213.1"/>
            <text text-anchor="middle" x="831" y="-185.1" font-family="Times,serif" font-size="30.00">予約日</text>
            <text text-anchor="middle" x="831" y="-152.1" font-family="Times,serif" font-size="30.00">ReservedDate
            </text>
        </g>
        <!-- mrs.domain.model.reservation.ReservableRoom&#45;&gt;mrs.domain.model.reservation.ReservedDate -->
        <g id="edge1" class="edge">
            <title>mrs.domain.model.reservation.ReservableRoom&#45;&gt;mrs.domain.model.reservation.ReservedDate</title>
            <path fill="none" stroke="black"
                  d="M408.3,-107.42C490.49,-106.91 604.11,-110.68 702,-130.1 710.58,-131.8 719.36,-133.98 728.1,-136.45"/>
            <polygon fill="black" stroke="black" points="727.36,-139.88 737.94,-139.36 729.34,-133.17 727.36,-139.88"/>
        </g>
        <!-- mrs.domain.model.room.RoomId -->
        <g id="node7" class="node">
            <title>mrs.domain.model.room.RoomId</title>
            <polygon fill="#eedd82" stroke="black" points="900,-101.1 762,-101.1 762,-27.1 900,-27.1 900,-101.1"/>
            <text text-anchor="middle" x="831" y="-73.1" font-family="Times,serif" font-size="30.00">会議室ID</text>
            <text text-anchor="middle" x="831" y="-40.1" font-family="Times,serif" font-size="30.00">RoomId</text>
        </g>
        <!-- mrs.domain.model.reservation.ReservableRoom&#45;&gt;mrs.domain.model.room.RoomId -->
        <g id="edge4" class="edge">
            <title>mrs.domain.model.reservation.ReservableRoom&#45;&gt;mrs.domain.model.room.RoomId</title>
            <path fill="none" stroke="black"
                  d="M353.38,-73.92C379.89,-59.02 412.39,-43.63 444,-36.1 548.52,-11.2 673.08,-28.34 751.85,-44.7"/>
            <polygon fill="black" stroke="black" points="751.2,-48.14 761.71,-46.8 752.65,-41.3 751.2,-48.14"/>
        </g>
        <!-- mrs.domain.model.reservation.ReservableRoomId&#45;&gt;mrs.domain.model.reservation.ReservedDate -->
        <g id="edge2" class="edge">
            <title>mrs.domain.model.reservation.ReservableRoomId&#45;&gt;mrs.domain.model.reservation.ReservedDate
            </title>
            <path fill="none" stroke="black" d="M702.37,-176.1C710.89,-176.1 719.4,-176.1 727.76,-176.1"/>
            <polygon fill="black" stroke="black" points="727.87,-179.6 737.87,-176.1 727.87,-172.6 727.87,-179.6"/>
        </g>
        <!-- mrs.domain.model.reservation.ReservableRoomId&#45;&gt;mrs.domain.model.room.RoomId -->
        <g id="edge5" class="edge">
            <title>mrs.domain.model.reservation.ReservableRoomId&#45;&gt;mrs.domain.model.room.RoomId</title>
            <path fill="none" stroke="black" d="M658.89,-138.96C689.1,-125.75 722.93,-110.94 752.48,-98.01"/>
            <polygon fill="black" stroke="black" points="754.16,-101.1 761.92,-93.88 751.36,-94.69 754.16,-101.1"/>
        </g>
        <!-- mrs.domain.model.reservation.ReservableRooms -->
        <g id="node3" class="node">
            <title>mrs.domain.model.reservation.ReservableRooms</title>
            <polygon fill="lemonchiffon" stroke="black" points="145,-130.1 0,-130.1 0,-92.1 145,-92.1 145,-130.1"/>
            <text text-anchor="middle" x="72.5" y="-114.9" font-family="Times,serif" font-size="14.00">予約可能会議室一覧</text>
            <text text-anchor="middle" x="72.5" y="-99.9" font-family="Times,serif" font-size="14.00">ReservableRooms
            </text>
        </g>
        <!-- mrs.domain.model.reservation.ReservableRooms&#45;&gt;mrs.domain.model.reservation.ReservableRoom -->
        <g id="edge9" class="edge">
            <title>mrs.domain.model.reservation.ReservableRooms&#45;&gt;mrs.domain.model.reservation.ReservableRoom
            </title>
            <path fill="none" stroke="black" d="M145.23,-111.1C153.43,-111.1 161.96,-111.1 170.59,-111.1"/>
            <polygon fill="black" stroke="black" points="170.76,-114.6 180.76,-111.1 170.76,-107.6 170.76,-114.6"/>
        </g>
        <!-- mrs.domain.model.reservation.Reservation -->
        <g id="node4" class="node">
            <title>mrs.domain.model.reservation.Reservation</title>
            <polygon fill="lemonchiffon" stroke="black" points="113,-195.1 32,-195.1 32,-157.1 113,-157.1 113,-195.1"/>
            <text text-anchor="middle" x="72.5" y="-179.9" font-family="Times,serif" font-size="14.00">予約</text>
            <text text-anchor="middle" x="72.5" y="-164.9" font-family="Times,serif" font-size="14.00">Reservation
            </text>
        </g>
        <!-- mrs.domain.model.reservation.Reservation&#45;&gt;mrs.domain.model.reservation.ReservableRoom -->
        <g id="edge10" class="edge">
            <title>mrs.domain.model.reservation.Reservation&#45;&gt;mrs.domain.model.reservation.ReservableRoom</title>
            <path fill="none" stroke="black" d="M113.09,-164.4C129.71,-159.49 150.05,-153.48 170.99,-147.3"/>
            <polygon fill="black" stroke="black" points="172.05,-150.63 180.65,-144.44 170.06,-143.92 172.05,-150.63"/>
        </g>
        <!-- mrs.domain.model.reservation.Reservation&#45;&gt;mrs.domain.model.reservation.ReservableRoomId -->
        <g id="edge8" class="edge">
            <title>mrs.domain.model.reservation.Reservation&#45;&gt;mrs.domain.model.reservation.ReservableRoomId
            </title>
            <path fill="none" stroke="black" d="M113.03,-176.1C181.53,-176.1 325.36,-176.1 433.86,-176.1"/>
            <polygon fill="black" stroke="black" points="433.92,-179.6 443.92,-176.1 433.92,-172.6 433.92,-179.6"/>
        </g>
        <!-- mrs.domain.model.reservation.Reservation&#45;&gt;mrs.domain.model.reservation.ReservedDate -->
        <g id="edge3" class="edge">
            <title>mrs.domain.model.reservation.Reservation&#45;&gt;mrs.domain.model.reservation.ReservedDate</title>
            <path fill="none" stroke="black"
                  d="M113.18,-185.68C212.91,-208.33 481.85,-260.46 702,-222.1 710.88,-220.55 719.97,-218.44 728.99,-215.97"/>
            <polygon fill="black" stroke="black" points="730.1,-219.29 738.74,-213.16 728.16,-212.57 730.1,-219.29"/>
        </g>
        <!-- mrs.domain.model.room.MeetingRoom -->
        <g id="node6" class="node">
            <title>mrs.domain.model.room.MeetingRoom</title>
            <polygon fill="lemonchiffon" stroke="black" points="621,-83.1 525,-83.1 525,-45.1 621,-45.1 621,-83.1"/>
            <text text-anchor="middle" x="573" y="-67.9" font-family="Times,serif" font-size="14.00">会議室</text>
            <text text-anchor="middle" x="573" y="-52.9" font-family="Times,serif" font-size="14.00">MeetingRoom</text>
        </g>
        <!-- mrs.domain.model.room.MeetingRoom&#45;&gt;mrs.domain.model.room.RoomId -->
        <g id="edge6" class="edge">
            <title>mrs.domain.model.room.MeetingRoom&#45;&gt;mrs.domain.model.room.RoomId</title>
            <path fill="none" stroke="black" d="M621.25,-64.1C657.77,-64.1 709.1,-64.1 751.72,-64.1"/>
            <polygon fill="black" stroke="black" points="751.79,-67.6 761.79,-64.1 751.79,-60.6 751.79,-67.6"/>
        </g>
    </g>
</svg>
