<svg width="982px" height="426px"
     viewBox="0.00 0.00 982.00 426.00" xmlns="http://www.w3.org/2000/svg">
    <g id="graph0" class="graph" transform="scale(1.0 1.0) rotate(0) translate(4 422)">
        <title>ビジネスルール関連図</title>
        <polygon fill="white" stroke="transparent" points="-4,4 -4,-422 978,-422 978,4 -4,4"/>
        <text text-anchor="middle" x="487" y="-7.8" font-family="Times,serif" font-size="14.00">ビジネスルール関連図</text>
        <g id="clust1" class="cluster">
            <title>cluster_mrs.domain.model.reservation</title>
            <polygon fill="lemonchiffon" stroke="#eedd82" stroke-width="2"
                     points="8,-31 8,-410 384,-410 384,-31 8,-31"/>
            <text text-anchor="middle" x="196" y="-394.8" font-family="Times,serif" font-size="14.00">reservation</text>
        </g>
        <g id="clust2" class="cluster">
            <title>cluster_mrs.domain.model.room</title>
            <polygon fill="lemonchiffon" stroke="#eedd82" stroke-width="2"
                     points="392,-31 392,-182 584,-182 584,-31 392,-31"/>
            <text text-anchor="middle" x="488" y="-166.8" font-family="Times,serif" font-size="14.00">room</text>
        </g>
        <g id="clust3" class="cluster">
            <title>cluster_mrs.domain.model.user</title>
            <polygon fill="lemonchiffon" stroke="#eedd82" stroke-width="2"
                     points="592,-105 592,-259 966,-259 966,-105 592,-105"/>
            <text text-anchor="middle" x="779" y="-243.8" font-family="Times,serif" font-size="14.00">user</text>
        </g>
        <g id="clust4" class="cluster">
            <title>cluster_mrs.domain.type.date</title>
            <polygon fill="lemonchiffon" stroke="#eedd82" stroke-width="2"
                     points="593,-333 593,-410 765,-410 765,-333 593,-333"/>
            <text text-anchor="middle" x="679" y="-394.8" font-family="Times,serif" font-size="14.00">date</text>
        </g>
        <!-- mrs.domain.model.reservation.ReservableRoom -->
        <g id="node1" class="node">
            <title>mrs.domain.model.reservation.ReservableRoom</title>
            <polygon fill="#eedd82" stroke="black" points="376,-228 260,-228 260,-190 376,-190 376,-228"/>
            <text text-anchor="middle" x="318" y="-212.8" font-family="Times,serif" font-size="14.00">予約可能会議室</text>
            <text text-anchor="middle" x="318" y="-197.8" font-family="Times,serif" font-size="14.00">ReservableRoom
            </text>
        </g>
        <!-- mrs.domain.model.reservation.ReservableRoomId -->
        <g id="node2" class="node">
            <title>mrs.domain.model.reservation.ReservableRoomId</title>
            <polygon fill="#eedd82" stroke="black" points="375.5,-151 244.5,-151 244.5,-113 375.5,-113 375.5,-151"/>
            <text text-anchor="middle" x="310" y="-135.8" font-family="Times,serif" font-size="14.00">予約可能会議室ID</text>
            <text text-anchor="middle" x="310" y="-120.8" font-family="Times,serif" font-size="14.00">ReservableRoomId
            </text>
        </g>
        <!-- mrs.domain.model.reservation.ReservableRoom&#45;&gt;mrs.domain.model.reservation.ReservableRoomId -->
        <g id="edge4" class="edge">
            <title>mrs.domain.model.reservation.ReservableRoom&#45;&gt;mrs.domain.model.reservation.ReservableRoomId
            </title>
            <path fill="none" stroke="black" d="M316.06,-189.84C315.16,-181.34 314.05,-171.01 313.04,-161.5"/>
            <polygon fill="black" stroke="black" points="316.49,-160.82 311.95,-151.25 309.53,-161.56 316.49,-160.82"/>
        </g>
        <!-- mrs.domain.model.room.MeetingRoom -->
        <g id="node9" class="node">
            <title>mrs.domain.model.room.MeetingRoom</title>
            <polygon fill="#eedd82" stroke="black" points="496,-151 400,-151 400,-113 496,-113 496,-151"/>
            <text text-anchor="middle" x="448" y="-135.8" font-family="Times,serif" font-size="14.00">会議室</text>
            <text text-anchor="middle" x="448" y="-120.8" font-family="Times,serif" font-size="14.00">MeetingRoom</text>
        </g>
        <!-- mrs.domain.model.reservation.ReservableRoom&#45;&gt;mrs.domain.model.room.MeetingRoom -->
        <g id="edge5" class="edge">
            <title>mrs.domain.model.reservation.ReservableRoom&#45;&gt;mrs.domain.model.room.MeetingRoom</title>
            <path fill="none" stroke="black"
                  d="M372.32,-189.87C377.73,-187.46 383.05,-184.84 388,-182 399.79,-175.25 411.61,-166.2 421.61,-157.71"/>
            <polygon fill="black" stroke="black" points="423.97,-160.3 429.2,-151.08 419.37,-155.02 423.97,-160.3"/>
        </g>
        <!-- mrs.domain.model.reservation.ReservedDate -->
        <g id="node7" class="node">
            <title>mrs.domain.model.reservation.ReservedDate</title>
            <polygon fill="#eedd82" stroke="black" points="356,-77 264,-77 264,-39 356,-39 356,-77"/>
            <text text-anchor="middle" x="310" y="-61.8" font-family="Times,serif" font-size="14.00">予約日</text>
            <text text-anchor="middle" x="310" y="-46.8" font-family="Times,serif" font-size="14.00">ReservedDate</text>
        </g>
        <!-- mrs.domain.model.reservation.ReservableRoomId&#45;&gt;mrs.domain.model.reservation.ReservedDate -->
        <g id="edge6" class="edge">
            <title>mrs.domain.model.reservation.ReservableRoomId&#45;&gt;mrs.domain.model.reservation.ReservedDate
            </title>
            <path fill="none" stroke="black" d="M310,-112.83C310,-105.13 310,-95.97 310,-87.42"/>
            <polygon fill="black" stroke="black" points="313.5,-87.41 310,-77.41 306.5,-87.41 313.5,-87.41"/>
        </g>
        <!-- mrs.domain.model.room.RoomId -->
        <g id="node10" class="node">
            <title>mrs.domain.model.room.RoomId</title>
            <polygon fill="#eedd82" stroke="black" points="474,-77 400,-77 400,-39 474,-39 474,-77"/>
            <text text-anchor="middle" x="437" y="-61.8" font-family="Times,serif" font-size="14.00">会議室ID</text>
            <text text-anchor="middle" x="437" y="-46.8" font-family="Times,serif" font-size="14.00">RoomId</text>
        </g>
        <!-- mrs.domain.model.reservation.ReservableRoomId&#45;&gt;mrs.domain.model.room.RoomId -->
        <g id="edge7" class="edge">
            <title>mrs.domain.model.reservation.ReservableRoomId&#45;&gt;mrs.domain.model.room.RoomId</title>
            <path fill="none" stroke="black" d="M342.05,-112.83C358.44,-103.54 378.58,-92.12 396.08,-82.2"/>
            <polygon fill="black" stroke="black" points="397.99,-85.14 404.96,-77.16 394.54,-79.05 397.99,-85.14"/>
        </g>
        <!-- mrs.domain.model.reservation.ReservableRooms -->
        <g id="node3" class="node">
            <title>mrs.domain.model.reservation.ReservableRooms</title>
            <polygon fill="#eedd82" stroke="black" points="375.5,-305 230.5,-305 230.5,-267 375.5,-267 375.5,-305"/>
            <text text-anchor="middle" x="303" y="-289.8" font-family="Times,serif" font-size="14.00">予約可能会議室集合</text>
            <text text-anchor="middle" x="303" y="-274.8" font-family="Times,serif" font-size="14.00">ReservableRooms
            </text>
        </g>
        <!-- mrs.domain.model.reservation.ReservableRooms&#45;&gt;mrs.domain.model.reservation.ReservableRoom -->
        <g id="edge3" class="edge">
            <title>mrs.domain.model.reservation.ReservableRooms&#45;&gt;mrs.domain.model.reservation.ReservableRoom
            </title>
            <path fill="none" stroke="black" d="M306.63,-266.84C308.35,-258.25 310.44,-247.79 312.36,-238.19"/>
            <polygon fill="black" stroke="black" points="315.82,-238.74 314.35,-228.25 308.96,-237.37 315.82,-238.74"/>
        </g>
        <!-- mrs.domain.model.reservation.Reservation -->
        <g id="node4" class="node">
            <title>mrs.domain.model.reservation.Reservation</title>
            <polygon fill="#eedd82" stroke="black" points="212.5,-305 131.5,-305 131.5,-267 212.5,-267 212.5,-305"/>
            <text text-anchor="middle" x="172" y="-289.8" font-family="Times,serif" font-size="14.00">予約</text>
            <text text-anchor="middle" x="172" y="-274.8" font-family="Times,serif" font-size="14.00">Reservation</text>
        </g>
        <!-- mrs.domain.model.reservation.Reservation&#45;&gt;mrs.domain.model.reservation.ReservableRoom -->
        <g id="edge8" class="edge">
            <title>mrs.domain.model.reservation.Reservation&#45;&gt;mrs.domain.model.reservation.ReservableRoom</title>
            <path fill="none" stroke="black"
                  d="M212.57,-270.1C215.75,-269.02 218.92,-267.98 222,-267 234.74,-262.95 238.96,-264.82 251,-259 264.57,-252.44 278.24,-243.06 289.66,-234.26"/>
            <polygon fill="black" stroke="black" points="291.89,-236.96 297.54,-228 287.53,-231.48 291.89,-236.96"/>
        </g>
        <!-- mrs.domain.model.reservation.Reservation&#45;&gt;mrs.domain.model.reservation.ReservableRoomId -->
        <g id="edge9" class="edge">
            <title>mrs.domain.model.reservation.Reservation&#45;&gt;mrs.domain.model.reservation.ReservableRoomId
            </title>
            <path fill="none" stroke="black"
                  d="M131.3,-283.37C93.15,-280.89 40.09,-274.64 27,-259 7.32,-235.48 7.57,-213.73 27,-190 52.74,-158.56 159.38,-144.08 234.13,-137.69"/>
            <polygon fill="black" stroke="black" points="234.77,-141.15 244.45,-136.84 234.2,-134.17 234.77,-141.15"/>
        </g>
        <!-- mrs.domain.model.reservation.ReservationId -->
        <g id="node5" class="node">
            <title>mrs.domain.model.reservation.ReservationId</title>
            <polygon fill="#eedd82" stroke="black" points="128,-228 36,-228 36,-190 128,-190 128,-228"/>
            <text text-anchor="middle" x="82" y="-212.8" font-family="Times,serif" font-size="14.00">予約ID</text>
            <text text-anchor="middle" x="82" y="-197.8" font-family="Times,serif" font-size="14.00">ReservationId
            </text>
        </g>
        <!-- mrs.domain.model.reservation.Reservation&#45;&gt;mrs.domain.model.reservation.ReservationId -->
        <g id="edge10" class="edge">
            <title>mrs.domain.model.reservation.Reservation&#45;&gt;mrs.domain.model.reservation.ReservationId</title>
            <path fill="none" stroke="black"
                  d="M146.94,-266.8C143.56,-264.23 140.17,-261.58 137,-259 127.74,-251.46 117.91,-242.9 109.17,-235.06"/>
            <polygon fill="black" stroke="black" points="111.25,-232.23 101.49,-228.12 106.56,-237.43 111.25,-232.23"/>
        </g>
        <!-- mrs.domain.model.reservation.ReservedTime -->
        <g id="node8" class="node">
            <title>mrs.domain.model.reservation.ReservedTime</title>
            <polygon fill="#eedd82" stroke="black" points="242,-228 146,-228 146,-190 242,-190 242,-228"/>
            <text text-anchor="middle" x="194" y="-212.8" font-family="Times,serif" font-size="14.00">予約時間</text>
            <text text-anchor="middle" x="194" y="-197.8" font-family="Times,serif" font-size="14.00">ReservedTime
            </text>
        </g>
        <!-- mrs.domain.model.reservation.Reservation&#45;&gt;mrs.domain.model.reservation.ReservedTime -->
        <g id="edge11" class="edge">
            <title>mrs.domain.model.reservation.Reservation&#45;&gt;mrs.domain.model.reservation.ReservedTime</title>
            <path fill="none" stroke="black" d="M177.33,-266.84C179.87,-258.16 182.98,-247.56 185.82,-237.88"/>
            <polygon fill="black" stroke="black" points="189.19,-238.83 188.65,-228.25 182.47,-236.86 189.19,-238.83"/>
        </g>
        <!-- mrs.domain.model.user.User -->
        <g id="node15" class="node">
            <title>mrs.domain.model.user.User</title>
            <polygon fill="#eedd82" stroke="black" points="752,-228 678,-228 678,-190 752,-190 752,-228"/>
            <text text-anchor="middle" x="715" y="-212.8" font-family="Times,serif" font-size="14.00">ユーザー</text>
            <text text-anchor="middle" x="715" y="-197.8" font-family="Times,serif" font-size="14.00">User</text>
        </g>
        <!-- mrs.domain.model.reservation.Reservation&#45;&gt;mrs.domain.model.user.User -->
        <g id="edge12" class="edge">
            <title>mrs.domain.model.reservation.Reservation&#45;&gt;mrs.domain.model.user.User</title>
            <path fill="none" stroke="black"
                  d="M212.65,-269.25C215.78,-268.38 218.92,-267.61 222,-267 294.44,-252.55 314.49,-266.26 388,-259 488.11,-249.11 604.39,-229.8 667.8,-218.6"/>
            <polygon fill="black" stroke="black" points="668.65,-222 677.88,-216.81 667.42,-215.11 668.65,-222"/>
        </g>
        <!-- mrs.domain.model.reservation.Reservations -->
        <g id="node6" class="node">
            <title>mrs.domain.model.reservation.Reservations</title>
            <polygon fill="#eedd82" stroke="black" points="215,-379 129,-379 129,-341 215,-341 215,-379"/>
            <text text-anchor="middle" x="172" y="-363.8" font-family="Times,serif" font-size="14.00">予約集合</text>
            <text text-anchor="middle" x="172" y="-348.8" font-family="Times,serif" font-size="14.00">Reservations
            </text>
        </g>
        <!-- mrs.domain.model.reservation.Reservations&#45;&gt;mrs.domain.model.reservation.Reservation -->
        <g id="edge13" class="edge">
            <title>mrs.domain.model.reservation.Reservations&#45;&gt;mrs.domain.model.reservation.Reservation</title>
            <path fill="none" stroke="black" d="M172,-340.83C172,-333.13 172,-323.97 172,-315.42"/>
            <polygon fill="black" stroke="black" points="175.5,-315.41 172,-305.41 168.5,-315.41 175.5,-315.41"/>
        </g>
        <!-- mrs.domain.model.room.MeetingRoom&#45;&gt;mrs.domain.model.room.RoomId -->
        <g id="edge1" class="edge">
            <title>mrs.domain.model.room.MeetingRoom&#45;&gt;mrs.domain.model.room.RoomId</title>
            <path fill="none" stroke="black" d="M445.22,-112.83C444.05,-105.13 442.65,-95.97 441.34,-87.42"/>
            <polygon fill="black" stroke="black" points="444.78,-86.77 439.81,-77.41 437.86,-87.83 444.78,-86.77"/>
        </g>
        <!-- mrs.domain.model.room.RoomName -->
        <g id="node11" class="node">
            <title>mrs.domain.model.room.RoomName</title>
            <polygon fill="#eedd82" stroke="black" points="575.5,-77 492.5,-77 492.5,-39 575.5,-39 575.5,-77"/>
            <text text-anchor="middle" x="534" y="-61.8" font-family="Times,serif" font-size="14.00">会議室名</text>
            <text text-anchor="middle" x="534" y="-46.8" font-family="Times,serif" font-size="14.00">RoomName</text>
        </g>
        <!-- mrs.domain.model.room.MeetingRoom&#45;&gt;mrs.domain.model.room.RoomName -->
        <g id="edge2" class="edge">
            <title>mrs.domain.model.room.MeetingRoom&#45;&gt;mrs.domain.model.room.RoomName</title>
            <path fill="none" stroke="black" d="M469.7,-112.83C480.19,-104.05 492.95,-93.37 504.32,-83.85"/>
            <polygon fill="black" stroke="black" points="506.88,-86.27 512.31,-77.16 502.39,-80.9 506.88,-86.27"/>
        </g>
        <!-- mrs.domain.model.user.Name -->
        <g id="node12" class="node">
            <title>mrs.domain.model.user.Name</title>
            <polygon fill="#eedd82" stroke="black" points="654,-151 600,-151 600,-113 654,-113 654,-151"/>
            <text text-anchor="middle" x="627" y="-135.8" font-family="Times,serif" font-size="14.00">氏名</text>
            <text text-anchor="middle" x="627" y="-120.8" font-family="Times,serif" font-size="14.00">Name</text>
        </g>
        <!-- mrs.domain.model.user.Password -->
        <g id="node13" class="node">
            <title>mrs.domain.model.user.Password</title>
            <polygon fill="#eedd82" stroke="black" points="758,-151 672,-151 672,-113 758,-113 758,-151"/>
            <text text-anchor="middle" x="715" y="-135.8" font-family="Times,serif" font-size="14.00">パスワード</text>
            <text text-anchor="middle" x="715" y="-120.8" font-family="Times,serif" font-size="14.00">Password</text>
        </g>
        <!-- mrs.domain.model.user.RoleName -->
        <g id="node14" class="node">
            <title>mrs.domain.model.user.RoleName</title>
            <polygon fill="#eedd82" stroke="black" points="851.5,-151 776.5,-151 776.5,-113 851.5,-113 851.5,-151"/>
            <text text-anchor="middle" x="814" y="-135.8" font-family="Times,serif" font-size="14.00">役割</text>
            <text text-anchor="middle" x="814" y="-120.8" font-family="Times,serif" font-size="14.00">RoleName</text>
        </g>
        <!-- mrs.domain.model.user.User&#45;&gt;mrs.domain.model.user.Name -->
        <g id="edge14" class="edge">
            <title>mrs.domain.model.user.User&#45;&gt;mrs.domain.model.user.Name</title>
            <path fill="none" stroke="black"
                  d="M677.83,-192.17C672.59,-189.17 667.48,-185.77 663,-182 655.61,-175.77 648.9,-167.73 643.33,-159.97"/>
            <polygon fill="black" stroke="black" points="646.06,-157.76 637.55,-151.44 640.27,-161.68 646.06,-157.76"/>
        </g>
        <!-- mrs.domain.model.user.User&#45;&gt;mrs.domain.model.user.Password -->
        <g id="edge15" class="edge">
            <title>mrs.domain.model.user.User&#45;&gt;mrs.domain.model.user.Password</title>
            <path fill="none" stroke="black" d="M715,-189.84C715,-181.34 715,-171.01 715,-161.5"/>
            <polygon fill="black" stroke="black" points="718.5,-161.25 715,-151.25 711.5,-161.25 718.5,-161.25"/>
        </g>
        <!-- mrs.domain.model.user.User&#45;&gt;mrs.domain.model.user.RoleName -->
        <g id="edge16" class="edge">
            <title>mrs.domain.model.user.User&#45;&gt;mrs.domain.model.user.RoleName</title>
            <path fill="none" stroke="black"
                  d="M752.02,-191.48C757.22,-188.59 762.37,-185.41 767,-182 775.97,-175.39 784.72,-166.99 792.19,-159.01"/>
            <polygon fill="black" stroke="black" points="795.09,-161.02 799.2,-151.26 789.9,-156.33 795.09,-161.02"/>
        </g>
        <!-- mrs.domain.model.user.UserId -->
        <g id="node16" class="node">
            <title>mrs.domain.model.user.UserId</title>
            <polygon fill="#eedd82" stroke="black" points="958,-151 870,-151 870,-113 958,-113 958,-151"/>
            <text text-anchor="middle" x="914" y="-135.8" font-family="Times,serif" font-size="14.00">ユーザーID</text>
            <text text-anchor="middle" x="914" y="-120.8" font-family="Times,serif" font-size="14.00">UserId</text>
        </g>
        <!-- mrs.domain.model.user.User&#45;&gt;mrs.domain.model.user.UserId -->
        <g id="edge17" class="edge">
            <title>mrs.domain.model.user.User&#45;&gt;mrs.domain.model.user.UserId</title>
            <path fill="none" stroke="black"
                  d="M752.19,-207.12C782.82,-205.08 826.65,-199.07 861,-182 872.57,-176.25 883.42,-167.18 892.25,-158.4"/>
            <polygon fill="black" stroke="black" points="894.78,-160.82 899.17,-151.17 889.73,-155.98 894.78,-160.82"/>
        </g>
        <!-- mrs.domain.type.date.CurrentDate -->
        <g id="node17" class="node">
            <title>mrs.domain.type.date.CurrentDate</title>
            <polygon fill="#eedd82" stroke="red" points="756.5,-379 673.5,-379 673.5,-341 756.5,-341 756.5,-379"/>
            <text text-anchor="middle" x="715" y="-363.8" font-family="Times,serif" font-size="14.00">現在日</text>
            <text text-anchor="middle" x="715" y="-348.8" font-family="Times,serif" font-size="14.00">CurrentDate</text>
        </g>
        <!-- mrs.domain.type.date.Days -->
        <g id="node18" class="node">
            <title>mrs.domain.type.date.Days</title>
            <polygon fill="#eedd82" stroke="red" points="655,-379 601,-379 601,-341 655,-341 655,-379"/>
            <text text-anchor="middle" x="628" y="-363.8" font-family="Times,serif" font-size="14.00">日数</text>
            <text text-anchor="middle" x="628" y="-348.8" font-family="Times,serif" font-size="14.00">Days</text>
        </g>
    </g>
</svg>
