<svg width="1298px" height="426px"
 viewBox="0.00 0.00 1298.00 426.00" xmlns="http://www.w3.org/2000/svg" xmlns:xlink="http://www.w3.org/1999/xlink">
<g id="graph0" class="graph" transform="scale(1.0 1.0) rotate(0) translate(4 422)">
<title>ビジネスルール関連図</title>
<polygon fill="white" stroke="transparent" points="-4,4 -4,-422 1294,-422 1294,4 -4,4"/>
<text text-anchor="middle" x="645" y="-7.8" font-family="Times,serif" font-size="14.00">ビジネスルール関連図</text>
<g id="clust1" class="cluster">
<title>cluster_mrs.domain.model</title>
<polygon fill="lemonchiffon" stroke="#eedd82" stroke-width="2" points="8,-334 8,-409 296,-409 296,-334 8,-334"/>
<text text-anchor="middle" x="152" y="-393.8" font-family="Times,serif" font-size="14.00">mrs.domain.model</text>
</g>
<g id="clust2" class="cluster">
<title>cluster_mrs.domain.model.reservation</title>
<polygon fill="lemonchiffon" stroke="#eedd82" stroke-width="2" points="304,-31 304,-410 700,-410 700,-31 304,-31"/>
<text text-anchor="middle" x="502" y="-394.8" font-family="Times,serif" font-size="14.00">reservation</text>
</g>
<g id="clust3" class="cluster">
<title>cluster_mrs.domain.model.room</title>
<polygon fill="lemonchiffon" stroke="#eedd82" stroke-width="2" points="708,-31 708,-182 900,-182 900,-31 708,-31"/>
<text text-anchor="middle" x="804" y="-166.8" font-family="Times,serif" font-size="14.00">room</text>
</g>
<g id="clust4" class="cluster">
<title>cluster_mrs.domain.model.todo</title>
<polygon fill="lemonchiffon" stroke="#eedd82" stroke-width="2" points="860,-333 860,-410 950,-410 950,-333 860,-333"/>
<text text-anchor="middle" x="905" y="-394.8" font-family="Times,serif" font-size="14.00">todo</text>
</g>
<g id="clust5" class="cluster">
<title>cluster_mrs.domain.model.user</title>
<polygon fill="lemonchiffon" stroke="#eedd82" stroke-width="2" points="908,-105 908,-259 1282,-259 1282,-105 908,-105"/>
<text text-anchor="middle" x="1095" y="-243.8" font-family="Times,serif" font-size="14.00">user</text>
</g>
<g id="clust6" class="cluster">
<title>cluster_mrs.domain.type.date</title>
<polygon fill="lemonchiffon" stroke="#eedd82" stroke-width="2" points="1034,-333 1034,-410 1206,-410 1206,-333 1034,-333"/>
<text text-anchor="middle" x="1120" y="-394.8" font-family="Times,serif" font-size="14.00">date</text>
</g>
<!-- mrs.domain.model.ReservableRoom -->
<g id="node1" class="node">
<title>mrs.domain.model.ReservableRoom</title>
<polygon fill="#eedd82" stroke="red" points="288,-378 178,-378 178,-342 288,-342 288,-378"/>
<text text-anchor="middle" x="233" y="-356.3" font-family="Times,serif" font-size="14.00">ReservableRoom</text>
</g>
<!-- mrs.domain.model.TestTable -->
<g id="node2" class="node">
<title>mrs.domain.model.TestTable</title>
<polygon fill="#eedd82" stroke="red" points="159.5,-378 88.5,-378 88.5,-342 159.5,-342 159.5,-378"/>
<text text-anchor="middle" x="124" y="-356.3" font-family="Times,serif" font-size="14.00">TestTable</text>
</g>
<!-- mrs.domain.model.Usr -->
<g id="node3" class="node">
<title>mrs.domain.model.Usr</title>
<polygon fill="#eedd82" stroke="red" points="70,-378 16,-378 16,-342 70,-342 70,-378"/>
<text text-anchor="middle" x="43" y="-356.3" font-family="Times,serif" font-size="14.00">Usr</text>
</g>
<!-- mrs.domain.model.reservation.ReservableRoom -->
<g id="node4" class="node">
<title>mrs.domain.model.reservation.ReservableRoom</title>
<polygon fill="#eedd82" stroke="black" points="692,-228 576,-228 576,-190 692,-190 692,-228"/>
<text text-anchor="middle" x="634" y="-212.8" font-family="Times,serif" font-size="14.00">予約可能会議室</text>
<text text-anchor="middle" x="634" y="-197.8" font-family="Times,serif" font-size="14.00">ReservableRoom</text>
</g>
<!-- mrs.domain.model.reservation.ReservableRoomId -->
<g id="node5" class="node">
<title>mrs.domain.model.reservation.ReservableRoomId</title>
<polygon fill="#eedd82" stroke="black" points="656.5,-151 525.5,-151 525.5,-113 656.5,-113 656.5,-151"/>
<text text-anchor="middle" x="591" y="-135.8" font-family="Times,serif" font-size="14.00">予約可能会議室ID</text>
<text text-anchor="middle" x="591" y="-120.8" font-family="Times,serif" font-size="14.00">ReservableRoomId</text>
</g>
<!-- mrs.domain.model.reservation.ReservableRoom&#45;&gt;mrs.domain.model.reservation.ReservableRoomId -->
<g id="edge4" class="edge">
<title>mrs.domain.model.reservation.ReservableRoom&#45;&gt;mrs.domain.model.reservation.ReservableRoomId</title>
<path fill="none" stroke="black" d="M623.59,-189.84C618.45,-180.88 612.15,-169.89 606.46,-159.97"/>
<polygon fill="black" stroke="black" points="609.47,-158.18 601.46,-151.25 603.4,-161.66 609.47,-158.18"/>
</g>
<!-- mrs.domain.model.room.MeetingRoom -->
<g id="node12" class="node">
<title>mrs.domain.model.room.MeetingRoom</title>
<polygon fill="#eedd82" stroke="black" points="812,-151 716,-151 716,-113 812,-113 812,-151"/>
<text text-anchor="middle" x="764" y="-135.8" font-family="Times,serif" font-size="14.00">会議室</text>
<text text-anchor="middle" x="764" y="-120.8" font-family="Times,serif" font-size="14.00">MeetingRoom</text>
</g>
<!-- mrs.domain.model.reservation.ReservableRoom&#45;&gt;mrs.domain.model.room.MeetingRoom -->
<g id="edge5" class="edge">
<title>mrs.domain.model.reservation.ReservableRoom&#45;&gt;mrs.domain.model.room.MeetingRoom</title>
<path fill="none" stroke="black" d="M688.32,-189.87C693.73,-187.46 699.05,-184.84 704,-182 715.79,-175.25 727.61,-166.2 737.61,-157.71"/>
<polygon fill="black" stroke="black" points="739.97,-160.3 745.2,-151.08 735.37,-155.02 739.97,-160.3"/>
</g>
<!-- mrs.domain.model.reservation.ReservedDate -->
<g id="node10" class="node">
<title>mrs.domain.model.reservation.ReservedDate</title>
<polygon fill="#eedd82" stroke="black" points="536,-77 444,-77 444,-39 536,-39 536,-77"/>
<text text-anchor="middle" x="490" y="-61.8" font-family="Times,serif" font-size="14.00">予約日</text>
<text text-anchor="middle" x="490" y="-46.8" font-family="Times,serif" font-size="14.00">ReservedDate</text>
</g>
<!-- mrs.domain.model.reservation.ReservableRoomId&#45;&gt;mrs.domain.model.reservation.ReservedDate -->
<g id="edge6" class="edge">
<title>mrs.domain.model.reservation.ReservableRoomId&#45;&gt;mrs.domain.model.reservation.ReservedDate</title>
<path fill="none" stroke="black" d="M565.51,-112.83C552.83,-103.79 537.34,-92.75 523.69,-83.02"/>
<polygon fill="black" stroke="black" points="525.65,-80.12 515.48,-77.16 521.59,-85.82 525.65,-80.12"/>
</g>
<!-- mrs.domain.model.room.RoomId -->
<g id="node13" class="node">
<title>mrs.domain.model.room.RoomId</title>
<polygon fill="#eedd82" stroke="black" points="790,-77 716,-77 716,-39 790,-39 790,-77"/>
<text text-anchor="middle" x="753" y="-61.8" font-family="Times,serif" font-size="14.00">会議室ID</text>
<text text-anchor="middle" x="753" y="-46.8" font-family="Times,serif" font-size="14.00">RoomId</text>
</g>
<!-- mrs.domain.model.reservation.ReservableRoomId&#45;&gt;mrs.domain.model.room.RoomId -->
<g id="edge7" class="edge">
<title>mrs.domain.model.reservation.ReservableRoomId&#45;&gt;mrs.domain.model.room.RoomId</title>
<path fill="none" stroke="black" d="M631.88,-112.83C654.53,-102.76 682.79,-90.2 706.31,-79.75"/>
<polygon fill="black" stroke="black" points="708.02,-82.82 715.74,-75.56 705.18,-76.42 708.02,-82.82"/>
</g>
<!-- mrs.domain.model.reservation.ReservableRooms -->
<g id="node6" class="node">
<title>mrs.domain.model.reservation.ReservableRooms</title>
<polygon fill="#eedd82" stroke="black" points="691.5,-305 546.5,-305 546.5,-267 691.5,-267 691.5,-305"/>
<text text-anchor="middle" x="619" y="-289.8" font-family="Times,serif" font-size="14.00">予約可能会議室一覧</text>
<text text-anchor="middle" x="619" y="-274.8" font-family="Times,serif" font-size="14.00">ReservableRooms</text>
</g>
<!-- mrs.domain.model.reservation.ReservableRooms&#45;&gt;mrs.domain.model.reservation.ReservableRoom -->
<g id="edge3" class="edge">
<title>mrs.domain.model.reservation.ReservableRooms&#45;&gt;mrs.domain.model.reservation.ReservableRoom</title>
<path fill="none" stroke="black" d="M622.63,-266.84C624.35,-258.25 626.44,-247.79 628.36,-238.19"/>
<polygon fill="black" stroke="black" points="631.82,-238.74 630.35,-228.25 624.96,-237.37 631.82,-238.74"/>
</g>
<!-- mrs.domain.model.reservation.Reservation -->
<g id="node7" class="node">
<title>mrs.domain.model.reservation.Reservation</title>
<polygon fill="#eedd82" stroke="black" points="528.5,-305 447.5,-305 447.5,-267 528.5,-267 528.5,-305"/>
<text text-anchor="middle" x="488" y="-289.8" font-family="Times,serif" font-size="14.00">予約</text>
<text text-anchor="middle" x="488" y="-274.8" font-family="Times,serif" font-size="14.00">Reservation</text>
</g>
<!-- mrs.domain.model.reservation.Reservation&#45;&gt;mrs.domain.model.reservation.ReservableRoom -->
<g id="edge8" class="edge">
<title>mrs.domain.model.reservation.Reservation&#45;&gt;mrs.domain.model.reservation.ReservableRoom</title>
<path fill="none" stroke="black" d="M528.59,-269.94C531.43,-268.93 534.26,-267.94 537,-267 548.03,-263.21 551.51,-264.11 562,-259 576.13,-252.11 590.67,-242.73 602.94,-234.02"/>
<polygon fill="black" stroke="black" points="605.01,-236.85 611.05,-228.14 600.9,-231.18 605.01,-236.85"/>
</g>
<!-- mrs.domain.model.reservation.Reservation&#45;&gt;mrs.domain.model.reservation.ReservableRoomId -->
<g id="edge9" class="edge">
<title>mrs.domain.model.reservation.Reservation&#45;&gt;mrs.domain.model.reservation.ReservableRoomId</title>
<path fill="none" stroke="black" d="M528.53,-270.08C536.84,-266.36 543.98,-262.45 547,-259 568.03,-234.97 556.34,-220.1 567,-190 570.48,-180.16 574.78,-169.57 578.78,-160.22"/>
<polygon fill="black" stroke="black" points="582,-161.58 582.78,-151.01 575.58,-158.79 582,-161.58"/>
</g>
<!-- mrs.domain.model.reservation.ReservationId -->
<g id="node8" class="node">
<title>mrs.domain.model.reservation.ReservationId</title>
<polygon fill="#eedd82" stroke="black" points="404,-228 312,-228 312,-190 404,-190 404,-228"/>
<text text-anchor="middle" x="358" y="-212.8" font-family="Times,serif" font-size="14.00">予約ID</text>
<text text-anchor="middle" x="358" y="-197.8" font-family="Times,serif" font-size="14.00">ReservationId</text>
</g>
<!-- mrs.domain.model.reservation.Reservation&#45;&gt;mrs.domain.model.reservation.ReservationId -->
<g id="edge10" class="edge">
<title>mrs.domain.model.reservation.Reservation&#45;&gt;mrs.domain.model.reservation.ReservationId</title>
<path fill="none" stroke="black" d="M447.36,-272.48C437.47,-268.74 427.11,-264.22 418,-259 406.21,-252.25 394.39,-243.2 384.39,-234.71"/>
<polygon fill="black" stroke="black" points="386.63,-232.02 376.8,-228.08 382.03,-237.3 386.63,-232.02"/>
</g>
<!-- mrs.domain.model.reservation.Reservation&#45;&gt;mrs.domain.model.reservation.ReservedDate -->
<g id="edge11" class="edge">
<title>mrs.domain.model.reservation.Reservation&#45;&gt;mrs.domain.model.reservation.ReservedDate</title>
<path fill="none" stroke="black" d="M447.42,-272.53C441.7,-269.05 436.56,-264.62 433,-259 416.59,-233.09 426.75,-220.02 433,-190 440.88,-152.15 460.29,-111.83 474.27,-86.08"/>
<polygon fill="black" stroke="black" points="477.36,-87.73 479.15,-77.28 471.24,-84.33 477.36,-87.73"/>
</g>
<!-- mrs.domain.model.reservation.ReservedTime -->
<g id="node11" class="node">
<title>mrs.domain.model.reservation.ReservedTime</title>
<polygon fill="#eedd82" stroke="black" points="538,-228 442,-228 442,-190 538,-190 538,-228"/>
<text text-anchor="middle" x="490" y="-212.8" font-family="Times,serif" font-size="14.00">予約時間</text>
<text text-anchor="middle" x="490" y="-197.8" font-family="Times,serif" font-size="14.00">ReservedTime</text>
</g>
<!-- mrs.domain.model.reservation.Reservation&#45;&gt;mrs.domain.model.reservation.ReservedTime -->
<g id="edge12" class="edge">
<title>mrs.domain.model.reservation.Reservation&#45;&gt;mrs.domain.model.reservation.ReservedTime</title>
<path fill="none" stroke="black" d="M488.48,-266.84C488.71,-258.34 488.99,-248.01 489.24,-238.5"/>
<polygon fill="black" stroke="black" points="492.75,-238.34 489.51,-228.25 485.75,-238.15 492.75,-238.34"/>
</g>
<!-- mrs.domain.model.user.User -->
<g id="node19" class="node">
<title>mrs.domain.model.user.User</title>
<polygon fill="#eedd82" stroke="black" points="1068,-228 994,-228 994,-190 1068,-190 1068,-228"/>
<text text-anchor="middle" x="1031" y="-212.8" font-family="Times,serif" font-size="14.00">ユーザー</text>
<text text-anchor="middle" x="1031" y="-197.8" font-family="Times,serif" font-size="14.00">User</text>
</g>
<!-- mrs.domain.model.reservation.Reservation&#45;&gt;mrs.domain.model.user.User -->
<g id="edge13" class="edge">
<title>mrs.domain.model.reservation.Reservation&#45;&gt;mrs.domain.model.user.User</title>
<path fill="none" stroke="black" d="M528.64,-269.02C531.44,-268.24 534.25,-267.56 537,-267 609.83,-252.24 630.05,-266.29 704,-259 804.11,-249.13 920.4,-229.81 983.8,-218.6"/>
<polygon fill="black" stroke="black" points="984.65,-222.01 993.88,-216.81 983.42,-215.12 984.65,-222.01"/>
</g>
<!-- mrs.domain.model.user.UserId -->
<g id="node20" class="node">
<title>mrs.domain.model.user.UserId</title>
<polygon fill="#eedd82" stroke="black" points="1274,-151 1186,-151 1186,-113 1274,-113 1274,-151"/>
<text text-anchor="middle" x="1230" y="-135.8" font-family="Times,serif" font-size="14.00">ユーザーID</text>
<text text-anchor="middle" x="1230" y="-120.8" font-family="Times,serif" font-size="14.00">UserId</text>
</g>
<!-- mrs.domain.model.reservation.Reservation&#45;&gt;mrs.domain.model.user.UserId -->
<g id="edge14" class="edge">
<title>mrs.domain.model.reservation.Reservation&#45;&gt;mrs.domain.model.user.UserId</title>
<path fill="none" stroke="black" d="M528.62,-268.92C531.43,-268.16 534.24,-267.51 537,-267 566.5,-261.53 1048.67,-268.88 1077,-259 1132.48,-239.66 1182.01,-190.07 1208.85,-159.18"/>
<polygon fill="black" stroke="black" points="1211.67,-161.27 1215.49,-151.38 1206.34,-156.73 1211.67,-161.27"/>
</g>
<!-- mrs.domain.model.reservation.Reservations -->
<g id="node9" class="node">
<title>mrs.domain.model.reservation.Reservations</title>
<polygon fill="#eedd82" stroke="black" points="531,-379 445,-379 445,-341 531,-341 531,-379"/>
<text text-anchor="middle" x="488" y="-363.8" font-family="Times,serif" font-size="14.00">予約一覧</text>
<text text-anchor="middle" x="488" y="-348.8" font-family="Times,serif" font-size="14.00">Reservations</text>
</g>
<!-- mrs.domain.model.reservation.Reservations&#45;&gt;mrs.domain.model.reservation.Reservation -->
<g id="edge15" class="edge">
<title>mrs.domain.model.reservation.Reservations&#45;&gt;mrs.domain.model.reservation.Reservation</title>
<path fill="none" stroke="black" d="M488,-340.83C488,-333.13 488,-323.97 488,-315.42"/>
<polygon fill="black" stroke="black" points="491.5,-315.41 488,-305.41 484.5,-315.41 491.5,-315.41"/>
</g>
<!-- mrs.domain.model.room.MeetingRoom&#45;&gt;mrs.domain.model.room.RoomId -->
<g id="edge1" class="edge">
<title>mrs.domain.model.room.MeetingRoom&#45;&gt;mrs.domain.model.room.RoomId</title>
<path fill="none" stroke="black" d="M761.22,-112.83C760.05,-105.13 758.65,-95.97 757.34,-87.42"/>
<polygon fill="black" stroke="black" points="760.78,-86.77 755.81,-77.41 753.86,-87.83 760.78,-86.77"/>
</g>
<!-- mrs.domain.model.room.RoomName -->
<g id="node14" class="node">
<title>mrs.domain.model.room.RoomName</title>
<polygon fill="#eedd82" stroke="black" points="891.5,-77 808.5,-77 808.5,-39 891.5,-39 891.5,-77"/>
<text text-anchor="middle" x="850" y="-61.8" font-family="Times,serif" font-size="14.00">会議室名</text>
<text text-anchor="middle" x="850" y="-46.8" font-family="Times,serif" font-size="14.00">RoomName</text>
</g>
<!-- mrs.domain.model.room.MeetingRoom&#45;&gt;mrs.domain.model.room.RoomName -->
<g id="edge2" class="edge">
<title>mrs.domain.model.room.MeetingRoom&#45;&gt;mrs.domain.model.room.RoomName</title>
<path fill="none" stroke="black" d="M785.7,-112.83C796.19,-104.05 808.95,-93.37 820.32,-83.85"/>
<polygon fill="black" stroke="black" points="822.88,-86.27 828.31,-77.16 818.39,-80.9 822.88,-86.27"/>
</g>
<!-- mrs.domain.model.todo.Todo -->
<g id="node15" class="node">
<title>mrs.domain.model.todo.Todo</title>
<polygon fill="#eedd82" stroke="red" points="942,-379 868,-379 868,-341 942,-341 942,-379"/>
<text text-anchor="middle" x="905" y="-363.8" font-family="Times,serif" font-size="14.00">やること</text>
<text text-anchor="middle" x="905" y="-348.8" font-family="Times,serif" font-size="14.00">Todo</text>
</g>
<!-- mrs.domain.model.user.Name -->
<g id="node16" class="node">
<title>mrs.domain.model.user.Name</title>
<polygon fill="#eedd82" stroke="black" points="970,-151 916,-151 916,-113 970,-113 970,-151"/>
<text text-anchor="middle" x="943" y="-135.8" font-family="Times,serif" font-size="14.00">氏名</text>
<text text-anchor="middle" x="943" y="-120.8" font-family="Times,serif" font-size="14.00">Name</text>
</g>
<!-- mrs.domain.model.user.Password -->
<g id="node17" class="node">
<title>mrs.domain.model.user.Password</title>
<polygon fill="#eedd82" stroke="black" points="1074,-151 988,-151 988,-113 1074,-113 1074,-151"/>
<text text-anchor="middle" x="1031" y="-135.8" font-family="Times,serif" font-size="14.00">パスワード</text>
<text text-anchor="middle" x="1031" y="-120.8" font-family="Times,serif" font-size="14.00">Password</text>
</g>
<!-- mrs.domain.model.user.RoleName -->
<g id="node18" class="node">
<title>mrs.domain.model.user.RoleName</title>
<polygon fill="#eedd82" stroke="black" points="1167.5,-151 1092.5,-151 1092.5,-113 1167.5,-113 1167.5,-151"/>
<text text-anchor="middle" x="1130" y="-135.8" font-family="Times,serif" font-size="14.00">役割</text>
<text text-anchor="middle" x="1130" y="-120.8" font-family="Times,serif" font-size="14.00">RoleName</text>
</g>
<!-- mrs.domain.model.user.User&#45;&gt;mrs.domain.model.user.Name -->
<g id="edge16" class="edge">
<title>mrs.domain.model.user.User&#45;&gt;mrs.domain.model.user.Name</title>
<path fill="none" stroke="black" d="M993.83,-192.17C988.59,-189.17 983.48,-185.77 979,-182 971.61,-175.77 964.9,-167.73 959.33,-159.97"/>
<polygon fill="black" stroke="black" points="962.06,-157.76 953.55,-151.44 956.27,-161.68 962.06,-157.76"/>
</g>
<!-- mrs.domain.model.user.User&#45;&gt;mrs.domain.model.user.Password -->
<g id="edge17" class="edge">
<title>mrs.domain.model.user.User&#45;&gt;mrs.domain.model.user.Password</title>
<path fill="none" stroke="black" d="M1031,-189.84C1031,-181.34 1031,-171.01 1031,-161.5"/>
<polygon fill="black" stroke="black" points="1034.5,-161.25 1031,-151.25 1027.5,-161.25 1034.5,-161.25"/>
</g>
<!-- mrs.domain.model.user.User&#45;&gt;mrs.domain.model.user.RoleName -->
<g id="edge18" class="edge">
<title>mrs.domain.model.user.User&#45;&gt;mrs.domain.model.user.RoleName</title>
<path fill="none" stroke="black" d="M1068.02,-191.48C1073.22,-188.59 1078.37,-185.41 1083,-182 1091.97,-175.39 1100.72,-166.99 1108.19,-159.01"/>
<polygon fill="black" stroke="black" points="1111.09,-161.02 1115.2,-151.26 1105.9,-156.33 1111.09,-161.02"/>
</g>
<!-- mrs.domain.model.user.User&#45;&gt;mrs.domain.model.user.UserId -->
<g id="edge19" class="edge">
<title>mrs.domain.model.user.User&#45;&gt;mrs.domain.model.user.UserId</title>
<path fill="none" stroke="black" d="M1068.18,-202.49C1108.18,-196.39 1167.37,-186.78 1177,-182 1188.57,-176.25 1199.42,-167.18 1208.25,-158.4"/>
<polygon fill="black" stroke="black" points="1210.78,-160.82 1215.17,-151.17 1205.73,-155.98 1210.78,-160.82"/>
</g>
<!-- mrs.domain.type.date.CurrentDate -->
<g id="node21" class="node">
<title>mrs.domain.type.date.CurrentDate</title>
<polygon fill="#eedd82" stroke="red" points="1197.5,-379 1114.5,-379 1114.5,-341 1197.5,-341 1197.5,-379"/>
<text text-anchor="middle" x="1156" y="-363.8" font-family="Times,serif" font-size="14.00">現在日</text>
<text text-anchor="middle" x="1156" y="-348.8" font-family="Times,serif" font-size="14.00">CurrentDate</text>
</g>
<!-- mrs.domain.type.date.Days -->
<g id="node22" class="node">
<title>mrs.domain.type.date.Days</title>
<polygon fill="#eedd82" stroke="red" points="1096,-379 1042,-379 1042,-341 1096,-341 1096,-379"/>
<text text-anchor="middle" x="1069" y="-363.8" font-family="Times,serif" font-size="14.00">日数</text>
<text text-anchor="middle" x="1069" y="-348.8" font-family="Times,serif" font-size="14.00">Days</text>
</g>
</g>
</svg>
