<svg width="1002px" height="426px"
     viewBox="0.00 0.00 1002.00 426.00" xmlns="http://www.w3.org/2000/svg">
<g id="graph0" class="graph" transform="scale(1.0 1.0) rotate(0) translate(4 422)">
    <title>ビジネスルール関連図</title>
    <polygon fill="white" stroke="transparent" points="-4,4 -4,-422 998,-422 998,4 -4,4"/>
    <text text-anchor="middle" x="497" y="-7.8" font-family="Times,serif" font-size="14.00">ビジネスルール関連図</text>
    <g id="clust1" class="cluster">
        <title>cluster_mrs.domain.model.reservation</title>
        <polygon fill="lemonchiffon" stroke="#eedd82" stroke-width="2" points="8,-31 8,-410 404,-410 404,-31 8,-31"/>
        <text text-anchor="middle" x="206" y="-394.8" font-family="Times,serif" font-size="14.00">reservation</text>
    </g>
    <g id="clust2" class="cluster">
        <title>cluster_mrs.domain.model.room</title>
        <polygon fill="lemonchiffon" stroke="#eedd82" stroke-width="2"
                 points="412,-31 412,-182 604,-182 604,-31 412,-31"/>
        <text text-anchor="middle" x="508" y="-166.8" font-family="Times,serif" font-size="14.00">room</text>
    </g>
    <g id="clust3" class="cluster">
        <title>cluster_mrs.domain.model.user</title>
        <polygon fill="lemonchiffon" stroke="#eedd82" stroke-width="2"
                 points="612,-105 612,-259 986,-259 986,-105 612,-105"/>
        <text text-anchor="middle" x="799" y="-243.8" font-family="Times,serif" font-size="14.00">user</text>
    </g>
    <g id="clust4" class="cluster">
        <title>cluster_mrs.domain.type.date</title>
        <polygon fill="lemonchiffon" stroke="#eedd82" stroke-width="2"
                 points="613,-333 613,-410 785,-410 785,-333 613,-333"/>
        <text text-anchor="middle" x="699" y="-394.8" font-family="Times,serif" font-size="14.00">date</text>
    </g>
    <!-- mrs.domain.model.reservation.ReservableRoom -->
    <g id="node1" class="node">
        <title>mrs.domain.model.reservation.ReservableRoom</title>
        <polygon fill="#eedd82" stroke="black" points="396,-228 280,-228 280,-190 396,-190 396,-228"/>
        <text text-anchor="middle" x="338" y="-212.8" font-family="Times,serif" font-size="14.00">予約可能会議室</text>
        <text text-anchor="middle" x="338" y="-197.8" font-family="Times,serif" font-size="14.00">ReservableRoom</text>
    </g>
    <!-- mrs.domain.model.reservation.ReservableRoomId -->
    <g id="node2" class="node">
        <title>mrs.domain.model.reservation.ReservableRoomId</title>
        <polygon fill="#eedd82" stroke="black" points="318.5,-151 187.5,-151 187.5,-113 318.5,-113 318.5,-151"/>
        <text text-anchor="middle" x="253" y="-135.8" font-family="Times,serif" font-size="14.00">予約可能会議室ID</text>
        <text text-anchor="middle" x="253" y="-120.8" font-family="Times,serif" font-size="14.00">ReservableRoomId
        </text>
    </g>
    <!-- mrs.domain.model.reservation.ReservableRoom&#45;&gt;mrs.domain.model.reservation.ReservableRoomId -->
    <g id="edge4" class="edge">
        <title>mrs.domain.model.reservation.ReservableRoom&#45;&gt;mrs.domain.model.reservation.ReservableRoomId</title>
        <path fill="none" stroke="black" d="M317.42,-189.84C306.65,-180.33 293.28,-168.54 281.52,-158.16"/>
        <polygon fill="black" stroke="black" points="283.5,-155.24 273.68,-151.25 278.86,-160.49 283.5,-155.24"/>
    </g>
    <!-- mrs.domain.model.reservation.ReservedDate -->
    <g id="node7" class="node">
        <title>mrs.domain.model.reservation.ReservedDate</title>
        <polygon fill="#eedd82" stroke="black" points="299,-77 207,-77 207,-39 299,-39 299,-77"/>
        <text text-anchor="middle" x="253" y="-61.8" font-family="Times,serif" font-size="14.00">予約日</text>
        <text text-anchor="middle" x="253" y="-46.8" font-family="Times,serif" font-size="14.00">ReservedDate</text>
    </g>
    <!-- mrs.domain.model.reservation.ReservableRoom&#45;&gt;mrs.domain.model.reservation.ReservedDate -->
    <g id="edge5" class="edge">
        <title>mrs.domain.model.reservation.ReservableRoom&#45;&gt;mrs.domain.model.reservation.ReservedDate</title>
        <path fill="none" stroke="black"
              d="M340.61,-189.7C342.77,-167.82 343.25,-130.89 327,-105 321.45,-96.16 313.53,-88.75 304.9,-82.63"/>
        <polygon fill="black" stroke="black" points="306.77,-79.67 296.48,-77.16 302.96,-85.55 306.77,-79.67"/>
    </g>
    <!-- mrs.domain.model.room.MeetingRoom -->
    <g id="node9" class="node">
        <title>mrs.domain.model.room.MeetingRoom</title>
        <polygon fill="#eedd82" stroke="black" points="516,-151 420,-151 420,-113 516,-113 516,-151"/>
        <text text-anchor="middle" x="468" y="-135.8" font-family="Times,serif" font-size="14.00">会議室</text>
        <text text-anchor="middle" x="468" y="-120.8" font-family="Times,serif" font-size="14.00">MeetingRoom</text>
    </g>
    <!-- mrs.domain.model.reservation.ReservableRoom&#45;&gt;mrs.domain.model.room.MeetingRoom -->
    <g id="edge6" class="edge">
        <title>mrs.domain.model.reservation.ReservableRoom&#45;&gt;mrs.domain.model.room.MeetingRoom</title>
        <path fill="none" stroke="black"
              d="M392.32,-189.87C397.73,-187.46 403.05,-184.84 408,-182 419.79,-175.25 431.61,-166.2 441.61,-157.71"/>
        <polygon fill="black" stroke="black" points="443.97,-160.3 449.2,-151.08 439.37,-155.02 443.97,-160.3"/>
    </g>
    <!-- mrs.domain.model.room.RoomId -->
    <g id="node10" class="node">
        <title>mrs.domain.model.room.RoomId</title>
        <polygon fill="#eedd82" stroke="black" points="494,-77 420,-77 420,-39 494,-39 494,-77"/>
        <text text-anchor="middle" x="457" y="-61.8" font-family="Times,serif" font-size="14.00">会議室ID</text>
        <text text-anchor="middle" x="457" y="-46.8" font-family="Times,serif" font-size="14.00">RoomId</text>
    </g>
    <!-- mrs.domain.model.reservation.ReservableRoom&#45;&gt;mrs.domain.model.room.RoomId -->
    <g id="edge7" class="edge">
        <title>mrs.domain.model.reservation.ReservableRoom&#45;&gt;mrs.domain.model.room.RoomId</title>
        <path fill="none" stroke="black"
              d="M396.46,-207.94C444.96,-206.51 508.54,-200.91 525,-182 547.47,-156.19 541.05,-135.23 525,-105 519.83,-95.27 511.58,-87.21 502.58,-80.72"/>
        <polygon fill="black" stroke="black" points="504.45,-77.76 494.18,-75.19 500.6,-83.61 504.45,-77.76"/>
    </g>
    <!-- mrs.domain.model.reservation.ReservableRoomId&#45;&gt;mrs.domain.model.reservation.ReservedDate -->
    <g id="edge8" class="edge">
        <title>mrs.domain.model.reservation.ReservableRoomId&#45;&gt;mrs.domain.model.reservation.ReservedDate</title>
        <path fill="none" stroke="black" d="M253,-112.83C253,-105.13 253,-95.97 253,-87.42"/>
        <polygon fill="black" stroke="black" points="256.5,-87.41 253,-77.41 249.5,-87.41 256.5,-87.41"/>
    </g>
    <!-- mrs.domain.model.reservation.ReservableRoomId&#45;&gt;mrs.domain.model.room.RoomId -->
    <g id="edge9" class="edge">
        <title>mrs.domain.model.reservation.ReservableRoomId&#45;&gt;mrs.domain.model.room.RoomId</title>
        <path fill="none" stroke="black"
              d="M305.45,-112.97C335.51,-102.58 373.93,-89.19 408,-77 408.72,-76.74 409.45,-76.48 410.18,-76.22"/>
        <polygon fill="black" stroke="black" points="411.62,-79.42 419.84,-72.73 409.24,-72.84 411.62,-79.42"/>
    </g>
    <!-- mrs.domain.model.reservation.ReservableRooms -->
    <g id="node3" class="node">
        <title>mrs.domain.model.reservation.ReservableRooms</title>
        <polygon fill="#eedd82" stroke="black" points="395.5,-305 250.5,-305 250.5,-267 395.5,-267 395.5,-305"/>
        <text text-anchor="middle" x="323" y="-289.8" font-family="Times,serif" font-size="14.00">予約可能会議室一覧</text>
        <text text-anchor="middle" x="323" y="-274.8" font-family="Times,serif" font-size="14.00">ReservableRooms</text>
    </g>
<!-- mrs.domain.model.reservation.ReservableRooms&#45;&gt;mrs.domain.model.reservation.ReservableRoom -->
    <g id="edge3" class="edge">
        <title>mrs.domain.model.reservation.ReservableRooms&#45;&gt;mrs.domain.model.reservation.ReservableRoom</title>
        <path fill="none" stroke="black" d="M326.63,-266.84C328.35,-258.25 330.44,-247.79 332.36,-238.19"/>
        <polygon fill="black" stroke="black" points="335.82,-238.74 334.35,-228.25 328.96,-237.37 335.82,-238.74"/>
    </g>
<!-- mrs.domain.model.reservation.Reservation -->
    <g id="node4" class="node">
        <title>mrs.domain.model.reservation.Reservation</title>
        <polygon fill="#eedd82" stroke="black" points="211.5,-305 130.5,-305 130.5,-267 211.5,-267 211.5,-305"/>
        <text text-anchor="middle" x="171" y="-289.8" font-family="Times,serif" font-size="14.00">予約</text>
        <text text-anchor="middle" x="171" y="-274.8" font-family="Times,serif" font-size="14.00">Reservation</text>
    </g>
<!-- mrs.domain.model.reservation.Reservation&#45;&gt;mrs.domain.model.reservation.ReservableRoom -->
    <g id="edge10" class="edge">
        <title>mrs.domain.model.reservation.Reservation&#45;&gt;mrs.domain.model.reservation.ReservableRoom</title>
        <path fill="none" stroke="black"
              d="M211.54,-274.55C238.94,-267.47 270.27,-259.34 271,-259 284.62,-252.54 298.3,-243.18 309.71,-234.36"/>
        <polygon fill="black" stroke="black" points="311.94,-237.06 317.59,-228.09 307.58,-231.58 311.94,-237.06"/>
    </g>
<!-- mrs.domain.model.reservation.Reservation&#45;&gt;mrs.domain.model.reservation.ReservableRoomId -->
    <g id="edge11" class="edge">
        <title>mrs.domain.model.reservation.Reservation&#45;&gt;mrs.domain.model.reservation.ReservableRoomId</title>
        <path fill="none" stroke="black"
              d="M163.2,-266.95C155.79,-246.86 147.61,-214.05 161,-190 168.95,-175.73 182.11,-164.57 196.03,-156.07"/>
        <polygon fill="black" stroke="black" points="197.79,-159.09 204.75,-151.11 194.33,-153.01 197.79,-159.09"/>
    </g>
<!-- mrs.domain.model.reservation.ReservationId -->
    <g id="node5" class="node">
        <title>mrs.domain.model.reservation.ReservationId</title>
        <polygon fill="#eedd82" stroke="black" points="262,-228 170,-228 170,-190 262,-190 262,-228"/>
        <text text-anchor="middle" x="216" y="-212.8" font-family="Times,serif" font-size="14.00">予約ID</text>
        <text text-anchor="middle" x="216" y="-197.8" font-family="Times,serif" font-size="14.00">ReservationId</text>
    </g>
<!-- mrs.domain.model.reservation.Reservation&#45;&gt;mrs.domain.model.reservation.ReservationId -->
    <g id="edge12" class="edge">
        <title>mrs.domain.model.reservation.Reservation&#45;&gt;mrs.domain.model.reservation.ReservationId</title>
        <path fill="none" stroke="black" d="M181.89,-266.84C187.27,-257.88 193.87,-246.89 199.82,-236.97"/>
        <polygon fill="black" stroke="black" points="202.91,-238.62 205.05,-228.25 196.9,-235.02 202.91,-238.62"/>
    </g>
<!-- mrs.domain.model.reservation.Reservation&#45;&gt;mrs.domain.model.reservation.ReservedDate -->
    <g id="edge13" class="edge">
        <title>mrs.domain.model.reservation.Reservation&#45;&gt;mrs.domain.model.reservation.ReservedDate</title>
        <path fill="none" stroke="black"
              d="M130.22,-283.31C92.36,-280.77 39.95,-274.5 27,-259 7.34,-235.47 11.69,-216.57 27,-190 63.24,-127.11 142.49,-91.66 196.82,-73.91"/>
        <polygon fill="black" stroke="black" points="198.17,-77.15 206.65,-70.8 196.06,-70.48 198.17,-77.15"/>
    </g>
<!-- mrs.domain.model.reservation.ReservedTime -->
    <g id="node8" class="node">
        <title>mrs.domain.model.reservation.ReservedTime</title>
        <polygon fill="#eedd82" stroke="black" points="132,-228 36,-228 36,-190 132,-190 132,-228"/>
        <text text-anchor="middle" x="84" y="-212.8" font-family="Times,serif" font-size="14.00">予約時間</text>
        <text text-anchor="middle" x="84" y="-197.8" font-family="Times,serif" font-size="14.00">ReservedTime</text>
    </g>
<!-- mrs.domain.model.reservation.Reservation&#45;&gt;mrs.domain.model.reservation.ReservedTime -->
    <g id="edge14" class="edge">
        <title>mrs.domain.model.reservation.Reservation&#45;&gt;mrs.domain.model.reservation.ReservedTime</title>
        <path fill="none" stroke="black" d="M149.94,-266.84C138.8,-257.24 124.96,-245.31 112.84,-234.86"/>
        <polygon fill="black" stroke="black" points="115.03,-232.13 105.17,-228.25 110.46,-237.43 115.03,-232.13"/>
    </g>
<!-- mrs.domain.model.user.User -->
    <g id="node15" class="node">
        <title>mrs.domain.model.user.User</title>
        <polygon fill="#eedd82" stroke="black" points="795,-228 721,-228 721,-190 795,-190 795,-228"/>
        <text text-anchor="middle" x="758" y="-212.8" font-family="Times,serif" font-size="14.00">ユーザー</text>
        <text text-anchor="middle" x="758" y="-197.8" font-family="Times,serif" font-size="14.00">User</text>
    </g>
<!-- mrs.domain.model.reservation.Reservation&#45;&gt;mrs.domain.model.user.User -->
    <g id="edge15" class="edge">
        <title>mrs.domain.model.reservation.Reservation&#45;&gt;mrs.domain.model.user.User</title>
        <path fill="none" stroke="black"
              d="M211.8,-273.02C221.31,-270.64 231.45,-268.44 241,-267 314.48,-255.91 334.02,-265.94 408,-259 516.72,-248.81 643.44,-229.1 710.58,-218.04"/>
        <polygon fill="black" stroke="black" points="711.54,-221.43 720.84,-216.34 710.4,-214.52 711.54,-221.43"/>
    </g>
<!-- mrs.domain.model.reservation.Reservations -->
    <g id="node6" class="node">
        <title>mrs.domain.model.reservation.Reservations</title>
        <polygon fill="#eedd82" stroke="black" points="214,-379 128,-379 128,-341 214,-341 214,-379"/>
        <text text-anchor="middle" x="171" y="-363.8" font-family="Times,serif" font-size="14.00">予約一覧</text>
        <text text-anchor="middle" x="171" y="-348.8" font-family="Times,serif" font-size="14.00">Reservations</text>
    </g>
<!-- mrs.domain.model.reservation.Reservations&#45;&gt;mrs.domain.model.reservation.Reservation -->
    <g id="edge16" class="edge">
        <title>mrs.domain.model.reservation.Reservations&#45;&gt;mrs.domain.model.reservation.Reservation</title>
        <path fill="none" stroke="black" d="M171,-340.83C171,-333.13 171,-323.97 171,-315.42"/>
        <polygon fill="black" stroke="black" points="174.5,-315.41 171,-305.41 167.5,-315.41 174.5,-315.41"/>
    </g>
<!-- mrs.domain.model.room.MeetingRoom&#45;&gt;mrs.domain.model.room.RoomId -->
    <g id="edge1" class="edge">
        <title>mrs.domain.model.room.MeetingRoom&#45;&gt;mrs.domain.model.room.RoomId</title>
        <path fill="none" stroke="black" d="M465.22,-112.83C464.05,-105.13 462.65,-95.97 461.34,-87.42"/>
        <polygon fill="black" stroke="black" points="464.78,-86.77 459.81,-77.41 457.86,-87.83 464.78,-86.77"/>
    </g>
<!-- mrs.domain.model.room.RoomName -->
    <g id="node11" class="node">
        <title>mrs.domain.model.room.RoomName</title>
        <polygon fill="#eedd82" stroke="black" points="595.5,-77 512.5,-77 512.5,-39 595.5,-39 595.5,-77"/>
        <text text-anchor="middle" x="554" y="-61.8" font-family="Times,serif" font-size="14.00">会議室名</text>
        <text text-anchor="middle" x="554" y="-46.8" font-family="Times,serif" font-size="14.00">RoomName</text>
    </g>
<!-- mrs.domain.model.room.MeetingRoom&#45;&gt;mrs.domain.model.room.RoomName -->
    <g id="edge2" class="edge">
        <title>mrs.domain.model.room.MeetingRoom&#45;&gt;mrs.domain.model.room.RoomName</title>
        <path fill="none" stroke="black" d="M489.7,-112.83C500.19,-104.05 512.95,-93.37 524.32,-83.85"/>
        <polygon fill="black" stroke="black" points="526.88,-86.27 532.31,-77.16 522.39,-80.9 526.88,-86.27"/>
    </g>
<!-- mrs.domain.model.user.Name -->
    <g id="node12" class="node">
        <title>mrs.domain.model.user.Name</title>
        <polygon fill="#eedd82" stroke="black" points="874,-151 820,-151 820,-113 874,-113 874,-151"/>
        <text text-anchor="middle" x="847" y="-135.8" font-family="Times,serif" font-size="14.00">氏名</text>
        <text text-anchor="middle" x="847" y="-120.8" font-family="Times,serif" font-size="14.00">Name</text>
    </g>
<!-- mrs.domain.model.user.Password -->
    <g id="node13" class="node">
        <title>mrs.domain.model.user.Password</title>
        <polygon fill="#eedd82" stroke="black" points="978,-151 892,-151 892,-113 978,-113 978,-151"/>
        <text text-anchor="middle" x="935" y="-135.8" font-family="Times,serif" font-size="14.00">パスワード</text>
        <text text-anchor="middle" x="935" y="-120.8" font-family="Times,serif" font-size="14.00">Password</text>
    </g>
<!-- mrs.domain.model.user.RoleName -->
    <g id="node14" class="node">
        <title>mrs.domain.model.user.RoleName</title>
        <polygon fill="#eedd82" stroke="black" points="695.5,-151 620.5,-151 620.5,-113 695.5,-113 695.5,-151"/>
        <text text-anchor="middle" x="658" y="-135.8" font-family="Times,serif" font-size="14.00">役割</text>
        <text text-anchor="middle" x="658" y="-120.8" font-family="Times,serif" font-size="14.00">RoleName</text>
    </g>
<!-- mrs.domain.model.user.User&#45;&gt;mrs.domain.model.user.Name -->
    <g id="edge17" class="edge">
        <title>mrs.domain.model.user.User&#45;&gt;mrs.domain.model.user.Name</title>
        <path fill="none" stroke="black"
              d="M795.06,-192.71C800.69,-189.59 806.2,-186.01 811,-182 818.41,-175.8 825.13,-167.77 830.7,-160.01"/>
        <polygon fill="black" stroke="black" points="833.76,-161.72 836.47,-151.47 827.97,-157.79 833.76,-161.72"/>
    </g>
    <!-- mrs.domain.model.user.User&#45;&gt;mrs.domain.model.user.Password -->
    <g id="edge18" class="edge">
        <title>mrs.domain.model.user.User&#45;&gt;mrs.domain.model.user.Password</title>
        <path fill="none" stroke="black"
              d="M795.06,-205.63C820.92,-202.73 855.58,-196.29 883,-182 894.23,-176.15 904.77,-167.17 913.39,-158.49"/>
        <polygon fill="black" stroke="black" points="916.12,-160.7 920.44,-151.03 911.03,-155.9 916.12,-160.7"/>
    </g>
    <!-- mrs.domain.model.user.User&#45;&gt;mrs.domain.model.user.RoleName -->
    <g id="edge19" class="edge">
        <title>mrs.domain.model.user.User&#45;&gt;mrs.domain.model.user.RoleName</title>
        <path fill="none" stroke="black"
              d="M720.82,-191.85C715.33,-188.87 709.88,-185.57 705,-182 696.01,-175.43 687.25,-167.03 679.78,-159.05"/>
        <polygon fill="black" stroke="black" points="682.07,-156.37 672.77,-151.29 676.88,-161.06 682.07,-156.37"/>
    </g>
    <!-- mrs.domain.model.user.UserId -->
    <g id="node16" class="node">
        <title>mrs.domain.model.user.UserId</title>
        <polygon fill="#eedd82" stroke="black" points="802,-151 714,-151 714,-113 802,-113 802,-151"/>
        <text text-anchor="middle" x="758" y="-135.8" font-family="Times,serif" font-size="14.00">ユーザーID</text>
        <text text-anchor="middle" x="758" y="-120.8" font-family="Times,serif" font-size="14.00">UserId</text>
    </g>
    <!-- mrs.domain.model.user.User&#45;&gt;mrs.domain.model.user.UserId -->
    <g id="edge20" class="edge">
        <title>mrs.domain.model.user.User&#45;&gt;mrs.domain.model.user.UserId</title>
        <path fill="none" stroke="black" d="M758,-189.84C758,-181.34 758,-171.01 758,-161.5"/>
        <polygon fill="black" stroke="black" points="761.5,-161.25 758,-151.25 754.5,-161.25 761.5,-161.25"/>
    </g>
    <!-- mrs.domain.type.date.CurrentDate -->
    <g id="node17" class="node">
        <title>mrs.domain.type.date.CurrentDate</title>
        <polygon fill="#eedd82" stroke="red" points="776.5,-379 693.5,-379 693.5,-341 776.5,-341 776.5,-379"/>
        <text text-anchor="middle" x="735" y="-363.8" font-family="Times,serif" font-size="14.00">現在日</text>
        <text text-anchor="middle" x="735" y="-348.8" font-family="Times,serif" font-size="14.00">CurrentDate</text>
    </g>
<!-- mrs.domain.type.date.Days -->
    <g id="node18" class="node">
        <title>mrs.domain.type.date.Days</title>
        <polygon fill="#eedd82" stroke="red" points="675,-379 621,-379 621,-341 675,-341 675,-379"/>
        <text text-anchor="middle" x="648" y="-363.8" font-family="Times,serif" font-size="14.00">日数</text>
        <text text-anchor="middle" x="648" y="-348.8" font-family="Times,serif" font-size="14.00">Days</text>
    </g>
</g>
</svg>
