<svg width="841px" height="171px"
 viewBox="0.00 0.00 841.00 171.00" xmlns="http://www.w3.org/2000/svg" xmlns:xlink="http://www.w3.org/1999/xlink">
<g id="graph0" class="graph" transform="scale(1.0 1.0) rotate(0) translate(4 167)">
<title>集中ビジネスルールツリー図</title>
<polygon fill="white" stroke="none" points="-4,4 -4,-167 837,-167 837,4 -4,4"/>
<text text-anchor="middle" x="416.5" y="-7.8" font-family="Times New Roman,serif" font-size="14.00">集中ビジネスルールツリー図</text>
<!-- mrs.domain.model.reservation.ReservableRoom -->
<g id="node1" class="node"><title>mrs.domain.model.reservation.ReservableRoom</title>
<polygon fill="#eedd82" stroke="black" points="387,-140 167,-140 167,-66 387,-66 387,-140"/>
<text text-anchor="middle" x="277" y="-112" font-family="Times New Roman,serif" font-size="30.00">予約可能会議室</text>
<text text-anchor="middle" x="277" y="-79" font-family="Times New Roman,serif" font-size="30.00">ReservableRoom</text>
</g>
<!-- mrs.domain.model.reservation.ReservableRoomId -->
<g id="node2" class="node"><title>mrs.domain.model.reservation.ReservableRoomId</title>
<polygon fill="#eedd82" stroke="black" points="668,-107 423,-107 423,-33 668,-33 668,-107"/>
<text text-anchor="middle" x="545.5" y="-79" font-family="Times New Roman,serif" font-size="30.00">予約可能会議室ID</text>
<text text-anchor="middle" x="545.5" y="-46" font-family="Times New Roman,serif" font-size="30.00">ReservableRoomId</text>
</g>
<!-- mrs.domain.model.reservation.ReservableRoom&#45;&gt;mrs.domain.model.reservation.ReservableRoomId -->
<g id="edge5" class="edge"><title>mrs.domain.model.reservation.ReservableRoom&#45;&gt;mrs.domain.model.reservation.ReservableRoomId</title>
<path fill="none" stroke="black" d="M387.165,-89.4824C395.637,-88.4334 404.243,-87.3677 412.841,-86.303"/>
<polygon fill="black" stroke="black" points="413.427,-89.7573 422.921,-85.0549 412.566,-82.8104 413.427,-89.7573"/>
</g>
<!-- mrs.domain.model.room.RoomId -->
<g id="node6" class="node"><title>mrs.domain.model.room.RoomId</title>
<polygon fill="#eedd82" stroke="black" points="833,-144 704,-144 704,-70 833,-70 833,-144"/>
<text text-anchor="middle" x="768.5" y="-116" font-family="Times New Roman,serif" font-size="30.00">会議室ID</text>
<text text-anchor="middle" x="768.5" y="-83" font-family="Times New Roman,serif" font-size="30.00">RoomId</text>
</g>
<!-- mrs.domain.model.reservation.ReservableRoomId&#45;&gt;mrs.domain.model.room.RoomId -->
<g id="edge3" class="edge"><title>mrs.domain.model.reservation.ReservableRoomId&#45;&gt;mrs.domain.model.room.RoomId</title>
<path fill="none" stroke="black" d="M668.313,-90.394C676.992,-91.8471 685.577,-93.2843 693.85,-94.6695"/>
<polygon fill="black" stroke="black" points="693.333,-98.1315 703.773,-96.3308 694.489,-91.2276 693.333,-98.1315"/>
</g>
<!-- mrs.domain.model.reservation.ReservableRooms -->
<g id="node3" class="node"><title>mrs.domain.model.reservation.ReservableRooms</title>
<polygon fill="lemonchiffon" stroke="black" points="131,-122 0,-122 0,-84 131,-84 131,-122"/>
<text text-anchor="middle" x="65.5" y="-106.8" font-family="Times New Roman,serif" font-size="14.00">予約可能会議室集合</text>
<text text-anchor="middle" x="65.5" y="-91.8" font-family="Times New Roman,serif" font-size="14.00">ReservableRooms</text>
</g>
<!-- mrs.domain.model.reservation.ReservableRooms&#45;&gt;mrs.domain.model.reservation.ReservableRoom -->
<g id="edge1" class="edge"><title>mrs.domain.model.reservation.ReservableRooms&#45;&gt;mrs.domain.model.reservation.ReservableRoom</title>
<path fill="none" stroke="black" d="M131.066,-103C139.365,-103 148.06,-103 156.894,-103"/>
<polygon fill="black" stroke="black" points="156.913,-106.5 166.913,-103 156.913,-99.5001 156.913,-106.5"/>
</g>
<!-- mrs.domain.model.reservation.Reservation -->
<g id="node4" class="node"><title>mrs.domain.model.reservation.Reservation</title>
<polygon fill="lemonchiffon" stroke="black" points="107,-61 24,-61 24,-23 107,-23 107,-61"/>
<text text-anchor="middle" x="65.5" y="-45.8" font-family="Times New Roman,serif" font-size="14.00">予約</text>
<text text-anchor="middle" x="65.5" y="-30.8" font-family="Times New Roman,serif" font-size="14.00">Reservation</text>
</g>
<!-- mrs.domain.model.reservation.Reservation&#45;&gt;mrs.domain.model.reservation.ReservableRoom -->
<g id="edge2" class="edge"><title>mrs.domain.model.reservation.Reservation&#45;&gt;mrs.domain.model.reservation.ReservableRoom</title>
<path fill="none" stroke="black" d="M107.391,-53.9062C121.96,-58.1481 139.193,-63.166 156.986,-68.3468"/>
<polygon fill="black" stroke="black" points="156.335,-71.8026 166.915,-71.2378 158.292,-65.0817 156.335,-71.8026"/>
</g>
<!-- mrs.domain.model.reservation.Reservation&#45;&gt;mrs.domain.model.reservation.ReservableRoomId -->
<g id="edge6" class="edge"><title>mrs.domain.model.reservation.Reservation&#45;&gt;mrs.domain.model.reservation.ReservableRoomId</title>
<path fill="none" stroke="black" d="M107.001,-43.4331C167.831,-45.6903 286.387,-50.4954 387,-57 395.364,-57.5407 403.974,-58.1375 412.653,-58.7692"/>
<polygon fill="black" stroke="black" points="412.63,-62.2771 422.862,-59.5256 413.148,-55.2962 412.63,-62.2771"/>
</g>
<!-- mrs.domain.model.room.MeetingRoom -->
<g id="node5" class="node"><title>mrs.domain.model.room.MeetingRoom</title>
<polygon fill="lemonchiffon" stroke="black" points="593.5,-163 497.5,-163 497.5,-125 593.5,-125 593.5,-163"/>
<text text-anchor="middle" x="545.5" y="-147.8" font-family="Times New Roman,serif" font-size="14.00">会議室</text>
<text text-anchor="middle" x="545.5" y="-132.8" font-family="Times New Roman,serif" font-size="14.00">MeetingRoom</text>
</g>
<!-- mrs.domain.model.room.MeetingRoom&#45;&gt;mrs.domain.model.room.RoomId -->
<g id="edge4" class="edge"><title>mrs.domain.model.room.MeetingRoom&#45;&gt;mrs.domain.model.room.RoomId</title>
<path fill="none" stroke="black" d="M593.639,-136.108C622.705,-131.242 660.604,-124.897 693.596,-119.373"/>
<polygon fill="black" stroke="black" points="694.378,-122.791 703.663,-117.688 693.222,-115.887 694.378,-122.791"/>
</g>
</g>
</svg>
