<svg width="1022px" height="360px"
     viewBox="0.00 0.00 1022.00 360.00" xmlns="http://www.w3.org/2000/svg">
<g id="graph0" class="graph" transform="scale(1.0 1.0) rotate(0) translate(4 356)">
    <title>ビジネスルール関連図</title>
    <polygon fill="white" stroke="transparent" points="-4,4 -4,-356 1018,-356 1018,4 -4,4"/>
    <text text-anchor="middle" x="507" y="-7.8" font-family="Times,serif" font-size="14.00">ビジネスルール関連図</text>
    <g id="clust1" class="cluster">
        <title>cluster_mrs.domain.model.reservation</title>
        <polygon fill="lemonchiffon" stroke="#eedd82" stroke-width="2" points="8,-31 8,-344 384,-344 384,-31 8,-31"/>
        <text text-anchor="middle" x="196" y="-328.8" font-family="Times,serif" font-size="14.00">reservation</text>
    </g>
    <g id="clust2" class="cluster">
        <title>cluster_mrs.domain.model.room</title>
        <polygon fill="lemonchiffon" stroke="#eedd82" stroke-width="2"
                 points="392,-31 392,-182 584,-182 584,-31 392,-31"/>
        <text text-anchor="middle" x="488" y="-166.8" font-family="Times,serif" font-size="14.00">room</text>
    </g>
    <g id="clust3" class="cluster">
        <title>cluster_mrs.domain.model.user</title>
        <polygon fill="lemonchiffon" stroke="#eedd82" stroke-width="2"
                 points="592,-105 592,-259 1006,-259 1006,-105 592,-105"/>
        <text text-anchor="middle" x="799" y="-243.8" font-family="Times,serif" font-size="14.00">user</text>
    </g>
    <g id="clust4" class="cluster">
        <title>cluster_mrs.domain.type.date</title>
        <polygon fill="lemonchiffon" stroke="#eedd82" stroke-width="2"
                 points="613,-267 613,-344 785,-344 785,-267 613,-267"/>
        <text text-anchor="middle" x="699" y="-328.8" font-family="Times,serif" font-size="14.00">date</text>
    </g>
    <!-- mrs.domain.model.reservation.ReservableRoom -->
    <g id="node1" class="node">
        <title>mrs.domain.model.reservation.ReservableRoom</title>
        <polygon fill="#eedd82" stroke="black" points="152,-228 36,-228 36,-190 152,-190 152,-228"/>
        <text text-anchor="middle" x="94" y="-212.8" font-family="Times,serif" font-size="14.00">予約可能会議室</text>
        <text text-anchor="middle" x="94" y="-197.8" font-family="Times,serif" font-size="14.00">ReservableRoom</text>
    </g>
    <!-- mrs.domain.model.reservation.ReservableRoomId -->
    <g id="node2" class="node">
        <title>mrs.domain.model.reservation.ReservableRoomId</title>
        <polygon fill="#eedd82" stroke="black" points="159.5,-151 28.5,-151 28.5,-113 159.5,-113 159.5,-151"/>
        <text text-anchor="middle" x="94" y="-135.8" font-family="Times,serif" font-size="14.00">予約可能会議室ID</text>
        <text text-anchor="middle" x="94" y="-120.8" font-family="Times,serif" font-size="14.00">ReservableRoomId</text>
    </g>
    <!-- mrs.domain.model.reservation.ReservableRoom&#45;&gt;mrs.domain.model.reservation.ReservableRoomId -->
    <g id="edge3" class="edge">
        <title>mrs.domain.model.reservation.ReservableRoom&#45;&gt;mrs.domain.model.reservation.ReservableRoomId</title>
        <path fill="none" stroke="black" d="M94,-189.84C94,-181.34 94,-171.01 94,-161.5"/>
        <polygon fill="black" stroke="black" points="97.5,-161.25 94,-151.25 90.5,-161.25 97.5,-161.25"/>
    </g>
    <!-- mrs.domain.model.room.MeetingRoom -->
    <g id="node7" class="node">
        <title>mrs.domain.model.room.MeetingRoom</title>
        <polygon fill="#eedd82" stroke="black" points="496,-151 400,-151 400,-113 496,-113 496,-151"/>
        <text text-anchor="middle" x="448" y="-135.8" font-family="Times,serif" font-size="14.00">会議室</text>
        <text text-anchor="middle" x="448" y="-120.8" font-family="Times,serif" font-size="14.00">MeetingRoom</text>
    </g>
    <!-- mrs.domain.model.reservation.ReservableRoom&#45;&gt;mrs.domain.model.room.MeetingRoom -->
    <g id="edge4" class="edge">
        <title>mrs.domain.model.reservation.ReservableRoom&#45;&gt;mrs.domain.model.room.MeetingRoom</title>
        <path fill="none" stroke="black"
              d="M152.3,-191.5C155.23,-190.94 158.14,-190.43 161,-190 185.96,-186.26 364.38,-190.89 388,-182 401.44,-176.94 414.11,-167.58 424.31,-158.38"/>
        <polygon fill="black" stroke="black" points="426.76,-160.88 431.6,-151.45 421.94,-155.8 426.76,-160.88"/>
    </g>
    <!-- mrs.domain.model.reservation.ReservedDate -->
    <g id="node5" class="node">
        <title>mrs.domain.model.reservation.ReservedDate</title>
        <polygon fill="#eedd82" stroke="black" points="140,-77 48,-77 48,-39 140,-39 140,-77"/>
        <text text-anchor="middle" x="94" y="-61.8" font-family="Times,serif" font-size="14.00">予約日</text>
        <text text-anchor="middle" x="94" y="-46.8" font-family="Times,serif" font-size="14.00">ReservedDate</text>
    </g>
    <!-- mrs.domain.model.reservation.ReservableRoomId&#45;&gt;mrs.domain.model.reservation.ReservedDate -->
    <g id="edge5" class="edge">
        <title>mrs.domain.model.reservation.ReservableRoomId&#45;&gt;mrs.domain.model.reservation.ReservedDate</title>
        <path fill="none" stroke="black" d="M94,-112.83C94,-105.13 94,-95.97 94,-87.42"/>
        <polygon fill="black" stroke="black" points="97.5,-87.41 94,-77.41 90.5,-87.41 97.5,-87.41"/>
    </g>
    <!-- mrs.domain.model.room.RoomId -->
    <g id="node8" class="node">
        <title>mrs.domain.model.room.RoomId</title>
        <polygon fill="#eedd82" stroke="black" points="474,-77 400,-77 400,-39 474,-39 474,-77"/>
        <text text-anchor="middle" x="437" y="-61.8" font-family="Times,serif" font-size="14.00">会議室ID</text>
        <text text-anchor="middle" x="437" y="-46.8" font-family="Times,serif" font-size="14.00">RoomId</text>
    </g>
    <!-- mrs.domain.model.reservation.ReservableRoomId&#45;&gt;mrs.domain.model.room.RoomId -->
    <g id="edge6" class="edge">
        <title>mrs.domain.model.reservation.ReservableRoomId&#45;&gt;mrs.domain.model.room.RoomId</title>
        <path fill="none" stroke="black"
              d="M159.53,-122.24C219.59,-113.43 310.66,-98.14 388,-77 388.72,-76.8 389.45,-76.6 390.18,-76.39"/>
        <polygon fill="black" stroke="black" points="391.24,-79.73 399.76,-73.42 389.17,-73.04 391.24,-79.73"/>
    </g>
    <!-- mrs.domain.model.reservation.Reservation -->
    <g id="node3" class="node">
        <title>mrs.domain.model.reservation.Reservation</title>
        <polygon fill="#eedd82" stroke="black" points="256.5,-313 175.5,-313 175.5,-275 256.5,-275 256.5,-313"/>
        <text text-anchor="middle" x="216" y="-297.8" font-family="Times,serif" font-size="14.00">予約</text>
        <text text-anchor="middle" x="216" y="-282.8" font-family="Times,serif" font-size="14.00">Reservation</text>
    </g>
    <!-- mrs.domain.model.reservation.Reservation&#45;&gt;mrs.domain.model.reservation.ReservableRoom -->
    <g id="edge7" class="edge">
        <title>mrs.domain.model.reservation.Reservation&#45;&gt;mrs.domain.model.reservation.ReservableRoom</title>
        <path fill="none" stroke="black"
              d="M185.76,-274.89C177.64,-269.87 168.92,-264.33 161,-259 149.38,-251.18 136.92,-242.23 125.94,-234.14"/>
        <polygon fill="black" stroke="black" points="127.98,-231.3 117.87,-228.15 123.81,-236.92 127.98,-231.3"/>
    </g>
    <!-- mrs.domain.model.reservation.Reservation&#45;&gt;mrs.domain.model.reservation.ReservableRoomId -->
    <g id="edge8" class="edge">
        <title>mrs.domain.model.reservation.Reservation&#45;&gt;mrs.domain.model.reservation.ReservableRoomId</title>
        <path fill="none" stroke="black"
              d="M175.11,-291.57C125.31,-288.87 45.5,-281.12 27,-259 7.33,-235.47 14.13,-217.84 27,-190 32.98,-177.06 43.51,-165.98 54.47,-157.12"/>
        <polygon fill="black" stroke="black" points="56.61,-159.89 62.47,-151.07 52.38,-154.31 56.61,-159.89"/>
    </g>
    <!-- mrs.domain.model.reservation.ReservationId -->
    <g id="node4" class="node">
        <title>mrs.domain.model.reservation.ReservationId</title>
        <polygon fill="#eedd82" stroke="black" points="262,-228 170,-228 170,-190 262,-190 262,-228"/>
        <text text-anchor="middle" x="216" y="-212.8" font-family="Times,serif" font-size="14.00">予約ID</text>
        <text text-anchor="middle" x="216" y="-197.8" font-family="Times,serif" font-size="14.00">ReservationId</text>
    </g>
    <!-- mrs.domain.model.reservation.Reservation&#45;&gt;mrs.domain.model.reservation.ReservationId -->
    <g id="edge9" class="edge">
        <title>mrs.domain.model.reservation.Reservation&#45;&gt;mrs.domain.model.reservation.ReservationId</title>
        <path fill="none" stroke="black" d="M216,-274.99C216,-264.3 216,-250.5 216,-238.37"/>
        <polygon fill="black" stroke="black" points="219.5,-238.26 216,-228.26 212.5,-238.26 219.5,-238.26"/>
    </g>
    <!-- mrs.domain.model.reservation.ReservedTime -->
    <g id="node6" class="node">
        <title>mrs.domain.model.reservation.ReservedTime</title>
        <polygon fill="#eedd82" stroke="black" points="376,-228 280,-228 280,-190 376,-190 376,-228"/>
        <text text-anchor="middle" x="328" y="-212.8" font-family="Times,serif" font-size="14.00">予約時間</text>
        <text text-anchor="middle" x="328" y="-197.8" font-family="Times,serif" font-size="14.00">ReservedTime</text>
    </g>
    <!-- mrs.domain.model.reservation.Reservation&#45;&gt;mrs.domain.model.reservation.ReservedTime -->
    <g id="edge10" class="edge">
        <title>mrs.domain.model.reservation.Reservation&#45;&gt;mrs.domain.model.reservation.ReservedTime</title>
        <path fill="none" stroke="black"
              d="M247.1,-274.94C255.06,-270.01 263.48,-264.5 271,-259 281.1,-251.61 291.63,-242.88 300.85,-234.85"/>
        <polygon fill="black" stroke="black" points="303.4,-237.27 308.58,-228.02 298.77,-232.02 303.4,-237.27"/>
    </g>
    <!-- mrs.domain.model.user.User -->
    <g id="node13" class="node">
        <title>mrs.domain.model.user.User</title>
        <polygon fill="#eedd82" stroke="black" points="752,-228 678,-228 678,-190 752,-190 752,-228"/>
        <text text-anchor="middle" x="715" y="-212.8" font-family="Times,serif" font-size="14.00">ユーザー</text>
        <text text-anchor="middle" x="715" y="-197.8" font-family="Times,serif" font-size="14.00">User</text>
    </g>
    <!-- mrs.domain.model.reservation.Reservation&#45;&gt;mrs.domain.model.user.User -->
    <g id="edge11" class="edge">
        <title>mrs.domain.model.reservation.Reservation&#45;&gt;mrs.domain.model.user.User</title>
        <path fill="none" stroke="black" d="M256.84,-286.21C348.46,-270.97 570.04,-234.11 667.57,-217.89"/>
        <polygon fill="black" stroke="black" points="668.43,-221.29 677.72,-216.2 667.28,-214.39 668.43,-221.29"/>
    </g>
    <!-- mrs.domain.model.room.MeetingRoom&#45;&gt;mrs.domain.model.room.RoomId -->
    <g id="edge1" class="edge">
        <title>mrs.domain.model.room.MeetingRoom&#45;&gt;mrs.domain.model.room.RoomId</title>
        <path fill="none" stroke="black" d="M445.22,-112.83C444.05,-105.13 442.65,-95.97 441.34,-87.42"/>
        <polygon fill="black" stroke="black" points="444.78,-86.77 439.81,-77.41 437.86,-87.83 444.78,-86.77"/>
    </g>
    <!-- mrs.domain.model.room.RoomName -->
    <g id="node9" class="node">
        <title>mrs.domain.model.room.RoomName</title>
        <polygon fill="#eedd82" stroke="black" points="575.5,-77 492.5,-77 492.5,-39 575.5,-39 575.5,-77"/>
        <text text-anchor="middle" x="534" y="-61.8" font-family="Times,serif" font-size="14.00">会議室名</text>
        <text text-anchor="middle" x="534" y="-46.8" font-family="Times,serif" font-size="14.00">RoomName</text>
    </g>
    <!-- mrs.domain.model.room.MeetingRoom&#45;&gt;mrs.domain.model.room.RoomName -->
    <g id="edge2" class="edge">
        <title>mrs.domain.model.room.MeetingRoom&#45;&gt;mrs.domain.model.room.RoomName</title>
        <path fill="none" stroke="black" d="M469.7,-112.83C480.19,-104.05 492.95,-93.37 504.32,-83.85"/>
        <polygon fill="black" stroke="black" points="506.88,-86.27 512.31,-77.16 502.39,-80.9 506.88,-86.27"/>
    </g>
    <!-- mrs.domain.model.user.Name -->
    <g id="node10" class="node">
        <title>mrs.domain.model.user.Name</title>
        <polygon fill="#eedd82" stroke="black" points="654,-151 600,-151 600,-113 654,-113 654,-151"/>
        <text text-anchor="middle" x="627" y="-135.8" font-family="Times,serif" font-size="14.00">氏名</text>
        <text text-anchor="middle" x="627" y="-120.8" font-family="Times,serif" font-size="14.00">Name</text>
    </g>
    <!-- mrs.domain.model.user.Password -->
    <g id="node11" class="node">
        <title>mrs.domain.model.user.Password</title>
        <polygon fill="#eedd82" stroke="black" points="758,-151 672,-151 672,-113 758,-113 758,-151"/>
        <text text-anchor="middle" x="715" y="-135.8" font-family="Times,serif" font-size="14.00">パスワード</text>
        <text text-anchor="middle" x="715" y="-120.8" font-family="Times,serif" font-size="14.00">Password</text>
    </g>
    <!-- mrs.domain.model.user.RoleName -->
    <g id="node12" class="node">
        <title>mrs.domain.model.user.RoleName</title>
        <polygon fill="#eedd82" stroke="black" points="892,-151 776,-151 776,-113 892,-113 892,-151"/>
        <text text-anchor="middle" x="834" y="-135.8" font-family="Times,serif" font-size="14.00">ユーザーの役割</text>
        <text text-anchor="middle" x="834" y="-120.8" font-family="Times,serif" font-size="14.00">RoleName</text>
    </g>
    <!-- mrs.domain.model.user.User&#45;&gt;mrs.domain.model.user.Name -->
    <g id="edge12" class="edge">
        <title>mrs.domain.model.user.User&#45;&gt;mrs.domain.model.user.Name</title>
        <path fill="none" stroke="black"
              d="M677.83,-192.17C672.59,-189.17 667.48,-185.77 663,-182 655.61,-175.77 648.9,-167.73 643.33,-159.97"/>
        <polygon fill="black" stroke="black" points="646.06,-157.76 637.55,-151.44 640.27,-161.68 646.06,-157.76"/>
    </g>
    <!-- mrs.domain.model.user.User&#45;&gt;mrs.domain.model.user.Password -->
    <g id="edge13" class="edge">
        <title>mrs.domain.model.user.User&#45;&gt;mrs.domain.model.user.Password</title>
        <path fill="none" stroke="black" d="M715,-189.84C715,-181.34 715,-171.01 715,-161.5"/>
        <polygon fill="black" stroke="black" points="718.5,-161.25 715,-151.25 711.5,-161.25 718.5,-161.25"/>
    </g>
    <!-- mrs.domain.model.user.User&#45;&gt;mrs.domain.model.user.RoleName -->
    <g id="edge14" class="edge">
        <title>mrs.domain.model.user.User&#45;&gt;mrs.domain.model.user.RoleName</title>
        <path fill="none" stroke="black"
              d="M752.06,-190.43C757.16,-187.74 762.26,-184.89 767,-182 779.16,-174.59 791.91,-165.6 802.99,-157.35"/>
        <polygon fill="black" stroke="black" points="805.23,-160.05 811.1,-151.23 801.01,-154.46 805.23,-160.05"/>
    </g>
    <!-- mrs.domain.model.user.UserId -->
    <g id="node14" class="node">
        <title>mrs.domain.model.user.UserId</title>
        <polygon fill="#eedd82" stroke="black" points="998,-151 910,-151 910,-113 998,-113 998,-151"/>
        <text text-anchor="middle" x="954" y="-135.8" font-family="Times,serif" font-size="14.00">ユーザーID</text>
        <text text-anchor="middle" x="954" y="-120.8" font-family="Times,serif" font-size="14.00">UserId</text>
    </g>
    <!-- mrs.domain.model.user.User&#45;&gt;mrs.domain.model.user.UserId -->
    <g id="edge15" class="edge">
        <title>mrs.domain.model.user.User&#45;&gt;mrs.domain.model.user.UserId</title>
        <path fill="none" stroke="black"
              d="M752.14,-205.45C798.65,-201.79 875.37,-194.15 901,-182 912.68,-176.47 923.55,-167.44 932.37,-158.63"/>
        <polygon fill="black" stroke="black" points="934.92,-161.03 939.26,-151.37 929.84,-156.21 934.92,-161.03"/>
    </g>
    <!-- mrs.domain.type.date.CurrentDate -->
    <g id="node15" class="node">
        <title>mrs.domain.type.date.CurrentDate</title>
        <polygon fill="#eedd82" stroke="red" points="776.5,-313 693.5,-313 693.5,-275 776.5,-275 776.5,-313"/>
        <text text-anchor="middle" x="735" y="-297.8" font-family="Times,serif" font-size="14.00">現在日</text>
        <text text-anchor="middle" x="735" y="-282.8" font-family="Times,serif" font-size="14.00">CurrentDate</text>
    </g>
    <!-- mrs.domain.type.date.Days -->
    <g id="node16" class="node">
        <title>mrs.domain.type.date.Days</title>
        <polygon fill="#eedd82" stroke="red" points="675,-313 621,-313 621,-275 675,-275 675,-313"/>
        <text text-anchor="middle" x="648" y="-297.8" font-family="Times,serif" font-size="14.00">日数</text>
        <text text-anchor="middle" x="648" y="-282.8" font-family="Times,serif" font-size="14.00">Days</text>
    </g>
</g>
</svg>
