<svg width="932px" height="308px"
     viewBox="0.00 0.00 932.00 307.70" xmlns="http://www.w3.org/2000/svg">
    <g id="graph0" class="graph" transform="scale(1.0 1.0) rotate(0) translate(4 303.7)">
        <title>集中ビジネスルールツリー図</title>
        <polygon fill="white" stroke="transparent" points="-4,4 -4,-303.7 928,-303.7 928,4 -4,4"/>
        <text text-anchor="middle" x="462" y="-7.8" font-family="Times,serif" font-size="14.00">集中ビジネスルールツリー図</text>
        <!-- mrs.domain.model.reservation.ReservableRoom -->
        <g id="node1" class="node">
            <title>mrs.domain.model.reservation.ReservableRoom</title>
            <polygon fill="#eedd82" stroke="black" points="408,-115 181,-115 181,-41 408,-41 408,-115"/>
            <text text-anchor="middle" x="294.5" y="-87" font-family="Times,serif" font-size="30.00">予約可能会議室</text>
            <text text-anchor="middle" x="294.5" y="-54" font-family="Times,serif" font-size="30.00">ReservableRoom
            </text>
        </g>
        <!-- mrs.domain.model.reservation.ReservableRoomId -->
        <g id="node2" class="node">
            <title>mrs.domain.model.reservation.ReservableRoomId</title>
            <polygon fill="#eedd82" stroke="black" points="702,-153 444,-153 444,-79 702,-79 702,-153"/>
            <text text-anchor="middle" x="573" y="-125" font-family="Times,serif" font-size="30.00">予約可能会議室ID</text>
            <text text-anchor="middle" x="573" y="-92" font-family="Times,serif" font-size="30.00">ReservableRoomId
            </text>
        </g>
        <!-- mrs.domain.model.reservation.ReservableRoom&#45;&gt;mrs.domain.model.reservation.ReservableRoomId -->
        <g id="edge4" class="edge">
            <title>mrs.domain.model.reservation.ReservableRoom&#45;&gt;mrs.domain.model.reservation.ReservableRoomId
            </title>
            <path fill="none" stroke="black" d="M408.36,-93.51C416.73,-94.66 425.23,-95.83 433.73,-97"/>
            <polygon fill="black" stroke="black" points="433.32,-100.47 443.71,-98.37 434.27,-93.54 433.32,-100.47"/>
        </g>
        <!-- mrs.domain.model.reservation.ReservedDate -->
        <g id="node5" class="node">
            <title>mrs.domain.model.reservation.ReservedDate</title>
            <polygon fill="#eedd82" stroke="black" points="924,-218 738,-218 738,-144 924,-144 924,-218"/>
            <text text-anchor="middle" x="831" y="-190" font-family="Times,serif" font-size="30.00">予約日</text>
            <text text-anchor="middle" x="831" y="-157" font-family="Times,serif" font-size="30.00">ReservedDate</text>
        </g>
        <!-- mrs.domain.model.reservation.ReservableRoomId&#45;&gt;mrs.domain.model.reservation.ReservedDate -->
        <g id="edge1" class="edge">
            <title>mrs.domain.model.reservation.ReservableRoomId&#45;&gt;mrs.domain.model.reservation.ReservedDate
            </title>
            <path fill="none" stroke="black" d="M702.37,-148.6C710.98,-150.78 719.59,-152.97 728.04,-155.11"/>
            <polygon fill="black" stroke="black" points="727.32,-158.54 737.87,-157.61 729.04,-151.75 727.32,-158.54"/>
        </g>
        <!-- mrs.domain.model.room.RoomId -->
        <g id="node9" class="node">
            <title>mrs.domain.model.room.RoomId</title>
            <polygon fill="#eedd82" stroke="black" points="900,-103 762,-103 762,-29 900,-29 900,-103"/>
            <text text-anchor="middle" x="831" y="-75" font-family="Times,serif" font-size="30.00">会議室ID</text>
            <text text-anchor="middle" x="831" y="-42" font-family="Times,serif" font-size="30.00">RoomId</text>
        </g>
        <!-- mrs.domain.model.reservation.ReservableRoomId&#45;&gt;mrs.domain.model.room.RoomId -->
        <g id="edge10" class="edge">
            <title>mrs.domain.model.reservation.ReservableRoomId&#45;&gt;mrs.domain.model.room.RoomId</title>
            <path fill="none" stroke="black" d="M702.37,-90.93C719.26,-87.63 736.14,-84.33 751.83,-81.27"/>
            <polygon fill="black" stroke="black" points="752.82,-84.64 761.96,-79.29 751.48,-77.77 752.82,-84.64"/>
        </g>
        <!-- mrs.domain.model.reservation.ReservableRooms -->
        <g id="node3" class="node">
            <title>mrs.domain.model.reservation.ReservableRooms</title>
            <polygon fill="lemonchiffon" stroke="black" points="145,-97 0,-97 0,-59 145,-59 145,-97"/>
            <text text-anchor="middle" x="72.5" y="-81.8" font-family="Times,serif" font-size="14.00">予約可能会議室一覧</text>
            <text text-anchor="middle" x="72.5" y="-66.8" font-family="Times,serif" font-size="14.00">ReservableRooms
            </text>
        </g>
        <!-- mrs.domain.model.reservation.ReservableRooms&#45;&gt;mrs.domain.model.reservation.ReservableRoom -->
        <g id="edge8" class="edge">
            <title>mrs.domain.model.reservation.ReservableRooms&#45;&gt;mrs.domain.model.reservation.ReservableRoom
            </title>
            <path fill="none" stroke="black" d="M145.23,-78C153.43,-78 161.96,-78 170.59,-78"/>
            <polygon fill="black" stroke="black" points="170.76,-81.5 180.76,-78 170.76,-74.5 170.76,-81.5"/>
        </g>
        <!-- mrs.domain.model.reservation.Reservation -->
        <g id="node4" class="node">
            <title>mrs.domain.model.reservation.Reservation</title>
            <polygon fill="lemonchiffon" stroke="black" points="113,-181 32,-181 32,-143 113,-143 113,-181"/>
            <text text-anchor="middle" x="72.5" y="-165.8" font-family="Times,serif" font-size="14.00">予約</text>
            <text text-anchor="middle" x="72.5" y="-150.8" font-family="Times,serif" font-size="14.00">Reservation
            </text>
        </g>
        <!-- mrs.domain.model.reservation.Reservation&#45;&gt;mrs.domain.model.reservation.ReservableRoom -->
        <g id="edge9" class="edge">
            <title>mrs.domain.model.reservation.Reservation&#45;&gt;mrs.domain.model.reservation.ReservableRoom</title>
            <path fill="none" stroke="black" d="M113.09,-146.89C133.8,-138.98 160.26,-128.87 186.49,-118.86"/>
            <polygon fill="black" stroke="black" points="188.04,-122.01 196.14,-115.18 185.55,-115.47 188.04,-122.01"/>
        </g>
        <!-- mrs.domain.model.reservation.Reservation&#45;&gt;mrs.domain.model.reservation.ReservableRoomId -->
        <g id="edge5" class="edge">
            <title>mrs.domain.model.reservation.Reservation&#45;&gt;mrs.domain.model.reservation.ReservableRoomId
            </title>
            <path fill="none" stroke="black" d="M113.03,-158.35C181.53,-152.03 325.36,-138.76 433.86,-128.75"/>
            <polygon fill="black" stroke="black" points="434.28,-132.22 443.92,-127.82 433.64,-125.25 434.28,-132.22"/>
        </g>
        <!-- mrs.domain.model.reservation.Reservation&#45;&gt;mrs.domain.model.reservation.ReservedDate -->
        <g id="edge2" class="edge">
            <title>mrs.domain.model.reservation.Reservation&#45;&gt;mrs.domain.model.reservation.ReservedDate</title>
            <path fill="none" stroke="black" d="M113.11,-162.99C227.07,-165.86 558.41,-174.18 727.76,-178.43"/>
            <polygon fill="black" stroke="black" points="727.85,-181.94 737.93,-178.69 728.02,-174.94 727.85,-181.94"/>
        </g>
        <!-- mrs.domain.model.reservation.ReservedTime -->
        <g id="node7" class="node">
            <title>mrs.domain.model.reservation.ReservedTime</title>
            <polygon fill="#eedd82" stroke="black" points="390,-283 199,-283 199,-209 390,-209 390,-283"/>
            <text text-anchor="middle" x="294.5" y="-255" font-family="Times,serif" font-size="30.00">予約時間</text>
            <text text-anchor="middle" x="294.5" y="-222" font-family="Times,serif" font-size="30.00">ReservedTime
            </text>
        </g>
        <!-- mrs.domain.model.reservation.Reservation&#45;&gt;mrs.domain.model.reservation.ReservedTime -->
        <g id="edge6" class="edge">
            <title>mrs.domain.model.reservation.Reservation&#45;&gt;mrs.domain.model.reservation.ReservedTime</title>
            <path fill="none" stroke="black" d="M113.09,-177.11C134.55,-185.31 162.2,-195.87 189.36,-206.24"/>
            <polygon fill="black" stroke="black" points="188.35,-209.6 198.94,-209.89 190.84,-203.06 188.35,-209.6"/>
        </g>
        <!-- mrs.domain.model.reservation.ReservedDateTime -->
        <g id="node6" class="node">
            <title>mrs.domain.model.reservation.ReservedDateTime</title>
            <polygon fill="lemonchiffon" stroke="black" points="133.5,-297 11.5,-297 11.5,-259 133.5,-259 133.5,-297"/>
            <text text-anchor="middle" x="72.5" y="-281.8" font-family="Times,serif" font-size="14.00">予約日時</text>
            <text text-anchor="middle" x="72.5" y="-266.8" font-family="Times,serif" font-size="14.00">
                ReservedDateTime
            </text>
        </g>
        <!-- mrs.domain.model.reservation.ReservedDateTime&#45;&gt;mrs.domain.model.reservation.ReservedDate -->
        <g id="edge3" class="edge">
            <title>mrs.domain.model.reservation.ReservedDateTime&#45;&gt;mrs.domain.model.reservation.ReservedDate
            </title>
            <path fill="none" stroke="black"
                  d="M133.63,-287.23C149.04,-289.21 165.6,-291 181,-292 281.68,-298.53 307.94,-304.94 408,-292 519.59,-277.57 643.74,-242.52 728.32,-215.63"/>
            <polygon fill="black" stroke="black" points="729.46,-218.94 737.92,-212.56 727.33,-212.28 729.46,-218.94"/>
        </g>
        <!-- mrs.domain.model.reservation.ReservedDateTime&#45;&gt;mrs.domain.model.reservation.ReservedTime -->
        <g id="edge7" class="edge">
            <title>mrs.domain.model.reservation.ReservedDateTime&#45;&gt;mrs.domain.model.reservation.ReservedTime
            </title>
            <path fill="none" stroke="black" d="M133.62,-269.26C150.65,-266.78 169.72,-264 188.58,-261.26"/>
            <polygon fill="black" stroke="black" points="189.33,-264.69 198.72,-259.79 188.32,-257.76 189.33,-264.69"/>
        </g>
        <!-- mrs.domain.model.room.MeetingRoom -->
        <g id="node8" class="node">
            <title>mrs.domain.model.room.MeetingRoom</title>
            <polygon fill="lemonchiffon" stroke="black" points="621,-61 525,-61 525,-23 621,-23 621,-61"/>
            <text text-anchor="middle" x="573" y="-45.8" font-family="Times,serif" font-size="14.00">会議室</text>
            <text text-anchor="middle" x="573" y="-30.8" font-family="Times,serif" font-size="14.00">MeetingRoom</text>
        </g>
        <!-- mrs.domain.model.room.MeetingRoom&#45;&gt;mrs.domain.model.room.RoomId -->
        <g id="edge11" class="edge">
            <title>mrs.domain.model.room.MeetingRoom&#45;&gt;mrs.domain.model.room.RoomId</title>
            <path fill="none" stroke="black" d="M621.25,-46.43C657.77,-49.85 709.1,-54.67 751.72,-58.66"/>
            <polygon fill="black" stroke="black" points="751.51,-62.16 761.79,-59.61 752.16,-55.19 751.51,-62.16"/>
        </g>
    </g>
</svg>
