<svg width="894px" height="214px"
     viewBox="0.00 0.00 894.00 214.00" xmlns="http://www.w3.org/2000/svg">
    <g id="graph0" class="graph" transform="scale(1.0 1.0) rotate(0) translate(4 210)">
        <title>集中ビジネスルールツリー図</title>
        <polygon fill="white" stroke="none" points="-4,4 -4,-210 890,-210 890,4 -4,4"/>
        <text text-anchor="middle" x="443" y="-7.8" font-family="Times New Roman,serif" font-size="14.00">
            集中ビジネスルールツリー図
        </text>
        <!-- mrs.domain.model.reservation.ReservableRoom -->
        <g id="node1" class="node">
            <title>mrs.domain.model.reservation.ReservableRoom</title>
            <polygon fill="#eedd82" stroke="black" points="387,-115 167,-115 167,-41 387,-41 387,-115"/>
            <text text-anchor="middle" x="277" y="-87" font-family="Times New Roman,serif" font-size="30.00">予約可能会議室
            </text>
            <text text-anchor="middle" x="277" y="-54" font-family="Times New Roman,serif" font-size="30.00">
                ReservableRoom
            </text>
        </g>
        <!-- mrs.domain.model.reservation.ReservableRoomId -->
        <g id="node2" class="node">
            <title>mrs.domain.model.reservation.ReservableRoomId</title>
            <polygon fill="#eedd82" stroke="black" points="668,-153 423,-153 423,-79 668,-79 668,-153"/>
            <text text-anchor="middle" x="545.5" y="-125" font-family="Times New Roman,serif" font-size="30.00">
                予約可能会議室ID
            </text>
            <text text-anchor="middle" x="545.5" y="-92" font-family="Times New Roman,serif" font-size="30.00">
                ReservableRoomId
            </text>
        </g>
        <!-- mrs.domain.model.reservation.ReservableRoom&#45;&gt;mrs.domain.model.reservation.ReservableRoomId -->
        <g id="edge5" class="edge">
            <title>mrs.domain.model.reservation.ReservableRoom&#45;&gt;mrs.domain.model.reservation.ReservableRoomId
            </title>
            <path fill="none" stroke="black" d="M387.165,-93.5657C395.637,-94.7737 404.243,-96.0009 412.841,-97.2268"/>
            <polygon fill="black" stroke="black"
                     points="412.527,-100.717 422.921,-98.6641 413.515,-93.7875 412.527,-100.717"/>
        </g>
        <!-- mrs.domain.model.reservation.ReservedDate -->
        <g id="node5" class="node">
            <title>mrs.domain.model.reservation.ReservedDate</title>
            <polygon fill="#eedd82" stroke="black" points="886,-206 704,-206 704,-132 886,-132 886,-206"/>
            <text text-anchor="middle" x="795" y="-178" font-family="Times New Roman,serif" font-size="30.00">予約日</text>
            <text text-anchor="middle" x="795" y="-145" font-family="Times New Roman,serif" font-size="30.00">
                ReservedDate
            </text>
        </g>
        <!-- mrs.domain.model.reservation.ReservableRoomId&#45;&gt;mrs.domain.model.reservation.ReservedDate -->
        <g id="edge3" class="edge">
            <title>mrs.domain.model.reservation.ReservableRoomId&#45;&gt;mrs.domain.model.reservation.ReservedDate
            </title>
            <path fill="none" stroke="black" d="M668.075,-142.034C676.686,-143.878 685.311,-145.725 693.783,-147.539"/>
            <polygon fill="black" stroke="black"
                     points="693.137,-150.98 703.648,-149.652 694.603,-144.136 693.137,-150.98"/>
        </g>
        <!-- mrs.domain.model.room.RoomId -->
        <g id="node7" class="node">
            <title>mrs.domain.model.room.RoomId</title>
            <polygon fill="#eedd82" stroke="black" points="859.5,-102 730.5,-102 730.5,-28 859.5,-28 859.5,-102"/>
            <text text-anchor="middle" x="795" y="-74" font-family="Times New Roman,serif" font-size="30.00">会議室ID
            </text>
            <text text-anchor="middle" x="795" y="-41" font-family="Times New Roman,serif" font-size="30.00">RoomId
            </text>
        </g>
        <!-- mrs.domain.model.reservation.ReservableRoomId&#45;&gt;mrs.domain.model.room.RoomId -->
        <g id="edge7" class="edge">
            <title>mrs.domain.model.reservation.ReservableRoomId&#45;&gt;mrs.domain.model.room.RoomId</title>
            <path fill="none" stroke="black" d="M668.075,-90.9482C685.893,-87.2767 703.771,-83.5927 720.231,-80.201"/>
            <polygon fill="black" stroke="black"
                     points="721.195,-83.5759 730.283,-78.1296 719.782,-76.7199 721.195,-83.5759"/>
        </g>
        <!-- mrs.domain.model.reservation.ReservableRooms -->
        <g id="node3" class="node">
            <title>mrs.domain.model.reservation.ReservableRooms</title>
            <polygon fill="lemonchiffon" stroke="black" points="131,-97 0,-97 0,-59 131,-59 131,-97"/>
            <text text-anchor="middle" x="65.5" y="-81.8" font-family="Times New Roman,serif" font-size="14.00">
                予約可能会議室一覧
            </text>
            <text text-anchor="middle" x="65.5" y="-66.8" font-family="Times New Roman,serif" font-size="14.00">
                ReservableRooms
            </text>
        </g>
        <!-- mrs.domain.model.reservation.ReservableRooms&#45;&gt;mrs.domain.model.reservation.ReservableRoom -->
        <g id="edge1" class="edge">
            <title>mrs.domain.model.reservation.ReservableRooms&#45;&gt;mrs.domain.model.reservation.ReservableRoom
            </title>
            <path fill="none" stroke="black" d="M131.066,-78C139.365,-78 148.06,-78 156.894,-78"/>
            <polygon fill="black" stroke="black"
                     points="156.913,-81.5001 166.913,-78 156.913,-74.5001 156.913,-81.5001"/>
        </g>
        <!-- mrs.domain.model.reservation.Reservation -->
        <g id="node4" class="node">
            <title>mrs.domain.model.reservation.Reservation</title>
            <polygon fill="lemonchiffon" stroke="black" points="107,-162 24,-162 24,-124 107,-124 107,-162"/>
            <text text-anchor="middle" x="65.5" y="-146.8" font-family="Times New Roman,serif" font-size="14.00">予約
            </text>
            <text text-anchor="middle" x="65.5" y="-131.8" font-family="Times New Roman,serif" font-size="14.00">
                Reservation
            </text>
        </g>
        <!-- mrs.domain.model.reservation.Reservation&#45;&gt;mrs.domain.model.reservation.ReservableRoom -->
        <g id="edge2" class="edge">
            <title>mrs.domain.model.reservation.Reservation&#45;&gt;mrs.domain.model.reservation.ReservableRoom</title>
            <path fill="none" stroke="black" d="M107.391,-130.313C121.96,-125.793 139.193,-120.446 156.986,-114.926"/>
            <polygon fill="black" stroke="black"
                     points="158.401,-118.151 166.915,-111.845 156.327,-111.465 158.401,-118.151"/>
        </g>
        <!-- mrs.domain.model.reservation.Reservation&#45;&gt;mrs.domain.model.reservation.ReservableRoomId -->
        <g id="edge6" class="edge">
            <title>mrs.domain.model.reservation.Reservation&#45;&gt;mrs.domain.model.reservation.ReservableRoomId
            </title>
            <path fill="none" stroke="black" d="M107.254,-140.698C174.168,-136.918 310.129,-129.239 412.777,-123.44"/>
            <polygon fill="black" stroke="black"
                     points="413.13,-126.926 422.917,-122.868 412.735,-119.937 413.13,-126.926"/>
        </g>
        <!-- mrs.domain.model.reservation.Reservation&#45;&gt;mrs.domain.model.reservation.ReservedDate -->
        <g id="edge4" class="edge">
            <title>mrs.domain.model.reservation.Reservation&#45;&gt;mrs.domain.model.reservation.ReservedDate</title>
            <path fill="none" stroke="black"
                  d="M107.113,-145.62C173.263,-149.785 308.411,-157.867 423,-162 514.462,-165.299 618.668,-167.092 693.305,-168.035"/>
            <polygon fill="black" stroke="black"
                     points="693.594,-171.539 703.636,-168.162 693.68,-164.539 693.594,-171.539"/>
        </g>
        <!-- mrs.domain.model.room.MeetingRoom -->
        <g id="node6" class="node">
            <title>mrs.domain.model.room.MeetingRoom</title>
            <polygon fill="lemonchiffon" stroke="black" points="593.5,-61 497.5,-61 497.5,-23 593.5,-23 593.5,-61"/>
            <text text-anchor="middle" x="545.5" y="-45.8" font-family="Times New Roman,serif" font-size="14.00">会議室
            </text>
            <text text-anchor="middle" x="545.5" y="-30.8" font-family="Times New Roman,serif" font-size="14.00">
                MeetingRoom
            </text>
        </g>
        <!-- mrs.domain.model.room.MeetingRoom&#45;&gt;mrs.domain.model.room.RoomId -->
        <g id="edge8" class="edge">
            <title>mrs.domain.model.room.MeetingRoom&#45;&gt;mrs.domain.model.room.RoomId</title>
            <path fill="none" stroke="black" d="M593.635,-46.3803C629.321,-49.6965 679.021,-54.315 719.993,-58.1225"/>
            <polygon fill="black" stroke="black"
                     points="719.926,-61.6314 730.207,-59.0718 720.574,-54.6614 719.926,-61.6314"/>
        </g>
    </g>
</svg>
