<svg width="912px" height="360px"
     viewBox="0.00 0.00 912.00 360.00" xmlns="http://www.w3.org/2000/svg">
    <g id="graph0" class="graph" transform="scale(1.0 1.0) rotate(0) translate(4 356)">
        <title>ビジネスルール関連図</title>
        <polygon fill="white" stroke="transparent" points="-4,4 -4,-356 908,-356 908,4 -4,4"/>
        <text text-anchor="middle" x="452" y="-7.8" font-family="Times,serif" font-size="14.00">ビジネスルール関連図</text>
        <g id="clust1" class="cluster">
            <title>cluster_mrs.domain.model.reservation</title>
            <polygon fill="lemonchiffon" stroke="#eedd82" stroke-width="2"
                     points="8,-31 8,-344 274,-344 274,-31 8,-31"/>
            <text text-anchor="middle" x="141" y="-328.8" font-family="Times,serif" font-size="14.00">reservation</text>
        </g>
        <g id="clust2" class="cluster">
            <title>cluster_mrs.domain.model.room</title>
            <polygon fill="lemonchiffon" stroke="#eedd82" stroke-width="2"
                     points="282,-31 282,-182 474,-182 474,-31 282,-31"/>
            <text text-anchor="middle" x="378" y="-166.8" font-family="Times,serif" font-size="14.00">room</text>
        </g>
        <g id="clust3" class="cluster">
            <title>cluster_mrs.domain.model.user</title>
            <polygon fill="lemonchiffon" stroke="#eedd82" stroke-width="2"
                     points="482,-105 482,-259 896,-259 896,-105 482,-105"/>
            <text text-anchor="middle" x="689" y="-243.8" font-family="Times,serif" font-size="14.00">user</text>
        </g>
        <g id="clust4" class="cluster">
            <title>cluster_mrs.domain.type.date</title>
            <polygon fill="lemonchiffon" stroke="#eedd82" stroke-width="2"
                     points="503,-267 503,-344 675,-344 675,-267 503,-267"/>
            <text text-anchor="middle" x="589" y="-328.8" font-family="Times,serif" font-size="14.00">date</text>
        </g>
        <!-- mrs.domain.model.reservation.ReservableRoom -->
        <g id="node1" class="node">
            <title>mrs.domain.model.reservation.ReservableRoom</title>
            <polygon fill="#eedd82" stroke="black" points="152,-228 36,-228 36,-190 152,-190 152,-228"/>
            <text text-anchor="middle" x="94" y="-212.8" font-family="Times,serif" font-size="14.00">予約可能会議室</text>
            <text text-anchor="middle" x="94" y="-197.8" font-family="Times,serif" font-size="14.00">ReservableRoom
            </text>
        </g>
        <!-- mrs.domain.model.reservation.ReservableRoomId -->
        <g id="node2" class="node">
            <title>mrs.domain.model.reservation.ReservableRoomId</title>
            <polygon fill="#eedd82" stroke="black" points="159.5,-151 28.5,-151 28.5,-113 159.5,-113 159.5,-151"/>
            <text text-anchor="middle" x="94" y="-135.8" font-family="Times,serif" font-size="14.00">予約可能会議室ID</text>
            <text text-anchor="middle" x="94" y="-120.8" font-family="Times,serif" font-size="14.00">ReservableRoomId
            </text>
        </g>
        <!-- mrs.domain.model.reservation.ReservableRoom&#45;&gt;mrs.domain.model.reservation.ReservableRoomId -->
        <g id="edge3" class="edge">
            <title>mrs.domain.model.reservation.ReservableRoom&#45;&gt;mrs.domain.model.reservation.ReservableRoomId
            </title>
            <path fill="none" stroke="black" d="M94,-189.84C94,-181.34 94,-171.01 94,-161.5"/>
            <polygon fill="black" stroke="black" points="97.5,-161.25 94,-151.25 90.5,-161.25 97.5,-161.25"/>
        </g>
        <!-- mrs.domain.model.room.MeetingRoom -->
        <g id="node6" class="node">
            <title>mrs.domain.model.room.MeetingRoom</title>
            <polygon fill="#eedd82" stroke="black" points="386,-151 290,-151 290,-113 386,-113 386,-151"/>
            <text text-anchor="middle" x="338" y="-135.8" font-family="Times,serif" font-size="14.00">会議室</text>
            <text text-anchor="middle" x="338" y="-120.8" font-family="Times,serif" font-size="14.00">MeetingRoom</text>
        </g>
        <!-- mrs.domain.model.reservation.ReservableRoom&#45;&gt;mrs.domain.model.room.MeetingRoom -->
        <g id="edge4" class="edge">
            <title>mrs.domain.model.reservation.ReservableRoom&#45;&gt;mrs.domain.model.room.MeetingRoom</title>
            <path fill="none" stroke="black"
                  d="M152.32,-191.62C155.24,-191.02 158.15,-190.48 161,-190 186.71,-185.71 253.77,-191.58 278,-182 291.45,-176.68 304.2,-167.18 314.45,-157.95"/>
            <polygon fill="black" stroke="black" points="316.92,-160.43 321.77,-151.02 312.1,-155.35 316.92,-160.43"/>
        </g>
        <!-- mrs.domain.model.reservation.ReservedDate -->
        <g id="node4" class="node">
            <title>mrs.domain.model.reservation.ReservedDate</title>
            <polygon fill="#eedd82" stroke="black" points="140,-77 48,-77 48,-39 140,-39 140,-77"/>
            <text text-anchor="middle" x="94" y="-61.8" font-family="Times,serif" font-size="14.00">予約日</text>
            <text text-anchor="middle" x="94" y="-46.8" font-family="Times,serif" font-size="14.00">ReservedDate</text>
        </g>
        <!-- mrs.domain.model.reservation.ReservableRoomId&#45;&gt;mrs.domain.model.reservation.ReservedDate -->
        <g id="edge5" class="edge">
            <title>mrs.domain.model.reservation.ReservableRoomId&#45;&gt;mrs.domain.model.reservation.ReservedDate
            </title>
            <path fill="none" stroke="black" d="M94,-112.83C94,-105.13 94,-95.97 94,-87.42"/>
            <polygon fill="black" stroke="black" points="97.5,-87.41 94,-77.41 90.5,-87.41 97.5,-87.41"/>
        </g>
        <!-- mrs.domain.model.room.RoomId -->
        <g id="node7" class="node">
            <title>mrs.domain.model.room.RoomId</title>
            <polygon fill="#eedd82" stroke="black" points="364,-77 290,-77 290,-39 364,-39 364,-77"/>
            <text text-anchor="middle" x="327" y="-61.8" font-family="Times,serif" font-size="14.00">会議室ID</text>
            <text text-anchor="middle" x="327" y="-46.8" font-family="Times,serif" font-size="14.00">RoomId</text>
        </g>
        <!-- mrs.domain.model.reservation.ReservableRoomId&#45;&gt;mrs.domain.model.room.RoomId -->
        <g id="edge6" class="edge">
            <title>mrs.domain.model.reservation.ReservableRoomId&#45;&gt;mrs.domain.model.room.RoomId</title>
            <path fill="none" stroke="black"
                  d="M159.47,-112.93C194.76,-102.91 238.96,-89.88 278,-77 278.73,-76.76 279.46,-76.52 280.19,-76.27"/>
            <polygon fill="black" stroke="black" points="281.59,-79.49 289.9,-72.92 279.31,-72.87 281.59,-79.49"/>
        </g>
        <!-- mrs.domain.model.reservation.Reservation -->
        <g id="node3" class="node">
            <title>mrs.domain.model.reservation.Reservation</title>
            <polygon fill="#eedd82" stroke="black" points="196.5,-313 115.5,-313 115.5,-275 196.5,-275 196.5,-313"/>
            <text text-anchor="middle" x="156" y="-297.8" font-family="Times,serif" font-size="14.00">予約</text>
            <text text-anchor="middle" x="156" y="-282.8" font-family="Times,serif" font-size="14.00">Reservation</text>
        </g>
        <!-- mrs.domain.model.reservation.Reservation&#45;&gt;mrs.domain.model.reservation.ReservableRoom -->
        <g id="edge7" class="edge">
            <title>mrs.domain.model.reservation.Reservation&#45;&gt;mrs.domain.model.reservation.ReservableRoom</title>
            <path fill="none" stroke="black" d="M142.55,-274.99C134.16,-263.76 123.21,-249.1 113.83,-236.55"/>
            <polygon fill="black" stroke="black" points="116.43,-234.18 107.64,-228.26 110.82,-238.37 116.43,-234.18"/>
        </g>
        <!-- mrs.domain.model.reservation.Reservation&#45;&gt;mrs.domain.model.reservation.ReservableRoomId -->
        <g id="edge8" class="edge">
            <title>mrs.domain.model.reservation.Reservation&#45;&gt;mrs.domain.model.reservation.ReservableRoomId
            </title>
            <path fill="none" stroke="black"
                  d="M115.41,-287.73C81.78,-282.44 37.81,-273.03 27,-259 8.28,-234.71 14.13,-217.84 27,-190 32.98,-177.06 43.51,-165.98 54.47,-157.12"/>
            <polygon fill="black" stroke="black" points="56.61,-159.89 62.47,-151.07 52.38,-154.31 56.61,-159.89"/>
        </g>
        <!-- mrs.domain.model.reservation.ReservedTime -->
        <g id="node5" class="node">
            <title>mrs.domain.model.reservation.ReservedTime</title>
            <polygon fill="#eedd82" stroke="black" points="266,-228 170,-228 170,-190 266,-190 266,-228"/>
            <text text-anchor="middle" x="218" y="-212.8" font-family="Times,serif" font-size="14.00">予約時間</text>
            <text text-anchor="middle" x="218" y="-197.8" font-family="Times,serif" font-size="14.00">ReservedTime
            </text>
        </g>
        <!-- mrs.domain.model.reservation.Reservation&#45;&gt;mrs.domain.model.reservation.ReservedTime -->
        <g id="edge9" class="edge">
            <title>mrs.domain.model.reservation.Reservation&#45;&gt;mrs.domain.model.reservation.ReservedTime</title>
            <path fill="none" stroke="black" d="M169.45,-274.99C177.84,-263.76 188.79,-249.1 198.17,-236.55"/>
            <polygon fill="black" stroke="black" points="201.18,-238.37 204.36,-228.26 195.57,-234.18 201.18,-238.37"/>
        </g>
        <!-- mrs.domain.model.user.User -->
        <g id="node12" class="node">
            <title>mrs.domain.model.user.User</title>
            <polygon fill="#eedd82" stroke="black" points="642,-228 568,-228 568,-190 642,-190 642,-228"/>
            <text text-anchor="middle" x="605" y="-212.8" font-family="Times,serif" font-size="14.00">ユーザー</text>
            <text text-anchor="middle" x="605" y="-197.8" font-family="Times,serif" font-size="14.00">User</text>
        </g>
        <!-- mrs.domain.model.reservation.Reservation&#45;&gt;mrs.domain.model.user.User -->
        <g id="edge10" class="edge">
            <title>mrs.domain.model.reservation.Reservation&#45;&gt;mrs.domain.model.user.User</title>
            <path fill="none" stroke="black" d="M196.64,-285.49C279.9,-270.1 469.48,-235.05 557.93,-218.7"/>
            <polygon fill="black" stroke="black" points="558.75,-222.11 567.95,-216.85 557.48,-215.23 558.75,-222.11"/>
        </g>
        <!-- mrs.domain.model.room.MeetingRoom&#45;&gt;mrs.domain.model.room.RoomId -->
        <g id="edge1" class="edge">
            <title>mrs.domain.model.room.MeetingRoom&#45;&gt;mrs.domain.model.room.RoomId</title>
            <path fill="none" stroke="black" d="M335.22,-112.83C334.05,-105.13 332.65,-95.97 331.34,-87.42"/>
            <polygon fill="black" stroke="black" points="334.78,-86.77 329.81,-77.41 327.86,-87.83 334.78,-86.77"/>
        </g>
        <!-- mrs.domain.model.room.RoomName -->
        <g id="node8" class="node">
            <title>mrs.domain.model.room.RoomName</title>
            <polygon fill="#eedd82" stroke="black" points="465.5,-77 382.5,-77 382.5,-39 465.5,-39 465.5,-77"/>
            <text text-anchor="middle" x="424" y="-61.8" font-family="Times,serif" font-size="14.00">会議室名</text>
            <text text-anchor="middle" x="424" y="-46.8" font-family="Times,serif" font-size="14.00">RoomName</text>
        </g>
        <!-- mrs.domain.model.room.MeetingRoom&#45;&gt;mrs.domain.model.room.RoomName -->
        <g id="edge2" class="edge">
            <title>mrs.domain.model.room.MeetingRoom&#45;&gt;mrs.domain.model.room.RoomName</title>
            <path fill="none" stroke="black" d="M359.7,-112.83C370.19,-104.05 382.95,-93.37 394.32,-83.85"/>
            <polygon fill="black" stroke="black" points="396.88,-86.27 402.31,-77.16 392.39,-80.9 396.88,-86.27"/>
        </g>
        <!-- mrs.domain.model.user.Name -->
        <g id="node9" class="node">
            <title>mrs.domain.model.user.Name</title>
            <polygon fill="#eedd82" stroke="black" points="544,-151 490,-151 490,-113 544,-113 544,-151"/>
            <text text-anchor="middle" x="517" y="-135.8" font-family="Times,serif" font-size="14.00">氏名</text>
            <text text-anchor="middle" x="517" y="-120.8" font-family="Times,serif" font-size="14.00">Name</text>
        </g>
        <!-- mrs.domain.model.user.Password -->
        <g id="node10" class="node">
            <title>mrs.domain.model.user.Password</title>
            <polygon fill="#eedd82" stroke="black" points="648,-151 562,-151 562,-113 648,-113 648,-151"/>
            <text text-anchor="middle" x="605" y="-135.8" font-family="Times,serif" font-size="14.00">パスワード</text>
            <text text-anchor="middle" x="605" y="-120.8" font-family="Times,serif" font-size="14.00">Password</text>
        </g>
        <!-- mrs.domain.model.user.RoleName -->
        <g id="node11" class="node">
            <title>mrs.domain.model.user.RoleName</title>
            <polygon fill="#eedd82" stroke="black" points="782,-151 666,-151 666,-113 782,-113 782,-151"/>
            <text text-anchor="middle" x="724" y="-135.8" font-family="Times,serif" font-size="14.00">ユーザーの役割</text>
            <text text-anchor="middle" x="724" y="-120.8" font-family="Times,serif" font-size="14.00">RoleName</text>
        </g>
        <!-- mrs.domain.model.user.User&#45;&gt;mrs.domain.model.user.Name -->
        <g id="edge11" class="edge">
            <title>mrs.domain.model.user.User&#45;&gt;mrs.domain.model.user.Name</title>
            <path fill="none" stroke="black"
                  d="M567.83,-192.17C562.59,-189.17 557.48,-185.77 553,-182 545.61,-175.77 538.9,-167.73 533.33,-159.97"/>
            <polygon fill="black" stroke="black" points="536.06,-157.76 527.55,-151.44 530.27,-161.68 536.06,-157.76"/>
        </g>
        <!-- mrs.domain.model.user.User&#45;&gt;mrs.domain.model.user.Password -->
        <g id="edge12" class="edge">
            <title>mrs.domain.model.user.User&#45;&gt;mrs.domain.model.user.Password</title>
            <path fill="none" stroke="black" d="M605,-189.84C605,-181.34 605,-171.01 605,-161.5"/>
            <polygon fill="black" stroke="black" points="608.5,-161.25 605,-151.25 601.5,-161.25 608.5,-161.25"/>
        </g>
        <!-- mrs.domain.model.user.User&#45;&gt;mrs.domain.model.user.RoleName -->
        <g id="edge13" class="edge">
            <title>mrs.domain.model.user.User&#45;&gt;mrs.domain.model.user.RoleName</title>
            <path fill="none" stroke="black"
                  d="M642.06,-190.43C647.16,-187.74 652.26,-184.89 657,-182 669.16,-174.59 681.91,-165.6 692.99,-157.35"/>
            <polygon fill="black" stroke="black" points="695.23,-160.05 701.1,-151.23 691.01,-154.46 695.23,-160.05"/>
        </g>
        <!-- mrs.domain.model.user.UserId -->
        <g id="node13" class="node">
            <title>mrs.domain.model.user.UserId</title>
            <polygon fill="#eedd82" stroke="black" points="888,-151 800,-151 800,-113 888,-113 888,-151"/>
            <text text-anchor="middle" x="844" y="-135.8" font-family="Times,serif" font-size="14.00">ユーザーID</text>
            <text text-anchor="middle" x="844" y="-120.8" font-family="Times,serif" font-size="14.00">UserId</text>
        </g>
        <!-- mrs.domain.model.user.User&#45;&gt;mrs.domain.model.user.UserId -->
        <g id="edge14" class="edge">
            <title>mrs.domain.model.user.User&#45;&gt;mrs.domain.model.user.UserId</title>
            <path fill="none" stroke="black"
                  d="M642.14,-205.45C688.65,-201.79 765.37,-194.15 791,-182 802.68,-176.47 813.55,-167.44 822.37,-158.63"/>
            <polygon fill="black" stroke="black" points="824.92,-161.03 829.26,-151.37 819.84,-156.21 824.92,-161.03"/>
        </g>
        <!-- mrs.domain.type.date.CurrentDate -->
        <g id="node14" class="node">
            <title>mrs.domain.type.date.CurrentDate</title>
            <polygon fill="#eedd82" stroke="red" points="666.5,-313 583.5,-313 583.5,-275 666.5,-275 666.5,-313"/>
            <text text-anchor="middle" x="625" y="-297.8" font-family="Times,serif" font-size="14.00">現在日</text>
            <text text-anchor="middle" x="625" y="-282.8" font-family="Times,serif" font-size="14.00">CurrentDate</text>
        </g>
        <!-- mrs.domain.type.date.Days -->
        <g id="node15" class="node">
            <title>mrs.domain.type.date.Days</title>
            <polygon fill="#eedd82" stroke="red" points="565,-313 511,-313 511,-275 565,-275 565,-313"/>
            <text text-anchor="middle" x="538" y="-297.8" font-family="Times,serif" font-size="14.00">日数</text>
            <text text-anchor="middle" x="538" y="-282.8" font-family="Times,serif" font-size="14.00">Days</text>
        </g>
    </g>
</svg>
