<svg width="1038px" height="445px"
     viewBox="0.00 0.00 1037.76 445.00" xmlns="http://www.w3.org/2000/svg">
<g id="graph0" class="graph" transform="scale(1.0 1.0) rotate(0) translate(4 441)">
    <title>ビジネスルール関連図</title>
    <polygon fill="white" stroke="transparent" points="-4,4 -4,-441 1033.76,-441 1033.76,4 -4,4"/>
    <text text-anchor="middle" x="514.88" y="-7.8" font-family="Times,serif" font-size="14.00">ビジネスルール関連図</text>
    <g id="clust1" class="cluster">
        <title>cluster_mrs.domain.model.facility.room</title>
        <polygon fill="lemonchiffon" stroke="#eedd82" stroke-width="2" points="8,-31 8,-182 200,-182 200,-31 8,-31"/>
        <text text-anchor="middle" x="104" y="-166.8" font-family="Times,serif" font-size="14.00">facility.room</text>
    </g>
    <g id="clust2" class="cluster">
        <title>cluster_mrs.domain.model.reservation</title>
        <polygon fill="lemonchiffon" stroke="#eedd82" stroke-width="2"
                 points="385,-190 385,-429 493,-429 493,-190 385,-190"/>
        <text text-anchor="middle" x="439" y="-413.8" font-family="Times,serif" font-size="14.00">reservation</text>
    </g>
    <g id="clust3" class="cluster">
        <title>cluster_mrs.domain.model.reservation.datetime</title>
        <polygon fill="lemonchiffon" stroke="#eedd82" stroke-width="2"
                 points="385,-31 385,-182 607,-182 607,-31 385,-31"/>
        <text text-anchor="middle" x="496" y="-166.8" font-family="Times,serif" font-size="14.00">reservation.datetime
        </text>
    </g>
    <g id="clust4" class="cluster">
        <title>cluster_mrs.domain.model.reservation.reservable.room</title>
        <polygon fill="lemonchiffon" stroke="#eedd82" stroke-width="2"
                 points="208,-105 208,-344 377,-344 377,-105 208,-105"/>
        <text text-anchor="middle" x="292.5" y="-328.8" font-family="Times,serif" font-size="14.00">
            reservation.reservable.room
        </text>
    </g>
    <g id="clust5" class="cluster">
        <title>cluster_mrs.domain.model.user</title>
        <polygon fill="lemonchiffon" stroke="#eedd82" stroke-width="2"
                 points="615,-105 615,-267 989,-267 989,-105 615,-105"/>
        <text text-anchor="middle" x="802" y="-251.8" font-family="Times,serif" font-size="14.00">user</text>
    </g>
    <g id="clust6" class="cluster">
        <title>cluster_mrs.domain.type.date</title>
        <polygon fill="lemonchiffon" stroke="#eedd82" stroke-width="2"
                 points="659,-352 659,-429 831,-429 831,-352 659,-352"/>
        <text text-anchor="middle" x="745" y="-413.8" font-family="Times,serif" font-size="14.00">date</text>
    </g>
    <!-- mrs.domain.model.facility.room.MeetingRoom -->
    <g id="node1" class="node">
        <title>mrs.domain.model.facility.room.MeetingRoom</title>
        <polygon fill="#eedd82" stroke="black" points="192,-151 96,-151 96,-113 192,-113 192,-151"/>
        <text text-anchor="middle" x="144" y="-135.8" font-family="Times,serif" font-size="14.00">会議室</text>
        <text text-anchor="middle" x="144" y="-120.8" font-family="Times,serif" font-size="14.00">MeetingRoom</text>
    </g>
    <!-- mrs.domain.model.facility.room.RoomId -->
    <g id="node2" class="node">
        <title>mrs.domain.model.facility.room.RoomId</title>
        <polygon fill="#eedd82" stroke="black" points="192,-77 118,-77 118,-39 192,-39 192,-77"/>
        <text text-anchor="middle" x="155" y="-61.8" font-family="Times,serif" font-size="14.00">会議室ID</text>
        <text text-anchor="middle" x="155" y="-46.8" font-family="Times,serif" font-size="14.00">RoomId</text>
    </g>
    <!-- mrs.domain.model.facility.room.MeetingRoom&#45;&gt;mrs.domain.model.facility.room.RoomId -->
    <g id="edge20" class="edge">
        <title>mrs.domain.model.facility.room.MeetingRoom&#45;&gt;mrs.domain.model.facility.room.RoomId</title>
        <path fill="none" stroke="black" d="M146.78,-112.83C147.95,-105.13 149.35,-95.97 150.66,-87.42"/>
        <polygon fill="black" stroke="black" points="154.14,-87.83 152.19,-77.41 147.22,-86.77 154.14,-87.83"/>
    </g>
    <!-- mrs.domain.model.facility.room.RoomName -->
    <g id="node3" class="node">
        <title>mrs.domain.model.facility.room.RoomName</title>
        <polygon fill="#eedd82" stroke="black" points="99.5,-77 16.5,-77 16.5,-39 99.5,-39 99.5,-77"/>
        <text text-anchor="middle" x="58" y="-61.8" font-family="Times,serif" font-size="14.00">会議室名</text>
        <text text-anchor="middle" x="58" y="-46.8" font-family="Times,serif" font-size="14.00">RoomName</text>
    </g>
    <!-- mrs.domain.model.facility.room.MeetingRoom&#45;&gt;mrs.domain.model.facility.room.RoomName -->
    <g id="edge21" class="edge">
        <title>mrs.domain.model.facility.room.MeetingRoom&#45;&gt;mrs.domain.model.facility.room.RoomName</title>
        <path fill="none" stroke="black" d="M122.3,-112.83C111.81,-104.05 99.05,-93.37 87.68,-83.85"/>
        <polygon fill="black" stroke="black" points="89.61,-80.9 79.69,-77.16 85.12,-86.27 89.61,-80.9"/>
    </g>
    <!-- mrs.domain.model.reservation.Reservation -->
    <g id="node4" class="node">
        <title>mrs.domain.model.reservation.Reservation</title>
        <polygon fill="#eedd82" stroke="black" points="484.5,-313 403.5,-313 403.5,-275 484.5,-275 484.5,-313"/>
        <text text-anchor="middle" x="444" y="-297.8" font-family="Times,serif" font-size="14.00">予約</text>
        <text text-anchor="middle" x="444" y="-282.8" font-family="Times,serif" font-size="14.00">Reservation</text>
    </g>
    <!-- mrs.domain.model.reservation.ReservationId -->
    <g id="node5" class="node">
        <title>mrs.domain.model.reservation.ReservationId</title>
        <polygon fill="#eedd82" stroke="black" points="485,-236 393,-236 393,-198 485,-198 485,-236"/>
        <text text-anchor="middle" x="439" y="-220.8" font-family="Times,serif" font-size="14.00">予約ID</text>
        <text text-anchor="middle" x="439" y="-205.8" font-family="Times,serif" font-size="14.00">ReservationId</text>
    </g>
    <!-- mrs.domain.model.reservation.Reservation&#45;&gt;mrs.domain.model.reservation.ReservationId -->
    <g id="edge3" class="edge">
        <title>mrs.domain.model.reservation.Reservation&#45;&gt;mrs.domain.model.reservation.ReservationId</title>
        <path fill="none" stroke="black" d="M442.79,-274.84C442.22,-266.34 441.53,-256.01 440.9,-246.5"/>
        <polygon fill="black" stroke="black" points="444.37,-245.99 440.22,-236.25 437.39,-246.46 444.37,-245.99"/>
    </g>
    <!-- mrs.domain.model.reservation.datetime.ReservedDate -->
    <g id="node7" class="node">
        <title>mrs.domain.model.reservation.datetime.ReservedDate</title>
        <polygon fill="#eedd82" stroke="black" points="485,-77 393,-77 393,-39 485,-39 485,-77"/>
        <text text-anchor="middle" x="439" y="-61.8" font-family="Times,serif" font-size="14.00">予約日</text>
        <text text-anchor="middle" x="439" y="-46.8" font-family="Times,serif" font-size="14.00">ReservedDate</text>
    </g>
    <!-- mrs.domain.model.reservation.Reservation&#45;&gt;mrs.domain.model.reservation.datetime.ReservedDate -->
    <g id="edge4" class="edge">
        <title>mrs.domain.model.reservation.Reservation&#45;&gt;mrs.domain.model.reservation.datetime.ReservedDate
        </title>
        <path fill="none" stroke="black"
              d="M484.7,-291.97C505.53,-289.36 529.84,-282.75 546,-267 598.12,-216.2 612.09,-164.38 570,-105 568.79,-103.29 530.05,-89.8 495.02,-77.87"/>
        <polygon fill="black" stroke="black" points="495.87,-74.46 485.27,-74.56 493.61,-81.09 495.87,-74.46"/>
    </g>
    <!-- mrs.domain.model.reservation.datetime.ReservedDateTime -->
    <g id="node8" class="node">
        <title>mrs.domain.model.reservation.datetime.ReservedDateTime</title>
        <polygon fill="#eedd82" stroke="black" points="561,-151 439,-151 439,-113 561,-113 561,-151"/>
        <text text-anchor="middle" x="500" y="-135.8" font-family="Times,serif" font-size="14.00">予約日時</text>
        <text text-anchor="middle" x="500" y="-120.8" font-family="Times,serif" font-size="14.00">ReservedDateTime
        </text>
    </g>
    <!-- mrs.domain.model.reservation.Reservation&#45;&gt;mrs.domain.model.reservation.datetime.ReservedDateTime -->
    <g id="edge5" class="edge">
        <title>mrs.domain.model.reservation.Reservation&#45;&gt;mrs.domain.model.reservation.datetime.ReservedDateTime
        </title>
        <path fill="none" stroke="black"
              d="M484.6,-290.34C500.46,-287.07 517.17,-280.39 527,-267 550.07,-235.59 532.43,-189.34 516.82,-160.21"/>
        <polygon fill="black" stroke="black" points="519.82,-158.4 511.87,-151.39 513.71,-161.83 519.82,-158.4"/>
    </g>
    <!-- mrs.domain.model.reservation.datetime.ReservedTime -->
    <g id="node9" class="node">
        <title>mrs.domain.model.reservation.datetime.ReservedTime</title>
        <polygon fill="#eedd82" stroke="black" points="599,-77 503,-77 503,-39 599,-39 599,-77"/>
        <text text-anchor="middle" x="551" y="-61.8" font-family="Times,serif" font-size="14.00">予約時間</text>
        <text text-anchor="middle" x="551" y="-46.8" font-family="Times,serif" font-size="14.00">ReservedTime</text>
    </g>
    <!-- mrs.domain.model.reservation.Reservation&#45;&gt;mrs.domain.model.reservation.datetime.ReservedTime -->
    <g id="edge6" class="edge">
        <title>mrs.domain.model.reservation.Reservation&#45;&gt;mrs.domain.model.reservation.datetime.ReservedTime
        </title>
        <path fill="none" stroke="black"
              d="M484.65,-292.59C608.78,-291.15 975.51,-285.34 993,-267 1042.69,-214.9 1041.2,-158.48 993,-105 967.77,-77.01 723.55,-64.95 609.34,-60.81"/>
        <polygon fill="black" stroke="black" points="609.15,-57.3 599.03,-60.44 608.9,-64.29 609.15,-57.3"/>
    </g>
    <!-- mrs.domain.model.reservation.reservable.room.ReservableRoom -->
    <g id="node10" class="node">
        <title>mrs.domain.model.reservation.reservable.room.ReservableRoom</title>
        <polygon fill="#eedd82" stroke="black" points="356,-236 240,-236 240,-198 356,-198 356,-236"/>
        <text text-anchor="middle" x="298" y="-220.8" font-family="Times,serif" font-size="14.00">予約可能会議室</text>
        <text text-anchor="middle" x="298" y="-205.8" font-family="Times,serif" font-size="14.00">ReservableRoom</text>
    </g>
    <!-- mrs.domain.model.reservation.Reservation&#45;&gt;mrs.domain.model.reservation.reservable.room.ReservableRoom -->
    <g id="edge7" class="edge">
        <title>mrs.domain.model.reservation.Reservation&#45;&gt;mrs.domain.model.reservation.reservable.room.ReservableRoom</title>
        <path fill="none" stroke="black"
              d="M403.29,-277.19C395.79,-274 388.1,-270.54 381,-267 365.64,-259.35 349.27,-249.96 335.16,-241.46"/>
        <polygon fill="black" stroke="black" points="336.61,-238.25 326.25,-236.03 332.97,-244.22 336.61,-238.25"/>
    </g>
    <!-- mrs.domain.model.reservation.reservable.room.ReservableRoomId -->
    <g id="node11" class="node">
        <title>mrs.domain.model.reservation.reservable.room.ReservableRoomId</title>
        <polygon fill="#eedd82" stroke="black" points="366.5,-151 235.5,-151 235.5,-113 366.5,-113 366.5,-151"/>
        <text text-anchor="middle" x="301" y="-135.8" font-family="Times,serif" font-size="14.00">予約可能会議室ID</text>
        <text text-anchor="middle" x="301" y="-120.8" font-family="Times,serif" font-size="14.00">ReservableRoomId
        </text>
    </g>
    <!-- mrs.domain.model.reservation.Reservation&#45;&gt;mrs.domain.model.reservation.reservable.room.ReservableRoomId -->
    <g id="edge8" class="edge">
        <title>mrs.domain.model.reservation.Reservation&#45;&gt;mrs.domain.model.reservation.reservable.room.ReservableRoomId</title>
        <path fill="none" stroke="black"
              d="M484.56,-277.35C488.28,-274.44 491.56,-271.01 494,-267 511.76,-237.75 517.33,-215.04 494,-190 485.42,-180.79 392.99,-185.84 381,-182 363.79,-176.48 346.47,-166.54 332.36,-157.05"/>
        <polygon fill="black" stroke="black" points="334.23,-154.09 324.03,-151.24 330.23,-159.83 334.23,-154.09"/>
    </g>
    <!-- mrs.domain.model.user.User -->
    <g id="node16" class="node">
        <title>mrs.domain.model.user.User</title>
        <polygon fill="#eedd82" stroke="black" points="798,-236 724,-236 724,-198 798,-198 798,-236"/>
        <text text-anchor="middle" x="761" y="-220.8" font-family="Times,serif" font-size="14.00">ユーザー</text>
        <text text-anchor="middle" x="761" y="-205.8" font-family="Times,serif" font-size="14.00">User</text>
    </g>
    <!-- mrs.domain.model.reservation.Reservation&#45;&gt;mrs.domain.model.user.User -->
    <g id="edge9" class="edge">
        <title>mrs.domain.model.reservation.Reservation&#45;&gt;mrs.domain.model.user.User</title>
        <path fill="none" stroke="black"
              d="M484.82,-287.91C517.13,-283.51 563.25,-276.37 603,-267 640.84,-258.08 682.83,-244.9 714.01,-234.45"/>
        <polygon fill="black" stroke="black" points="715.38,-237.68 723.73,-231.16 713.14,-231.05 715.38,-237.68"/>
    </g>
    <!-- mrs.domain.model.reservation.Reservations -->
    <g id="node6" class="node">
        <title>mrs.domain.model.reservation.Reservations</title>
        <polygon fill="#eedd82" stroke="black" points="485,-398 399,-398 399,-360 485,-360 485,-398"/>
        <text text-anchor="middle" x="442" y="-382.8" font-family="Times,serif" font-size="14.00">予約一覧</text>
        <text text-anchor="middle" x="442" y="-367.8" font-family="Times,serif" font-size="14.00">Reservations</text>
    </g>
    <!-- mrs.domain.model.reservation.Reservations&#45;&gt;mrs.domain.model.reservation.Reservation -->
    <g id="edge10" class="edge">
        <title>mrs.domain.model.reservation.Reservations&#45;&gt;mrs.domain.model.reservation.Reservation</title>
        <path fill="none" stroke="black" d="M442.43,-359.99C442.69,-349.3 443.02,-335.5 443.32,-323.37"/>
        <polygon fill="black" stroke="black" points="446.82,-323.34 443.56,-313.26 439.82,-323.17 446.82,-323.34"/>
    </g>
    <!-- mrs.domain.model.reservation.datetime.ReservedDateTime&#45;&gt;mrs.domain.model.reservation.datetime.ReservedDate -->
    <g id="edge1" class="edge">
        <title>mrs.domain.model.reservation.datetime.ReservedDateTime&#45;&gt;mrs.domain.model.reservation.datetime.ReservedDate</title>
        <path fill="none" stroke="black" d="M484.61,-112.83C477.51,-104.45 468.95,-94.35 461.18,-85.17"/>
        <polygon fill="black" stroke="black" points="463.73,-82.78 454.6,-77.41 458.39,-87.31 463.73,-82.78"/>
    </g>
    <!-- mrs.domain.model.reservation.datetime.ReservedDateTime&#45;&gt;mrs.domain.model.reservation.datetime.ReservedTime -->
    <g id="edge2" class="edge">
        <title>mrs.domain.model.reservation.datetime.ReservedDateTime&#45;&gt;mrs.domain.model.reservation.datetime.ReservedTime</title>
        <path fill="none" stroke="black" d="M512.87,-112.83C518.68,-104.62 525.67,-94.76 532.06,-85.73"/>
        <polygon fill="black" stroke="black" points="535.03,-87.6 537.96,-77.41 529.32,-83.55 535.03,-87.6"/>
    </g>
    <!-- mrs.domain.model.reservation.reservable.room.ReservableRoom&#45;&gt;mrs.domain.model.facility.room.MeetingRoom -->
    <g id="edge12" class="edge">
        <title>mrs.domain.model.reservation.reservable.room.ReservableRoom&#45;&gt;mrs.domain.model.facility.room.MeetingRoom</title>
        <path fill="none" stroke="black"
              d="M239.96,-198.49C227.74,-193.85 215.17,-188.34 204,-182 192.18,-175.3 180.35,-166.26 170.36,-157.77"/>
        <polygon fill="black" stroke="black" points="172.6,-155.08 162.77,-151.13 167.99,-160.35 172.6,-155.08"/>
    </g>
    <!-- mrs.domain.model.reservation.reservable.room.ReservableRoom&#45;&gt;mrs.domain.model.reservation.reservable.room.ReservableRoomId -->
    <g id="edge13" class="edge">
        <title>mrs.domain.model.reservation.reservable.room.ReservableRoom&#45;&gt;mrs.domain.model.reservation.reservable.room.ReservableRoomId</title>
        <path fill="none" stroke="black" d="M298.65,-197.99C299.04,-187.3 299.54,-173.5 299.97,-161.37"/>
        <polygon fill="black" stroke="black" points="303.48,-161.38 300.34,-151.26 296.48,-161.13 303.48,-161.38"/>
    </g>
    <!-- mrs.domain.model.reservation.reservable.room.ReservableRoomId&#45;&gt;mrs.domain.model.facility.room.RoomId -->
    <g id="edge14" class="edge">
        <title>mrs.domain.model.reservation.reservable.room.ReservableRoomId&#45;&gt;mrs.domain.model.facility.room.RoomId</title>
        <path fill="none" stroke="black" d="M264.16,-112.83C244.89,-103.33 221.13,-91.61 200.7,-81.54"/>
        <polygon fill="black" stroke="black" points="202.09,-78.32 191.58,-77.04 199,-84.6 202.09,-78.32"/>
    </g>
    <!-- mrs.domain.model.reservation.reservable.room.ReservableRoomId&#45;&gt;mrs.domain.model.reservation.datetime.ReservedDate -->
    <g id="edge15" class="edge">
        <title>mrs.domain.model.reservation.reservable.room.ReservableRoomId&#45;&gt;mrs.domain.model.reservation.datetime.ReservedDate</title>
        <path fill="none" stroke="black" d="M335.82,-112.83C353.8,-103.45 375.92,-91.91 395.06,-81.92"/>
        <polygon fill="black" stroke="black" points="396.94,-84.89 404.19,-77.16 393.7,-78.69 396.94,-84.89"/>
    </g>
    <!-- mrs.domain.model.reservation.reservable.room.ReservableRooms -->
    <g id="node12" class="node">
        <title>mrs.domain.model.reservation.reservable.room.ReservableRooms</title>
        <polygon fill="#eedd82" stroke="black" points="368.5,-313 223.5,-313 223.5,-275 368.5,-275 368.5,-313"/>
        <text text-anchor="middle" x="296" y="-297.8" font-family="Times,serif" font-size="14.00">予約可能会議室一覧</text>
        <text text-anchor="middle" x="296" y="-282.8" font-family="Times,serif" font-size="14.00">ReservableRooms</text>
    </g>
    <!-- mrs.domain.model.reservation.reservable.room.ReservableRooms&#45;&gt;mrs.domain.model.reservation.reservable.room.ReservableRoom -->
    <g id="edge11" class="edge">
        <title>mrs.domain.model.reservation.reservable.room.ReservableRooms&#45;&gt;mrs.domain.model.reservation.reservable.room.ReservableRoom</title>
        <path fill="none" stroke="black" d="M296.48,-274.84C296.71,-266.34 296.99,-256.01 297.24,-246.5"/>
        <polygon fill="black" stroke="black" points="300.75,-246.34 297.51,-236.25 293.75,-246.15 300.75,-246.34"/>
    </g>
    <!-- mrs.domain.model.user.Name -->
    <g id="node13" class="node">
        <title>mrs.domain.model.user.Name</title>
        <polygon fill="#eedd82" stroke="black" points="877,-151 823,-151 823,-113 877,-113 877,-151"/>
        <text text-anchor="middle" x="850" y="-135.8" font-family="Times,serif" font-size="14.00">氏名</text>
        <text text-anchor="middle" x="850" y="-120.8" font-family="Times,serif" font-size="14.00">Name</text>
    </g>
    <!-- mrs.domain.model.user.Password -->
    <g id="node14" class="node">
        <title>mrs.domain.model.user.Password</title>
        <polygon fill="#eedd82" stroke="black" points="981,-151 895,-151 895,-113 981,-113 981,-151"/>
        <text text-anchor="middle" x="938" y="-135.8" font-family="Times,serif" font-size="14.00">パスワード</text>
        <text text-anchor="middle" x="938" y="-120.8" font-family="Times,serif" font-size="14.00">Password</text>
    </g>
    <!-- mrs.domain.model.user.RoleName -->
    <g id="node15" class="node">
        <title>mrs.domain.model.user.RoleName</title>
        <polygon fill="#eedd82" stroke="black" points="698.5,-151 623.5,-151 623.5,-113 698.5,-113 698.5,-151"/>
        <text text-anchor="middle" x="661" y="-135.8" font-family="Times,serif" font-size="14.00">役割</text>
        <text text-anchor="middle" x="661" y="-120.8" font-family="Times,serif" font-size="14.00">RoleName</text>
    </g>
    <!-- mrs.domain.model.user.User&#45;&gt;mrs.domain.model.user.Name -->
    <g id="edge16" class="edge">
        <title>mrs.domain.model.user.User&#45;&gt;mrs.domain.model.user.Name</title>
        <path fill="none" stroke="black"
              d="M793.5,-197.83C800.62,-193.13 807.86,-187.76 814,-182 820.97,-175.46 827.51,-167.41 833.06,-159.74"/>
        <polygon fill="black" stroke="black" points="836.28,-161.25 839.08,-151.03 830.52,-157.27 836.28,-161.25"/>
    </g>
    <!-- mrs.domain.model.user.User&#45;&gt;mrs.domain.model.user.Password -->
    <g id="edge17" class="edge">
        <title>mrs.domain.model.user.User&#45;&gt;mrs.domain.model.user.Password</title>
        <path fill="none" stroke="black"
              d="M798.09,-210.81C823.97,-206.05 858.63,-197.33 886,-182 896.88,-175.9 907.24,-167.04 915.8,-158.52"/>
        <polygon fill="black" stroke="black" points="918.43,-160.83 922.83,-151.2 913.38,-155.98 918.43,-160.83"/>
    </g>
    <!-- mrs.domain.model.user.User&#45;&gt;mrs.domain.model.user.RoleName -->
    <g id="edge18" class="edge">
        <title>mrs.domain.model.user.User&#45;&gt;mrs.domain.model.user.RoleName</title>
        <path fill="none" stroke="black"
              d="M730.15,-197.94C722.66,-193.09 714.84,-187.62 708,-182 699.53,-175.04 691.02,-166.67 683.6,-158.83"/>
        <polygon fill="black" stroke="black" points="685.95,-156.22 676.6,-151.24 680.81,-160.96 685.95,-156.22"/>
    </g>
    <!-- mrs.domain.model.user.UserId -->
    <g id="node17" class="node">
        <title>mrs.domain.model.user.UserId</title>
        <polygon fill="#eedd82" stroke="black" points="805,-151 717,-151 717,-113 805,-113 805,-151"/>
        <text text-anchor="middle" x="761" y="-135.8" font-family="Times,serif" font-size="14.00">ユーザーID</text>
        <text text-anchor="middle" x="761" y="-120.8" font-family="Times,serif" font-size="14.00">UserId</text>
    </g>
    <!-- mrs.domain.model.user.User&#45;&gt;mrs.domain.model.user.UserId -->
    <g id="edge19" class="edge">
        <title>mrs.domain.model.user.User&#45;&gt;mrs.domain.model.user.UserId</title>
        <path fill="none" stroke="black" d="M761,-197.99C761,-187.3 761,-173.5 761,-161.37"/>
        <polygon fill="black" stroke="black" points="764.5,-161.26 761,-151.26 757.5,-161.26 764.5,-161.26"/>
    </g>
    <!-- mrs.domain.type.date.CurrentDate -->
    <g id="node18" class="node">
        <title>mrs.domain.type.date.CurrentDate</title>
        <polygon fill="#eedd82" stroke="red" points="822.5,-398 739.5,-398 739.5,-360 822.5,-360 822.5,-398"/>
        <text text-anchor="middle" x="781" y="-382.8" font-family="Times,serif" font-size="14.00">現在日</text>
        <text text-anchor="middle" x="781" y="-367.8" font-family="Times,serif" font-size="14.00">CurrentDate</text>
    </g>
    <!-- mrs.domain.type.date.Days -->
    <g id="node19" class="node">
        <title>mrs.domain.type.date.Days</title>
        <polygon fill="#eedd82" stroke="red" points="721,-398 667,-398 667,-360 721,-360 721,-398"/>
        <text text-anchor="middle" x="694" y="-382.8" font-family="Times,serif" font-size="14.00">日数</text>
        <text text-anchor="middle" x="694" y="-367.8" font-family="Times,serif" font-size="14.00">Days</text>
    </g>
</g>
</svg>
