<svg width="418px" height="125px"
     viewBox="0.00 0.00 418.00 125.00" xmlns="http://www.w3.org/2000/svg">
<g id="graph0" class="graph" transform="scale(1.0 1.0) rotate(0) translate(4 121)">
    <title>集中ビジネスルールツリー図</title>
    <polygon fill="white" stroke="transparent" points="-4,4 -4,-121 414,-121 414,4 -4,4"/>
    <text text-anchor="middle" x="205" y="-7.8" font-family="Times,serif" font-size="14.00">集中ビジネスルールツリー図</text>
    <!-- mrs.domain.model.reservation.ReservableRoom -->
    <g id="node1" class="node">
        <title>mrs.domain.model.reservation.ReservableRoom</title>
        <polygon fill="lemonchiffon" stroke="black" points="116,-117 0,-117 0,-79 116,-79 116,-117"/>
        <text text-anchor="middle" x="58" y="-101.8" font-family="Times,serif" font-size="14.00">予約可能会議室</text>
        <text text-anchor="middle" x="58" y="-86.8" font-family="Times,serif" font-size="14.00">ReservableRoom</text>
    </g>
    <!-- mrs.domain.model.reservation.ReservableRoomId -->
    <g id="node2" class="node">
        <title>mrs.domain.model.reservation.ReservableRoomId</title>
        <polygon fill="#eedd82" stroke="black" points="410,-107 152,-107 152,-33 410,-33 410,-107"/>
        <text text-anchor="middle" x="281" y="-79" font-family="Times,serif" font-size="30.00">予約可能会議室ID</text>
        <text text-anchor="middle" x="281" y="-46" font-family="Times,serif" font-size="30.00">ReservableRoomId</text>
    </g>
    <!-- mrs.domain.model.reservation.ReservableRoom&#45;&gt;mrs.domain.model.reservation.ReservableRoomId -->
    <g id="edge1" class="edge">
        <title>mrs.domain.model.reservation.ReservableRoom&#45;&gt;mrs.domain.model.reservation.ReservableRoomId</title>
        <path fill="none" stroke="black" d="M116.2,-90.75C124.28,-89.73 132.87,-88.64 141.71,-87.52"/>
        <polygon fill="black" stroke="black" points="142.3,-90.97 151.78,-86.24 141.42,-84.03 142.3,-90.97"/>
    </g>
    <!-- mrs.domain.model.reservation.Reservation -->
    <g id="node3" class="node">
        <title>mrs.domain.model.reservation.Reservation</title>
        <polygon fill="lemonchiffon" stroke="black" points="98.5,-61 17.5,-61 17.5,-23 98.5,-23 98.5,-61"/>
        <text text-anchor="middle" x="58" y="-45.8" font-family="Times,serif" font-size="14.00">予約</text>
        <text text-anchor="middle" x="58" y="-30.8" font-family="Times,serif" font-size="14.00">Reservation</text>
    </g>
    <!-- mrs.domain.model.reservation.Reservation&#45;&gt;mrs.domain.model.reservation.ReservableRoomId -->
    <g id="edge2" class="edge">
        <title>mrs.domain.model.reservation.Reservation&#45;&gt;mrs.domain.model.reservation.ReservableRoomId</title>
        <path fill="none" stroke="black" d="M98.51,-47.01C111.14,-48.61 125.91,-50.48 141.48,-52.45"/>
        <polygon fill="black" stroke="black" points="141.45,-55.97 151.81,-53.76 142.33,-49.03 141.45,-55.97"/>
    </g>
</g>
</svg>
