<svg width="989px" height="426px"
     viewBox="0.00 0.00 989.00 426.00" xmlns="http://www.w3.org/2000/svg">
    <g id="graph0" class="graph" transform="scale(1.0 1.0) rotate(0) translate(4 422)">
        <title>ビジネスルール関連図</title>
        <polygon fill="white" stroke="none" points="-4,4 -4,-422 985,-422 985,4 -4,4"/>
        <text text-anchor="middle" x="490.5" y="-7.8" font-family="Times New Roman,serif" font-size="14.00">ビジネスルール関連図
        </text>
        <g id="clust1" class="cluster">
            <title>cluster_mrs.domain.model.reservation</title>
            <polygon fill="lemonchiffon" stroke="#eedd82" stroke-width="2"
                     points="8,-31 8,-410 407,-410 407,-31 8,-31"/>
            <text text-anchor="middle" x="207.5" y="-394.8" font-family="Times New Roman,serif" font-size="14.00">
                reservation
            </text>
        </g>
        <g id="clust2" class="cluster">
            <title>cluster_mrs.domain.model.room</title>
            <polygon fill="lemonchiffon" stroke="#eedd82" stroke-width="2"
                     points="415,-31 415,-182 603,-182 603,-31 415,-31"/>
            <text text-anchor="middle" x="509" y="-166.8" font-family="Times New Roman,serif" font-size="14.00">room
            </text>
        </g>
        <g id="clust3" class="cluster">
            <title>cluster_mrs.domain.model.user</title>
            <polygon fill="lemonchiffon" stroke="#eedd82" stroke-width="2"
                     points="611,-105 611,-259 973,-259 973,-105 611,-105"/>
            <text text-anchor="middle" x="792" y="-243.8" font-family="Times New Roman,serif" font-size="14.00">user
            </text>
        </g>
        <g id="clust4" class="cluster">
            <title>cluster_mrs.domain.type.date</title>
            <polygon fill="lemonchiffon" stroke="#eedd82" stroke-width="2"
                     points="608,-333 608,-410 780,-410 780,-333 608,-333"/>
            <text text-anchor="middle" x="694" y="-394.8" font-family="Times New Roman,serif" font-size="14.00">date
            </text>
        </g>
        <!-- mrs.domain.model.reservation.ReservableRoom -->
        <g id="node1" class="node">
            <title>mrs.domain.model.reservation.ReservableRoom</title>
            <polygon fill="#eedd82" stroke="black" points="398.5,-228 285.5,-228 285.5,-190 398.5,-190 398.5,-228"/>
            <text text-anchor="middle" x="342" y="-212.8" font-family="Times New Roman,serif" font-size="14.00">
                予約可能会議室
            </text>
            <text text-anchor="middle" x="342" y="-197.8" font-family="Times New Roman,serif" font-size="14.00">
                ReservableRoom
            </text>
        </g>
        <!-- mrs.domain.model.reservation.ReservableRoomId -->
        <g id="node2" class="node">
            <title>mrs.domain.model.reservation.ReservableRoomId</title>
            <polygon fill="#eedd82" stroke="black" points="306.5,-151 181.5,-151 181.5,-113 306.5,-113 306.5,-151"/>
            <text text-anchor="middle" x="244" y="-135.8" font-family="Times New Roman,serif" font-size="14.00">
                予約可能会議室ID
            </text>
            <text text-anchor="middle" x="244" y="-120.8" font-family="Times New Roman,serif" font-size="14.00">
                ReservableRoomId
            </text>
        </g>
        <!-- mrs.domain.model.reservation.ReservableRoom&#45;&gt;mrs.domain.model.reservation.ReservableRoomId -->
        <g id="edge1" class="edge">
            <title>mrs.domain.model.reservation.ReservableRoom&#45;&gt;mrs.domain.model.reservation.ReservableRoomId
            </title>
            <path fill="none" stroke="black" d="M318.277,-189.845C305.611,-180.151 289.842,-168.083 276.096,-157.563"/>
            <polygon fill="black" stroke="black"
                     points="277.913,-154.546 267.844,-151.248 273.658,-160.105 277.913,-154.546"/>
        </g>
        <!-- mrs.domain.model.room.MeetingRoom -->
        <g id="node9" class="node">
            <title>mrs.domain.model.room.MeetingRoom</title>
            <polygon fill="#eedd82" stroke="black" points="519,-151 423,-151 423,-113 519,-113 519,-151"/>
            <text text-anchor="middle" x="471" y="-135.8" font-family="Times New Roman,serif" font-size="14.00">会議室
            </text>
            <text text-anchor="middle" x="471" y="-120.8" font-family="Times New Roman,serif" font-size="14.00">
                MeetingRoom
            </text>
        </g>
        <!-- mrs.domain.model.reservation.ReservableRoom&#45;&gt;mrs.domain.model.room.MeetingRoom -->
        <g id="edge2" class="edge">
            <title>mrs.domain.model.reservation.ReservableRoom&#45;&gt;mrs.domain.model.room.MeetingRoom</title>
            <path fill="none" stroke="black"
                  d="M395.18,-189.988C400.639,-187.543 406.008,-184.875 411,-182 422.77,-175.22 434.593,-166.163 444.593,-157.681"/>
            <polygon fill="black" stroke="black"
                     points="446.953,-160.267 452.188,-151.056 442.351,-154.992 446.953,-160.267"/>
        </g>
        <!-- mrs.domain.model.reservation.ReservedDate -->
        <g id="node7" class="node">
            <title>mrs.domain.model.reservation.ReservedDate</title>
            <polygon fill="#eedd82" stroke="black" points="201.5,-77 106.5,-77 106.5,-39 201.5,-39 201.5,-77"/>
            <text text-anchor="middle" x="154" y="-61.8" font-family="Times New Roman,serif" font-size="14.00">予約日
            </text>
            <text text-anchor="middle" x="154" y="-46.8" font-family="Times New Roman,serif" font-size="14.00">
                ReservedDate
            </text>
        </g>
        <!-- mrs.domain.model.reservation.ReservableRoomId&#45;&gt;mrs.domain.model.reservation.ReservedDate -->
        <g id="edge3" class="edge">
            <title>mrs.domain.model.reservation.ReservableRoomId&#45;&gt;mrs.domain.model.reservation.ReservedDate
            </title>
            <path fill="none" stroke="black" d="M221.289,-112.831C210.204,-103.963 196.705,-93.1637 184.715,-83.5718"/>
            <polygon fill="black" stroke="black"
                     points="186.699,-80.6768 176.704,-77.1628 182.326,-86.1429 186.699,-80.6768"/>
        </g>
        <!-- mrs.domain.model.room.RoomId -->
        <g id="node10" class="node">
            <title>mrs.domain.model.room.RoomId</title>
            <polygon fill="#eedd82" stroke="black" points="492.5,-77 423.5,-77 423.5,-39 492.5,-39 492.5,-77"/>
            <text text-anchor="middle" x="458" y="-61.8" font-family="Times New Roman,serif" font-size="14.00">会議室ID
            </text>
            <text text-anchor="middle" x="458" y="-46.8" font-family="Times New Roman,serif" font-size="14.00">RoomId
            </text>
        </g>
        <!-- mrs.domain.model.reservation.ReservableRoomId&#45;&gt;mrs.domain.model.room.RoomId -->
        <g id="edge4" class="edge">
            <title>mrs.domain.model.reservation.ReservableRoomId&#45;&gt;mrs.domain.model.room.RoomId</title>
            <path fill="none" stroke="black"
                  d="M302.606,-112.886C334.749,-102.741 375.226,-89.6243 411,-77 411.883,-76.6883 412.775,-76.3712 413.673,-76.0496"/>
            <polygon fill="black" stroke="black"
                     points="415.238,-79.2037 423.426,-72.4795 412.832,-72.6302 415.238,-79.2037"/>
        </g>
        <!-- mrs.domain.model.reservation.ReservableRooms -->
        <g id="node3" class="node">
            <title>mrs.domain.model.reservation.ReservableRooms</title>
            <polygon fill="#eedd82" stroke="black" points="398.5,-305 267.5,-305 267.5,-267 398.5,-267 398.5,-305"/>
            <text text-anchor="middle" x="333" y="-289.8" font-family="Times New Roman,serif" font-size="14.00">
                予約可能会議室一覧
            </text>
            <text text-anchor="middle" x="333" y="-274.8" font-family="Times New Roman,serif" font-size="14.00">
                ReservableRooms
            </text>
        </g>
        <!-- mrs.domain.model.reservation.ReservableRooms&#45;&gt;mrs.domain.model.reservation.ReservableRoom -->
        <g id="edge5" class="edge">
            <title>mrs.domain.model.reservation.ReservableRooms&#45;&gt;mrs.domain.model.reservation.ReservableRoom
            </title>
            <path fill="none" stroke="black" d="M335.179,-266.845C336.21,-258.249 337.466,-247.785 338.617,-238.19"/>
            <polygon fill="black" stroke="black"
                     points="342.094,-238.594 339.81,-228.248 335.144,-237.76 342.094,-238.594"/>
        </g>
        <!-- mrs.domain.model.reservation.Reservation -->
        <g id="node4" class="node">
            <title>mrs.domain.model.reservation.Reservation</title>
            <polygon fill="#eedd82" stroke="black" points="221.5,-305 138.5,-305 138.5,-267 221.5,-267 221.5,-305"/>
            <text text-anchor="middle" x="180" y="-289.8" font-family="Times New Roman,serif" font-size="14.00">予約
            </text>
            <text text-anchor="middle" x="180" y="-274.8" font-family="Times New Roman,serif" font-size="14.00">
                Reservation
            </text>
        </g>
<!-- mrs.domain.model.reservation.Reservation&#45;&gt;mrs.domain.model.reservation.ReservableRoom -->
        <g id="edge6" class="edge">
            <title>mrs.domain.model.reservation.Reservation&#45;&gt;mrs.domain.model.reservation.ReservableRoom</title>
            <path fill="none" stroke="black"
                  d="M221.858,-277.251C239.148,-273.146 259.065,-267.213 276,-259 289.302,-252.549 302.646,-243.295 313.82,-234.563"/>
            <polygon fill="black" stroke="black"
                     points="316.318,-237.045 321.905,-228.042 311.924,-231.596 316.318,-237.045"/>
        </g>
<!-- mrs.domain.model.reservation.Reservation&#45;&gt;mrs.domain.model.reservation.ReservableRoomId -->
        <g id="edge7" class="edge">
            <title>mrs.domain.model.reservation.Reservation&#45;&gt;mrs.domain.model.reservation.ReservableRoomId
            </title>
            <path fill="none" stroke="black"
                  d="M166.345,-266.903C164.978,-264.356 163.801,-261.688 163,-259 154.244,-229.61 148.872,-217.218 163,-190 170.08,-176.36 182.09,-165.296 194.723,-156.673"/>
            <polygon fill="black" stroke="black"
                     points="196.95,-159.405 203.516,-151.091 193.198,-153.495 196.95,-159.405"/>
        </g>
<!-- mrs.domain.model.reservation.ReservationId -->
        <g id="node5" class="node">
            <title>mrs.domain.model.reservation.ReservationId</title>
            <polygon fill="#eedd82" stroke="black" points="267.5,-228 172.5,-228 172.5,-190 267.5,-190 267.5,-228"/>
            <text text-anchor="middle" x="220" y="-212.8" font-family="Times New Roman,serif" font-size="14.00">予約ID
            </text>
            <text text-anchor="middle" x="220" y="-197.8" font-family="Times New Roman,serif" font-size="14.00">
                ReservationId
            </text>
        </g>
<!-- mrs.domain.model.reservation.Reservation&#45;&gt;mrs.domain.model.reservation.ReservationId -->
        <g id="edge8" class="edge">
            <title>mrs.domain.model.reservation.Reservation&#45;&gt;mrs.domain.model.reservation.ReservationId</title>
            <path fill="none" stroke="black" d="M189.683,-266.845C194.414,-257.974 200.205,-247.115 205.454,-237.274"/>
            <polygon fill="black" stroke="black"
                     points="208.65,-238.719 210.268,-228.248 202.473,-235.425 208.65,-238.719"/>
        </g>
<!-- mrs.domain.model.reservation.Reservation&#45;&gt;mrs.domain.model.reservation.ReservedDate -->
        <g id="edge9" class="edge">
            <title>mrs.domain.model.reservation.Reservation&#45;&gt;mrs.domain.model.reservation.ReservedDate</title>
            <path fill="none" stroke="black"
                  d="M138.21,-283.762C97.9006,-281.583 40.9931,-275.572 27,-259 -22.118,-200.831 66.1858,-122.222 118.867,-83.1407"/>
            <polygon fill="black" stroke="black"
                     points="120.973,-85.9372 126.99,-77.2169 116.848,-80.2814 120.973,-85.9372"/>
        </g>
<!-- mrs.domain.model.reservation.ReservedTime -->
        <g id="node8" class="node">
            <title>mrs.domain.model.reservation.ReservedTime</title>
            <polygon fill="#eedd82" stroke="black" points="134,-228 36,-228 36,-190 134,-190 134,-228"/>
            <text text-anchor="middle" x="85" y="-212.8" font-family="Times New Roman,serif" font-size="14.00">予約時間
            </text>
            <text text-anchor="middle" x="85" y="-197.8" font-family="Times New Roman,serif" font-size="14.00">
                ReservedTime
            </text>
        </g>
<!-- mrs.domain.model.reservation.Reservation&#45;&gt;mrs.domain.model.reservation.ReservedTime -->
        <g id="edge10" class="edge">
            <title>mrs.domain.model.reservation.Reservation&#45;&gt;mrs.domain.model.reservation.ReservedTime</title>
            <path fill="none" stroke="black" d="M157.003,-266.845C144.725,-257.151 129.439,-245.083 116.113,-234.563"/>
            <polygon fill="black" stroke="black"
                     points="118.132,-231.698 108.114,-228.248 113.794,-237.192 118.132,-231.698"/>
        </g>
<!-- mrs.domain.model.user.User -->
        <g id="node15" class="node">
            <title>mrs.domain.model.user.User</title>
            <polygon fill="#eedd82" stroke="black" points="788,-228 720,-228 720,-190 788,-190 788,-228"/>
            <text text-anchor="middle" x="754" y="-212.8" font-family="Times New Roman,serif" font-size="14.00">ユーザー
            </text>
            <text text-anchor="middle" x="754" y="-197.8" font-family="Times New Roman,serif" font-size="14.00">User
            </text>
        </g>
<!-- mrs.domain.model.reservation.Reservation&#45;&gt;mrs.domain.model.user.User -->
        <g id="edge11" class="edge">
            <title>mrs.domain.model.reservation.Reservation&#45;&gt;mrs.domain.model.user.User</title>
            <path fill="none" stroke="black"
                  d="M221.848,-273.928C233.478,-271.239 246.164,-268.662 258,-267 325.431,-257.531 343.228,-265.599 411,-259 518.692,-248.514 644.388,-228.572 709.619,-217.639"/>
            <polygon fill="black" stroke="black"
                     points="710.277,-221.078 719.556,-215.965 709.114,-214.175 710.277,-221.078"/>
        </g>
<!-- mrs.domain.model.reservation.Reservations -->
        <g id="node6" class="node">
            <title>mrs.domain.model.reservation.Reservations</title>
            <polygon fill="#eedd82" stroke="black" points="224.5,-379 135.5,-379 135.5,-341 224.5,-341 224.5,-379"/>
            <text text-anchor="middle" x="180" y="-363.8" font-family="Times New Roman,serif" font-size="14.00">予約一覧
            </text>
            <text text-anchor="middle" x="180" y="-348.8" font-family="Times New Roman,serif" font-size="14.00">
                Reservations
            </text>
        </g>
<!-- mrs.domain.model.reservation.Reservations&#45;&gt;mrs.domain.model.reservation.Reservation -->
        <g id="edge12" class="edge">
            <title>mrs.domain.model.reservation.Reservations&#45;&gt;mrs.domain.model.reservation.Reservation</title>
            <path fill="none" stroke="black" d="M180,-340.831C180,-333.131 180,-323.974 180,-315.417"/>
            <polygon fill="black" stroke="black" points="183.5,-315.413 180,-305.413 176.5,-315.413 183.5,-315.413"/>
        </g>
<!-- mrs.domain.model.room.MeetingRoom&#45;&gt;mrs.domain.model.room.RoomId -->
        <g id="edge13" class="edge">
            <title>mrs.domain.model.room.MeetingRoom&#45;&gt;mrs.domain.model.room.RoomId</title>
            <path fill="none" stroke="black" d="M467.72,-112.831C466.329,-105.131 464.676,-95.9743 463.131,-87.4166"/>
            <polygon fill="black" stroke="black"
                     points="466.546,-86.6322 461.325,-77.4133 459.657,-87.8761 466.546,-86.6322"/>
        </g>
<!-- mrs.domain.model.room.RoomName -->
        <g id="node11" class="node">
            <title>mrs.domain.model.room.RoomName</title>
            <polygon fill="#eedd82" stroke="black" points="595,-77 511,-77 511,-39 595,-39 595,-77"/>
            <text text-anchor="middle" x="553" y="-61.8" font-family="Times New Roman,serif" font-size="14.00">会議室名
            </text>
            <text text-anchor="middle" x="553" y="-46.8" font-family="Times New Roman,serif" font-size="14.00">
                RoomName
            </text>
        </g>
<!-- mrs.domain.model.room.MeetingRoom&#45;&gt;mrs.domain.model.room.RoomName -->
        <g id="edge14" class="edge">
            <title>mrs.domain.model.room.MeetingRoom&#45;&gt;mrs.domain.model.room.RoomName</title>
            <path fill="none" stroke="black" d="M491.692,-112.831C501.695,-104.048 513.855,-93.3712 524.7,-83.8489"/>
            <polygon fill="black" stroke="black"
                     points="527.109,-86.3909 532.315,-77.1628 522.491,-81.1308 527.109,-86.3909"/>
        </g>
<!-- mrs.domain.model.user.Name -->
        <g id="node12" class="node">
            <title>mrs.domain.model.user.Name</title>
            <polygon fill="#eedd82" stroke="black" points="867,-151 813,-151 813,-113 867,-113 867,-151"/>
            <text text-anchor="middle" x="840" y="-135.8" font-family="Times New Roman,serif" font-size="14.00">氏名
            </text>
            <text text-anchor="middle" x="840" y="-120.8" font-family="Times New Roman,serif" font-size="14.00">Name
            </text>
        </g>
<!-- mrs.domain.model.user.Password -->
        <g id="node13" class="node">
            <title>mrs.domain.model.user.Password</title>
            <polygon fill="#eedd82" stroke="black" points="965,-151 885,-151 885,-113 965,-113 965,-151"/>
            <text text-anchor="middle" x="925" y="-135.8" font-family="Times New Roman,serif" font-size="14.00">パスワード
            </text>
            <text text-anchor="middle" x="925" y="-120.8" font-family="Times New Roman,serif" font-size="14.00">
                Password
            </text>
        </g>
        <!-- mrs.domain.model.user.RoleName -->
        <g id="node14" class="node">
            <title>mrs.domain.model.user.RoleName</title>
            <polygon fill="#eedd82" stroke="black" points="694.5,-151 619.5,-151 619.5,-113 694.5,-113 694.5,-151"/>
            <text text-anchor="middle" x="657" y="-135.8" font-family="Times New Roman,serif" font-size="14.00">役割
            </text>
            <text text-anchor="middle" x="657" y="-120.8" font-family="Times New Roman,serif" font-size="14.00">
                RoleName
            </text>
        </g>
        <!-- mrs.domain.model.user.User&#45;&gt;mrs.domain.model.user.Name -->
        <g id="edge15" class="edge">
            <title>mrs.domain.model.user.User&#45;&gt;mrs.domain.model.user.Name</title>
            <path fill="none" stroke="black"
                  d="M788.163,-192.937C793.742,-189.736 799.245,-186.074 804,-182 811.339,-175.713 818.033,-167.656 823.604,-159.9"/>
            <polygon fill="black" stroke="black"
                     points="826.668,-161.619 829.393,-151.38 820.878,-157.685 826.668,-161.619"/>
        </g>
        <!-- mrs.domain.model.user.User&#45;&gt;mrs.domain.model.user.Password -->
        <g id="edge16" class="edge">
            <title>mrs.domain.model.user.User&#45;&gt;mrs.domain.model.user.Password</title>
            <path fill="none" stroke="black"
                  d="M788.154,-205.945C813.666,-203.209 848.693,-196.836 876,-182 886.684,-176.196 896.568,-167.338 904.62,-158.741"/>
            <polygon fill="black" stroke="black"
                     points="907.455,-160.82 911.47,-151.016 902.217,-156.177 907.455,-160.82"/>
        </g>
        <!-- mrs.domain.model.user.User&#45;&gt;mrs.domain.model.user.RoleName -->
        <g id="edge17" class="edge">
            <title>mrs.domain.model.user.User&#45;&gt;mrs.domain.model.user.RoleName</title>
            <path fill="none" stroke="black"
                  d="M719.742,-192.102C714.291,-189.037 708.855,-185.637 704,-182 695.084,-175.322 686.346,-166.897 678.87,-158.925"/>
            <polygon fill="black" stroke="black"
                     points="681.164,-156.244 671.854,-151.186 675.977,-160.946 681.164,-156.244"/>
        </g>
        <!-- mrs.domain.model.user.UserId -->
        <g id="node16" class="node">
            <title>mrs.domain.model.user.UserId</title>
            <polygon fill="#eedd82" stroke="black" points="795,-151 713,-151 713,-113 795,-113 795,-151"/>
            <text text-anchor="middle" x="754" y="-135.8" font-family="Times New Roman,serif" font-size="14.00">ユーザーID
            </text>
            <text text-anchor="middle" x="754" y="-120.8" font-family="Times New Roman,serif" font-size="14.00">UserId
            </text>
        </g>
        <!-- mrs.domain.model.user.User&#45;&gt;mrs.domain.model.user.UserId -->
        <g id="edge18" class="edge">
            <title>mrs.domain.model.user.User&#45;&gt;mrs.domain.model.user.UserId</title>
            <path fill="none" stroke="black" d="M754,-189.845C754,-181.34 754,-171.008 754,-161.496"/>
            <polygon fill="black" stroke="black" points="757.5,-161.248 754,-151.248 750.5,-161.248 757.5,-161.248"/>
        </g>
        <!-- mrs.domain.type.date.CurrentDate -->
        <g id="node17" class="node">
            <title>mrs.domain.type.date.CurrentDate</title>
            <polygon fill="#eedd82" stroke="red" points="772,-379 688,-379 688,-341 772,-341 772,-379"/>
            <text text-anchor="middle" x="730" y="-363.8" font-family="Times New Roman,serif" font-size="14.00">現在日
            </text>
            <text text-anchor="middle" x="730" y="-348.8" font-family="Times New Roman,serif" font-size="14.00">
                CurrentDate
            </text>
        </g>
        <!-- mrs.domain.type.date.Days -->
        <g id="node18" class="node">
            <title>mrs.domain.type.date.Days</title>
            <polygon fill="#eedd82" stroke="red" points="670,-379 616,-379 616,-341 670,-341 670,-379"/>
            <text text-anchor="middle" x="643" y="-363.8" font-family="Times New Roman,serif" font-size="14.00">日数
            </text>
            <text text-anchor="middle" x="643" y="-348.8" font-family="Times New Roman,serif" font-size="14.00">Days
            </text>
        </g>
    </g>
</svg>
