<svg width="1088px" height="445px"
     viewBox="0.00 0.00 1087.80 445.00" xmlns="http://www.w3.org/2000/svg">
    <g id="graph0" class="graph" transform="scale(1.0 1.0) rotate(0) translate(4 441)">
        <title>ビジネスルール関連図</title>
        <polygon fill="white" stroke="transparent" points="-4,4 -4,-441 1083.8,-441 1083.8,4 -4,4"/>
        <text text-anchor="middle" x="539.9" y="-7.8" font-family="Times New Roman,serif" font-size="14.00">ビジネスルール関連図
        </text>
        <g id="clust1" class="cluster">
            <title>cluster_mrs.domain.model.facility.room</title>
            <polygon fill="lemonchiffon" stroke="#eedd82" stroke-width="2"
                     points="8,-31 8,-182 212,-182 212,-31 8,-31"/>
            <text text-anchor="middle" x="110" y="-166.8" font-family="Times New Roman,serif" font-size="14.00">
                facility.room
            </text>
        </g>
        <g id="clust3" class="cluster">
            <title>cluster_mrs.domain.model.reservation.datetime</title>
            <polygon fill="lemonchiffon" stroke="#eedd82" stroke-width="2"
                     points="416,-31 416,-182 644,-182 644,-31 416,-31"/>
            <text text-anchor="middle" x="530" y="-166.8" font-family="Times New Roman,serif" font-size="14.00">
                reservation.datetime
            </text>
        </g>
        <g id="clust2" class="cluster">
            <title>cluster_mrs.domain.model.reservation</title>
            <polygon fill="lemonchiffon" stroke="#eedd82" stroke-width="2"
                     points="416,-190 416,-429 528,-429 528,-190 416,-190"/>
            <text text-anchor="middle" x="472" y="-413.8" font-family="Times New Roman,serif" font-size="14.00">
                reservation
            </text>
        </g>
        <g id="clust4" class="cluster">
            <title>cluster_mrs.domain.model.reservation.reservable.room</title>
            <polygon fill="lemonchiffon" stroke="#eedd82" stroke-width="2"
                     points="220,-105 220,-344 408,-344 408,-105 220,-105"/>
            <text text-anchor="middle" x="314" y="-328.8" font-family="Times New Roman,serif" font-size="14.00">
                reservation.reservable.room
            </text>
        </g>
        <g id="clust6" class="cluster">
            <title>cluster_mrs.domain.type.date</title>
            <polygon fill="lemonchiffon" stroke="#eedd82" stroke-width="2"
                     points="701,-352 701,-429 873,-429 873,-352 701,-352"/>
            <text text-anchor="middle" x="787" y="-413.8" font-family="Times New Roman,serif" font-size="14.00">date
            </text>
        </g>
        <g id="clust5" class="cluster">
            <title>cluster_mrs.domain.model.user</title>
            <polygon fill="lemonchiffon" stroke="#eedd82" stroke-width="2"
                     points="652,-105 652,-267 1039,-267 1039,-105 652,-105"/>
            <text text-anchor="middle" x="845.5" y="-251.8" font-family="Times New Roman,serif" font-size="14.00">user
            </text>
        </g>
        <!-- mrs.domain.model.facility.room.MeetingRoom -->
        <g id="node1" class="node">
            <title>mrs.domain.model.facility.room.MeetingRoom</title>
            <polygon fill="#eedd82" stroke="black" points="204,-151 108,-151 108,-113 204,-113 204,-151"/>
            <text text-anchor="middle" x="156" y="-135.8" font-family="Times New Roman,serif" font-size="14.00">会議室
            </text>
            <text text-anchor="middle" x="156" y="-120.8" font-family="Times New Roman,serif" font-size="14.00">
                MeetingRoom
            </text>
        </g>
        <!-- mrs.domain.model.facility.room.RoomId -->
        <g id="node2" class="node">
            <title>mrs.domain.model.facility.room.RoomId</title>
            <polygon fill="#eedd82" stroke="black" points="203.5,-77 120.5,-77 120.5,-39 203.5,-39 203.5,-77"/>
            <text text-anchor="middle" x="162" y="-61.8" font-family="Times New Roman,serif" font-size="14.00">会議室ID
            </text>
            <text text-anchor="middle" x="162" y="-46.8" font-family="Times New Roman,serif" font-size="14.00">RoomId
            </text>
        </g>
        <!-- mrs.domain.model.facility.room.MeetingRoom&#45;&gt;mrs.domain.model.facility.room.RoomId -->
        <g id="edge1" class="edge">
            <title>mrs.domain.model.facility.room.MeetingRoom&#45;&gt;mrs.domain.model.facility.room.RoomId</title>
            <path fill="none" stroke="black" d="M157.51,-112.83C158.16,-105.13 158.92,-95.97 159.63,-87.42"/>
            <polygon fill="black" stroke="black" points="163.12,-87.67 160.47,-77.41 156.15,-87.09 163.12,-87.67"/>
        </g>
        <!-- mrs.domain.model.facility.room.RoomName -->
        <g id="node3" class="node">
            <title>mrs.domain.model.facility.room.RoomName</title>
            <polygon fill="#eedd82" stroke="black" points="102,-77 16,-77 16,-39 102,-39 102,-77"/>
            <text text-anchor="middle" x="59" y="-61.8" font-family="Times New Roman,serif" font-size="14.00">会議室名
            </text>
            <text text-anchor="middle" x="59" y="-46.8" font-family="Times New Roman,serif" font-size="14.00">RoomName
            </text>
        </g>
        <!-- mrs.domain.model.facility.room.MeetingRoom&#45;&gt;mrs.domain.model.facility.room.RoomName -->
        <g id="edge2" class="edge">
            <title>mrs.domain.model.facility.room.MeetingRoom&#45;&gt;mrs.domain.model.facility.room.RoomName</title>
            <path fill="none" stroke="black" d="M131.52,-112.83C119.46,-103.88 104.75,-92.96 91.73,-83.3"/>
            <polygon fill="black" stroke="black" points="93.59,-80.31 83.47,-77.16 89.41,-85.93 93.59,-80.31"/>
        </g>
        <!-- mrs.domain.model.reservation.Reservation -->
        <g id="node4" class="node">
            <title>mrs.domain.model.reservation.Reservation</title>
            <polygon fill="#eedd82" stroke="black" points="519.5,-313 436.5,-313 436.5,-275 519.5,-275 519.5,-313"/>
            <text text-anchor="middle" x="478" y="-297.8" font-family="Times New Roman,serif" font-size="14.00">予約
            </text>
            <text text-anchor="middle" x="478" y="-282.8" font-family="Times New Roman,serif" font-size="14.00">
                Reservation
            </text>
        </g>
        <!-- mrs.domain.model.reservation.ReservationId -->
        <g id="node5" class="node">
            <title>mrs.domain.model.reservation.ReservationId</title>
            <polygon fill="#eedd82" stroke="black" points="519.5,-236 424.5,-236 424.5,-198 519.5,-198 519.5,-236"/>
            <text text-anchor="middle" x="472" y="-220.8" font-family="Times New Roman,serif" font-size="14.00">予約ID
            </text>
            <text text-anchor="middle" x="472" y="-205.8" font-family="Times New Roman,serif" font-size="14.00">
                ReservationId
            </text>
        </g>
        <!-- mrs.domain.model.reservation.Reservation&#45;&gt;mrs.domain.model.reservation.ReservationId -->
        <g id="edge10" class="edge">
            <title>mrs.domain.model.reservation.Reservation&#45;&gt;mrs.domain.model.reservation.ReservationId</title>
            <path fill="none" stroke="black" d="M476.55,-274.84C475.87,-266.34 475.04,-256.01 474.28,-246.5"/>
            <polygon fill="black" stroke="black" points="477.75,-245.94 473.46,-236.25 470.77,-246.5 477.75,-245.94"/>
        </g>
        <!-- mrs.domain.model.reservation.datetime.ReservedDate -->
        <g id="node7" class="node">
            <title>mrs.domain.model.reservation.datetime.ReservedDate</title>
            <polygon fill="#eedd82" stroke="black" points="519.5,-77 424.5,-77 424.5,-39 519.5,-39 519.5,-77"/>
            <text text-anchor="middle" x="472" y="-61.8" font-family="Times New Roman,serif" font-size="14.00">予約日
            </text>
            <text text-anchor="middle" x="472" y="-46.8" font-family="Times New Roman,serif" font-size="14.00">
                ReservedDate
            </text>
        </g>
        <!-- mrs.domain.model.reservation.Reservation&#45;&gt;mrs.domain.model.reservation.datetime.ReservedDate -->
        <g id="edge11" class="edge">
            <title>mrs.domain.model.reservation.Reservation&#45;&gt;mrs.domain.model.reservation.datetime.ReservedDate
            </title>
            <path fill="none" stroke="black"
                  d="M519.6,-292.01C540.52,-289.38 564.8,-282.75 581,-267 633.18,-216.26 647.23,-164.29 605,-105 602.56,-101.58 564.34,-88.55 529.49,-77.23"/>
            <polygon fill="black" stroke="black" points="530.38,-73.84 519.79,-74.09 528.23,-80.5 530.38,-73.84"/>
        </g>
        <!-- mrs.domain.model.reservation.datetime.ReservedDateTime -->
        <g id="node8" class="node">
            <title>mrs.domain.model.reservation.datetime.ReservedDateTime</title>
            <polygon fill="#eedd82" stroke="black" points="595.5,-151 472.5,-151 472.5,-113 595.5,-113 595.5,-151"/>
            <text text-anchor="middle" x="534" y="-135.8" font-family="Times New Roman,serif" font-size="14.00">予約日時
            </text>
            <text text-anchor="middle" x="534" y="-120.8" font-family="Times New Roman,serif" font-size="14.00">
                ReservedDateTime
            </text>
        </g>
        <!-- mrs.domain.model.reservation.Reservation&#45;&gt;mrs.domain.model.reservation.datetime.ReservedDateTime -->
        <g id="edge12" class="edge">
            <title>mrs.domain.model.reservation.Reservation&#45;&gt;mrs.domain.model.reservation.datetime.ReservedDateTime</title>
            <path fill="none" stroke="black"
                  d="M519.52,-290.38C535.43,-287.09 552.13,-280.39 562,-267 585.16,-235.58 567.08,-189.33 551.15,-160.2"/>
            <polygon fill="black" stroke="black" points="554.11,-158.33 546.1,-151.39 548.03,-161.81 554.11,-158.33"/>
        </g>
        <!-- mrs.domain.model.reservation.datetime.ReservedTime -->
        <g id="node9" class="node">
            <title>mrs.domain.model.reservation.datetime.ReservedTime</title>
            <polygon fill="#eedd82" stroke="black" points="636,-77 538,-77 538,-39 636,-39 636,-77"/>
            <text text-anchor="middle" x="587" y="-61.8" font-family="Times New Roman,serif" font-size="14.00">予約時間
            </text>
            <text text-anchor="middle" x="587" y="-46.8" font-family="Times New Roman,serif" font-size="14.00">
                ReservedTime
            </text>
        </g>
        <!-- mrs.domain.model.reservation.Reservation&#45;&gt;mrs.domain.model.reservation.datetime.ReservedTime -->
        <g id="edge13" class="edge">
            <title>mrs.domain.model.reservation.Reservation&#45;&gt;mrs.domain.model.reservation.datetime.ReservedTime
            </title>
            <path fill="none" stroke="black"
                  d="M519.84,-292.64C647.58,-291.33 1024.99,-285.86 1043,-267 1092.73,-214.93 1091.29,-158.41 1043,-105 1016.87,-76.1 763.86,-64.5 646.38,-60.64"/>
            <polygon fill="black" stroke="black" points="646.24,-57.13 636.13,-60.31 646.01,-64.13 646.24,-57.13"/>
        </g>
        <!-- mrs.domain.model.reservation.reservable.room.ReservableRoom -->
        <g id="node10" class="node">
            <title>mrs.domain.model.reservation.reservable.room.ReservableRoom</title>
            <polygon fill="#eedd82" stroke="black" points="384.5,-236 247.5,-236 247.5,-198 384.5,-198 384.5,-236"/>
            <text text-anchor="middle" x="316" y="-220.8" font-family="Times New Roman,serif" font-size="14.00">
                予約可能会議室
            </text>
            <text text-anchor="middle" x="316" y="-205.8" font-family="Times New Roman,serif" font-size="14.00">
                ReservableRoom
            </text>
        </g>
        <!-- mrs.domain.model.reservation.Reservation&#45;&gt;mrs.domain.model.reservation.reservable.room.ReservableRoom -->
        <g id="edge14" class="edge">
            <title>mrs.domain.model.reservation.Reservation&#45;&gt;mrs.domain.model.reservation.reservable.room.ReservableRoom</title>
            <path fill="none" stroke="black"
                  d="M436.2,-277.24C428.11,-273.99 419.75,-270.49 412,-267 394.15,-258.95 374.86,-249.3 358.28,-240.7"/>
            <polygon fill="black" stroke="black" points="359.86,-237.57 349.38,-236.04 356.62,-243.78 359.86,-237.57"/>
        </g>
        <!-- mrs.domain.model.reservation.reservable.room.ReservableRoomId -->
        <g id="node11" class="node">
            <title>mrs.domain.model.reservation.reservable.room.ReservableRoomId</title>
            <polygon fill="#eedd82" stroke="black" points="397,-151 245,-151 245,-113 397,-113 397,-151"/>
            <text text-anchor="middle" x="321" y="-135.8" font-family="Times New Roman,serif" font-size="14.00">
                予約可能会議室ID
            </text>
            <text text-anchor="middle" x="321" y="-120.8" font-family="Times New Roman,serif" font-size="14.00">
                ReservableRoomId
            </text>
        </g>
        <!-- mrs.domain.model.reservation.Reservation&#45;&gt;mrs.domain.model.reservation.reservable.room.ReservableRoomId -->
        <g id="edge15" class="edge">
            <title>mrs.domain.model.reservation.Reservation&#45;&gt;mrs.domain.model.reservation.reservable.room.ReservableRoomId</title>
            <path fill="none" stroke="black"
                  d="M519.83,-277.09C523.44,-274.24 526.61,-270.9 529,-267 546.88,-237.82 552.36,-215.01 529,-190 520.11,-180.48 424.52,-185.61 412,-182 392.51,-176.37 372.48,-166.16 356.2,-156.51"/>
            <polygon fill="black" stroke="black" points="357.92,-153.46 347.56,-151.23 354.28,-159.43 357.92,-153.46"/>
        </g>
        <!-- mrs.domain.model.user.User -->
        <g id="node16" class="node">
            <title>mrs.domain.model.user.User</title>
            <polygon fill="#eedd82" stroke="black" points="829,-236 761,-236 761,-198 829,-198 829,-236"/>
            <text text-anchor="middle" x="795" y="-220.8" font-family="Times New Roman,serif" font-size="14.00">利用者
            </text>
            <text text-anchor="middle" x="795" y="-205.8" font-family="Times New Roman,serif" font-size="14.00">User
            </text>
        </g>
        <!-- mrs.domain.model.reservation.Reservation&#45;&gt;mrs.domain.model.user.User -->
        <g id="edge16" class="edge">
            <title>mrs.domain.model.reservation.Reservation&#45;&gt;mrs.domain.model.user.User</title>
            <path fill="none" stroke="black"
                  d="M519.76,-287.86C552.23,-283.47 598.29,-276.37 638,-267 676.74,-257.85 719.85,-244.14 751.08,-233.54"/>
            <polygon fill="black" stroke="black" points="752.45,-236.77 760.78,-230.22 750.18,-230.15 752.45,-236.77"/>
        </g>
        <!-- mrs.domain.model.reservation.Reservations -->
        <g id="node6" class="node">
            <title>mrs.domain.model.reservation.Reservations</title>
            <polygon fill="#eedd82" stroke="black" points="519.5,-398 430.5,-398 430.5,-360 519.5,-360 519.5,-398"/>
            <text text-anchor="middle" x="475" y="-382.8" font-family="Times New Roman,serif" font-size="14.00">予約一覧
            </text>
            <text text-anchor="middle" x="475" y="-367.8" font-family="Times New Roman,serif" font-size="14.00">
                Reservations
            </text>
        </g>
        <!-- mrs.domain.model.reservation.Reservations&#45;&gt;mrs.domain.model.reservation.Reservation -->
        <g id="edge17" class="edge">
            <title>mrs.domain.model.reservation.Reservations&#45;&gt;mrs.domain.model.reservation.Reservation</title>
            <path fill="none" stroke="black" d="M475.65,-359.99C476.04,-349.3 476.54,-335.5 476.97,-323.37"/>
            <polygon fill="black" stroke="black" points="480.48,-323.38 477.34,-313.26 473.48,-323.13 480.48,-323.38"/>
        </g>
        <!-- mrs.domain.model.reservation.datetime.ReservedDateTime&#45;&gt;mrs.domain.model.reservation.datetime.ReservedDate -->
        <g id="edge3" class="edge">
            <title>mrs.domain.model.reservation.datetime.ReservedDateTime&#45;&gt;mrs.domain.model.reservation.datetime.ReservedDate</title>
            <path fill="none" stroke="black" d="M518.35,-112.83C511.14,-104.45 502.44,-94.35 494.54,-85.17"/>
            <polygon fill="black" stroke="black" points="497.03,-82.71 487.86,-77.41 491.73,-87.27 497.03,-82.71"/>
        </g>
        <!-- mrs.domain.model.reservation.datetime.ReservedDateTime&#45;&gt;mrs.domain.model.reservation.datetime.ReservedTime -->
        <g id="edge4" class="edge">
            <title>mrs.domain.model.reservation.datetime.ReservedDateTime&#45;&gt;mrs.domain.model.reservation.datetime.ReservedTime</title>
            <path fill="none" stroke="black" d="M547.37,-112.83C553.42,-104.62 560.68,-94.76 567.32,-85.73"/>
            <polygon fill="black" stroke="black" points="570.34,-87.54 573.45,-77.41 564.7,-83.39 570.34,-87.54"/>
        </g>
        <!-- mrs.domain.model.reservation.reservable.room.ReservableRoom&#45;&gt;mrs.domain.model.facility.room.MeetingRoom -->
        <g id="edge5" class="edge">
            <title>mrs.domain.model.reservation.reservable.room.ReservableRoom&#45;&gt;mrs.domain.model.facility.room.MeetingRoom</title>
            <path fill="none" stroke="black"
                  d="M251.86,-198C239.61,-193.51 227.15,-188.18 216,-182 204.03,-175.36 192.09,-166.26 182.05,-157.69"/>
            <polygon fill="black" stroke="black" points="184.27,-154.98 174.45,-151 179.64,-160.23 184.27,-154.98"/>
        </g>
        <!-- mrs.domain.model.reservation.reservable.room.ReservableRoom&#45;&gt;mrs.domain.model.reservation.reservable.room.ReservableRoomId -->
        <g id="edge6" class="edge">
            <title>mrs.domain.model.reservation.reservable.room.ReservableRoom&#45;&gt;mrs.domain.model.reservation.reservable.room.ReservableRoomId</title>
            <path fill="none" stroke="black" d="M317.08,-197.99C317.73,-187.3 318.56,-173.5 319.29,-161.37"/>
            <polygon fill="black" stroke="black" points="322.79,-161.45 319.9,-151.26 315.8,-161.03 322.79,-161.45"/>
        </g>
        <!-- mrs.domain.model.reservation.reservable.room.ReservableRoomId&#45;&gt;mrs.domain.model.facility.room.RoomId -->
        <g id="edge7" class="edge">
            <title>mrs.domain.model.reservation.reservable.room.ReservableRoomId&#45;&gt;mrs.domain.model.facility.room.RoomId</title>
            <path fill="none" stroke="black" d="M280.88,-112.83C259.71,-103.24 233.55,-91.4 211.17,-81.27"/>
            <polygon fill="black" stroke="black" points="212.39,-77.97 201.83,-77.04 209.5,-84.35 212.39,-77.97"/>
        </g>
        <!-- mrs.domain.model.reservation.reservable.room.ReservableRoomId&#45;&gt;mrs.domain.model.reservation.datetime.ReservedDate -->
        <g id="edge8" class="edge">
            <title>mrs.domain.model.reservation.reservable.room.ReservableRoomId&#45;&gt;mrs.domain.model.reservation.datetime.ReservedDate</title>
            <path fill="none" stroke="black" d="M359.1,-112.83C379.12,-103.29 403.83,-91.51 425.02,-81.4"/>
            <polygon fill="black" stroke="black" points="426.65,-84.5 434.17,-77.04 423.64,-78.18 426.65,-84.5"/>
        </g>
        <!-- mrs.domain.model.reservation.reservable.room.ReservableRooms -->
        <g id="node12" class="node">
            <title>mrs.domain.model.reservation.reservable.room.ReservableRooms</title>
            <polygon fill="#eedd82" stroke="black" points="400,-313 228,-313 228,-275 400,-275 400,-313"/>
            <text text-anchor="middle" x="314" y="-297.8" font-family="Times New Roman,serif" font-size="14.00">
                予約可能会議室一覧
            </text>
            <text text-anchor="middle" x="314" y="-282.8" font-family="Times New Roman,serif" font-size="14.00">
                ReservableRooms
            </text>
        </g>
        <!-- mrs.domain.model.reservation.reservable.room.ReservableRooms&#45;&gt;mrs.domain.model.reservation.reservable.room.ReservableRoom -->
        <g id="edge9" class="edge">
            <title>mrs.domain.model.reservation.reservable.room.ReservableRooms&#45;&gt;mrs.domain.model.reservation.reservable.room.ReservableRoom</title>
            <path fill="none" stroke="black" d="M314.48,-274.84C314.71,-266.34 314.99,-256.01 315.24,-246.5"/>
            <polygon fill="black" stroke="black" points="318.75,-246.34 315.51,-236.25 311.75,-246.15 318.75,-246.34"/>
        </g>
        <!-- mrs.domain.model.user.Name -->
        <g id="node13" class="node">
            <title>mrs.domain.model.user.Name</title>
            <polygon fill="#eedd82" stroke="black" points="909,-151 855,-151 855,-113 909,-113 909,-151"/>
            <text text-anchor="middle" x="882" y="-135.8" font-family="Times New Roman,serif" font-size="14.00">氏名
            </text>
            <text text-anchor="middle" x="882" y="-120.8" font-family="Times New Roman,serif" font-size="14.00">Name
            </text>
        </g>
        <!-- mrs.domain.model.user.Password -->
        <g id="node14" class="node">
            <title>mrs.domain.model.user.Password</title>
            <polygon fill="#eedd82" stroke="black" points="1030.5,-151 927.5,-151 927.5,-113 1030.5,-113 1030.5,-151"/>
            <text text-anchor="middle" x="979" y="-135.8" font-family="Times New Roman,serif" font-size="14.00">パスワード
            </text>
            <text text-anchor="middle" x="979" y="-120.8" font-family="Times New Roman,serif" font-size="14.00">
                Password
            </text>
        </g>
        <!-- mrs.domain.model.user.RoleName -->
        <g id="node15" class="node">
            <title>mrs.domain.model.user.RoleName</title>
            <polygon fill="#eedd82" stroke="black" points="735.5,-151 660.5,-151 660.5,-113 735.5,-113 735.5,-151"/>
            <text text-anchor="middle" x="698" y="-135.8" font-family="Times New Roman,serif" font-size="14.00">役割
            </text>
            <text text-anchor="middle" x="698" y="-120.8" font-family="Times New Roman,serif" font-size="14.00">
                RoleName
            </text>
        </g>
        <!-- mrs.domain.model.user.User&#45;&gt;mrs.domain.model.user.Name -->
        <g id="edge18" class="edge">
            <title>mrs.domain.model.user.User&#45;&gt;mrs.domain.model.user.Name</title>
            <path fill="none" stroke="black"
                  d="M825.98,-197.86C832.92,-193.13 840,-187.73 846,-182 852.8,-175.5 859.23,-167.59 864.72,-160.03"/>
            <polygon fill="black" stroke="black" points="867.87,-161.64 870.71,-151.44 862.12,-157.65 867.87,-161.64"/>
        </g>
        <!-- mrs.domain.model.user.User&#45;&gt;mrs.domain.model.user.Password -->
        <g id="edge19" class="edge">
            <title>mrs.domain.model.user.User&#45;&gt;mrs.domain.model.user.Password</title>
            <path fill="none" stroke="black"
                  d="M829.26,-210.41C854.73,-205.36 889.8,-196.44 918,-182 930.4,-175.65 942.66,-166.52 952.9,-157.86"/>
            <polygon fill="black" stroke="black" points="955.42,-160.3 960.64,-151.08 950.81,-155.04 955.42,-160.3"/>
        </g>
        <!-- mrs.domain.model.user.User&#45;&gt;mrs.domain.model.user.RoleName -->
        <g id="edge20" class="edge">
            <title>mrs.domain.model.user.User&#45;&gt;mrs.domain.model.user.RoleName</title>
            <path fill="none" stroke="black"
                  d="M766.21,-197.93C759.07,-193.04 751.57,-187.56 745,-182 736.63,-174.92 728.14,-166.52 720.72,-158.69"/>
            <polygon fill="black" stroke="black" points="723.06,-156.08 713.7,-151.12 717.93,-160.84 723.06,-156.08"/>
        </g>
        <!-- mrs.domain.model.user.UserId -->
        <g id="node17" class="node">
            <title>mrs.domain.model.user.UserId</title>
            <polygon fill="#eedd82" stroke="black" points="836.5,-151 753.5,-151 753.5,-113 836.5,-113 836.5,-151"/>
            <text text-anchor="middle" x="795" y="-135.8" font-family="Times New Roman,serif" font-size="14.00">利用者ID
            </text>
            <text text-anchor="middle" x="795" y="-120.8" font-family="Times New Roman,serif" font-size="14.00">UserId
            </text>
        </g>
        <!-- mrs.domain.model.user.User&#45;&gt;mrs.domain.model.user.UserId -->
        <g id="edge21" class="edge">
            <title>mrs.domain.model.user.User&#45;&gt;mrs.domain.model.user.UserId</title>
            <path fill="none" stroke="black" d="M795,-197.99C795,-187.3 795,-173.5 795,-161.37"/>
            <polygon fill="black" stroke="black" points="798.5,-161.26 795,-151.26 791.5,-161.26 798.5,-161.26"/>
        </g>
        <!-- mrs.domain.type.date.CurrentDate -->
        <g id="node18" class="node">
            <title>mrs.domain.type.date.CurrentDate</title>
            <polygon fill="#eedd82" stroke="red" points="865,-398 781,-398 781,-360 865,-360 865,-398"/>
            <text text-anchor="middle" x="823" y="-382.8" font-family="Times New Roman,serif" font-size="14.00">現在日
            </text>
            <text text-anchor="middle" x="823" y="-367.8" font-family="Times New Roman,serif" font-size="14.00">
                CurrentDate
            </text>
        </g>
        <!-- mrs.domain.type.date.Days -->
        <g id="node19" class="node">
            <title>mrs.domain.type.date.Days</title>
            <polygon fill="#eedd82" stroke="red" points="763,-398 709,-398 709,-360 763,-360 763,-398"/>
            <text text-anchor="middle" x="736" y="-382.8" font-family="Times New Roman,serif" font-size="14.00">日数
            </text>
            <text text-anchor="middle" x="736" y="-367.8" font-family="Times New Roman,serif" font-size="14.00">Days
            </text>
        </g>
    </g>
</svg>
