<svg width="1002px" height="426px"
     viewBox="0.00 0.00 1002.00 426.00" xmlns="http://www.w3.org/2000/svg">
    <g id="graph0" class="graph" transform="scale(1.0 1.0) rotate(0) translate(4 422)">
        <title>ビジネスルール関連図</title>
        <polygon fill="white" stroke="transparent" points="-4,4 -4,-422 998,-422 998,4 -4,4"/>
        <text text-anchor="middle" x="497" y="-7.8" font-family="Times,serif" font-size="14.00">ビジネスルール関連図</text>
        <g id="clust1" class="cluster">
            <title>cluster_mrs.domain.model.reservation</title>
            <polygon fill="lemonchiffon" stroke="#eedd82" stroke-width="2"
                     points="8,-31 8,-410 404,-410 404,-31 8,-31"/>
            <text text-anchor="middle" x="206" y="-394.8" font-family="Times,serif" font-size="14.00">reservation</text>
        </g>
        <g id="clust2" class="cluster">
            <title>cluster_mrs.domain.model.room</title>
            <polygon fill="lemonchiffon" stroke="#eedd82" stroke-width="2"
                     points="412,-31 412,-182 604,-182 604,-31 412,-31"/>
            <text text-anchor="middle" x="508" y="-166.8" font-family="Times,serif" font-size="14.00">room</text>
        </g>
        <g id="clust3" class="cluster">
            <title>cluster_mrs.domain.model.user</title>
            <polygon fill="lemonchiffon" stroke="#eedd82" stroke-width="2"
                     points="612,-105 612,-259 986,-259 986,-105 612,-105"/>
            <text text-anchor="middle" x="799" y="-243.8" font-family="Times,serif" font-size="14.00">user</text>
        </g>
        <g id="clust4" class="cluster">
            <title>cluster_mrs.domain.type.date</title>
            <polygon fill="lemonchiffon" stroke="#eedd82" stroke-width="2"
                     points="613,-333 613,-410 785,-410 785,-333 613,-333"/>
            <text text-anchor="middle" x="699" y="-394.8" font-family="Times,serif" font-size="14.00">date</text>
        </g>
        <!-- mrs.domain.model.reservation.ReservableRoom -->
        <g id="node1" class="node">
            <title>mrs.domain.model.reservation.ReservableRoom</title>
            <polygon fill="#eedd82" stroke="black" points="396,-228 280,-228 280,-190 396,-190 396,-228"/>
            <text text-anchor="middle" x="338" y="-212.8" font-family="Times,serif" font-size="14.00">予約可能会議室</text>
            <text text-anchor="middle" x="338" y="-197.8" font-family="Times,serif" font-size="14.00">ReservableRoom
            </text>
        </g>
        <!-- mrs.domain.model.reservation.ReservableRoomId -->
        <g id="node2" class="node">
            <title>mrs.domain.model.reservation.ReservableRoomId</title>
            <polygon fill="#eedd82" stroke="black" points="360.5,-151 229.5,-151 229.5,-113 360.5,-113 360.5,-151"/>
            <text text-anchor="middle" x="295" y="-135.8" font-family="Times,serif" font-size="14.00">予約可能会議室ID</text>
            <text text-anchor="middle" x="295" y="-120.8" font-family="Times,serif" font-size="14.00">ReservableRoomId
            </text>
        </g>
<!-- mrs.domain.model.reservation.ReservableRoom&#45;&gt;mrs.domain.model.reservation.ReservableRoomId -->
        <g id="edge4" class="edge">
            <title>mrs.domain.model.reservation.ReservableRoom&#45;&gt;mrs.domain.model.reservation.ReservableRoomId
            </title>
            <path fill="none" stroke="black" d="M327.59,-189.84C322.45,-180.88 316.15,-169.89 310.46,-159.97"/>
            <polygon fill="black" stroke="black" points="313.47,-158.18 305.46,-151.25 307.4,-161.66 313.47,-158.18"/>
        </g>
<!-- mrs.domain.model.room.MeetingRoom -->
        <g id="node9" class="node">
            <title>mrs.domain.model.room.MeetingRoom</title>
            <polygon fill="#eedd82" stroke="black" points="516,-151 420,-151 420,-113 516,-113 516,-151"/>
            <text text-anchor="middle" x="468" y="-135.8" font-family="Times,serif" font-size="14.00">会議室</text>
            <text text-anchor="middle" x="468" y="-120.8" font-family="Times,serif" font-size="14.00">MeetingRoom</text>
        </g>
<!-- mrs.domain.model.reservation.ReservableRoom&#45;&gt;mrs.domain.model.room.MeetingRoom -->
        <g id="edge5" class="edge">
            <title>mrs.domain.model.reservation.ReservableRoom&#45;&gt;mrs.domain.model.room.MeetingRoom</title>
            <path fill="none" stroke="black"
                  d="M392.32,-189.87C397.73,-187.46 403.05,-184.84 408,-182 419.79,-175.25 431.61,-166.2 441.61,-157.71"/>
            <polygon fill="black" stroke="black" points="443.97,-160.3 449.2,-151.08 439.37,-155.02 443.97,-160.3"/>
        </g>
<!-- mrs.domain.model.reservation.ReservedDate -->
        <g id="node7" class="node">
            <title>mrs.domain.model.reservation.ReservedDate</title>
            <polygon fill="#eedd82" stroke="black" points="240,-77 148,-77 148,-39 240,-39 240,-77"/>
            <text text-anchor="middle" x="194" y="-61.8" font-family="Times,serif" font-size="14.00">予約日</text>
            <text text-anchor="middle" x="194" y="-46.8" font-family="Times,serif" font-size="14.00">ReservedDate</text>
        </g>
<!-- mrs.domain.model.reservation.ReservableRoomId&#45;&gt;mrs.domain.model.reservation.ReservedDate -->
        <g id="edge6" class="edge">
            <title>mrs.domain.model.reservation.ReservableRoomId&#45;&gt;mrs.domain.model.reservation.ReservedDate
            </title>
            <path fill="none" stroke="black" d="M269.51,-112.83C256.83,-103.79 241.34,-92.75 227.69,-83.02"/>
            <polygon fill="black" stroke="black" points="229.65,-80.12 219.48,-77.16 225.59,-85.82 229.65,-80.12"/>
        </g>
<!-- mrs.domain.model.room.RoomId -->
        <g id="node10" class="node">
            <title>mrs.domain.model.room.RoomId</title>
            <polygon fill="#eedd82" stroke="black" points="494,-77 420,-77 420,-39 494,-39 494,-77"/>
            <text text-anchor="middle" x="457" y="-61.8" font-family="Times,serif" font-size="14.00">会議室ID</text>
            <text text-anchor="middle" x="457" y="-46.8" font-family="Times,serif" font-size="14.00">RoomId</text>
        </g>
<!-- mrs.domain.model.reservation.ReservableRoomId&#45;&gt;mrs.domain.model.room.RoomId -->
        <g id="edge7" class="edge">
            <title>mrs.domain.model.reservation.ReservableRoomId&#45;&gt;mrs.domain.model.room.RoomId</title>
            <path fill="none" stroke="black" d="M335.88,-112.83C358.53,-102.76 386.79,-90.2 410.31,-79.75"/>
            <polygon fill="black" stroke="black" points="412.02,-82.82 419.74,-75.56 409.18,-76.42 412.02,-82.82"/>
        </g>
<!-- mrs.domain.model.reservation.ReservableRooms -->
        <g id="node3" class="node">
            <title>mrs.domain.model.reservation.ReservableRooms</title>
            <polygon fill="#eedd82" stroke="black" points="395.5,-305 250.5,-305 250.5,-267 395.5,-267 395.5,-305"/>
            <text text-anchor="middle" x="323" y="-289.8" font-family="Times,serif" font-size="14.00">予約可能会議室一覧</text>
            <text text-anchor="middle" x="323" y="-274.8" font-family="Times,serif" font-size="14.00">ReservableRooms
            </text>
        </g>
<!-- mrs.domain.model.reservation.ReservableRooms&#45;&gt;mrs.domain.model.reservation.ReservableRoom -->
        <g id="edge3" class="edge">
            <title>mrs.domain.model.reservation.ReservableRooms&#45;&gt;mrs.domain.model.reservation.ReservableRoom
            </title>
            <path fill="none" stroke="black" d="M326.63,-266.84C328.35,-258.25 330.44,-247.79 332.36,-238.19"/>
            <polygon fill="black" stroke="black" points="335.82,-238.74 334.35,-228.25 328.96,-237.37 335.82,-238.74"/>
        </g>
<!-- mrs.domain.model.reservation.Reservation -->
        <g id="node4" class="node">
            <title>mrs.domain.model.reservation.Reservation</title>
            <polygon fill="#eedd82" stroke="black" points="232.5,-305 151.5,-305 151.5,-267 232.5,-267 232.5,-305"/>
            <text text-anchor="middle" x="192" y="-289.8" font-family="Times,serif" font-size="14.00">予約</text>
            <text text-anchor="middle" x="192" y="-274.8" font-family="Times,serif" font-size="14.00">Reservation</text>
        </g>
<!-- mrs.domain.model.reservation.Reservation&#45;&gt;mrs.domain.model.reservation.ReservableRoom -->
        <g id="edge8" class="edge">
            <title>mrs.domain.model.reservation.Reservation&#45;&gt;mrs.domain.model.reservation.ReservableRoom</title>
            <path fill="none" stroke="black"
                  d="M232.59,-269.94C235.43,-268.93 238.26,-267.94 241,-267 252.03,-263.21 255.51,-264.11 266,-259 280.13,-252.11 294.67,-242.73 306.94,-234.02"/>
            <polygon fill="black" stroke="black" points="309.01,-236.85 315.05,-228.14 304.9,-231.18 309.01,-236.85"/>
        </g>
<!-- mrs.domain.model.reservation.Reservation&#45;&gt;mrs.domain.model.reservation.ReservableRoomId -->
        <g id="edge9" class="edge">
            <title>mrs.domain.model.reservation.Reservation&#45;&gt;mrs.domain.model.reservation.ReservableRoomId
            </title>
            <path fill="none" stroke="black"
                  d="M232.53,-270.08C240.84,-266.36 247.98,-262.45 251,-259 272.03,-234.97 260.34,-220.1 271,-190 274.48,-180.16 278.78,-169.57 282.78,-160.22"/>
            <polygon fill="black" stroke="black" points="286,-161.58 286.78,-151.01 279.58,-158.79 286,-161.58"/>
        </g>
<!-- mrs.domain.model.reservation.ReservationId -->
        <g id="node5" class="node">
            <title>mrs.domain.model.reservation.ReservationId</title>
            <polygon fill="#eedd82" stroke="black" points="108,-228 16,-228 16,-190 108,-190 108,-228"/>
            <text text-anchor="middle" x="62" y="-212.8" font-family="Times,serif" font-size="14.00">予約ID</text>
            <text text-anchor="middle" x="62" y="-197.8" font-family="Times,serif" font-size="14.00">ReservationId
            </text>
        </g>
<!-- mrs.domain.model.reservation.Reservation&#45;&gt;mrs.domain.model.reservation.ReservationId -->
        <g id="edge10" class="edge">
            <title>mrs.domain.model.reservation.Reservation&#45;&gt;mrs.domain.model.reservation.ReservationId</title>
            <path fill="none" stroke="black"
                  d="M151.36,-272.48C141.47,-268.74 131.11,-264.22 122,-259 110.21,-252.25 98.39,-243.2 88.39,-234.71"/>
            <polygon fill="black" stroke="black" points="90.63,-232.02 80.8,-228.08 86.03,-237.3 90.63,-232.02"/>
        </g>
<!-- mrs.domain.model.reservation.Reservation&#45;&gt;mrs.domain.model.reservation.ReservedDate -->
        <g id="edge11" class="edge">
            <title>mrs.domain.model.reservation.Reservation&#45;&gt;mrs.domain.model.reservation.ReservedDate</title>
            <path fill="none" stroke="black"
                  d="M151.42,-272.53C145.7,-269.05 140.56,-264.62 137,-259 120.59,-233.09 130.75,-220.02 137,-190 144.88,-152.15 164.29,-111.83 178.27,-86.08"/>
            <polygon fill="black" stroke="black" points="181.36,-87.73 183.15,-77.28 175.24,-84.33 181.36,-87.73"/>
        </g>
<!-- mrs.domain.model.reservation.ReservedTime -->
        <g id="node8" class="node">
            <title>mrs.domain.model.reservation.ReservedTime</title>
            <polygon fill="#eedd82" stroke="black" points="242,-228 146,-228 146,-190 242,-190 242,-228"/>
            <text text-anchor="middle" x="194" y="-212.8" font-family="Times,serif" font-size="14.00">予約時間</text>
            <text text-anchor="middle" x="194" y="-197.8" font-family="Times,serif" font-size="14.00">ReservedTime
            </text>
        </g>
<!-- mrs.domain.model.reservation.Reservation&#45;&gt;mrs.domain.model.reservation.ReservedTime -->
        <g id="edge12" class="edge">
            <title>mrs.domain.model.reservation.Reservation&#45;&gt;mrs.domain.model.reservation.ReservedTime</title>
            <path fill="none" stroke="black" d="M192.48,-266.84C192.71,-258.34 192.99,-248.01 193.24,-238.5"/>
            <polygon fill="black" stroke="black" points="196.75,-238.34 193.51,-228.25 189.75,-238.15 196.75,-238.34"/>
        </g>
<!-- mrs.domain.model.user.User -->
        <g id="node15" class="node">
            <title>mrs.domain.model.user.User</title>
            <polygon fill="#eedd82" stroke="black" points="772,-228 698,-228 698,-190 772,-190 772,-228"/>
            <text text-anchor="middle" x="735" y="-212.8" font-family="Times,serif" font-size="14.00">ユーザー</text>
            <text text-anchor="middle" x="735" y="-197.8" font-family="Times,serif" font-size="14.00">User</text>
        </g>
<!-- mrs.domain.model.reservation.Reservation&#45;&gt;mrs.domain.model.user.User -->
        <g id="edge13" class="edge">
            <title>mrs.domain.model.reservation.Reservation&#45;&gt;mrs.domain.model.user.User</title>
            <path fill="none" stroke="black"
                  d="M232.64,-269.02C235.44,-268.24 238.25,-267.56 241,-267 313.83,-252.24 334.05,-266.29 408,-259 508.11,-249.13 624.4,-229.81 687.8,-218.6"/>
            <polygon fill="black" stroke="black" points="688.65,-222.01 697.88,-216.81 687.42,-215.12 688.65,-222.01"/>
        </g>
<!-- mrs.domain.model.user.UserId -->
        <g id="node16" class="node">
            <title>mrs.domain.model.user.UserId</title>
            <polygon fill="#eedd82" stroke="black" points="978,-151 890,-151 890,-113 978,-113 978,-151"/>
            <text text-anchor="middle" x="934" y="-135.8" font-family="Times,serif" font-size="14.00">ユーザーID</text>
            <text text-anchor="middle" x="934" y="-120.8" font-family="Times,serif" font-size="14.00">UserId</text>
        </g>
<!-- mrs.domain.model.reservation.Reservation&#45;&gt;mrs.domain.model.user.UserId -->
        <g id="edge14" class="edge">
            <title>mrs.domain.model.reservation.Reservation&#45;&gt;mrs.domain.model.user.UserId</title>
            <path fill="none" stroke="black"
                  d="M232.62,-268.92C235.43,-268.16 238.24,-267.51 241,-267 270.5,-261.53 752.67,-268.88 781,-259 836.48,-239.66 886.01,-190.07 912.85,-159.18"/>
            <polygon fill="black" stroke="black" points="915.67,-161.27 919.49,-151.38 910.34,-156.73 915.67,-161.27"/>
        </g>
<!-- mrs.domain.model.reservation.Reservations -->
        <g id="node6" class="node">
            <title>mrs.domain.model.reservation.Reservations</title>
            <polygon fill="#eedd82" stroke="black" points="235,-379 149,-379 149,-341 235,-341 235,-379"/>
            <text text-anchor="middle" x="192" y="-363.8" font-family="Times,serif" font-size="14.00">予約一覧</text>
            <text text-anchor="middle" x="192" y="-348.8" font-family="Times,serif" font-size="14.00">Reservations
            </text>
        </g>
<!-- mrs.domain.model.reservation.Reservations&#45;&gt;mrs.domain.model.reservation.Reservation -->
        <g id="edge15" class="edge">
            <title>mrs.domain.model.reservation.Reservations&#45;&gt;mrs.domain.model.reservation.Reservation</title>
            <path fill="none" stroke="black" d="M192,-340.83C192,-333.13 192,-323.97 192,-315.42"/>
            <polygon fill="black" stroke="black" points="195.5,-315.41 192,-305.41 188.5,-315.41 195.5,-315.41"/>
        </g>
<!-- mrs.domain.model.room.MeetingRoom&#45;&gt;mrs.domain.model.room.RoomId -->
        <g id="edge1" class="edge">
            <title>mrs.domain.model.room.MeetingRoom&#45;&gt;mrs.domain.model.room.RoomId</title>
            <path fill="none" stroke="black" d="M465.22,-112.83C464.05,-105.13 462.65,-95.97 461.34,-87.42"/>
            <polygon fill="black" stroke="black" points="464.78,-86.77 459.81,-77.41 457.86,-87.83 464.78,-86.77"/>
        </g>
<!-- mrs.domain.model.room.RoomName -->
        <g id="node11" class="node">
            <title>mrs.domain.model.room.RoomName</title>
            <polygon fill="#eedd82" stroke="black" points="595.5,-77 512.5,-77 512.5,-39 595.5,-39 595.5,-77"/>
            <text text-anchor="middle" x="554" y="-61.8" font-family="Times,serif" font-size="14.00">会議室名</text>
            <text text-anchor="middle" x="554" y="-46.8" font-family="Times,serif" font-size="14.00">RoomName</text>
        </g>
<!-- mrs.domain.model.room.MeetingRoom&#45;&gt;mrs.domain.model.room.RoomName -->
        <g id="edge2" class="edge">
            <title>mrs.domain.model.room.MeetingRoom&#45;&gt;mrs.domain.model.room.RoomName</title>
            <path fill="none" stroke="black" d="M489.7,-112.83C500.19,-104.05 512.95,-93.37 524.32,-83.85"/>
            <polygon fill="black" stroke="black" points="526.88,-86.27 532.31,-77.16 522.39,-80.9 526.88,-86.27"/>
        </g>
<!-- mrs.domain.model.user.Name -->
        <g id="node12" class="node">
            <title>mrs.domain.model.user.Name</title>
            <polygon fill="#eedd82" stroke="black" points="674,-151 620,-151 620,-113 674,-113 674,-151"/>
            <text text-anchor="middle" x="647" y="-135.8" font-family="Times,serif" font-size="14.00">氏名</text>
            <text text-anchor="middle" x="647" y="-120.8" font-family="Times,serif" font-size="14.00">Name</text>
        </g>
<!-- mrs.domain.model.user.Password -->
        <g id="node13" class="node">
            <title>mrs.domain.model.user.Password</title>
            <polygon fill="#eedd82" stroke="black" points="778,-151 692,-151 692,-113 778,-113 778,-151"/>
            <text text-anchor="middle" x="735" y="-135.8" font-family="Times,serif" font-size="14.00">パスワード</text>
            <text text-anchor="middle" x="735" y="-120.8" font-family="Times,serif" font-size="14.00">Password</text>
        </g>
<!-- mrs.domain.model.user.RoleName -->
        <g id="node14" class="node">
            <title>mrs.domain.model.user.RoleName</title>
            <polygon fill="#eedd82" stroke="black" points="871.5,-151 796.5,-151 796.5,-113 871.5,-113 871.5,-151"/>
            <text text-anchor="middle" x="834" y="-135.8" font-family="Times,serif" font-size="14.00">役割</text>
            <text text-anchor="middle" x="834" y="-120.8" font-family="Times,serif" font-size="14.00">RoleName</text>
        </g>
<!-- mrs.domain.model.user.User&#45;&gt;mrs.domain.model.user.Name -->
        <g id="edge16" class="edge">
            <title>mrs.domain.model.user.User&#45;&gt;mrs.domain.model.user.Name</title>
            <path fill="none" stroke="black"
                  d="M697.83,-192.17C692.59,-189.17 687.48,-185.77 683,-182 675.61,-175.77 668.9,-167.73 663.33,-159.97"/>
            <polygon fill="black" stroke="black" points="666.06,-157.76 657.55,-151.44 660.27,-161.68 666.06,-157.76"/>
        </g>
<!-- mrs.domain.model.user.User&#45;&gt;mrs.domain.model.user.Password -->
        <g id="edge17" class="edge">
            <title>mrs.domain.model.user.User&#45;&gt;mrs.domain.model.user.Password</title>
            <path fill="none" stroke="black" d="M735,-189.84C735,-181.34 735,-171.01 735,-161.5"/>
            <polygon fill="black" stroke="black" points="738.5,-161.25 735,-151.25 731.5,-161.25 738.5,-161.25"/>
        </g>
<!-- mrs.domain.model.user.User&#45;&gt;mrs.domain.model.user.RoleName -->
        <g id="edge18" class="edge">
            <title>mrs.domain.model.user.User&#45;&gt;mrs.domain.model.user.RoleName</title>
            <path fill="none" stroke="black"
                  d="M772.02,-191.48C777.22,-188.59 782.37,-185.41 787,-182 795.97,-175.39 804.72,-166.99 812.19,-159.01"/>
            <polygon fill="black" stroke="black" points="815.09,-161.02 819.2,-151.26 809.9,-156.33 815.09,-161.02"/>
        </g>
<!-- mrs.domain.model.user.User&#45;&gt;mrs.domain.model.user.UserId -->
        <g id="edge19" class="edge">
            <title>mrs.domain.model.user.User&#45;&gt;mrs.domain.model.user.UserId</title>
            <path fill="none" stroke="black"
                  d="M772.18,-202.49C812.18,-196.39 871.37,-186.78 881,-182 892.57,-176.25 903.42,-167.18 912.25,-158.4"/>
            <polygon fill="black" stroke="black" points="914.78,-160.82 919.17,-151.17 909.73,-155.98 914.78,-160.82"/>
        </g>
<!-- mrs.domain.type.date.CurrentDate -->
        <g id="node17" class="node">
            <title>mrs.domain.type.date.CurrentDate</title>
            <polygon fill="#eedd82" stroke="red" points="776.5,-379 693.5,-379 693.5,-341 776.5,-341 776.5,-379"/>
            <text text-anchor="middle" x="735" y="-363.8" font-family="Times,serif" font-size="14.00">現在日</text>
            <text text-anchor="middle" x="735" y="-348.8" font-family="Times,serif" font-size="14.00">CurrentDate</text>
        </g>
<!-- mrs.domain.type.date.Days -->
        <g id="node18" class="node">
            <title>mrs.domain.type.date.Days</title>
            <polygon fill="#eedd82" stroke="red" points="675,-379 621,-379 621,-341 675,-341 675,-379"/>
            <text text-anchor="middle" x="648" y="-363.8" font-family="Times,serif" font-size="14.00">日数</text>
            <text text-anchor="middle" x="648" y="-348.8" font-family="Times,serif" font-size="14.00">Days</text>
        </g>
</g>
</svg>
