<svg width="1131px" height="426px"
     viewBox="0.00 0.00 1131.00 426.00" xmlns="http://www.w3.org/2000/svg">
    <g id="graph0" class="graph" transform="scale(1.0 1.0) rotate(0) translate(4 422)">
        <title>ビジネスルール関連図</title>
        <polygon fill="white" stroke="transparent" points="-4,4 -4,-422 1127,-422 1127,4 -4,4"/>
        <text text-anchor="middle" x="561.5" y="-7.8" font-family="Times,serif" font-size="14.00">ビジネスルール関連図</text>
        <g id="clust1" class="cluster">
            <title>cluster_mrs.domain.model</title>
            <polygon fill="lemonchiffon" stroke="#eedd82" stroke-width="2"
                     points="8,-334 8,-409 129,-409 129,-334 8,-334"/>
            <text text-anchor="middle" x="68.5" y="-393.8" font-family="Times,serif" font-size="14.00">
                mrs.domain.model
            </text>
        </g>
        <g id="clust2" class="cluster">
            <title>cluster_mrs.domain.model.reservation</title>
            <polygon fill="lemonchiffon" stroke="#eedd82" stroke-width="2"
                     points="137,-31 137,-410 533,-410 533,-31 137,-31"/>
            <text text-anchor="middle" x="335" y="-394.8" font-family="Times,serif" font-size="14.00">reservation</text>
        </g>
        <g id="clust3" class="cluster">
            <title>cluster_mrs.domain.model.room</title>
            <polygon fill="lemonchiffon" stroke="#eedd82" stroke-width="2"
                     points="541,-31 541,-182 733,-182 733,-31 541,-31"/>
            <text text-anchor="middle" x="637" y="-166.8" font-family="Times,serif" font-size="14.00">room</text>
        </g>
        <g id="clust4" class="cluster">
            <title>cluster_mrs.domain.model.todo</title>
            <polygon fill="lemonchiffon" stroke="#eedd82" stroke-width="2"
                     points="693,-333 693,-410 783,-410 783,-333 693,-333"/>
            <text text-anchor="middle" x="738" y="-394.8" font-family="Times,serif" font-size="14.00">todo</text>
        </g>
        <g id="clust5" class="cluster">
            <title>cluster_mrs.domain.model.user</title>
            <polygon fill="lemonchiffon" stroke="#eedd82" stroke-width="2"
                     points="741,-105 741,-259 1115,-259 1115,-105 741,-105"/>
            <text text-anchor="middle" x="928" y="-243.8" font-family="Times,serif" font-size="14.00">user</text>
        </g>
        <g id="clust6" class="cluster">
            <title>cluster_mrs.domain.type.date</title>
            <polygon fill="lemonchiffon" stroke="#eedd82" stroke-width="2"
                     points="867,-333 867,-410 1039,-410 1039,-333 867,-333"/>
            <text text-anchor="middle" x="953" y="-394.8" font-family="Times,serif" font-size="14.00">date</text>
        </g>
<!-- mrs.domain.model.TestTable -->
        <g id="node1" class="node">
            <title>mrs.domain.model.TestTable</title>
            <polygon fill="#eedd82" stroke="red" points="103.5,-378 32.5,-378 32.5,-342 103.5,-342 103.5,-378"/>
            <text text-anchor="middle" x="68" y="-356.3" font-family="Times,serif" font-size="14.00">TestTable</text>
        </g>
<!-- mrs.domain.model.reservation.ReservableRoom -->
        <g id="node2" class="node">
            <title>mrs.domain.model.reservation.ReservableRoom</title>
            <polygon fill="#eedd82" stroke="black" points="525,-228 409,-228 409,-190 525,-190 525,-228"/>
            <text text-anchor="middle" x="467" y="-212.8" font-family="Times,serif" font-size="14.00">予約可能会議室</text>
            <text text-anchor="middle" x="467" y="-197.8" font-family="Times,serif" font-size="14.00">ReservableRoom
            </text>
        </g>
<!-- mrs.domain.model.reservation.ReservableRoomId -->
        <g id="node3" class="node">
            <title>mrs.domain.model.reservation.ReservableRoomId</title>
            <polygon fill="#eedd82" stroke="black" points="489.5,-151 358.5,-151 358.5,-113 489.5,-113 489.5,-151"/>
            <text text-anchor="middle" x="424" y="-135.8" font-family="Times,serif" font-size="14.00">予約可能会議室ID</text>
            <text text-anchor="middle" x="424" y="-120.8" font-family="Times,serif" font-size="14.00">ReservableRoomId
            </text>
        </g>
<!-- mrs.domain.model.reservation.ReservableRoom&#45;&gt;mrs.domain.model.reservation.ReservableRoomId -->
        <g id="edge4" class="edge">
            <title>mrs.domain.model.reservation.ReservableRoom&#45;&gt;mrs.domain.model.reservation.ReservableRoomId
            </title>
            <path fill="none" stroke="black" d="M456.59,-189.84C451.45,-180.88 445.15,-169.89 439.46,-159.97"/>
            <polygon fill="black" stroke="black" points="442.47,-158.18 434.46,-151.25 436.4,-161.66 442.47,-158.18"/>
        </g>
<!-- mrs.domain.model.room.MeetingRoom -->
        <g id="node10" class="node">
            <title>mrs.domain.model.room.MeetingRoom</title>
            <polygon fill="#eedd82" stroke="black" points="645,-151 549,-151 549,-113 645,-113 645,-151"/>
            <text text-anchor="middle" x="597" y="-135.8" font-family="Times,serif" font-size="14.00">会議室</text>
            <text text-anchor="middle" x="597" y="-120.8" font-family="Times,serif" font-size="14.00">MeetingRoom</text>
        </g>
<!-- mrs.domain.model.reservation.ReservableRoom&#45;&gt;mrs.domain.model.room.MeetingRoom -->
        <g id="edge5" class="edge">
            <title>mrs.domain.model.reservation.ReservableRoom&#45;&gt;mrs.domain.model.room.MeetingRoom</title>
            <path fill="none" stroke="black"
                  d="M521.32,-189.87C526.73,-187.46 532.05,-184.84 537,-182 548.79,-175.25 560.61,-166.2 570.61,-157.71"/>
            <polygon fill="black" stroke="black" points="572.97,-160.3 578.2,-151.08 568.37,-155.02 572.97,-160.3"/>
        </g>
<!-- mrs.domain.model.reservation.ReservedDate -->
        <g id="node8" class="node">
            <title>mrs.domain.model.reservation.ReservedDate</title>
            <polygon fill="#eedd82" stroke="black" points="369,-77 277,-77 277,-39 369,-39 369,-77"/>
            <text text-anchor="middle" x="323" y="-61.8" font-family="Times,serif" font-size="14.00">予約日</text>
            <text text-anchor="middle" x="323" y="-46.8" font-family="Times,serif" font-size="14.00">ReservedDate</text>
        </g>
<!-- mrs.domain.model.reservation.ReservableRoomId&#45;&gt;mrs.domain.model.reservation.ReservedDate -->
        <g id="edge6" class="edge">
            <title>mrs.domain.model.reservation.ReservableRoomId&#45;&gt;mrs.domain.model.reservation.ReservedDate
            </title>
            <path fill="none" stroke="black" d="M398.51,-112.83C385.83,-103.79 370.34,-92.75 356.69,-83.02"/>
            <polygon fill="black" stroke="black" points="358.65,-80.12 348.48,-77.16 354.59,-85.82 358.65,-80.12"/>
        </g>
<!-- mrs.domain.model.room.RoomId -->
        <g id="node11" class="node">
            <title>mrs.domain.model.room.RoomId</title>
            <polygon fill="#eedd82" stroke="black" points="623,-77 549,-77 549,-39 623,-39 623,-77"/>
            <text text-anchor="middle" x="586" y="-61.8" font-family="Times,serif" font-size="14.00">会議室ID</text>
            <text text-anchor="middle" x="586" y="-46.8" font-family="Times,serif" font-size="14.00">RoomId</text>
        </g>
<!-- mrs.domain.model.reservation.ReservableRoomId&#45;&gt;mrs.domain.model.room.RoomId -->
        <g id="edge7" class="edge">
            <title>mrs.domain.model.reservation.ReservableRoomId&#45;&gt;mrs.domain.model.room.RoomId</title>
            <path fill="none" stroke="black" d="M464.88,-112.83C487.53,-102.76 515.79,-90.2 539.31,-79.75"/>
            <polygon fill="black" stroke="black" points="541.02,-82.82 548.74,-75.56 538.18,-76.42 541.02,-82.82"/>
        </g>
<!-- mrs.domain.model.reservation.ReservableRooms -->
        <g id="node4" class="node">
            <title>mrs.domain.model.reservation.ReservableRooms</title>
            <polygon fill="#eedd82" stroke="black" points="524.5,-305 379.5,-305 379.5,-267 524.5,-267 524.5,-305"/>
            <text text-anchor="middle" x="452" y="-289.8" font-family="Times,serif" font-size="14.00">予約可能会議室一覧</text>
            <text text-anchor="middle" x="452" y="-274.8" font-family="Times,serif" font-size="14.00">ReservableRooms
            </text>
        </g>
<!-- mrs.domain.model.reservation.ReservableRooms&#45;&gt;mrs.domain.model.reservation.ReservableRoom -->
        <g id="edge3" class="edge">
            <title>mrs.domain.model.reservation.ReservableRooms&#45;&gt;mrs.domain.model.reservation.ReservableRoom
            </title>
            <path fill="none" stroke="black" d="M455.63,-266.84C457.35,-258.25 459.44,-247.79 461.36,-238.19"/>
            <polygon fill="black" stroke="black" points="464.82,-238.74 463.35,-228.25 457.96,-237.37 464.82,-238.74"/>
        </g>
<!-- mrs.domain.model.reservation.Reservation -->
        <g id="node5" class="node">
            <title>mrs.domain.model.reservation.Reservation</title>
            <polygon fill="#eedd82" stroke="black" points="361.5,-305 280.5,-305 280.5,-267 361.5,-267 361.5,-305"/>
            <text text-anchor="middle" x="321" y="-289.8" font-family="Times,serif" font-size="14.00">予約</text>
            <text text-anchor="middle" x="321" y="-274.8" font-family="Times,serif" font-size="14.00">Reservation</text>
        </g>
<!-- mrs.domain.model.reservation.Reservation&#45;&gt;mrs.domain.model.reservation.ReservableRoom -->
        <g id="edge8" class="edge">
            <title>mrs.domain.model.reservation.Reservation&#45;&gt;mrs.domain.model.reservation.ReservableRoom</title>
            <path fill="none" stroke="black"
                  d="M361.59,-269.94C364.43,-268.93 367.26,-267.94 370,-267 381.03,-263.21 384.51,-264.11 395,-259 409.13,-252.11 423.67,-242.73 435.94,-234.02"/>
            <polygon fill="black" stroke="black" points="438.01,-236.85 444.05,-228.14 433.9,-231.18 438.01,-236.85"/>
        </g>
<!-- mrs.domain.model.reservation.Reservation&#45;&gt;mrs.domain.model.reservation.ReservableRoomId -->
        <g id="edge9" class="edge">
            <title>mrs.domain.model.reservation.Reservation&#45;&gt;mrs.domain.model.reservation.ReservableRoomId
            </title>
            <path fill="none" stroke="black"
                  d="M361.53,-270.08C369.84,-266.36 376.98,-262.45 380,-259 401.03,-234.97 389.34,-220.1 400,-190 403.48,-180.16 407.78,-169.57 411.78,-160.22"/>
            <polygon fill="black" stroke="black" points="415,-161.58 415.78,-151.01 408.58,-158.79 415,-161.58"/>
        </g>
<!-- mrs.domain.model.reservation.ReservationId -->
        <g id="node6" class="node">
            <title>mrs.domain.model.reservation.ReservationId</title>
            <polygon fill="#eedd82" stroke="black" points="237,-228 145,-228 145,-190 237,-190 237,-228"/>
            <text text-anchor="middle" x="191" y="-212.8" font-family="Times,serif" font-size="14.00">予約ID</text>
            <text text-anchor="middle" x="191" y="-197.8" font-family="Times,serif" font-size="14.00">ReservationId
            </text>
        </g>
<!-- mrs.domain.model.reservation.Reservation&#45;&gt;mrs.domain.model.reservation.ReservationId -->
        <g id="edge10" class="edge">
            <title>mrs.domain.model.reservation.Reservation&#45;&gt;mrs.domain.model.reservation.ReservationId</title>
            <path fill="none" stroke="black"
                  d="M280.36,-272.48C270.47,-268.74 260.11,-264.22 251,-259 239.21,-252.25 227.39,-243.2 217.39,-234.71"/>
            <polygon fill="black" stroke="black" points="219.63,-232.02 209.8,-228.08 215.03,-237.3 219.63,-232.02"/>
        </g>
<!-- mrs.domain.model.reservation.Reservation&#45;&gt;mrs.domain.model.reservation.ReservedDate -->
        <g id="edge11" class="edge">
            <title>mrs.domain.model.reservation.Reservation&#45;&gt;mrs.domain.model.reservation.ReservedDate</title>
            <path fill="none" stroke="black"
                  d="M280.42,-272.53C274.7,-269.05 269.56,-264.62 266,-259 249.59,-233.09 259.75,-220.02 266,-190 273.88,-152.15 293.29,-111.83 307.27,-86.08"/>
            <polygon fill="black" stroke="black" points="310.36,-87.73 312.15,-77.28 304.24,-84.33 310.36,-87.73"/>
        </g>
<!-- mrs.domain.model.reservation.ReservedTime -->
        <g id="node9" class="node">
            <title>mrs.domain.model.reservation.ReservedTime</title>
            <polygon fill="#eedd82" stroke="black" points="371,-228 275,-228 275,-190 371,-190 371,-228"/>
            <text text-anchor="middle" x="323" y="-212.8" font-family="Times,serif" font-size="14.00">予約時間</text>
            <text text-anchor="middle" x="323" y="-197.8" font-family="Times,serif" font-size="14.00">ReservedTime
            </text>
        </g>
<!-- mrs.domain.model.reservation.Reservation&#45;&gt;mrs.domain.model.reservation.ReservedTime -->
        <g id="edge12" class="edge">
            <title>mrs.domain.model.reservation.Reservation&#45;&gt;mrs.domain.model.reservation.ReservedTime</title>
            <path fill="none" stroke="black" d="M321.48,-266.84C321.71,-258.34 321.99,-248.01 322.24,-238.5"/>
            <polygon fill="black" stroke="black" points="325.75,-238.34 322.51,-228.25 318.75,-238.15 325.75,-238.34"/>
        </g>
<!-- mrs.domain.model.user.User -->
        <g id="node17" class="node">
            <title>mrs.domain.model.user.User</title>
            <polygon fill="#eedd82" stroke="black" points="901,-228 827,-228 827,-190 901,-190 901,-228"/>
            <text text-anchor="middle" x="864" y="-212.8" font-family="Times,serif" font-size="14.00">ユーザー</text>
            <text text-anchor="middle" x="864" y="-197.8" font-family="Times,serif" font-size="14.00">User</text>
        </g>
<!-- mrs.domain.model.reservation.Reservation&#45;&gt;mrs.domain.model.user.User -->
        <g id="edge13" class="edge">
            <title>mrs.domain.model.reservation.Reservation&#45;&gt;mrs.domain.model.user.User</title>
            <path fill="none" stroke="black"
                  d="M361.64,-269.02C364.44,-268.24 367.25,-267.56 370,-267 442.83,-252.24 463.05,-266.29 537,-259 637.11,-249.13 753.4,-229.81 816.8,-218.6"/>
            <polygon fill="black" stroke="black" points="817.65,-222.01 826.88,-216.81 816.42,-215.12 817.65,-222.01"/>
        </g>
<!-- mrs.domain.model.user.UserId -->
        <g id="node18" class="node">
            <title>mrs.domain.model.user.UserId</title>
            <polygon fill="#eedd82" stroke="black" points="1107,-151 1019,-151 1019,-113 1107,-113 1107,-151"/>
            <text text-anchor="middle" x="1063" y="-135.8" font-family="Times,serif" font-size="14.00">ユーザーID</text>
            <text text-anchor="middle" x="1063" y="-120.8" font-family="Times,serif" font-size="14.00">UserId</text>
        </g>
<!-- mrs.domain.model.reservation.Reservation&#45;&gt;mrs.domain.model.user.UserId -->
        <g id="edge14" class="edge">
            <title>mrs.domain.model.reservation.Reservation&#45;&gt;mrs.domain.model.user.UserId</title>
            <path fill="none" stroke="black"
                  d="M361.62,-268.92C364.43,-268.16 367.24,-267.51 370,-267 399.5,-261.53 881.67,-268.88 910,-259 965.48,-239.66 1015.01,-190.07 1041.85,-159.18"/>
            <polygon fill="black" stroke="black"
                     points="1044.67,-161.27 1048.49,-151.38 1039.34,-156.73 1044.67,-161.27"/>
        </g>
<!-- mrs.domain.model.reservation.Reservations -->
        <g id="node7" class="node">
            <title>mrs.domain.model.reservation.Reservations</title>
            <polygon fill="#eedd82" stroke="black" points="364,-379 278,-379 278,-341 364,-341 364,-379"/>
            <text text-anchor="middle" x="321" y="-363.8" font-family="Times,serif" font-size="14.00">予約一覧</text>
            <text text-anchor="middle" x="321" y="-348.8" font-family="Times,serif" font-size="14.00">Reservations
            </text>
        </g>
<!-- mrs.domain.model.reservation.Reservations&#45;&gt;mrs.domain.model.reservation.Reservation -->
        <g id="edge15" class="edge">
            <title>mrs.domain.model.reservation.Reservations&#45;&gt;mrs.domain.model.reservation.Reservation</title>
            <path fill="none" stroke="black" d="M321,-340.83C321,-333.13 321,-323.97 321,-315.42"/>
            <polygon fill="black" stroke="black" points="324.5,-315.41 321,-305.41 317.5,-315.41 324.5,-315.41"/>
        </g>
<!-- mrs.domain.model.room.MeetingRoom&#45;&gt;mrs.domain.model.room.RoomId -->
        <g id="edge1" class="edge">
            <title>mrs.domain.model.room.MeetingRoom&#45;&gt;mrs.domain.model.room.RoomId</title>
            <path fill="none" stroke="black" d="M594.22,-112.83C593.05,-105.13 591.65,-95.97 590.34,-87.42"/>
            <polygon fill="black" stroke="black" points="593.78,-86.77 588.81,-77.41 586.86,-87.83 593.78,-86.77"/>
        </g>
<!-- mrs.domain.model.room.RoomName -->
        <g id="node12" class="node">
            <title>mrs.domain.model.room.RoomName</title>
            <polygon fill="#eedd82" stroke="black" points="724.5,-77 641.5,-77 641.5,-39 724.5,-39 724.5,-77"/>
            <text text-anchor="middle" x="683" y="-61.8" font-family="Times,serif" font-size="14.00">会議室名</text>
            <text text-anchor="middle" x="683" y="-46.8" font-family="Times,serif" font-size="14.00">RoomName</text>
        </g>
<!-- mrs.domain.model.room.MeetingRoom&#45;&gt;mrs.domain.model.room.RoomName -->
        <g id="edge2" class="edge">
            <title>mrs.domain.model.room.MeetingRoom&#45;&gt;mrs.domain.model.room.RoomName</title>
            <path fill="none" stroke="black" d="M618.7,-112.83C629.19,-104.05 641.95,-93.37 653.32,-83.85"/>
            <polygon fill="black" stroke="black" points="655.88,-86.27 661.31,-77.16 651.39,-80.9 655.88,-86.27"/>
        </g>
<!-- mrs.domain.model.todo.Todo -->
        <g id="node13" class="node">
            <title>mrs.domain.model.todo.Todo</title>
            <polygon fill="#eedd82" stroke="red" points="775,-379 701,-379 701,-341 775,-341 775,-379"/>
            <text text-anchor="middle" x="738" y="-363.8" font-family="Times,serif" font-size="14.00">やること</text>
            <text text-anchor="middle" x="738" y="-348.8" font-family="Times,serif" font-size="14.00">Todo</text>
        </g>
<!-- mrs.domain.model.user.Name -->
        <g id="node14" class="node">
            <title>mrs.domain.model.user.Name</title>
            <polygon fill="#eedd82" stroke="black" points="803,-151 749,-151 749,-113 803,-113 803,-151"/>
            <text text-anchor="middle" x="776" y="-135.8" font-family="Times,serif" font-size="14.00">氏名</text>
            <text text-anchor="middle" x="776" y="-120.8" font-family="Times,serif" font-size="14.00">Name</text>
        </g>
<!-- mrs.domain.model.user.Password -->
        <g id="node15" class="node">
            <title>mrs.domain.model.user.Password</title>
            <polygon fill="#eedd82" stroke="black" points="907,-151 821,-151 821,-113 907,-113 907,-151"/>
            <text text-anchor="middle" x="864" y="-135.8" font-family="Times,serif" font-size="14.00">パスワード</text>
            <text text-anchor="middle" x="864" y="-120.8" font-family="Times,serif" font-size="14.00">Password</text>
        </g>
<!-- mrs.domain.model.user.RoleName -->
        <g id="node16" class="node">
            <title>mrs.domain.model.user.RoleName</title>
            <polygon fill="#eedd82" stroke="black" points="1000.5,-151 925.5,-151 925.5,-113 1000.5,-113 1000.5,-151"/>
            <text text-anchor="middle" x="963" y="-135.8" font-family="Times,serif" font-size="14.00">役割</text>
            <text text-anchor="middle" x="963" y="-120.8" font-family="Times,serif" font-size="14.00">RoleName</text>
        </g>
<!-- mrs.domain.model.user.User&#45;&gt;mrs.domain.model.user.Name -->
        <g id="edge16" class="edge">
            <title>mrs.domain.model.user.User&#45;&gt;mrs.domain.model.user.Name</title>
            <path fill="none" stroke="black"
                  d="M826.83,-192.17C821.59,-189.17 816.48,-185.77 812,-182 804.61,-175.77 797.9,-167.73 792.33,-159.97"/>
            <polygon fill="black" stroke="black" points="795.06,-157.76 786.55,-151.44 789.27,-161.68 795.06,-157.76"/>
        </g>
<!-- mrs.domain.model.user.User&#45;&gt;mrs.domain.model.user.Password -->
        <g id="edge17" class="edge">
            <title>mrs.domain.model.user.User&#45;&gt;mrs.domain.model.user.Password</title>
            <path fill="none" stroke="black" d="M864,-189.84C864,-181.34 864,-171.01 864,-161.5"/>
            <polygon fill="black" stroke="black" points="867.5,-161.25 864,-151.25 860.5,-161.25 867.5,-161.25"/>
        </g>
<!-- mrs.domain.model.user.User&#45;&gt;mrs.domain.model.user.RoleName -->
        <g id="edge18" class="edge">
            <title>mrs.domain.model.user.User&#45;&gt;mrs.domain.model.user.RoleName</title>
            <path fill="none" stroke="black"
                  d="M901.02,-191.48C906.22,-188.59 911.37,-185.41 916,-182 924.97,-175.39 933.72,-166.99 941.19,-159.01"/>
            <polygon fill="black" stroke="black" points="944.09,-161.02 948.2,-151.26 938.9,-156.33 944.09,-161.02"/>
        </g>
<!-- mrs.domain.model.user.User&#45;&gt;mrs.domain.model.user.UserId -->
        <g id="edge19" class="edge">
            <title>mrs.domain.model.user.User&#45;&gt;mrs.domain.model.user.UserId</title>
            <path fill="none" stroke="black"
                  d="M901.18,-202.49C941.18,-196.39 1000.37,-186.78 1010,-182 1021.57,-176.25 1032.42,-167.18 1041.25,-158.4"/>
            <polygon fill="black" stroke="black"
                     points="1043.78,-160.82 1048.17,-151.17 1038.73,-155.98 1043.78,-160.82"/>
        </g>
<!-- mrs.domain.type.date.CurrentDate -->
        <g id="node19" class="node">
            <title>mrs.domain.type.date.CurrentDate</title>
            <polygon fill="#eedd82" stroke="red" points="1030.5,-379 947.5,-379 947.5,-341 1030.5,-341 1030.5,-379"/>
            <text text-anchor="middle" x="989" y="-363.8" font-family="Times,serif" font-size="14.00">現在日</text>
            <text text-anchor="middle" x="989" y="-348.8" font-family="Times,serif" font-size="14.00">CurrentDate</text>
        </g>
<!-- mrs.domain.type.date.Days -->
        <g id="node20" class="node">
            <title>mrs.domain.type.date.Days</title>
            <polygon fill="#eedd82" stroke="red" points="929,-379 875,-379 875,-341 929,-341 929,-379"/>
            <text text-anchor="middle" x="902" y="-363.8" font-family="Times,serif" font-size="14.00">日数</text>
            <text text-anchor="middle" x="902" y="-348.8" font-family="Times,serif" font-size="14.00">Days</text>
        </g>
</g>
</svg>
