<svg width="970px" height="426px"
 viewBox="0.00 0.00 970.00 426.00" xmlns="http://www.w3.org/2000/svg" xmlns:xlink="http://www.w3.org/1999/xlink">
<g id="graph0" class="graph" transform="scale(1.0 1.0) rotate(0) translate(4 422)">
<title>ビジネスルール関連図</title>
<polygon fill="white" stroke="none" points="-4,4 -4,-422 966,-422 966,4 -4,4"/>
<text text-anchor="middle" x="481" y="-7.8" font-family="Times New Roman,serif" font-size="14.00">ビジネスルール関連図</text>
<g id="clust1" class="cluster"><title>cluster_mrs.domain.model.reservation</title>
<polygon fill="lemonchiffon" stroke="#eedd82" stroke-width="2" points="8,-31 8,-410 388,-410 388,-31 8,-31"/>
<text text-anchor="middle" x="198" y="-394.8" font-family="Times New Roman,serif" font-size="14.00">reservation</text>
</g>
<g id="clust3" class="cluster"><title>cluster_mrs.domain.model.user</title>
<polygon fill="lemonchiffon" stroke="#eedd82" stroke-width="2" points="592,-105 592,-259 954,-259 954,-105 592,-105"/>
<text text-anchor="middle" x="773" y="-243.8" font-family="Times New Roman,serif" font-size="14.00">user</text>
</g>
<g id="clust2" class="cluster"><title>cluster_mrs.domain.model.room</title>
<polygon fill="lemonchiffon" stroke="#eedd82" stroke-width="2" points="396,-31 396,-182 584,-182 584,-31 396,-31"/>
<text text-anchor="middle" x="490" y="-166.8" font-family="Times New Roman,serif" font-size="14.00">room</text>
</g>
<g id="clust4" class="cluster"><title>cluster_mrs.domain.type.date</title>
<polygon fill="lemonchiffon" stroke="#eedd82" stroke-width="2" points="589,-333 589,-410 761,-410 761,-333 589,-333"/>
<text text-anchor="middle" x="675" y="-394.8" font-family="Times New Roman,serif" font-size="14.00">date</text>
</g>
<!-- mrs.domain.model.reservation.ReservableRoom -->
<g id="node1" class="node"><title>mrs.domain.model.reservation.ReservableRoom</title>
<polygon fill="#eedd82" stroke="black" points="379.5,-228 266.5,-228 266.5,-190 379.5,-190 379.5,-228"/>
<text text-anchor="middle" x="323" y="-212.8" font-family="Times New Roman,serif" font-size="14.00">予約可能会議室</text>
<text text-anchor="middle" x="323" y="-197.8" font-family="Times New Roman,serif" font-size="14.00">ReservableRoom</text>
</g>
<!-- mrs.domain.model.reservation.ReservableRoomId -->
<g id="node2" class="node"><title>mrs.domain.model.reservation.ReservableRoomId</title>
<polygon fill="#eedd82" stroke="black" points="379.5,-151 254.5,-151 254.5,-113 379.5,-113 379.5,-151"/>
<text text-anchor="middle" x="317" y="-135.8" font-family="Times New Roman,serif" font-size="14.00">予約可能会議室ID</text>
<text text-anchor="middle" x="317" y="-120.8" font-family="Times New Roman,serif" font-size="14.00">ReservableRoomId</text>
</g>
<!-- mrs.domain.model.reservation.ReservableRoom&#45;&gt;mrs.domain.model.reservation.ReservableRoomId -->
<g id="edge1" class="edge"><title>mrs.domain.model.reservation.ReservableRoom&#45;&gt;mrs.domain.model.reservation.ReservableRoomId</title>
<path fill="none" stroke="black" d="M321.548,-189.845C320.867,-181.34 320.041,-171.008 319.28,-161.496"/>
<polygon fill="black" stroke="black" points="322.746,-160.937 318.46,-151.248 315.769,-161.495 322.746,-160.937"/>
</g>
<!-- mrs.domain.model.room.MeetingRoom -->
<g id="node9" class="node"><title>mrs.domain.model.room.MeetingRoom</title>
<polygon fill="#eedd82" stroke="black" points="500,-151 404,-151 404,-113 500,-113 500,-151"/>
<text text-anchor="middle" x="452" y="-135.8" font-family="Times New Roman,serif" font-size="14.00">会議室</text>
<text text-anchor="middle" x="452" y="-120.8" font-family="Times New Roman,serif" font-size="14.00">MeetingRoom</text>
</g>
<!-- mrs.domain.model.reservation.ReservableRoom&#45;&gt;mrs.domain.model.room.MeetingRoom -->
<g id="edge2" class="edge"><title>mrs.domain.model.reservation.ReservableRoom&#45;&gt;mrs.domain.model.room.MeetingRoom</title>
<path fill="none" stroke="black" d="M376.18,-189.988C381.639,-187.543 387.008,-184.875 392,-182 403.77,-175.22 415.593,-166.163 425.593,-157.681"/>
<polygon fill="black" stroke="black" points="427.953,-160.267 433.188,-151.056 423.351,-154.992 427.953,-160.267"/>
</g>
<!-- mrs.domain.model.reservation.ReservedDate -->
<g id="node7" class="node"><title>mrs.domain.model.reservation.ReservedDate</title>
<polygon fill="#eedd82" stroke="black" points="364.5,-77 269.5,-77 269.5,-39 364.5,-39 364.5,-77"/>
<text text-anchor="middle" x="317" y="-61.8" font-family="Times New Roman,serif" font-size="14.00">予約日</text>
<text text-anchor="middle" x="317" y="-46.8" font-family="Times New Roman,serif" font-size="14.00">ReservedDate</text>
</g>
<!-- mrs.domain.model.reservation.ReservableRoomId&#45;&gt;mrs.domain.model.reservation.ReservedDate -->
<g id="edge3" class="edge"><title>mrs.domain.model.reservation.ReservableRoomId&#45;&gt;mrs.domain.model.reservation.ReservedDate</title>
<path fill="none" stroke="black" d="M317,-112.831C317,-105.131 317,-95.9743 317,-87.4166"/>
<polygon fill="black" stroke="black" points="320.5,-87.4132 317,-77.4133 313.5,-87.4133 320.5,-87.4132"/>
</g>
<!-- mrs.domain.model.room.RoomId -->
<g id="node10" class="node"><title>mrs.domain.model.room.RoomId</title>
<polygon fill="#eedd82" stroke="black" points="473.5,-77 404.5,-77 404.5,-39 473.5,-39 473.5,-77"/>
<text text-anchor="middle" x="439" y="-61.8" font-family="Times New Roman,serif" font-size="14.00">会議室ID</text>
<text text-anchor="middle" x="439" y="-46.8" font-family="Times New Roman,serif" font-size="14.00">RoomId</text>
</g>
<!-- mrs.domain.model.reservation.ReservableRoomId&#45;&gt;mrs.domain.model.room.RoomId -->
<g id="edge4" class="edge"><title>mrs.domain.model.reservation.ReservableRoomId&#45;&gt;mrs.domain.model.room.RoomId</title>
<path fill="none" stroke="black" d="M347.786,-112.831C363.39,-103.622 382.524,-92.3301 399.23,-82.4706"/>
<polygon fill="black" stroke="black" points="401.391,-85.2596 408.224,-77.1628 397.833,-79.2312 401.391,-85.2596"/>
</g>
<!-- mrs.domain.model.reservation.ReservableRooms -->
<g id="node3" class="node"><title>mrs.domain.model.reservation.ReservableRooms</title>
<polygon fill="#eedd82" stroke="black" points="379.5,-305 248.5,-305 248.5,-267 379.5,-267 379.5,-305"/>
<text text-anchor="middle" x="314" y="-289.8" font-family="Times New Roman,serif" font-size="14.00">予約可能会議室集合</text>
<text text-anchor="middle" x="314" y="-274.8" font-family="Times New Roman,serif" font-size="14.00">ReservableRooms</text>
</g>
<!-- mrs.domain.model.reservation.ReservableRooms&#45;&gt;mrs.domain.model.reservation.ReservableRoom -->
<g id="edge5" class="edge"><title>mrs.domain.model.reservation.ReservableRooms&#45;&gt;mrs.domain.model.reservation.ReservableRoom</title>
<path fill="none" stroke="black" d="M316.179,-266.845C317.21,-258.249 318.466,-247.785 319.617,-238.19"/>
<polygon fill="black" stroke="black" points="323.094,-238.594 320.81,-228.248 316.144,-237.76 323.094,-238.594"/>
</g>
<!-- mrs.domain.model.reservation.Reservation -->
<g id="node4" class="node"><title>mrs.domain.model.reservation.Reservation</title>
<polygon fill="#eedd82" stroke="black" points="230.5,-305 147.5,-305 147.5,-267 230.5,-267 230.5,-305"/>
<text text-anchor="middle" x="189" y="-289.8" font-family="Times New Roman,serif" font-size="14.00">予約</text>
<text text-anchor="middle" x="189" y="-274.8" font-family="Times New Roman,serif" font-size="14.00">Reservation</text>
</g>
<!-- mrs.domain.model.reservation.Reservation&#45;&gt;mrs.domain.model.reservation.ReservableRoom -->
<g id="edge6" class="edge"><title>mrs.domain.model.reservation.Reservation&#45;&gt;mrs.domain.model.reservation.ReservableRoom</title>
<path fill="none" stroke="black" d="M230.69,-270.104C241.687,-265.942 251.903,-261.797 257,-259 269.661,-252.052 282.627,-242.939 293.677,-234.459"/>
<polygon fill="black" stroke="black" points="296.014,-237.074 301.717,-228.145 291.691,-231.569 296.014,-237.074"/>
</g>
<!-- mrs.domain.model.reservation.Reservation&#45;&gt;mrs.domain.model.reservation.ReservableRoomId -->
<g id="edge7" class="edge"><title>mrs.domain.model.reservation.Reservation&#45;&gt;mrs.domain.model.reservation.ReservableRoomId</title>
<path fill="none" stroke="black" d="M147.141,-284.227C104.375,-282.448 42.1513,-276.777 27,-259 7.10759,-235.66 7.51836,-213.684 27,-190 53.9841,-157.196 167.365,-142.982 244.103,-137.033"/>
<polygon fill="black" stroke="black" points="244.494,-140.513 254.206,-136.281 243.974,-133.533 244.494,-140.513"/>
</g>
<!-- mrs.domain.model.reservation.ReservationId -->
<g id="node5" class="node"><title>mrs.domain.model.reservation.ReservationId</title>
<polygon fill="#eedd82" stroke="black" points="131.5,-228 36.5,-228 36.5,-190 131.5,-190 131.5,-228"/>
<text text-anchor="middle" x="84" y="-212.8" font-family="Times New Roman,serif" font-size="14.00">予約ID</text>
<text text-anchor="middle" x="84" y="-197.8" font-family="Times New Roman,serif" font-size="14.00">ReservationId</text>
</g>
<!-- mrs.domain.model.reservation.Reservation&#45;&gt;mrs.domain.model.reservation.ReservationId -->
<g id="edge8" class="edge"><title>mrs.domain.model.reservation.Reservation&#45;&gt;mrs.domain.model.reservation.ReservationId</title>
<path fill="none" stroke="black" d="M153.613,-266.96C149.28,-264.424 144.98,-261.742 141,-259 130.61,-251.842 119.939,-243.103 110.68,-234.996"/>
<polygon fill="black" stroke="black" points="112.739,-232.143 102.949,-228.091 108.076,-237.363 112.739,-232.143"/>
</g>
<!-- mrs.domain.model.reservation.ReservedTime -->
<g id="node8" class="node"><title>mrs.domain.model.reservation.ReservedTime</title>
<polygon fill="#eedd82" stroke="black" points="248,-228 150,-228 150,-190 248,-190 248,-228"/>
<text text-anchor="middle" x="199" y="-212.8" font-family="Times New Roman,serif" font-size="14.00">予約時間</text>
<text text-anchor="middle" x="199" y="-197.8" font-family="Times New Roman,serif" font-size="14.00">ReservedTime</text>
</g>
<!-- mrs.domain.model.reservation.Reservation&#45;&gt;mrs.domain.model.reservation.ReservedTime -->
<g id="edge9" class="edge"><title>mrs.domain.model.reservation.Reservation&#45;&gt;mrs.domain.model.reservation.ReservedTime</title>
<path fill="none" stroke="black" d="M191.421,-266.845C192.567,-258.249 193.962,-247.785 195.241,-238.19"/>
<polygon fill="black" stroke="black" points="198.714,-238.623 196.567,-228.248 191.776,-237.698 198.714,-238.623"/>
</g>
<!-- mrs.domain.model.user.User -->
<g id="node15" class="node"><title>mrs.domain.model.user.User</title>
<polygon fill="#eedd82" stroke="black" points="746,-228 678,-228 678,-190 746,-190 746,-228"/>
<text text-anchor="middle" x="712" y="-212.8" font-family="Times New Roman,serif" font-size="14.00">ユーザー</text>
<text text-anchor="middle" x="712" y="-197.8" font-family="Times New Roman,serif" font-size="14.00">User</text>
</g>
<!-- mrs.domain.model.reservation.Reservation&#45;&gt;mrs.domain.model.user.User -->
<g id="edge10" class="edge"><title>mrs.domain.model.reservation.Reservation&#45;&gt;mrs.domain.model.user.User</title>
<path fill="none" stroke="black" d="M230.757,-268.962C233.523,-268.213 236.287,-267.547 239,-267 305.75,-253.546 324.262,-265.94 392,-259 490.835,-248.875 605.757,-229.369 667.423,-218.265"/>
<polygon fill="black" stroke="black" points="668.361,-221.652 677.577,-216.426 667.113,-214.764 668.361,-221.652"/>
</g>
<!-- mrs.domain.model.reservation.Reservations -->
<g id="node6" class="node"><title>mrs.domain.model.reservation.Reservations</title>
<polygon fill="#eedd82" stroke="black" points="233.5,-379 144.5,-379 144.5,-341 233.5,-341 233.5,-379"/>
<text text-anchor="middle" x="189" y="-363.8" font-family="Times New Roman,serif" font-size="14.00">予約集合</text>
<text text-anchor="middle" x="189" y="-348.8" font-family="Times New Roman,serif" font-size="14.00">Reservations</text>
</g>
<!-- mrs.domain.model.reservation.Reservations&#45;&gt;mrs.domain.model.reservation.Reservation -->
<g id="edge11" class="edge"><title>mrs.domain.model.reservation.Reservations&#45;&gt;mrs.domain.model.reservation.Reservation</title>
<path fill="none" stroke="black" d="M189,-340.831C189,-333.131 189,-323.974 189,-315.417"/>
<polygon fill="black" stroke="black" points="192.5,-315.413 189,-305.413 185.5,-315.413 192.5,-315.413"/>
</g>
<!-- mrs.domain.model.room.MeetingRoom&#45;&gt;mrs.domain.model.room.RoomId -->
<g id="edge12" class="edge"><title>mrs.domain.model.room.MeetingRoom&#45;&gt;mrs.domain.model.room.RoomId</title>
<path fill="none" stroke="black" d="M448.72,-112.831C447.329,-105.131 445.676,-95.9743 444.131,-87.4166"/>
<polygon fill="black" stroke="black" points="447.546,-86.6322 442.325,-77.4133 440.657,-87.8761 447.546,-86.6322"/>
</g>
<!-- mrs.domain.model.room.RoomName -->
<g id="node11" class="node"><title>mrs.domain.model.room.RoomName</title>
<polygon fill="#eedd82" stroke="black" points="576,-77 492,-77 492,-39 576,-39 576,-77"/>
<text text-anchor="middle" x="534" y="-61.8" font-family="Times New Roman,serif" font-size="14.00">会議室名</text>
<text text-anchor="middle" x="534" y="-46.8" font-family="Times New Roman,serif" font-size="14.00">RoomName</text>
</g>
<!-- mrs.domain.model.room.MeetingRoom&#45;&gt;mrs.domain.model.room.RoomName -->
<g id="edge13" class="edge"><title>mrs.domain.model.room.MeetingRoom&#45;&gt;mrs.domain.model.room.RoomName</title>
<path fill="none" stroke="black" d="M472.692,-112.831C482.695,-104.048 494.855,-93.3712 505.7,-83.8489"/>
<polygon fill="black" stroke="black" points="508.109,-86.3909 513.315,-77.1628 503.491,-81.1308 508.109,-86.3909"/>
</g>
<!-- mrs.domain.model.user.Name -->
<g id="node12" class="node"><title>mrs.domain.model.user.Name</title>
<polygon fill="#eedd82" stroke="black" points="654,-151 600,-151 600,-113 654,-113 654,-151"/>
<text text-anchor="middle" x="627" y="-135.8" font-family="Times New Roman,serif" font-size="14.00">氏名</text>
<text text-anchor="middle" x="627" y="-120.8" font-family="Times New Roman,serif" font-size="14.00">Name</text>
</g>
<!-- mrs.domain.model.user.Password -->
<g id="node13" class="node"><title>mrs.domain.model.user.Password</title>
<polygon fill="#eedd82" stroke="black" points="752,-151 672,-151 672,-113 752,-113 752,-151"/>
<text text-anchor="middle" x="712" y="-135.8" font-family="Times New Roman,serif" font-size="14.00">パスワード</text>
<text text-anchor="middle" x="712" y="-120.8" font-family="Times New Roman,serif" font-size="14.00">Password</text>
</g>
<!-- mrs.domain.model.user.RoleName -->
<g id="node14" class="node"><title>mrs.domain.model.user.RoleName</title>
<polygon fill="#eedd82" stroke="black" points="845.5,-151 770.5,-151 770.5,-113 845.5,-113 845.5,-151"/>
<text text-anchor="middle" x="808" y="-135.8" font-family="Times New Roman,serif" font-size="14.00">役割</text>
<text text-anchor="middle" x="808" y="-120.8" font-family="Times New Roman,serif" font-size="14.00">RoleName</text>
</g>
<!-- mrs.domain.model.user.User&#45;&gt;mrs.domain.model.user.Name -->
<g id="edge14" class="edge"><title>mrs.domain.model.user.User&#45;&gt;mrs.domain.model.user.Name</title>
<path fill="none" stroke="black" d="M677.758,-192.41C672.554,-189.327 667.445,-185.84 663,-182 655.687,-175.683 649.001,-167.617 643.428,-159.862"/>
<polygon fill="black" stroke="black" points="646.154,-157.647 637.635,-151.348 640.367,-161.584 646.154,-157.647"/>
</g>
<!-- mrs.domain.model.user.User&#45;&gt;mrs.domain.model.user.Password -->
<g id="edge15" class="edge"><title>mrs.domain.model.user.User&#45;&gt;mrs.domain.model.user.Password</title>
<path fill="none" stroke="black" d="M712,-189.845C712,-181.34 712,-171.008 712,-161.496"/>
<polygon fill="black" stroke="black" points="715.5,-161.248 712,-151.248 708.5,-161.248 715.5,-161.248"/>
</g>
<!-- mrs.domain.model.user.User&#45;&gt;mrs.domain.model.user.RoleName -->
<g id="edge16" class="edge"><title>mrs.domain.model.user.User&#45;&gt;mrs.domain.model.user.RoleName</title>
<path fill="none" stroke="black" d="M746.079,-191.741C751.249,-188.762 756.39,-185.483 761,-182 769.888,-175.285 778.618,-166.851 786.097,-158.881"/>
<polygon fill="black" stroke="black" points="788.987,-160.904 793.117,-151.148 783.804,-156.199 788.987,-160.904"/>
</g>
<!-- mrs.domain.model.user.UserId -->
<g id="node16" class="node"><title>mrs.domain.model.user.UserId</title>
<polygon fill="#eedd82" stroke="black" points="946,-151 864,-151 864,-113 946,-113 946,-151"/>
<text text-anchor="middle" x="905" y="-135.8" font-family="Times New Roman,serif" font-size="14.00">ユーザーID</text>
<text text-anchor="middle" x="905" y="-120.8" font-family="Times New Roman,serif" font-size="14.00">UserId</text>
</g>
<!-- mrs.domain.model.user.User&#45;&gt;mrs.domain.model.user.UserId -->
<g id="edge17" class="edge"><title>mrs.domain.model.user.User&#45;&gt;mrs.domain.model.user.UserId</title>
<path fill="none" stroke="black" d="M746.168,-207.378C776.331,-205.566 820.713,-199.745 855,-182 866.02,-176.297 876.203,-167.349 884.463,-158.652"/>
<polygon fill="black" stroke="black" points="887.115,-160.937 891.2,-151.162 881.911,-156.256 887.115,-160.937"/>
</g>
<!-- mrs.domain.type.date.CurrentDate -->
<g id="node17" class="node"><title>mrs.domain.type.date.CurrentDate</title>
<polygon fill="#eedd82" stroke="red" points="753,-379 669,-379 669,-341 753,-341 753,-379"/>
<text text-anchor="middle" x="711" y="-363.8" font-family="Times New Roman,serif" font-size="14.00">現在日</text>
<text text-anchor="middle" x="711" y="-348.8" font-family="Times New Roman,serif" font-size="14.00">CurrentDate</text>
</g>
<!-- mrs.domain.type.date.Days -->
<g id="node18" class="node"><title>mrs.domain.type.date.Days</title>
<polygon fill="#eedd82" stroke="red" points="651,-379 597,-379 597,-341 651,-341 651,-379"/>
<text text-anchor="middle" x="624" y="-363.8" font-family="Times New Roman,serif" font-size="14.00">日数</text>
<text text-anchor="middle" x="624" y="-348.8" font-family="Times New Roman,serif" font-size="14.00">Days</text>
</g>
</g>
</svg>
