<svg width="932px" height="288px"
     viewBox="0.00 0.00 932.00 288.00" xmlns="http://www.w3.org/2000/svg">
    <g id="graph0" class="graph" transform="scale(1.0 1.0) rotate(0) translate(4 284)">
        <title>集中ビジネスルールツリー図</title>
        <polygon fill="white" stroke="transparent" points="-4,4 -4,-284 928,-284 928,4 -4,4"/>
        <text text-anchor="middle" x="462" y="-7.8" font-family="Times,serif" font-size="14.00">集中ビジネスルールツリー図</text>
        <!-- mrs.domain.model.reservation.ReservableRoom -->
        <g id="node1" class="node">
            <title>mrs.domain.model.reservation.ReservableRoom</title>
            <polygon fill="#eedd82" stroke="black" points="408,-189 181,-189 181,-115 408,-115 408,-189"/>
            <text text-anchor="middle" x="294.5" y="-161" font-family="Times,serif" font-size="30.00">予約可能会議室</text>
            <text text-anchor="middle" x="294.5" y="-128" font-family="Times,serif" font-size="30.00">ReservableRoom
            </text>
        </g>
        <!-- mrs.domain.model.reservation.ReservableRoomId -->
        <g id="node2" class="node">
            <title>mrs.domain.model.reservation.ReservableRoomId</title>
            <polygon fill="#eedd82" stroke="black" points="702,-227 444,-227 444,-153 702,-153 702,-227"/>
            <text text-anchor="middle" x="573" y="-199" font-family="Times,serif" font-size="30.00">予約可能会議室ID</text>
            <text text-anchor="middle" x="573" y="-166" font-family="Times,serif" font-size="30.00">ReservableRoomId
            </text>
        </g>
        <!-- mrs.domain.model.reservation.ReservableRoom&#45;&gt;mrs.domain.model.reservation.ReservableRoomId -->
        <g id="edge9" class="edge">
            <title>mrs.domain.model.reservation.ReservableRoom&#45;&gt;mrs.domain.model.reservation.ReservableRoomId
            </title>
            <path fill="none" stroke="black" d="M408.36,-167.51C416.73,-168.66 425.23,-169.83 433.73,-171"/>
            <polygon fill="black" stroke="black" points="433.32,-174.47 443.71,-172.37 434.27,-167.54 433.32,-174.47"/>
        </g>
        <!-- mrs.domain.model.reservation.ReservedDate -->
        <g id="node5" class="node">
            <title>mrs.domain.model.reservation.ReservedDate</title>
            <polygon fill="#eedd82" stroke="black" points="924,-280 738,-280 738,-206 924,-206 924,-280"/>
            <text text-anchor="middle" x="831" y="-252" font-family="Times,serif" font-size="30.00">予約日</text>
            <text text-anchor="middle" x="831" y="-219" font-family="Times,serif" font-size="30.00">ReservedDate</text>
        </g>
        <!-- mrs.domain.model.reservation.ReservableRoomId&#45;&gt;mrs.domain.model.reservation.ReservedDate -->
        <g id="edge1" class="edge">
            <title>mrs.domain.model.reservation.ReservableRoomId&#45;&gt;mrs.domain.model.reservation.ReservedDate
            </title>
            <path fill="none" stroke="black" d="M702.37,-216.58C710.98,-218.36 719.59,-220.14 728.04,-221.89"/>
            <polygon fill="black" stroke="black" points="727.37,-225.33 737.87,-223.93 728.79,-218.47 727.37,-225.33"/>
        </g>
        <!-- mrs.domain.model.room.RoomId -->
        <g id="node7" class="node">
            <title>mrs.domain.model.room.RoomId</title>
            <polygon fill="#eedd82" stroke="black" points="900,-176 762,-176 762,-102 900,-102 900,-176"/>
            <text text-anchor="middle" x="831" y="-148" font-family="Times,serif" font-size="30.00">会議室ID</text>
            <text text-anchor="middle" x="831" y="-115" font-family="Times,serif" font-size="30.00">RoomId</text>
        </g>
        <!-- mrs.domain.model.reservation.ReservableRoomId&#45;&gt;mrs.domain.model.room.RoomId -->
        <g id="edge7" class="edge">
            <title>mrs.domain.model.reservation.ReservableRoomId&#45;&gt;mrs.domain.model.room.RoomId</title>
            <path fill="none" stroke="black" d="M702.37,-164.43C719.26,-161.06 736.14,-157.7 751.83,-154.57"/>
            <polygon fill="black" stroke="black" points="752.84,-157.94 761.96,-152.55 751.47,-151.08 752.84,-157.94"/>
        </g>
        <!-- mrs.domain.model.reservation.ReservableRooms -->
        <g id="node3" class="node">
            <title>mrs.domain.model.reservation.ReservableRooms</title>
            <polygon fill="lemonchiffon" stroke="black" points="145,-171 0,-171 0,-133 145,-133 145,-171"/>
            <text text-anchor="middle" x="72.5" y="-155.8" font-family="Times,serif" font-size="14.00">予約可能会議室一覧</text>
            <text text-anchor="middle" x="72.5" y="-140.8" font-family="Times,serif" font-size="14.00">ReservableRooms
            </text>
        </g>
        <!-- mrs.domain.model.reservation.ReservableRooms&#45;&gt;mrs.domain.model.reservation.ReservableRoom -->
        <g id="edge3" class="edge">
            <title>mrs.domain.model.reservation.ReservableRooms&#45;&gt;mrs.domain.model.reservation.ReservableRoom
            </title>
            <path fill="none" stroke="black" d="M145.23,-152C153.43,-152 161.96,-152 170.59,-152"/>
            <polygon fill="black" stroke="black" points="170.76,-155.5 180.76,-152 170.76,-148.5 170.76,-155.5"/>
        </g>
        <!-- mrs.domain.model.reservation.Reservation -->
        <g id="node4" class="node">
            <title>mrs.domain.model.reservation.Reservation</title>
            <polygon fill="lemonchiffon" stroke="black" points="113,-231 32,-231 32,-193 113,-193 113,-231"/>
            <text text-anchor="middle" x="72.5" y="-215.8" font-family="Times,serif" font-size="14.00">予約</text>
            <text text-anchor="middle" x="72.5" y="-200.8" font-family="Times,serif" font-size="14.00">Reservation
            </text>
        </g>
        <!-- mrs.domain.model.reservation.Reservation&#45;&gt;mrs.domain.model.reservation.ReservableRoom -->
        <g id="edge4" class="edge">
            <title>mrs.domain.model.reservation.Reservation&#45;&gt;mrs.domain.model.reservation.ReservableRoom</title>
            <path fill="none" stroke="black" d="M113.09,-201.2C129.71,-196.67 150.05,-191.12 170.99,-185.41"/>
            <polygon fill="black" stroke="black" points="171.92,-188.79 180.65,-182.78 170.08,-182.03 171.92,-188.79"/>
        </g>
        <!-- mrs.domain.model.reservation.Reservation&#45;&gt;mrs.domain.model.reservation.ReservableRoomId -->
        <g id="edge10" class="edge">
            <title>mrs.domain.model.reservation.Reservation&#45;&gt;mrs.domain.model.reservation.ReservableRoomId
            </title>
            <path fill="none" stroke="black"
                  d="M113.15,-210.43C175.79,-207.93 301.45,-202.83 408,-198 416.39,-197.62 425.02,-197.22 433.73,-196.81"/>
            <polygon fill="black" stroke="black" points="434.15,-200.3 443.98,-196.33 433.82,-193.3 434.15,-200.3"/>
        </g>
        <!-- mrs.domain.model.reservation.Reservation&#45;&gt;mrs.domain.model.reservation.ReservedDate -->
        <g id="edge2" class="edge">
            <title>mrs.domain.model.reservation.Reservation&#45;&gt;mrs.domain.model.reservation.ReservedDate</title>
            <path fill="none" stroke="black"
                  d="M113.22,-215.18C181.01,-220.48 323.41,-231 444,-236 540.13,-239.98 649.83,-241.7 727.65,-242.44"/>
            <polygon fill="black" stroke="black" points="727.9,-245.94 737.93,-242.53 727.97,-238.94 727.9,-245.94"/>
        </g>
        <!-- mrs.domain.model.user.UserId -->
        <g id="node9" class="node">
            <title>mrs.domain.model.user.UserId</title>
            <polygon fill="#eedd82" stroke="black" points="378.5,-97 210.5,-97 210.5,-23 378.5,-23 378.5,-97"/>
            <text text-anchor="middle" x="294.5" y="-69" font-family="Times,serif" font-size="30.00">ユーザーID</text>
            <text text-anchor="middle" x="294.5" y="-36" font-family="Times,serif" font-size="30.00">UserId</text>
        </g>
        <!-- mrs.domain.model.reservation.Reservation&#45;&gt;mrs.domain.model.user.UserId -->
        <g id="edge5" class="edge">
            <title>mrs.domain.model.reservation.Reservation&#45;&gt;mrs.domain.model.user.UserId</title>
            <path fill="none" stroke="black"
                  d="M113.24,-199.99C124.51,-195.14 136.11,-188.61 145,-180 171.27,-154.55 154.32,-131.01 181,-106 187.14,-100.24 194.1,-95.16 201.47,-90.69"/>
            <polygon fill="black" stroke="black" points="203.3,-93.68 210.29,-85.71 199.86,-87.58 203.3,-93.68"/>
        </g>
        <!-- mrs.domain.model.room.MeetingRoom -->
        <g id="node6" class="node">
            <title>mrs.domain.model.room.MeetingRoom</title>
            <polygon fill="lemonchiffon" stroke="black" points="621,-135 525,-135 525,-97 621,-97 621,-135"/>
            <text text-anchor="middle" x="573" y="-119.8" font-family="Times,serif" font-size="14.00">会議室</text>
            <text text-anchor="middle" x="573" y="-104.8" font-family="Times,serif" font-size="14.00">MeetingRoom</text>
        </g>
        <!-- mrs.domain.model.room.MeetingRoom&#45;&gt;mrs.domain.model.room.RoomId -->
        <g id="edge8" class="edge">
            <title>mrs.domain.model.room.MeetingRoom&#45;&gt;mrs.domain.model.room.RoomId</title>
            <path fill="none" stroke="black" d="M621.25,-120.25C657.77,-123.53 709.1,-128.14 751.72,-131.97"/>
            <polygon fill="black" stroke="black" points="751.52,-135.46 761.79,-132.87 752.14,-128.49 751.52,-135.46"/>
        </g>
        <!-- mrs.domain.model.user.User -->
        <g id="node8" class="node">
            <title>mrs.domain.model.user.User</title>
            <polygon fill="lemonchiffon" stroke="black" points="109.5,-79 35.5,-79 35.5,-41 109.5,-41 109.5,-79"/>
            <text text-anchor="middle" x="72.5" y="-63.8" font-family="Times,serif" font-size="14.00">ユーザー</text>
            <text text-anchor="middle" x="72.5" y="-48.8" font-family="Times,serif" font-size="14.00">User</text>
        </g>
        <!-- mrs.domain.model.user.User&#45;&gt;mrs.domain.model.user.UserId -->
        <g id="edge6" class="edge">
            <title>mrs.domain.model.user.User&#45;&gt;mrs.domain.model.user.UserId</title>
            <path fill="none" stroke="black" d="M109.83,-60C134.5,-60 168.31,-60 200.21,-60"/>
            <polygon fill="black" stroke="black" points="200.48,-63.5 210.48,-60 200.48,-56.5 200.48,-63.5"/>
        </g>
    </g>
</svg>
