<svg width="436px" height="286px"
     viewBox="0.00 0.00 436.00 286.00" xmlns="http://www.w3.org/2000/svg">
    <g id="graph0" class="graph" transform="scale(1.0 1.0) rotate(0) translate(4 282)">
        <title>ビジネスルール関連図</title>
        <polygon fill="white" stroke="transparent" points="-4,4 -4,-282 432,-282 432,4 -4,4"/>
        <text text-anchor="middle" x="214" y="-7.8" font-family="Times,serif" font-size="14.00">ビジネスルール関連図</text>
        <g id="clust1" class="cluster">
            <title>cluster_mrs.domain.model.reservation</title>
            <polygon fill="lemonchiffon" stroke="#eedd82" stroke-width="2"
                     points="8,-31 8,-270 160,-270 160,-31 8,-31"/>
            <text text-anchor="middle" x="84" y="-254.8" font-family="Times,serif" font-size="14.00">reservation</text>
        </g>
        <g id="clust2" class="cluster">
            <title>cluster_mrs.domain.model.room</title>
            <polygon fill="lemonchiffon" stroke="#eedd82" stroke-width="2"
                     points="168,-31 168,-108 280,-108 280,-31 168,-31"/>
            <text text-anchor="middle" x="224" y="-92.8" font-family="Times,serif" font-size="14.00">room</text>
        </g>
        <g id="clust3" class="cluster">
            <title>cluster_mrs.domain.model.user</title>
            <polygon fill="lemonchiffon" stroke="#eedd82" stroke-width="2"
                     points="288,-31 288,-185 420,-185 420,-31 288,-31"/>
            <text text-anchor="middle" x="354" y="-169.8" font-family="Times,serif" font-size="14.00">user</text>
        </g>
        <g id="clust4" class="cluster">
            <title>cluster_mrs.domain.type.date</title>
            <polygon fill="lemonchiffon" stroke="#eedd82" stroke-width="2"
                     points="208,-193 208,-270 380,-270 380,-193 208,-193"/>
            <text text-anchor="middle" x="294" y="-254.8" font-family="Times,serif" font-size="14.00">date</text>
        </g>
        <!-- mrs.domain.model.reservation.ReservableRoom -->
        <g id="node1" class="node">
            <title>mrs.domain.model.reservation.ReservableRoom</title>
            <polygon fill="#eedd82" stroke="black" points="152,-154 36,-154 36,-116 152,-116 152,-154"/>
            <text text-anchor="middle" x="94" y="-138.8" font-family="Times,serif" font-size="14.00">予約可能会議室</text>
            <text text-anchor="middle" x="94" y="-123.8" font-family="Times,serif" font-size="14.00">ReservableRoom
            </text>
        </g>
        <!-- mrs.domain.model.reservation.ReservableRoomId -->
        <g id="node2" class="node">
<title>mrs.domain.model.reservation.ReservableRoomId</title>
<polygon fill="#eedd82" stroke="black" points="149.5,-77 18.5,-77 18.5,-39 149.5,-39 149.5,-77"/>
<text text-anchor="middle" x="84" y="-61.8" font-family="Times,serif" font-size="14.00">予約可能会議室ID</text>
<text text-anchor="middle" x="84" y="-46.8" font-family="Times,serif" font-size="14.00">ReservableRoomId</text>
</g>
<!-- mrs.domain.model.reservation.ReservableRoom&#45;&gt;mrs.domain.model.reservation.ReservableRoomId -->
<g id="edge1" class="edge">
<title>mrs.domain.model.reservation.ReservableRoom&#45;&gt;mrs.domain.model.reservation.ReservableRoomId</title>
<path fill="none" stroke="black" d="M91.58,-115.84C90.43,-107.25 89.04,-96.79 87.76,-87.19"/>
<polygon fill="black" stroke="black" points="91.22,-86.7 86.43,-77.25 84.29,-87.62 91.22,-86.7"/>
</g>
<!-- mrs.domain.model.room.MeetingRoom -->
<g id="node4" class="node">
<title>mrs.domain.model.room.MeetingRoom</title>
<polygon fill="#eedd82" stroke="black" points="272,-77 176,-77 176,-39 272,-39 272,-77"/>
<text text-anchor="middle" x="224" y="-61.8" font-family="Times,serif" font-size="14.00">会議室</text>
<text text-anchor="middle" x="224" y="-46.8" font-family="Times,serif" font-size="14.00">MeetingRoom</text>
</g>
<!-- mrs.domain.model.reservation.ReservableRoom&#45;&gt;mrs.domain.model.room.MeetingRoom -->
<g id="edge2" class="edge">
<title>mrs.domain.model.reservation.ReservableRoom&#45;&gt;mrs.domain.model.room.MeetingRoom</title>
<path fill="none" stroke="black" d="M148.32,-115.87C153.73,-113.46 159.05,-110.84 164,-108 175.79,-101.25 187.61,-92.2 197.61,-83.71"/>
<polygon fill="black" stroke="black" points="199.97,-86.3 205.2,-77.08 195.37,-81.02 199.97,-86.3"/>
</g>
<!-- mrs.domain.model.reservation.Reservation -->
        <g id="node3" class="node">
            <title>mrs.domain.model.reservation.Reservation</title>
            <polygon fill="#eedd82" stroke="black" points="134.5,-239 53.5,-239 53.5,-201 134.5,-201 134.5,-239"/>
            <text text-anchor="middle" x="94" y="-223.8" font-family="Times,serif" font-size="14.00">予約</text>
            <text text-anchor="middle" x="94" y="-208.8" font-family="Times,serif" font-size="14.00">Reservation</text>
        </g>
<!-- mrs.domain.model.reservation.Reservation&#45;&gt;mrs.domain.model.reservation.ReservableRoom -->
        <g id="edge3" class="edge">
            <title>mrs.domain.model.reservation.Reservation&#45;&gt;mrs.domain.model.reservation.ReservableRoom</title>
            <path fill="none" stroke="black" d="M94,-200.99C94,-190.3 94,-176.5 94,-164.37"/>
            <polygon fill="black" stroke="black" points="97.5,-164.26 94,-154.26 90.5,-164.26 97.5,-164.26"/>
        </g>
<!-- mrs.domain.model.reservation.Reservation&#45;&gt;mrs.domain.model.reservation.ReservableRoomId -->
<g id="edge4" class="edge">
<title>mrs.domain.model.reservation.Reservation&#45;&gt;mrs.domain.model.reservation.ReservableRoomId</title>
    <path fill="none" stroke="black"
          d="M53.42,-207.1C43.02,-202.02 33.07,-194.89 27,-185 10.96,-158.87 15.26,-144.33 27,-116 32.07,-103.76 41.19,-92.77 50.67,-83.79"/>
<polygon fill="black" stroke="black" points="53.12,-86.29 58.27,-77.03 48.47,-81.06 53.12,-86.29"/>
</g>
<!-- mrs.domain.model.user.User -->
<g id="node6" class="node">
<title>mrs.domain.model.user.User</title>
<polygon fill="#eedd82" stroke="black" points="380,-154 306,-154 306,-116 380,-116 380,-154"/>
<text text-anchor="middle" x="343" y="-138.8" font-family="Times,serif" font-size="14.00">ユーザー</text>
<text text-anchor="middle" x="343" y="-123.8" font-family="Times,serif" font-size="14.00">User</text>
</g>
<!-- mrs.domain.model.reservation.Reservation&#45;&gt;mrs.domain.model.user.User -->
        <g id="edge5" class="edge">
            <title>mrs.domain.model.reservation.Reservation&#45;&gt;mrs.domain.model.user.User</title>
            <path fill="none" stroke="black" d="M134.56,-205.48C178.82,-190.73 249.56,-167.15 296.16,-151.61"/>
            <polygon fill="black" stroke="black" points="297.33,-154.91 305.71,-148.43 295.12,-148.27 297.33,-154.91"/>
        </g>
<!-- mrs.domain.model.user.RoleName -->
<g id="node5" class="node">
    <title>mrs.domain.model.user.RoleName</title>
    <polygon fill="#eedd82" stroke="black" points="412,-77 296,-77 296,-39 412,-39 412,-77"/>
    <text text-anchor="middle" x="354" y="-61.8" font-family="Times,serif" font-size="14.00">ユーザーの役割</text>
    <text text-anchor="middle" x="354" y="-46.8" font-family="Times,serif" font-size="14.00">RoleName</text>
</g>
        <!-- mrs.domain.model.user.User&#45;&gt;mrs.domain.model.user.RoleName -->
        <g id="edge6" class="edge">
            <title>mrs.domain.model.user.User&#45;&gt;mrs.domain.model.user.RoleName</title>
            <path fill="none" stroke="black" d="M345.66,-115.84C346.92,-107.25 348.46,-96.79 349.87,-87.19"/>
            <polygon fill="black" stroke="black" points="353.34,-87.65 351.32,-77.25 346.41,-86.63 353.34,-87.65"/>
        </g>
        <!-- mrs.domain.type.date.CurrentDate -->
        <g id="node7" class="node">
            <title>mrs.domain.type.date.CurrentDate</title>
            <polygon fill="#eedd82" stroke="red" points="371.5,-239 288.5,-239 288.5,-201 371.5,-201 371.5,-239"/>
            <text text-anchor="middle" x="330" y="-223.8" font-family="Times,serif" font-size="14.00">現在日</text>
            <text text-anchor="middle" x="330" y="-208.8" font-family="Times,serif" font-size="14.00">CurrentDate</text>
        </g>
        <!-- mrs.domain.type.date.Days -->
        <g id="node8" class="node">
            <title>mrs.domain.type.date.Days</title>
            <polygon fill="#eedd82" stroke="red" points="270,-239 216,-239 216,-201 270,-201 270,-239"/>
            <text text-anchor="middle" x="243" y="-223.8" font-family="Times,serif" font-size="14.00">日数</text>
            <text text-anchor="middle" x="243" y="-208.8" font-family="Times,serif" font-size="14.00">Days</text>
        </g>
    </g>
</svg>
