<svg width="932px" height="308px"
     viewBox="0.00 0.00 932.00 307.70" xmlns="http://www.w3.org/2000/svg">
<g id="graph0" class="graph" transform="scale(1.0 1.0) rotate(0) translate(4 303.7)">
    <title>集中ビジネスルールツリー図</title>
    <polygon fill="white" stroke="transparent" points="-4,4 -4,-303.7 928,-303.7 928,4 -4,4"/>
    <text text-anchor="middle" x="462" y="-7.8" font-family="Times,serif" font-size="14.00">集中ビジネスルールツリー図</text>
    <!-- mrs.domain.model.facility.room.MeetingRoom -->
    <g id="node1" class="node">
        <title>mrs.domain.model.facility.room.MeetingRoom</title>
        <polygon fill="lemonchiffon" stroke="black" points="621,-299.7 525,-299.7 525,-261.7 621,-261.7 621,-299.7"/>
        <text text-anchor="middle" x="573" y="-284.5" font-family="Times,serif" font-size="14.00">会議室</text>
        <text text-anchor="middle" x="573" y="-269.5" font-family="Times,serif" font-size="14.00">MeetingRoom</text>
    </g>
    <!-- mrs.domain.model.facility.room.RoomId -->
    <g id="node2" class="node">
        <title>mrs.domain.model.facility.room.RoomId</title>
        <polygon fill="#eedd82" stroke="black" points="900,-293.7 762,-293.7 762,-219.7 900,-219.7 900,-293.7"/>
        <text text-anchor="middle" x="831" y="-265.7" font-family="Times,serif" font-size="30.00">会議室ID</text>
        <text text-anchor="middle" x="831" y="-232.7" font-family="Times,serif" font-size="30.00">RoomId</text>
    </g>
    <!-- mrs.domain.model.facility.room.MeetingRoom&#45;&gt;mrs.domain.model.facility.room.RoomId -->
    <g id="edge10" class="edge">
        <title>mrs.domain.model.facility.room.MeetingRoom&#45;&gt;mrs.domain.model.facility.room.RoomId</title>
        <path fill="none" stroke="black" d="M621.25,-276.27C657.77,-272.85 709.1,-268.04 751.72,-264.04"/>
        <polygon fill="black" stroke="black" points="752.16,-267.51 761.79,-263.1 751.51,-260.54 752.16,-267.51"/>
    </g>
    <!-- mrs.domain.model.reservation.Reservation -->
    <g id="node3" class="node">
        <title>mrs.domain.model.reservation.Reservation</title>
        <polygon fill="lemonchiffon" stroke="black" points="113,-179.7 32,-179.7 32,-141.7 113,-141.7 113,-179.7"/>
        <text text-anchor="middle" x="72.5" y="-164.5" font-family="Times,serif" font-size="14.00">予約</text>
        <text text-anchor="middle" x="72.5" y="-149.5" font-family="Times,serif" font-size="14.00">Reservation</text>
    </g>
    <!-- mrs.domain.model.reservation.datetime.ReservedDate -->
    <g id="node4" class="node">
        <title>mrs.domain.model.reservation.datetime.ReservedDate</title>
        <polygon fill="#eedd82" stroke="black" points="924,-178.7 738,-178.7 738,-104.7 924,-104.7 924,-178.7"/>
        <text text-anchor="middle" x="831" y="-150.7" font-family="Times,serif" font-size="30.00">予約日</text>
        <text text-anchor="middle" x="831" y="-117.7" font-family="Times,serif" font-size="30.00">ReservedDate</text>
    </g>
    <!-- mrs.domain.model.reservation.Reservation&#45;&gt;mrs.domain.model.reservation.datetime.ReservedDate -->
    <g id="edge3" class="edge">
        <title>mrs.domain.model.reservation.Reservation&#45;&gt;mrs.domain.model.reservation.datetime.ReservedDate
        </title>
        <path fill="none" stroke="black" d="M113.11,-159.71C227.07,-156.84 558.41,-148.52 727.76,-144.27"/>
        <polygon fill="black" stroke="black" points="728.02,-147.76 737.93,-144.01 727.85,-140.77 728.02,-147.76"/>
    </g>
    <!-- mrs.domain.model.reservation.datetime.ReservedTime -->
    <g id="node6" class="node">
        <title>mrs.domain.model.reservation.datetime.ReservedTime</title>
        <polygon fill="#eedd82" stroke="black" points="390,-113.7 199,-113.7 199,-39.7 390,-39.7 390,-113.7"/>
        <text text-anchor="middle" x="294.5" y="-85.7" font-family="Times,serif" font-size="30.00">予約時間</text>
        <text text-anchor="middle" x="294.5" y="-52.7" font-family="Times,serif" font-size="30.00">ReservedTime</text>
    </g>
    <!-- mrs.domain.model.reservation.Reservation&#45;&gt;mrs.domain.model.reservation.datetime.ReservedTime -->
    <g id="edge1" class="edge">
        <title>mrs.domain.model.reservation.Reservation&#45;&gt;mrs.domain.model.reservation.datetime.ReservedTime
        </title>
        <path fill="none" stroke="black" d="M113.09,-145.59C134.55,-137.39 162.2,-126.84 189.36,-116.46"/>
        <polygon fill="black" stroke="black" points="190.84,-119.64 198.94,-112.81 188.35,-113.1 190.84,-119.64"/>
    </g>
    <!-- mrs.domain.model.reservation.reservable.room.ReservableRoom -->
    <g id="node7" class="node">
        <title>mrs.domain.model.reservation.reservable.room.ReservableRoom</title>
        <polygon fill="#eedd82" stroke="black" points="408,-281.7 181,-281.7 181,-207.7 408,-207.7 408,-281.7"/>
        <text text-anchor="middle" x="294.5" y="-253.7" font-family="Times,serif" font-size="30.00">予約可能会議室</text>
        <text text-anchor="middle" x="294.5" y="-220.7" font-family="Times,serif" font-size="30.00">ReservableRoom
        </text>
    </g>
    <!-- mrs.domain.model.reservation.Reservation&#45;&gt;mrs.domain.model.reservation.reservable.room.ReservableRoom -->
    <g id="edge6" class="edge">
        <title>mrs.domain.model.reservation.Reservation&#45;&gt;mrs.domain.model.reservation.reservable.room.ReservableRoom</title>
        <path fill="none" stroke="black" d="M113.09,-175.82C133.8,-183.72 160.26,-193.83 186.49,-203.84"/>
        <polygon fill="black" stroke="black" points="185.55,-207.23 196.14,-207.53 188.04,-200.69 185.55,-207.23"/>
    </g>
    <!-- mrs.domain.model.reservation.reservable.room.ReservableRoomId -->
    <g id="node8" class="node">
        <title>mrs.domain.model.reservation.reservable.room.ReservableRoomId</title>
        <polygon fill="#eedd82" stroke="black" points="702,-243.7 444,-243.7 444,-169.7 702,-169.7 702,-243.7"/>
        <text text-anchor="middle" x="573" y="-215.7" font-family="Times,serif" font-size="30.00">予約可能会議室ID</text>
        <text text-anchor="middle" x="573" y="-182.7" font-family="Times,serif" font-size="30.00">ReservableRoomId
        </text>
    </g>
    <!-- mrs.domain.model.reservation.Reservation&#45;&gt;mrs.domain.model.reservation.reservable.room.ReservableRoomId -->
    <g id="edge8" class="edge">
        <title>mrs.domain.model.reservation.Reservation&#45;&gt;mrs.domain.model.reservation.reservable.room.ReservableRoomId</title>
        <path fill="none" stroke="black" d="M113.03,-164.35C181.53,-170.67 325.36,-183.94 433.86,-193.95"/>
        <polygon fill="black" stroke="black" points="433.64,-197.45 443.92,-194.88 434.28,-190.48 433.64,-197.45"/>
    </g>
    <!-- mrs.domain.model.reservation.datetime.ReservedDateTime -->
    <g id="node5" class="node">
        <title>mrs.domain.model.reservation.datetime.ReservedDateTime</title>
        <polygon fill="lemonchiffon" stroke="black" points="133.5,-63.7 11.5,-63.7 11.5,-25.7 133.5,-25.7 133.5,-63.7"/>
        <text text-anchor="middle" x="72.5" y="-48.5" font-family="Times,serif" font-size="14.00">予約日時</text>
        <text text-anchor="middle" x="72.5" y="-33.5" font-family="Times,serif" font-size="14.00">ReservedDateTime
        </text>
    </g>
    <!-- mrs.domain.model.reservation.datetime.ReservedDateTime&#45;&gt;mrs.domain.model.reservation.datetime.ReservedDate -->
    <g id="edge4" class="edge">
        <title>mrs.domain.model.reservation.datetime.ReservedDateTime&#45;&gt;mrs.domain.model.reservation.datetime.ReservedDate</title>
        <path fill="none" stroke="black"
              d="M133.63,-35.47C149.04,-33.49 165.6,-31.7 181,-30.7 281.68,-24.17 307.94,-17.76 408,-30.7 519.59,-45.13 643.74,-80.18 728.32,-107.07"/>
        <polygon fill="black" stroke="black" points="727.33,-110.42 737.92,-110.14 729.46,-103.76 727.33,-110.42"/>
    </g>
    <!-- mrs.domain.model.reservation.datetime.ReservedDateTime&#45;&gt;mrs.domain.model.reservation.datetime.ReservedTime -->
    <g id="edge2" class="edge">
        <title>mrs.domain.model.reservation.datetime.ReservedDateTime&#45;&gt;mrs.domain.model.reservation.datetime.ReservedTime</title>
        <path fill="none" stroke="black" d="M133.62,-53.44C150.65,-55.92 169.72,-58.7 188.58,-61.44"/>
        <polygon fill="black" stroke="black" points="188.32,-64.94 198.72,-62.92 189.33,-58.01 188.32,-64.94"/>
    </g>
    <!-- mrs.domain.model.reservation.reservable.room.ReservableRoom&#45;&gt;mrs.domain.model.reservation.reservable.room.ReservableRoomId -->
    <g id="edge9" class="edge">
        <title>mrs.domain.model.reservation.reservable.room.ReservableRoom&#45;&gt;mrs.domain.model.reservation.reservable.room.ReservableRoomId</title>
        <path fill="none" stroke="black" d="M408.36,-229.19C416.73,-228.04 425.23,-226.87 433.73,-225.7"/>
        <polygon fill="black" stroke="black" points="434.27,-229.16 443.71,-224.33 433.32,-222.23 434.27,-229.16"/>
    </g>
    <!-- mrs.domain.model.reservation.reservable.room.ReservableRoomId&#45;&gt;mrs.domain.model.facility.room.RoomId -->
    <g id="edge11" class="edge">
        <title>mrs.domain.model.reservation.reservable.room.ReservableRoomId&#45;&gt;mrs.domain.model.facility.room.RoomId</title>
        <path fill="none" stroke="black" d="M702.37,-231.77C719.26,-235.07 736.14,-238.37 751.83,-241.43"/>
        <polygon fill="black" stroke="black" points="751.48,-244.93 761.96,-243.41 752.82,-238.06 751.48,-244.93"/>
    </g>
    <!-- mrs.domain.model.reservation.reservable.room.ReservableRoomId&#45;&gt;mrs.domain.model.reservation.datetime.ReservedDate -->
    <g id="edge5" class="edge">
        <title>mrs.domain.model.reservation.reservable.room.ReservableRoomId&#45;&gt;mrs.domain.model.reservation.datetime.ReservedDate</title>
        <path fill="none" stroke="black" d="M702.37,-174.11C710.98,-171.92 719.59,-169.73 728.04,-167.59"/>
        <polygon fill="black" stroke="black" points="729.04,-170.95 737.87,-165.09 727.32,-164.16 729.04,-170.95"/>
    </g>
    <!-- mrs.domain.model.reservation.reservable.room.ReservableRooms -->
    <g id="node9" class="node">
        <title>mrs.domain.model.reservation.reservable.room.ReservableRooms</title>
        <polygon fill="lemonchiffon" stroke="black" points="145,-263.7 0,-263.7 0,-225.7 145,-225.7 145,-263.7"/>
        <text text-anchor="middle" x="72.5" y="-248.5" font-family="Times,serif" font-size="14.00">予約可能会議室一覧</text>
        <text text-anchor="middle" x="72.5" y="-233.5" font-family="Times,serif" font-size="14.00">ReservableRooms
        </text>
    </g>
    <!-- mrs.domain.model.reservation.reservable.room.ReservableRooms&#45;&gt;mrs.domain.model.reservation.reservable.room.ReservableRoom -->
    <g id="edge7" class="edge">
        <title>mrs.domain.model.reservation.reservable.room.ReservableRooms&#45;&gt;mrs.domain.model.reservation.reservable.room.ReservableRoom</title>
        <path fill="none" stroke="black" d="M145.23,-244.7C153.43,-244.7 161.96,-244.7 170.59,-244.7"/>
        <polygon fill="black" stroke="black" points="170.76,-248.2 180.76,-244.7 170.76,-241.2 170.76,-248.2"/>
    </g>
</g>
</svg>
