<svg width="976px" height="308px"
     viewBox="0.00 0.00 976.00 307.69" xmlns="http://www.w3.org/2000/svg">
<g id="graph0" class="graph" transform="scale(1.0 1.0) rotate(0) translate(4 303.69)">
    <title>集中ビジネスルールツリー図</title>
    <polygon fill="white" stroke="transparent" points="-4,4 -4,-303.69 972,-303.69 972,4 -4,4"/>
    <text text-anchor="middle" x="484" y="-7.8" font-family="Times New Roman,serif" font-size="14.00">集中ビジネスルールツリー図
    </text>
    <!-- mrs.domain.model.facility.room.MeetingRoom -->
    <g id="node1" class="node">
        <title>mrs.domain.model.facility.room.MeetingRoom</title>
        <polygon fill="lemonchiffon" stroke="black"
                 points="663.5,-299.69 567.5,-299.69 567.5,-261.69 663.5,-261.69 663.5,-299.69"/>
        <text text-anchor="middle" x="615.5" y="-284.49" font-family="Times New Roman,serif" font-size="14.00">会議室
        </text>
        <text text-anchor="middle" x="615.5" y="-269.49" font-family="Times New Roman,serif" font-size="14.00">
            MeetingRoom
        </text>
    </g>
    <!-- mrs.domain.model.facility.room.RoomId -->
    <g id="node2" class="node">
        <title>mrs.domain.model.facility.room.RoomId</title>
        <polygon fill="#eedd82" stroke="black"
                 points="948.5,-293.69 805.5,-293.69 805.5,-219.69 948.5,-219.69 948.5,-293.69"/>
        <text text-anchor="middle" x="877" y="-265.69" font-family="Times New Roman,serif" font-size="30.00">会議室ID
        </text>
        <text text-anchor="middle" x="877" y="-232.69" font-family="Times New Roman,serif" font-size="30.00">RoomId
        </text>
    </g>
    <!-- mrs.domain.model.facility.room.MeetingRoom&#45;&gt;mrs.domain.model.facility.room.RoomId -->
    <g id="edge1" class="edge">
        <title>mrs.domain.model.facility.room.MeetingRoom&#45;&gt;mrs.domain.model.facility.room.RoomId</title>
        <path fill="none" stroke="black" d="M663.79,-276.31C700.34,-272.93 751.78,-268.18 794.86,-264.19"/>
        <polygon fill="black" stroke="black" points="795.41,-267.66 805.05,-263.25 794.77,-260.69 795.41,-267.66"/>
    </g>
    <!-- mrs.domain.model.reservation.Reservation -->
    <g id="node3" class="node">
        <title>mrs.domain.model.reservation.Reservation</title>
        <polygon fill="lemonchiffon" stroke="black"
                 points="127.5,-179.69 44.5,-179.69 44.5,-141.69 127.5,-141.69 127.5,-179.69"/>
        <text text-anchor="middle" x="86" y="-164.49" font-family="Times New Roman,serif" font-size="14.00">予約</text>
        <text text-anchor="middle" x="86" y="-149.49" font-family="Times New Roman,serif" font-size="14.00">
            Reservation
        </text>
    </g>
    <!-- mrs.domain.model.reservation.datetime.ReservedDate -->
    <g id="node4" class="node">
        <title>mrs.domain.model.reservation.datetime.ReservedDate</title>
        <polygon fill="#eedd82" stroke="black" points="968,-178.69 786,-178.69 786,-104.69 968,-104.69 968,-178.69"/>
        <text text-anchor="middle" x="877" y="-150.69" font-family="Times New Roman,serif" font-size="30.00">予約日</text>
        <text text-anchor="middle" x="877" y="-117.69" font-family="Times New Roman,serif" font-size="30.00">
            ReservedDate
        </text>
    </g>
    <!-- mrs.domain.model.reservation.Reservation&#45;&gt;mrs.domain.model.reservation.datetime.ReservedDate -->
    <g id="edge9" class="edge">
        <title>mrs.domain.model.reservation.Reservation&#45;&gt;mrs.domain.model.reservation.datetime.ReservedDate
        </title>
        <path fill="none" stroke="black" d="M127.76,-159.71C247.49,-156.82 600.71,-148.32 775.58,-144.11"/>
        <polygon fill="black" stroke="black" points="775.9,-147.6 785.82,-143.86 775.74,-140.6 775.9,-147.6"/>
    </g>
    <!-- mrs.domain.model.reservation.datetime.ReservedTime -->
    <g id="node6" class="node">
        <title>mrs.domain.model.reservation.datetime.ReservedTime</title>
        <polygon fill="#eedd82" stroke="black"
                 points="420.5,-113.69 232.5,-113.69 232.5,-39.69 420.5,-39.69 420.5,-113.69"/>
        <text text-anchor="middle" x="326.5" y="-85.69" font-family="Times New Roman,serif" font-size="30.00">予約時間
        </text>
        <text text-anchor="middle" x="326.5" y="-52.69" font-family="Times New Roman,serif" font-size="30.00">
            ReservedTime
        </text>
    </g>
    <!-- mrs.domain.model.reservation.Reservation&#45;&gt;mrs.domain.model.reservation.datetime.ReservedTime -->
    <g id="edge7" class="edge">
        <title>mrs.domain.model.reservation.Reservation&#45;&gt;mrs.domain.model.reservation.datetime.ReservedTime
        </title>
        <path fill="none" stroke="black" d="M127.73,-146.34C153.88,-137.13 189.11,-124.72 222.59,-112.93"/>
        <polygon fill="black" stroke="black" points="224.17,-116.09 232.44,-109.46 221.85,-109.48 224.17,-116.09"/>
    </g>
    <!-- mrs.domain.model.reservation.reservable.room.ReservableRoom -->
    <g id="node7" class="node">
        <title>mrs.domain.model.reservation.reservable.room.ReservableRoom</title>
        <polygon fill="#eedd82" stroke="black" points="445,-281.69 208,-281.69 208,-207.69 445,-207.69 445,-281.69"/>
        <text text-anchor="middle" x="326.5" y="-253.69" font-family="Times New Roman,serif" font-size="30.00">予約可能会議室
        </text>
        <text text-anchor="middle" x="326.5" y="-220.69" font-family="Times New Roman,serif" font-size="30.00">
            ReservableRoom
        </text>
    </g>
    <!-- mrs.domain.model.reservation.Reservation&#45;&gt;mrs.domain.model.reservation.reservable.room.ReservableRoom -->
    <g id="edge5" class="edge">
        <title>mrs.domain.model.reservation.Reservation&#45;&gt;mrs.domain.model.reservation.reservable.room.ReservableRoom</title>
        <path fill="none" stroke="black" d="M127.73,-175.03C150.78,-183.15 180.87,-193.75 210.61,-204.22"/>
        <polygon fill="black" stroke="black" points="209.64,-207.59 220.24,-207.61 211.97,-200.99 209.64,-207.59"/>
    </g>
    <!-- mrs.domain.model.reservation.reservable.room.ReservableRoomId -->
    <g id="node8" class="node">
        <title>mrs.domain.model.reservation.reservable.room.ReservableRoomId</title>
        <polygon fill="#eedd82" stroke="black" points="750,-243.69 481,-243.69 481,-169.69 750,-169.69 750,-243.69"/>
        <text text-anchor="middle" x="615.5" y="-215.69" font-family="Times New Roman,serif" font-size="30.00">
            予約可能会議室ID
        </text>
        <text text-anchor="middle" x="615.5" y="-182.69" font-family="Times New Roman,serif" font-size="30.00">
            ReservableRoomId
        </text>
    </g>
    <!-- mrs.domain.model.reservation.Reservation&#45;&gt;mrs.domain.model.reservation.reservable.room.ReservableRoomId -->
    <g id="edge3" class="edge">
        <title>mrs.domain.model.reservation.Reservation&#45;&gt;mrs.domain.model.reservation.reservable.room.ReservableRoomId</title>
        <path fill="none" stroke="black" d="M127.52,-164.22C200.01,-170.54 355.15,-184.07 470.96,-194.17"/>
        <polygon fill="black" stroke="black" points="470.72,-197.66 480.98,-195.04 471.32,-190.69 470.72,-197.66"/>
    </g>
    <!-- mrs.domain.model.reservation.datetime.ReservedDateTime -->
    <g id="node5" class="node">
        <title>mrs.domain.model.reservation.datetime.ReservedDateTime</title>
        <polygon fill="lemonchiffon" stroke="black"
                 points="147.5,-63.69 24.5,-63.69 24.5,-25.69 147.5,-25.69 147.5,-63.69"/>
        <text text-anchor="middle" x="86" y="-48.49" font-family="Times New Roman,serif" font-size="14.00">予約日時</text>
        <text text-anchor="middle" x="86" y="-33.49" font-family="Times New Roman,serif" font-size="14.00">
            ReservedDateTime
        </text>
    </g>
    <!-- mrs.domain.model.reservation.datetime.ReservedDateTime&#45;&gt;mrs.domain.model.reservation.datetime.ReservedDate -->
    <g id="edge10" class="edge">
        <title>mrs.domain.model.reservation.datetime.ReservedDateTime&#45;&gt;mrs.domain.model.reservation.datetime.ReservedDate</title>
        <path fill="none" stroke="black"
              d="M147.51,-36.3C166.8,-34 188.26,-31.83 208,-30.69 313.16,-24.62 340.5,-17.45 445,-30.69 560.63,-45.34 689.64,-81.26 776.11,-108.3"/>
        <polygon fill="black" stroke="black" points="775.06,-111.64 785.65,-111.31 777.16,-104.97 775.06,-111.64"/>
    </g>
    <!-- mrs.domain.model.reservation.datetime.ReservedDateTime&#45;&gt;mrs.domain.model.reservation.datetime.ReservedTime -->
    <g id="edge8" class="edge">
        <title>mrs.domain.model.reservation.datetime.ReservedDateTime&#45;&gt;mrs.domain.model.reservation.datetime.ReservedTime</title>
        <path fill="none" stroke="black" d="M147.8,-52.85C170.46,-55.89 196.87,-59.43 222.28,-62.84"/>
        <polygon fill="black" stroke="black" points="221.96,-66.33 232.34,-64.19 222.89,-59.39 221.96,-66.33"/>
    </g>
    <!-- mrs.domain.model.reservation.reservable.room.ReservableRoom&#45;&gt;mrs.domain.model.reservation.reservable.room.ReservableRoomId -->
    <g id="edge4" class="edge">
        <title>mrs.domain.model.reservation.reservable.room.ReservableRoom&#45;&gt;mrs.domain.model.reservation.reservable.room.ReservableRoomId</title>
        <path fill="none" stroke="black" d="M445.06,-229.12C453.52,-228 462.1,-226.87 470.68,-225.73"/>
        <polygon fill="black" stroke="black" points="471.29,-229.18 480.75,-224.4 470.38,-222.24 471.29,-229.18"/>
    </g>
    <!-- mrs.domain.model.reservation.reservable.room.ReservableRoomId&#45;&gt;mrs.domain.model.facility.room.RoomId -->
    <g id="edge2" class="edge">
        <title>mrs.domain.model.reservation.reservable.room.ReservableRoomId&#45;&gt;mrs.domain.model.facility.room.RoomId</title>
        <path fill="none" stroke="black" d="M750.05,-232.42C765.59,-235.41 781.06,-238.39 795.56,-241.19"/>
        <polygon fill="black" stroke="black" points="794.95,-244.63 805.43,-243.09 796.27,-237.76 794.95,-244.63"/>
    </g>
    <!-- mrs.domain.model.reservation.reservable.room.ReservableRoomId&#45;&gt;mrs.domain.model.reservation.datetime.ReservedDate -->
    <g id="edge11" class="edge">
        <title>mrs.domain.model.reservation.reservable.room.ReservableRoomId&#45;&gt;mrs.domain.model.reservation.datetime.ReservedDate</title>
        <path fill="none" stroke="black" d="M750.05,-173.24C758.8,-171.04 767.52,-168.86 776.06,-166.72"/>
        <polygon fill="black" stroke="black" points="777.15,-170.06 786,-164.23 775.45,-163.27 777.15,-170.06"/>
    </g>
    <!-- mrs.domain.model.reservation.reservable.room.ReservableRooms -->
    <g id="node9" class="node">
        <title>mrs.domain.model.reservation.reservable.room.ReservableRooms</title>
        <polygon fill="lemonchiffon" stroke="black" points="172,-263.69 0,-263.69 0,-225.69 172,-225.69 172,-263.69"/>
        <text text-anchor="middle" x="86" y="-248.49" font-family="Times New Roman,serif" font-size="14.00">予約可能会議室一覧
        </text>
        <text text-anchor="middle" x="86" y="-233.49" font-family="Times New Roman,serif" font-size="14.00">
            ReservableRooms
        </text>
    </g>
    <!-- mrs.domain.model.reservation.reservable.room.ReservableRooms&#45;&gt;mrs.domain.model.reservation.reservable.room.ReservableRoom -->
    <g id="edge6" class="edge">
        <title>mrs.domain.model.reservation.reservable.room.ReservableRooms&#45;&gt;mrs.domain.model.reservation.reservable.room.ReservableRoom</title>
        <path fill="none" stroke="black" d="M172.09,-244.69C180.46,-244.69 189.07,-244.69 197.74,-244.69"/>
        <polygon fill="black" stroke="black" points="197.93,-248.19 207.93,-244.69 197.93,-241.19 197.93,-248.19"/>
    </g>
</g>
</svg>
