<svg width="1129px" height="426px"
     viewBox="0.00 0.00 1129.03 426.00" xmlns="http://www.w3.org/2000/svg">
    <g id="graph0" class="graph" transform="scale(1.0 1.0) rotate(0) translate(4 422)">
        <title>ビジネスルール関連図</title>
        <polygon fill="white" stroke="transparent" points="-4,4 -4,-422 1125.03,-422 1125.03,4 -4,4"/>
        <text text-anchor="middle" x="560.51" y="-7.8" font-family="Times,serif" font-size="14.00">ビジネスルール関連図</text>
        <g id="clust1" class="cluster">
            <title>cluster_mrs.domain.model.reservation</title>
            <polygon fill="lemonchiffon" stroke="#eedd82" stroke-width="2"
                     points="208,-105 208,-410 470,-410 470,-105 208,-105"/>
            <text text-anchor="middle" x="339" y="-394.8" font-family="Times,serif" font-size="14.00">reservation</text>
        </g>
        <g id="clust2" class="cluster">
            <title>cluster_mrs.domain.model.reservation.datetime</title>
            <polygon fill="lemonchiffon" stroke="#eedd82" stroke-width="2"
                     points="478,-31 478,-182 700,-182 700,-31 478,-31"/>
            <text text-anchor="middle" x="589" y="-166.8" font-family="Times,serif" font-size="14.00">
                reservation.datetime
            </text>
        </g>
        <g id="clust3" class="cluster">
            <title>cluster_mrs.domain.model.room</title>
            <polygon fill="lemonchiffon" stroke="#eedd82" stroke-width="2"
                     points="8,-31 8,-182 200,-182 200,-31 8,-31"/>
            <text text-anchor="middle" x="104" y="-166.8" font-family="Times,serif" font-size="14.00">room</text>
        </g>
        <g id="clust4" class="cluster">
            <title>cluster_mrs.domain.model.user</title>
            <polygon fill="lemonchiffon" stroke="#eedd82" stroke-width="2"
                     points="708,-105 708,-259 1082,-259 1082,-105 708,-105"/>
            <text text-anchor="middle" x="895" y="-243.8" font-family="Times,serif" font-size="14.00">user</text>
        </g>
        <g id="clust5" class="cluster">
            <title>cluster_mrs.domain.type.date</title>
            <polygon fill="lemonchiffon" stroke="#eedd82" stroke-width="2"
                     points="694,-333 694,-410 866,-410 866,-333 694,-333"/>
            <text text-anchor="middle" x="780" y="-394.8" font-family="Times,serif" font-size="14.00">date</text>
        </g>
        <!-- mrs.domain.model.reservation.ReservableRoom -->
        <g id="node1" class="node">
            <title>mrs.domain.model.reservation.ReservableRoom</title>
            <polygon fill="#eedd82" stroke="black" points="332,-228 216,-228 216,-190 332,-190 332,-228"/>
            <text text-anchor="middle" x="274" y="-212.8" font-family="Times,serif" font-size="14.00">予約可能会議室</text>
            <text text-anchor="middle" x="274" y="-197.8" font-family="Times,serif" font-size="14.00">ReservableRoom
            </text>
        </g>
        <!-- mrs.domain.model.reservation.ReservableRoomId -->
        <g id="node2" class="node">
            <title>mrs.domain.model.reservation.ReservableRoomId</title>
            <polygon fill="#eedd82" stroke="black" points="381.5,-151 250.5,-151 250.5,-113 381.5,-113 381.5,-151"/>
            <text text-anchor="middle" x="316" y="-135.8" font-family="Times,serif" font-size="14.00">予約可能会議室ID</text>
            <text text-anchor="middle" x="316" y="-120.8" font-family="Times,serif" font-size="14.00">ReservableRoomId
            </text>
        </g>
        <!-- mrs.domain.model.reservation.ReservableRoom&#45;&gt;mrs.domain.model.reservation.ReservableRoomId -->
        <g id="edge4" class="edge">
            <title>mrs.domain.model.reservation.ReservableRoom&#45;&gt;mrs.domain.model.reservation.ReservableRoomId
            </title>
            <path fill="none" stroke="black" d="M284.17,-189.84C289.13,-180.97 295.22,-170.12 300.73,-160.27"/>
            <polygon fill="black" stroke="black" points="303.95,-161.68 305.78,-151.25 297.84,-158.26 303.95,-161.68"/>
        </g>
        <!-- mrs.domain.model.room.MeetingRoom -->
        <g id="node10" class="node">
            <title>mrs.domain.model.room.MeetingRoom</title>
            <polygon fill="#eedd82" stroke="black" points="192,-151 96,-151 96,-113 192,-113 192,-151"/>
            <text text-anchor="middle" x="144" y="-135.8" font-family="Times,serif" font-size="14.00">会議室</text>
            <text text-anchor="middle" x="144" y="-120.8" font-family="Times,serif" font-size="14.00">MeetingRoom</text>
        </g>
        <!-- mrs.domain.model.reservation.ReservableRoom&#45;&gt;mrs.domain.model.room.MeetingRoom -->
        <g id="edge5" class="edge">
            <title>mrs.domain.model.reservation.ReservableRoom&#45;&gt;mrs.domain.model.room.MeetingRoom</title>
            <path fill="none" stroke="black"
                  d="M219.68,-189.87C214.27,-187.46 208.95,-184.84 204,-182 192.21,-175.25 180.39,-166.2 170.39,-157.71"/>
            <polygon fill="black" stroke="black" points="172.63,-155.02 162.8,-151.08 168.03,-160.3 172.63,-155.02"/>
        </g>
        <!-- mrs.domain.model.reservation.datetime.ReservedDate -->
        <g id="node7" class="node">
            <title>mrs.domain.model.reservation.datetime.ReservedDate</title>
            <polygon fill="#eedd82" stroke="black" points="578,-77 486,-77 486,-39 578,-39 578,-77"/>
            <text text-anchor="middle" x="532" y="-61.8" font-family="Times,serif" font-size="14.00">予約日</text>
            <text text-anchor="middle" x="532" y="-46.8" font-family="Times,serif" font-size="14.00">ReservedDate</text>
        </g>
        <!-- mrs.domain.model.reservation.ReservableRoomId&#45;&gt;mrs.domain.model.reservation.datetime.ReservedDate -->
        <g id="edge8" class="edge">
            <title>mrs.domain.model.reservation.ReservableRoomId&#45;&gt;mrs.domain.model.reservation.datetime.ReservedDate</title>
            <path fill="none" stroke="black" d="M370.23,-112.92C402.5,-102.17 443.38,-88.54 475.97,-77.68"/>
            <polygon fill="black" stroke="black" points="477.42,-80.88 485.8,-74.4 475.21,-74.24 477.42,-80.88"/>
        </g>
        <!-- mrs.domain.model.room.RoomId -->
        <g id="node11" class="node">
            <title>mrs.domain.model.room.RoomId</title>
            <polygon fill="#eedd82" stroke="black" points="192,-77 118,-77 118,-39 192,-39 192,-77"/>
            <text text-anchor="middle" x="155" y="-61.8" font-family="Times,serif" font-size="14.00">会議室ID</text>
            <text text-anchor="middle" x="155" y="-46.8" font-family="Times,serif" font-size="14.00">RoomId</text>
        </g>
        <!-- mrs.domain.model.reservation.ReservableRoomId&#45;&gt;mrs.domain.model.room.RoomId -->
        <g id="edge9" class="edge">
            <title>mrs.domain.model.reservation.ReservableRoomId&#45;&gt;mrs.domain.model.room.RoomId</title>
            <path fill="none" stroke="black" d="M275.37,-112.83C252.86,-102.76 224.77,-90.2 201.4,-79.75"/>
            <polygon fill="black" stroke="black" points="202.59,-76.45 192.03,-75.56 199.73,-82.84 202.59,-76.45"/>
        </g>
        <!-- mrs.domain.model.reservation.ReservableRooms -->
        <g id="node3" class="node">
            <title>mrs.domain.model.reservation.ReservableRooms</title>
            <polygon fill="#eedd82" stroke="black" points="361.5,-305 216.5,-305 216.5,-267 361.5,-267 361.5,-305"/>
            <text text-anchor="middle" x="289" y="-289.8" font-family="Times,serif" font-size="14.00">予約可能会議室一覧</text>
            <text text-anchor="middle" x="289" y="-274.8" font-family="Times,serif" font-size="14.00">ReservableRooms
            </text>
        </g>
        <!-- mrs.domain.model.reservation.ReservableRooms&#45;&gt;mrs.domain.model.reservation.ReservableRoom -->
        <g id="edge3" class="edge">
            <title>mrs.domain.model.reservation.ReservableRooms&#45;&gt;mrs.domain.model.reservation.ReservableRoom
            </title>
            <path fill="none" stroke="black" d="M285.37,-266.84C283.65,-258.25 281.56,-247.79 279.64,-238.19"/>
            <polygon fill="black" stroke="black" points="283.04,-237.37 277.65,-228.25 276.18,-238.74 283.04,-237.37"/>
        </g>
        <!-- mrs.domain.model.reservation.Reservation -->
        <g id="node4" class="node">
            <title>mrs.domain.model.reservation.Reservation</title>
            <polygon fill="#eedd82" stroke="black" points="460.5,-305 379.5,-305 379.5,-267 460.5,-267 460.5,-305"/>
            <text text-anchor="middle" x="420" y="-289.8" font-family="Times,serif" font-size="14.00">予約</text>
            <text text-anchor="middle" x="420" y="-274.8" font-family="Times,serif" font-size="14.00">Reservation</text>
        </g>
        <!-- mrs.domain.model.reservation.Reservation&#45;&gt;mrs.domain.model.reservation.ReservableRoom -->
        <g id="edge10" class="edge">
            <title>mrs.domain.model.reservation.Reservation&#45;&gt;mrs.domain.model.reservation.ReservableRoom</title>
            <path fill="none" stroke="black"
                  d="M379.37,-270.28C376.2,-269.16 373.05,-268.06 370,-267 359.38,-263.32 356.08,-263.99 346,-259 331.91,-252.02 317.38,-242.63 305.1,-233.93"/>
            <polygon fill="black" stroke="black" points="307.14,-231.09 296.99,-228.06 303.04,-236.76 307.14,-231.09"/>
        </g>
        <!-- mrs.domain.model.reservation.Reservation&#45;&gt;mrs.domain.model.reservation.ReservableRoomId -->
        <g id="edge11" class="edge">
            <title>mrs.domain.model.reservation.Reservation&#45;&gt;mrs.domain.model.reservation.ReservableRoomId
            </title>
            <path fill="none" stroke="black"
                  d="M379.47,-270.08C371.16,-266.36 364.02,-262.45 361,-259 339.97,-234.97 351.88,-220.02 341,-190 337.45,-180.2 333.02,-169.69 328.89,-160.4"/>
            <polygon fill="black" stroke="black" points="332.05,-158.89 324.73,-151.23 325.67,-161.79 332.05,-158.89"/>
        </g>
        <!-- mrs.domain.model.reservation.ReservationId -->
        <g id="node5" class="node">
            <title>mrs.domain.model.reservation.ReservationId</title>
            <polygon fill="#eedd82" stroke="black" points="462,-228 370,-228 370,-190 462,-190 462,-228"/>
            <text text-anchor="middle" x="416" y="-212.8" font-family="Times,serif" font-size="14.00">予約ID</text>
            <text text-anchor="middle" x="416" y="-197.8" font-family="Times,serif" font-size="14.00">ReservationId
            </text>
        </g>
        <!-- mrs.domain.model.reservation.Reservation&#45;&gt;mrs.domain.model.reservation.ReservationId -->
        <g id="edge12" class="edge">
            <title>mrs.domain.model.reservation.Reservation&#45;&gt;mrs.domain.model.reservation.ReservationId</title>
            <path fill="none" stroke="black" d="M419.03,-266.84C418.58,-258.34 418.03,-248.01 417.52,-238.5"/>
            <polygon fill="black" stroke="black" points="421,-238.05 416.97,-228.25 414.01,-238.42 421,-238.05"/>
        </g>
        <!-- mrs.domain.model.reservation.Reservation&#45;&gt;mrs.domain.model.reservation.datetime.ReservedDate -->
        <g id="edge13" class="edge">
            <title>mrs.domain.model.reservation.Reservation&#45;&gt;mrs.domain.model.reservation.datetime.ReservedDate
            </title>
            <path fill="none" stroke="black"
                  d="M460.78,-277.9C509.12,-266.96 586.91,-240.73 617,-182 632.61,-151.54 634.52,-134.4 617,-105 610.09,-93.4 599.12,-84.55 587.33,-77.86"/>
            <polygon fill="black" stroke="black" points="588.7,-74.63 578.21,-73.16 585.49,-80.85 588.7,-74.63"/>
        </g>
        <!-- mrs.domain.model.reservation.datetime.ReservedDateTime -->
        <g id="node8" class="node">
            <title>mrs.domain.model.reservation.datetime.ReservedDateTime</title>
            <polygon fill="#eedd82" stroke="black" points="608,-151 486,-151 486,-113 608,-113 608,-151"/>
            <text text-anchor="middle" x="547" y="-135.8" font-family="Times,serif" font-size="14.00">予約日時</text>
            <text text-anchor="middle" x="547" y="-120.8" font-family="Times,serif" font-size="14.00">ReservedDateTime
            </text>
        </g>
        <!-- mrs.domain.model.reservation.Reservation&#45;&gt;mrs.domain.model.reservation.datetime.ReservedDateTime -->
        <g id="edge14" class="edge">
            <title>mrs.domain.model.reservation.Reservation&#45;&gt;mrs.domain.model.reservation.datetime.ReservedDateTime</title>
            <path fill="none" stroke="black"
                  d="M460.67,-267C464.36,-264.58 467.87,-261.91 471,-259 500.97,-231.09 523.21,-188.73 535.65,-160.95"/>
            <polygon fill="black" stroke="black" points="539.01,-162 539.78,-151.44 532.59,-159.21 539.01,-162"/>
        </g>
        <!-- mrs.domain.model.reservation.datetime.ReservedTime -->
        <g id="node9" class="node">
            <title>mrs.domain.model.reservation.datetime.ReservedTime</title>
            <polygon fill="#eedd82" stroke="black" points="692,-77 596,-77 596,-39 692,-39 692,-77"/>
            <text text-anchor="middle" x="644" y="-61.8" font-family="Times,serif" font-size="14.00">予約時間</text>
            <text text-anchor="middle" x="644" y="-46.8" font-family="Times,serif" font-size="14.00">ReservedTime</text>
        </g>
        <!-- mrs.domain.model.reservation.Reservation&#45;&gt;mrs.domain.model.reservation.datetime.ReservedTime -->
        <g id="edge15" class="edge">
            <title>mrs.domain.model.reservation.Reservation&#45;&gt;mrs.domain.model.reservation.datetime.ReservedTime
            </title>
            <path fill="none" stroke="black"
                  d="M460.63,-284.95C601.9,-284.57 1064.27,-281.6 1086,-259 1133.44,-209.67 1131.82,-155.84 1086,-105 1060.77,-77.01 816.55,-64.95 702.34,-60.81"/>
            <polygon fill="black" stroke="black" points="702.15,-57.3 692.03,-60.44 701.9,-64.29 702.15,-57.3"/>
        </g>
        <!-- mrs.domain.model.user.User -->
        <g id="node16" class="node">
            <title>mrs.domain.model.user.User</title>
            <polygon fill="#eedd82" stroke="black" points="891,-228 817,-228 817,-190 891,-190 891,-228"/>
            <text text-anchor="middle" x="854" y="-212.8" font-family="Times,serif" font-size="14.00">ユーザー</text>
            <text text-anchor="middle" x="854" y="-197.8" font-family="Times,serif" font-size="14.00">User</text>
        </g>
        <!-- mrs.domain.model.reservation.Reservation&#45;&gt;mrs.domain.model.user.User -->
        <g id="edge16" class="edge">
            <title>mrs.domain.model.reservation.Reservation&#45;&gt;mrs.domain.model.user.User</title>
            <path fill="none" stroke="black"
                  d="M460.52,-281.94C506.63,-278.1 584.1,-270.59 650,-259 704.35,-249.44 765.82,-234.03 806.95,-223.05"/>
            <polygon fill="black" stroke="black" points="807.94,-226.4 816.69,-220.43 806.13,-219.64 807.94,-226.4"/>
        </g>
        <!-- mrs.domain.model.reservation.Reservations -->
        <g id="node6" class="node">
            <title>mrs.domain.model.reservation.Reservations</title>
            <polygon fill="#eedd82" stroke="black" points="462,-379 376,-379 376,-341 462,-341 462,-379"/>
            <text text-anchor="middle" x="419" y="-363.8" font-family="Times,serif" font-size="14.00">予約一覧</text>
            <text text-anchor="middle" x="419" y="-348.8" font-family="Times,serif" font-size="14.00">Reservations
            </text>
        </g>
        <!-- mrs.domain.model.reservation.Reservations&#45;&gt;mrs.domain.model.reservation.Reservation -->
        <g id="edge17" class="edge">
            <title>mrs.domain.model.reservation.Reservations&#45;&gt;mrs.domain.model.reservation.Reservation</title>
            <path fill="none" stroke="black" d="M419.25,-340.83C419.36,-333.13 419.49,-323.97 419.61,-315.42"/>
            <polygon fill="black" stroke="black" points="423.1,-315.46 419.74,-305.41 416.11,-315.36 423.1,-315.46"/>
        </g>
        <!-- mrs.domain.model.reservation.datetime.ReservedDateTime&#45;&gt;mrs.domain.model.reservation.datetime.ReservedDate -->
        <g id="edge6" class="edge">
            <title>mrs.domain.model.reservation.datetime.ReservedDateTime&#45;&gt;mrs.domain.model.reservation.datetime.ReservedDate</title>
            <path fill="none" stroke="black" d="M543.21,-112.83C541.61,-105.13 539.7,-95.97 537.92,-87.42"/>
            <polygon fill="black" stroke="black" points="541.3,-86.49 535.84,-77.41 534.45,-87.92 541.3,-86.49"/>
        </g>
        <!-- mrs.domain.model.reservation.datetime.ReservedDateTime&#45;&gt;mrs.domain.model.reservation.datetime.ReservedTime -->
        <g id="edge7" class="edge">
            <title>mrs.domain.model.reservation.datetime.ReservedDateTime&#45;&gt;mrs.domain.model.reservation.datetime.ReservedTime</title>
            <path fill="none" stroke="black" d="M571.48,-112.83C583.54,-103.88 598.25,-92.96 611.27,-83.3"/>
            <polygon fill="black" stroke="black" points="613.59,-85.93 619.53,-77.16 609.41,-80.31 613.59,-85.93"/>
        </g>
        <!-- mrs.domain.model.room.MeetingRoom&#45;&gt;mrs.domain.model.room.RoomId -->
        <g id="edge1" class="edge">
            <title>mrs.domain.model.room.MeetingRoom&#45;&gt;mrs.domain.model.room.RoomId</title>
            <path fill="none" stroke="black" d="M146.78,-112.83C147.95,-105.13 149.35,-95.97 150.66,-87.42"/>
            <polygon fill="black" stroke="black" points="154.14,-87.83 152.19,-77.41 147.22,-86.77 154.14,-87.83"/>
        </g>
        <!-- mrs.domain.model.room.RoomName -->
        <g id="node12" class="node">
            <title>mrs.domain.model.room.RoomName</title>
            <polygon fill="#eedd82" stroke="black" points="99.5,-77 16.5,-77 16.5,-39 99.5,-39 99.5,-77"/>
            <text text-anchor="middle" x="58" y="-61.8" font-family="Times,serif" font-size="14.00">会議室名</text>
            <text text-anchor="middle" x="58" y="-46.8" font-family="Times,serif" font-size="14.00">RoomName</text>
        </g>
        <!-- mrs.domain.model.room.MeetingRoom&#45;&gt;mrs.domain.model.room.RoomName -->
        <g id="edge2" class="edge">
            <title>mrs.domain.model.room.MeetingRoom&#45;&gt;mrs.domain.model.room.RoomName</title>
            <path fill="none" stroke="black" d="M122.3,-112.83C111.81,-104.05 99.05,-93.37 87.68,-83.85"/>
            <polygon fill="black" stroke="black" points="89.61,-80.9 79.69,-77.16 85.12,-86.27 89.61,-80.9"/>
        </g>
        <!-- mrs.domain.model.user.Name -->
        <g id="node13" class="node">
            <title>mrs.domain.model.user.Name</title>
            <polygon fill="#eedd82" stroke="black" points="970,-151 916,-151 916,-113 970,-113 970,-151"/>
            <text text-anchor="middle" x="943" y="-135.8" font-family="Times,serif" font-size="14.00">氏名</text>
            <text text-anchor="middle" x="943" y="-120.8" font-family="Times,serif" font-size="14.00">Name</text>
        </g>
        <!-- mrs.domain.model.user.Password -->
        <g id="node14" class="node">
            <title>mrs.domain.model.user.Password</title>
            <polygon fill="#eedd82" stroke="black" points="1074,-151 988,-151 988,-113 1074,-113 1074,-151"/>
            <text text-anchor="middle" x="1031" y="-135.8" font-family="Times,serif" font-size="14.00">パスワード</text>
            <text text-anchor="middle" x="1031" y="-120.8" font-family="Times,serif" font-size="14.00">Password</text>
        </g>
        <!-- mrs.domain.model.user.RoleName -->
        <g id="node15" class="node">
            <title>mrs.domain.model.user.RoleName</title>
            <polygon fill="#eedd82" stroke="black" points="791.5,-151 716.5,-151 716.5,-113 791.5,-113 791.5,-151"/>
            <text text-anchor="middle" x="754" y="-135.8" font-family="Times,serif" font-size="14.00">役割</text>
            <text text-anchor="middle" x="754" y="-120.8" font-family="Times,serif" font-size="14.00">RoleName</text>
        </g>
        <!-- mrs.domain.model.user.User&#45;&gt;mrs.domain.model.user.Name -->
        <g id="edge18" class="edge">
            <title>mrs.domain.model.user.User&#45;&gt;mrs.domain.model.user.Name</title>
            <path fill="none" stroke="black"
                  d="M891.06,-192.71C896.69,-189.59 902.2,-186.01 907,-182 914.41,-175.8 921.13,-167.77 926.7,-160.01"/>
            <polygon fill="black" stroke="black" points="929.76,-161.72 932.47,-151.47 923.97,-157.79 929.76,-161.72"/>
        </g>
        <!-- mrs.domain.model.user.User&#45;&gt;mrs.domain.model.user.Password -->
        <g id="edge19" class="edge">
            <title>mrs.domain.model.user.User&#45;&gt;mrs.domain.model.user.Password</title>
            <path fill="none" stroke="black"
                  d="M891.06,-205.63C916.92,-202.73 951.58,-196.29 979,-182 990.23,-176.15 1000.77,-167.17 1009.39,-158.49"/>
            <polygon fill="black" stroke="black" points="1012.12,-160.7 1016.44,-151.03 1007.03,-155.9 1012.12,-160.7"/>
        </g>
        <!-- mrs.domain.model.user.User&#45;&gt;mrs.domain.model.user.RoleName -->
        <g id="edge20" class="edge">
            <title>mrs.domain.model.user.User&#45;&gt;mrs.domain.model.user.RoleName</title>
            <path fill="none" stroke="black"
                  d="M816.82,-191.85C811.33,-188.87 805.88,-185.57 801,-182 792.01,-175.43 783.25,-167.03 775.78,-159.05"/>
            <polygon fill="black" stroke="black" points="778.07,-156.37 768.77,-151.29 772.88,-161.06 778.07,-156.37"/>
        </g>
        <!-- mrs.domain.model.user.UserId -->
        <g id="node17" class="node">
            <title>mrs.domain.model.user.UserId</title>
            <polygon fill="#eedd82" stroke="black" points="898,-151 810,-151 810,-113 898,-113 898,-151"/>
            <text text-anchor="middle" x="854" y="-135.8" font-family="Times,serif" font-size="14.00">ユーザーID</text>
            <text text-anchor="middle" x="854" y="-120.8" font-family="Times,serif" font-size="14.00">UserId</text>
        </g>
        <!-- mrs.domain.model.user.User&#45;&gt;mrs.domain.model.user.UserId -->
        <g id="edge21" class="edge">
            <title>mrs.domain.model.user.User&#45;&gt;mrs.domain.model.user.UserId</title>
            <path fill="none" stroke="black" d="M854,-189.84C854,-181.34 854,-171.01 854,-161.5"/>
            <polygon fill="black" stroke="black" points="857.5,-161.25 854,-151.25 850.5,-161.25 857.5,-161.25"/>
        </g>
        <!-- mrs.domain.type.date.CurrentDate -->
        <g id="node18" class="node">
            <title>mrs.domain.type.date.CurrentDate</title>
            <polygon fill="#eedd82" stroke="red" points="857.5,-379 774.5,-379 774.5,-341 857.5,-341 857.5,-379"/>
            <text text-anchor="middle" x="816" y="-363.8" font-family="Times,serif" font-size="14.00">現在日</text>
            <text text-anchor="middle" x="816" y="-348.8" font-family="Times,serif" font-size="14.00">CurrentDate</text>
        </g>
        <!-- mrs.domain.type.date.Days -->
        <g id="node19" class="node">
            <title>mrs.domain.type.date.Days</title>
            <polygon fill="#eedd82" stroke="red" points="756,-379 702,-379 702,-341 756,-341 756,-379"/>
            <text text-anchor="middle" x="729" y="-363.8" font-family="Times,serif" font-size="14.00">日数</text>
            <text text-anchor="middle" x="729" y="-348.8" font-family="Times,serif" font-size="14.00">Days</text>
        </g>
    </g>
</svg>
