<svg width="499px" height="301px"
 viewBox="0.00 0.00 498.53 300.74" xmlns="http://www.w3.org/2000/svg" xmlns:xlink="http://www.w3.org/1999/xlink">
<g id="graph0" class="graph" transform="scale(1.0 1.0) rotate(0) translate(4 296.74)">
<title>区分使用図</title>
<polygon fill="white" stroke="transparent" points="-4,4 -4,-296.74 494.53,-296.74 494.53,4 -4,4"/>
<text text-anchor="middle" x="245.27" y="-7.8" font-family="Times,serif" font-size="14.00">区分使用図</text>
<!-- mrs.domain.model.user.RoleName -->
<g id="node1" class="node">
<title>mrs.domain.model.user.RoleName</title>
<polygon fill="#eedd82" stroke="black" points="490.53,-175.87 419.53,-175.87 415.53,-171.87 415.53,-139.87 486.53,-139.87 490.53,-143.87 490.53,-175.87"/>
<polyline fill="none" stroke="black" points="486.53,-171.87 415.53,-171.87 "/>
<polyline fill="none" stroke="black" points="486.53,-171.87 486.53,-139.87 "/>
<polyline fill="none" stroke="black" points="486.53,-171.87 490.53,-175.87 "/>
<text text-anchor="middle" x="453.03" y="-154.17" font-family="Times,serif" font-size="14.00">RoleName</text>
</g>
<!-- mrs.application.service.reservation.ReservationService.reserve(mrs.domain.model.reservation.Reservation) -->
<g id="node2" class="node">
<title>mrs.application.service.reservation.ReservationService.reserve(mrs.domain.model.reservation.Reservation)</title>
<g id="a_node2"><a xlink:href="https://github.com/system-sekkei/library/tree/master/src/main/java/mrs/application/service/reservation/ReservationService.java" xlink:title="ReservationService.reserve(Reservation)">
<ellipse fill="#eedd82" stroke="black" cx="86.27" cy="-265.87" rx="86.03" ry="26.74"/>
<text text-anchor="middle" x="86.27" y="-269.67" font-family="Times,serif" font-size="14.00">ReservationService</text>
<text text-anchor="middle" x="86.27" y="-254.67" font-family="Times,serif" font-size="14.00">reserve</text>
</a>
</g>
</g>
<!-- mrs.domain.model.reservation.Reservation -->
<g id="node6" class="node">
<title>mrs.domain.model.reservation.Reservation</title>
<polygon fill="white" stroke="black" points="289.53,-175.87 208.53,-175.87 208.53,-139.87 289.53,-139.87 289.53,-175.87"/>
<text text-anchor="middle" x="249.03" y="-154.17" font-family="Times,serif" font-size="14.00">Reservation</text>
</g>
<!-- mrs.application.service.reservation.ReservationService.reserve(mrs.domain.model.reservation.Reservation)&#45;&gt;mrs.domain.model.reservation.Reservation -->
<g id="edge3" class="edge">
<title>mrs.application.service.reservation.ReservationService.reserve(mrs.domain.model.reservation.Reservation)&#45;&gt;mrs.domain.model.reservation.Reservation</title>
<path fill="none" stroke="black" d="M143.35,-245.63C153.4,-241.06 163.53,-235.78 172.53,-229.87 192.27,-216.93 211.47,-198.51 225.57,-183.54"/>
<polygon fill="black" stroke="black" points="228.25,-185.8 232.46,-176.08 223.1,-181.05 228.25,-185.8"/>
</g>
<!-- mrs.application.service.reservation.ReservationService.cancel(mrs.domain.model.reservation.Reservation) -->
<g id="node3" class="node">
<title>mrs.application.service.reservation.ReservationService.cancel(mrs.domain.model.reservation.Reservation)</title>
<g id="a_node3"><a xlink:href="https://github.com/system-sekkei/library/tree/master/src/main/java/mrs/application/service/reservation/ReservationService.java" xlink:title="ReservationService.cancel(Reservation)">
<ellipse fill="#eedd82" stroke="black" cx="86.27" cy="-193.87" rx="86.03" ry="26.74"/>
<text text-anchor="middle" x="86.27" y="-197.67" font-family="Times,serif" font-size="14.00">ReservationService</text>
<text text-anchor="middle" x="86.27" y="-182.67" font-family="Times,serif" font-size="14.00">cancel</text>
</a>
</g>
</g>
<!-- mrs.application.service.reservation.ReservationService.cancel(mrs.domain.model.reservation.Reservation)&#45;&gt;mrs.domain.model.reservation.Reservation -->
<g id="edge4" class="edge">
<title>mrs.application.service.reservation.ReservationService.cancel(mrs.domain.model.reservation.Reservation)&#45;&gt;mrs.domain.model.reservation.Reservation</title>
<path fill="none" stroke="black" d="M156.85,-178.29C170.91,-175.14 185.43,-171.89 198.63,-168.93"/>
<polygon fill="black" stroke="black" points="199.44,-172.34 208.44,-166.74 197.91,-165.51 199.44,-172.34"/>
</g>
<!-- mrs.application.service.reservation.ReservationService.findOne(java.lang.Integer) -->
<g id="node4" class="node">
<title>mrs.application.service.reservation.ReservationService.findOne(java.lang.Integer)</title>
<g id="a_node4"><a xlink:href="https://github.com/system-sekkei/library/tree/master/src/main/java/mrs/application/service/reservation/ReservationService.java" xlink:title="ReservationService.findOne(Integer)">
<ellipse fill="#eedd82" stroke="black" cx="86.27" cy="-121.87" rx="86.03" ry="26.74"/>
<text text-anchor="middle" x="86.27" y="-125.67" font-family="Times,serif" font-size="14.00">ReservationService</text>
<text text-anchor="middle" x="86.27" y="-110.67" font-family="Times,serif" font-size="14.00">findOne</text>
</a>
</g>
</g>
<!-- mrs.application.service.reservation.ReservationService.findOne(java.lang.Integer)&#45;&gt;mrs.domain.model.reservation.Reservation -->
<g id="edge5" class="edge">
<title>mrs.application.service.reservation.ReservationService.findOne(java.lang.Integer)&#45;&gt;mrs.domain.model.reservation.Reservation</title>
<path fill="none" stroke="black" d="M156.85,-137.45C170.91,-140.6 185.43,-143.85 198.63,-146.81"/>
<polygon fill="black" stroke="black" points="197.91,-150.23 208.44,-149 199.44,-143.4 197.91,-150.23"/>
</g>
<!-- mrs.application.service.reservation.ReservationService.findReservations(mrs.domain.model.reservation.ReservableRoomId) -->
<g id="node5" class="node">
<title>mrs.application.service.reservation.ReservationService.findReservations(mrs.domain.model.reservation.ReservableRoomId)</title>
<g id="a_node5"><a xlink:href="https://github.com/system-sekkei/library/tree/master/src/main/java/mrs/application/service/reservation/ReservationService.java" xlink:title="ReservationService.findReservations(ReservableRoomId)">
<ellipse fill="#eedd82" stroke="black" cx="86.27" cy="-49.87" rx="86.03" ry="26.74"/>
<text text-anchor="middle" x="86.27" y="-53.67" font-family="Times,serif" font-size="14.00">ReservationService</text>
<text text-anchor="middle" x="86.27" y="-38.67" font-family="Times,serif" font-size="14.00">findReservations</text>
</a>
</g>
</g>
<!-- mrs.application.service.reservation.ReservationService.findReservations(mrs.domain.model.reservation.ReservableRoomId)&#45;&gt;mrs.domain.model.reservation.Reservation -->
<g id="edge6" class="edge">
<title>mrs.application.service.reservation.ReservationService.findReservations(mrs.domain.model.reservation.ReservableRoomId)&#45;&gt;mrs.domain.model.reservation.Reservation</title>
<path fill="none" stroke="black" d="M143.35,-70.11C153.4,-74.68 163.53,-79.96 172.53,-85.87 192.27,-98.81 211.47,-117.23 225.57,-132.2"/>
<polygon fill="black" stroke="black" points="223.1,-134.69 232.46,-139.66 228.25,-129.94 223.1,-134.69"/>
</g>
<!-- mrs.domain.model.user.User -->
<g id="node7" class="node">
<title>mrs.domain.model.user.User</title>
<polygon fill="white" stroke="black" points="379.53,-175.87 325.53,-175.87 325.53,-139.87 379.53,-139.87 379.53,-175.87"/>
<text text-anchor="middle" x="352.53" y="-154.17" font-family="Times,serif" font-size="14.00">User</text>
</g>
<!-- mrs.domain.model.reservation.Reservation&#45;&gt;mrs.domain.model.user.User -->
<g id="edge2" class="edge">
<title>mrs.domain.model.reservation.Reservation&#45;&gt;mrs.domain.model.user.User</title>
<path fill="none" stroke="black" d="M289.57,-157.87C298.02,-157.87 306.91,-157.87 315.24,-157.87"/>
<polygon fill="black" stroke="black" points="315.4,-161.37 325.4,-157.87 315.4,-154.37 315.4,-161.37"/>
</g>
<!-- mrs.domain.model.user.User&#45;&gt;mrs.domain.model.user.RoleName -->
<g id="edge1" class="edge">
<title>mrs.domain.model.user.User&#45;&gt;mrs.domain.model.user.RoleName</title>
<path fill="none" stroke="black" d="M379.67,-157.87C387.54,-157.87 396.42,-157.87 405.2,-157.87"/>
<polygon fill="black" stroke="black" points="405.39,-161.37 415.39,-157.87 405.39,-154.37 405.39,-161.37"/>
</g>
</g>
</svg>
