<svg width="260px" height="143px"
 viewBox="0.00 0.00 260.00 143.00" xmlns="http://www.w3.org/2000/svg" xmlns:xlink="http://www.w3.org/1999/xlink">
<g id="graph0" class="graph" transform="scale(1.0 1.0) rotate(0) translate(4 139)">
<title>パッケージ関連図</title>
<polygon fill="white" stroke="transparent" points="-4,4 -4,-139 256,-139 256,4 -4,4"/>
<text text-anchor="middle" x="126" y="-7.8" font-family="Times,serif" font-size="14.00">パッケージ関連図</text>
<!-- summary -->
<g id="node1" class="node">
<title>summary</title>
<polygon fill="none" stroke="black" points="110,-135 0,-135 0,-97 116,-97 116,-129 110,-135"/>
<polyline fill="none" stroke="black" points="110,-135 110,-129 "/>
<polyline fill="none" stroke="black" points="116,-129 110,-129 "/>
<text text-anchor="start" x="8" y="-119.8" font-family="Times,serif" font-size="14.00">パッケージ数: 3</text>
<text text-anchor="start" x="8" y="-104.8" font-family="Times,serif" font-size="14.00">関連数: 2</text>
</g>
<!-- mrs.domain.model.reservation -->
<g id="node2" class="node">
<title>mrs.domain.model.reservation</title>
<g id="a_node2"><a xlink:href="https://github.com/system-sekkei/library/tree/master/src/main/java/mrs/domain/model/reservation" xlink:title="予約\nreservation">
<polygon fill="#eedd82" stroke="black" points="211.5,-135 134.5,-135 134.5,-97 211.5,-97 211.5,-135"/>
<text text-anchor="middle" x="173" y="-119.8" font-family="Times,serif" font-size="14.00">予約</text>
<text text-anchor="middle" x="173" y="-104.8" font-family="Times,serif" font-size="14.00">reservation</text>
</a>
</g>
</g>
<!-- mrs.domain.model.room -->
<g id="node3" class="node">
<title>mrs.domain.model.room</title>
<g id="a_node3"><a xlink:href="https://github.com/system-sekkei/library/tree/master/src/main/java/mrs/domain/model/room" xlink:title="会議室\nroom">
<polygon fill="#eedd82" stroke="black" points="159.5,-61 100.5,-61 100.5,-23 159.5,-23 159.5,-61"/>
<text text-anchor="middle" x="130" y="-45.8" font-family="Times,serif" font-size="14.00">会議室</text>
<text text-anchor="middle" x="130" y="-30.8" font-family="Times,serif" font-size="14.00">room</text>
</a>
</g>
</g>
<!-- mrs.domain.model.reservation&#45;&gt;mrs.domain.model.room -->
<g id="edge1" class="edge">
<title>mrs.domain.model.reservation&#45;&gt;mrs.domain.model.room</title>
<path fill="none" stroke="black" d="M162.15,-96.83C157.3,-88.71 151.48,-78.96 146.13,-70.01"/>
<polygon fill="black" stroke="black" points="149.13,-68.2 141,-61.41 143.12,-71.79 149.13,-68.2"/>
</g>
<!-- mrs.domain.model.user -->
<g id="node4" class="node">
<title>mrs.domain.model.user</title>
<g id="a_node4"><a xlink:href="https://github.com/system-sekkei/library/tree/master/src/main/java/mrs/domain/model/user" xlink:title="ユーザー\nuser">
<polygon fill="#eedd82" stroke="black" points="252,-61 178,-61 178,-23 252,-23 252,-61"/>
<text text-anchor="middle" x="215" y="-45.8" font-family="Times,serif" font-size="14.00">ユーザー</text>
<text text-anchor="middle" x="215" y="-30.8" font-family="Times,serif" font-size="14.00">user</text>
</a>
</g>
</g>
<!-- mrs.domain.model.reservation&#45;&gt;mrs.domain.model.user -->
<g id="edge2" class="edge">
<title>mrs.domain.model.reservation&#45;&gt;mrs.domain.model.user</title>
<path fill="none" stroke="black" d="M183.6,-96.83C188.29,-88.79 193.9,-79.17 199.08,-70.29"/>
<polygon fill="black" stroke="black" points="202.24,-71.81 204.26,-61.41 196.2,-68.29 202.24,-71.81"/>
</g>
</g>
</svg>
