<svg xmlns:xlink="http://www.w3.org/1999/xlink" width="361px"
     height="251px" viewBox="0.00 0.00 360.50 251.00" xmlns="http://www.w3.org/2000/svg">
    <g id="graph0" class="graph" transform="scale(1.0 1.0) rotate(0) translate(4 247)">
        <title>パッケージ関連図</title>
        <polygon fill="white" stroke="transparent" points="-4,4 -4,-247 356.5,-247 356.5,4 -4,4"/>
        <text text-anchor="middle" x="176.25" y="-7.8" font-family="Times,serif" font-size="14.00">パッケージ関連図</text>
        <g id="clust1" class="cluster">
            <title>cluster_mrs.domain.model.reservation</title>
            <polygon fill="lemonchiffon" stroke="#eedd82" stroke-width="2"
                     points="193,-31 193,-197 283,-197 283,-31 193,-31"/>
            <text text-anchor="middle" x="238" y="-181.8" font-family="Times,serif" font-size="14.00">予約</text>
            <text text-anchor="middle" x="238" y="-166.8" font-family="Times,serif" font-size="14.00">reservation</text>
        </g>
        <!-- summary -->
        <g id="node1" class="node">
            <title>summary</title>
            <polygon fill="none" stroke="black" points="110,-243 0,-243 0,-205 116,-205 116,-237 110,-243"/>
            <polyline fill="none" stroke="black" points="110,-243 110,-237 "/>
            <polyline fill="none" stroke="black" points="116,-237 110,-237 "/>
            <text text-anchor="start" x="8" y="-227.8" font-family="Times,serif" font-size="14.00">パッケージ数: 6</text>
            <text text-anchor="start" x="8" y="-212.8" font-family="Times,serif" font-size="14.00">関連数: 5</text>
        </g>
        <!-- mrs.domain.model.reservation -->
        <g id="node2" class="node">
            <title>mrs.domain.model.reservation</title>
            <g id="a_node2">
                <a xlink:href="https://github.com/system-sekkei/library/tree/master/src/main/java/mrs/domain/model/reservation"
                   xlink:title="予約\nreservation">
                    <polygon fill="#eedd82" stroke="black"
                             points="211.5,-243 134.5,-243 134.5,-205 211.5,-205 211.5,-243"/>
                    <text text-anchor="middle" x="173" y="-227.8" font-family="Times,serif" font-size="14.00">予約</text>
                    <text text-anchor="middle" x="173" y="-212.8" font-family="Times,serif" font-size="14.00">
                        reservation
                    </text>
                </a>
            </g>
        </g>
        <!-- mrs.domain.model.user -->
        <g id="node3" class="node">
            <title>mrs.domain.model.user</title>
            <g id="a_node3">
                <a xlink:href="https://github.com/system-sekkei/library/tree/master/src/main/java/mrs/domain/model/user"
                   xlink:title="ユーザー\nuser">
                    <polygon fill="#eedd82" stroke="black" points="145,-151 71,-151 71,-113 145,-113 145,-151"/>
                    <text text-anchor="middle" x="108" y="-135.8" font-family="Times,serif" font-size="14.00">ユーザー
                    </text>
                    <text text-anchor="middle" x="108" y="-120.8" font-family="Times,serif" font-size="14.00">user
                    </text>
                </a>
            </g>
        </g>
        <!-- mrs.domain.model.reservation&#45;&gt;mrs.domain.model.user -->
        <g id="edge1" class="edge">
            <title>mrs.domain.model.reservation&#45;&gt;mrs.domain.model.user</title>
            <path fill="none" stroke="black" d="M159.85,-204.79C150.42,-191.73 137.58,-173.95 127.03,-159.35"/>
            <polygon fill="black" stroke="black" points="129.83,-157.24 121.13,-151.19 124.15,-161.34 129.83,-157.24"/>
        </g>
        <!-- mrs.domain.model.reservation.reservable -->
        <g id="node4" class="node">
            <title>mrs.domain.model.reservation.reservable</title>
            <g id="a_node4">
                <a xlink:href="https://github.com/system-sekkei/library/tree/master/src/main/java/mrs/domain/model/reservation/reservable"
                   xlink:title="予約可能\nreservable">
                    <polygon fill="#eedd82" stroke="black" points="275,-151 201,-151 201,-113 275,-113 275,-151"/>
                    <text text-anchor="middle" x="238" y="-135.8" font-family="Times,serif" font-size="14.00">予約可能
                    </text>
                    <text text-anchor="middle" x="238" y="-120.8" font-family="Times,serif" font-size="14.00">
                        reservable
                    </text>
                </a>
            </g>
        </g>
        <!-- mrs.domain.model.reservation&#45;&gt;mrs.domain.model.reservation.reservable -->
        <g id="edge4" class="edge">
            <title>mrs.domain.model.reservation&#45;&gt;mrs.domain.model.reservation.reservable</title>
            <path fill="none" stroke="black" d="M186.15,-204.79C195.58,-191.73 208.42,-173.95 218.97,-159.35"/>
            <polygon fill="black" stroke="black" points="221.85,-161.34 224.87,-151.19 216.17,-157.24 221.85,-161.34"/>
        </g>
        <!-- mrs.domain.model.reservation.datetime -->
        <g id="node5" class="node">
            <title>mrs.domain.model.reservation.datetime</title>
            <g id="a_node5">
                <a xlink:href="https://github.com/system-sekkei/library/tree/master/src/main/java/mrs/domain/model/reservation/datetime"
                   xlink:title="予約日時\ndatetime">
                    <polygon fill="#eedd82" stroke="black" points="275,-77 201,-77 201,-39 275,-39 275,-77"/>
                    <text text-anchor="middle" x="238" y="-61.8" font-family="Times,serif" font-size="14.00">予約日時</text>
                    <text text-anchor="middle" x="238" y="-46.8" font-family="Times,serif" font-size="14.00">datetime
                    </text>
                </a>
            </g>
        </g>
        <!-- mrs.domain.model.reservation&#45;&gt;mrs.domain.model.reservation.datetime -->
        <g id="edge5" class="edge">
            <title>mrs.domain.model.reservation&#45;&gt;mrs.domain.model.reservation.datetime</title>
            <path fill="none" stroke="black"
                  d="M173.23,-204.99C174.14,-182.46 177.85,-143.18 192,-113 196.75,-102.86 203.93,-93.11 211.22,-84.75"/>
            <polygon fill="black" stroke="black" points="213.97,-86.93 218.16,-77.2 208.81,-82.19 213.97,-86.93"/>
        </g>
        <!-- mrs.domain.model.reservation.reservable&#45;&gt;mrs.domain.model.reservation.datetime -->
        <g id="edge2" class="edge">
            <title>mrs.domain.model.reservation.reservable&#45;&gt;mrs.domain.model.reservation.datetime</title>
            <path fill="none" stroke="black" d="M238,-112.83C238,-105.13 238,-95.97 238,-87.42"/>
            <polygon fill="black" stroke="black" points="241.5,-87.41 238,-77.41 234.5,-87.41 241.5,-87.41"/>
        </g>
        <!-- mrs.domain.model.room -->
        <g id="node6" class="node">
            <title>mrs.domain.model.room</title>
            <g id="a_node6">
                <a xlink:href="https://github.com/system-sekkei/library/tree/master/src/main/java/mrs/domain/model/room"
                   xlink:title="会議室\nroom">
                    <polygon fill="#eedd82" stroke="black" points="352.5,-77 293.5,-77 293.5,-39 352.5,-39 352.5,-77"/>
                    <text text-anchor="middle" x="323" y="-61.8" font-family="Times,serif" font-size="14.00">会議室</text>
                    <text text-anchor="middle" x="323" y="-46.8" font-family="Times,serif" font-size="14.00">room</text>
                </a>
            </g>
        </g>
        <!-- mrs.domain.model.reservation.reservable&#45;&gt;mrs.domain.model.room -->
        <g id="edge3" class="edge">
            <title>mrs.domain.model.reservation.reservable&#45;&gt;mrs.domain.model.room</title>
            <path fill="none" stroke="black" d="M259.45,-112.83C269.82,-104.05 282.42,-93.37 293.66,-83.85"/>
            <polygon fill="black" stroke="black" points="296.19,-86.3 301.56,-77.16 291.67,-80.96 296.19,-86.3"/>
        </g>
        <!-- mrs.domain.type.date -->
        <g id="node7" class="node">
            <title>mrs.domain.type.date</title>
            <g id="a_node7">
                <a xlink:href="https://github.com/system-sekkei/library/tree/master/src/main/java/mrs/domain/type/date"
                   xlink:title="date">
                    <polygon fill="#eedd82" stroke="black" points="284,-242 230,-242 230,-206 284,-206 284,-242"/>
                    <text text-anchor="middle" x="257" y="-220.3" font-family="Times,serif" font-size="14.00">date
                    </text>
                </a>
            </g>
        </g>
    </g>
</svg>
