<svg width="556px" height="213px"
 viewBox="0.00 0.00 555.50 213.00" xmlns="http://www.w3.org/2000/svg" xmlns:xlink="http://www.w3.org/1999/xlink">
<g id="graph0" class="graph" transform="scale(1.0 1.0) rotate(0) translate(4 209)">
<title>パッケージ関連図</title>
<polygon fill="white" stroke="none" points="-4,4 -4,-209 551.5,-209 551.5,4 -4,4"/>
<text text-anchor="middle" x="273.75" y="-7.8" font-family="Times New Roman,serif" font-size="14.00">パッケージ関連図</text>
<g id="clust1" class="cluster"><title>cluster_mrs.domain.model</title>
<polygon fill="lemonchiffon" stroke="#eedd82" stroke-width="2" points="115.5,-31 115.5,-197 323.5,-197 323.5,-31 115.5,-31"/>
<text text-anchor="middle" x="219.5" y="-181.8" font-family="Times New Roman,serif" font-size="14.00">ビジネスルールを表現する複合型</text>
<text text-anchor="middle" x="219.5" y="-166.8" font-family="Times New Roman,serif" font-size="14.00">mrs.domain.model</text>
</g>
<g id="clust2" class="cluster"><title>cluster_mrs.domain.type</title>
<polygon fill="lemonchiffon" stroke="#eedd82" stroke-width="2" points="331.5,-106 331.5,-196 539.5,-196 539.5,-106 331.5,-106"/>
<text text-anchor="middle" x="435.5" y="-180.8" font-family="Times New Roman,serif" font-size="14.00">ビジネスルールを表現する基本型</text>
<text text-anchor="middle" x="435.5" y="-165.8" font-family="Times New Roman,serif" font-size="14.00">mrs.domain.type</text>
</g>
<!-- summary -->
<g id="node1" class="node"><title>summary</title>
<polygon fill="none" stroke="black" points="101,-151 0,-151 0,-113 107,-113 107,-145 101,-151"/>
<polyline fill="none" stroke="black" points="101,-151 101,-145 "/>
<polyline fill="none" stroke="black" points="107,-145 101,-145 "/>
<text text-anchor="start" x="8" y="-135.8" font-family="Times New Roman,serif" font-size="14.00">パッケージ数: 4</text>
<text text-anchor="start" x="8" y="-120.8" font-family="Times New Roman,serif" font-size="14.00">関連数: 2</text>
</g>
<!-- mrs.domain.model.reservation -->
<g id="node2" class="node"><title>mrs.domain.model.reservation</title>
<g id="a_node2"><a xlink:href="https://github.com/system-sekkei/library/tree/master/src/main/java/mrs/domain/model/reservation" xlink:title="予約\nreservation">
<polygon fill="#eedd82" stroke="black" points="239,-151 162,-151 162,-113 239,-113 239,-151"/>
<text text-anchor="middle" x="200.5" y="-135.8" font-family="Times New Roman,serif" font-size="14.00">予約</text>
<text text-anchor="middle" x="200.5" y="-120.8" font-family="Times New Roman,serif" font-size="14.00">reservation</text>
</a>
</g>
</g>
<!-- mrs.domain.model.room -->
<g id="node3" class="node"><title>mrs.domain.model.room</title>
<g id="a_node3"><a xlink:href="https://github.com/system-sekkei/library/tree/master/src/main/java/mrs/domain/model/room" xlink:title="会議室\nroom">
<polygon fill="#eedd82" stroke="black" points="185,-77 130,-77 130,-39 185,-39 185,-77"/>
<text text-anchor="middle" x="157.5" y="-61.8" font-family="Times New Roman,serif" font-size="14.00">会議室</text>
<text text-anchor="middle" x="157.5" y="-46.8" font-family="Times New Roman,serif" font-size="14.00">room</text>
</a>
</g>
</g>
<!-- mrs.domain.model.reservation&#45;&gt;mrs.domain.model.room -->
<g id="edge1" class="edge"><title>mrs.domain.model.reservation&#45;&gt;mrs.domain.model.room</title>
<path fill="none" stroke="black" d="M189.649,-112.831C184.798,-104.708 178.978,-94.9637 173.632,-86.0118"/>
<polygon fill="black" stroke="black" points="176.629,-84.2041 168.497,-77.4133 170.619,-87.7933 176.629,-84.2041"/>
</g>
<!-- mrs.domain.model.user -->
<g id="node4" class="node"><title>mrs.domain.model.user</title>
<g id="a_node4"><a xlink:href="https://github.com/system-sekkei/library/tree/master/src/main/java/mrs/domain/model/user" xlink:title="ユーザー\nuser">
<polygon fill="#eedd82" stroke="black" points="271.5,-77 203.5,-77 203.5,-39 271.5,-39 271.5,-77"/>
<text text-anchor="middle" x="237.5" y="-61.8" font-family="Times New Roman,serif" font-size="14.00">ユーザー</text>
<text text-anchor="middle" x="237.5" y="-46.8" font-family="Times New Roman,serif" font-size="14.00">user</text>
</a>
</g>
</g>
<!-- mrs.domain.model.reservation&#45;&gt;mrs.domain.model.user -->
<g id="edge2" class="edge"><title>mrs.domain.model.reservation&#45;&gt;mrs.domain.model.user</title>
<path fill="none" stroke="black" d="M209.837,-112.831C213.924,-104.877 218.81,-95.369 223.331,-86.5723"/>
<polygon fill="black" stroke="black" points="226.58,-87.9074 228.038,-77.4133 220.354,-84.7078 226.58,-87.9074"/>
</g>
<!-- mrs.domain.type.date -->
<g id="node5" class="node"><title>mrs.domain.type.date</title>
<g id="a_node5"><a xlink:href="https://github.com/system-sekkei/library/tree/master/src/main/java/mrs/domain/type/date" xlink:title="date">
<polygon fill="#eedd82" stroke="black" points="462.5,-150 408.5,-150 408.5,-114 462.5,-114 462.5,-150"/>
<text text-anchor="middle" x="435.5" y="-128.3" font-family="Times New Roman,serif" font-size="14.00">date</text>
</a>
</g>
</g>
</g>
</svg>
