<svg xmlns:xlink="http://www.w3.org/1999/xlink" width="309px"
     height="235px" viewBox="0.00 0.00 309.00 235.00" xmlns="http://www.w3.org/2000/svg">
    <g id="graph0" class="graph" transform="scale(1.0 1.0) rotate(0) translate(4 231)">
        <title>パッケージ関連図</title>
        <polygon fill="white" stroke="transparent" points="-4,4 -4,-231 305,-231 305,4 -4,4"/>
        <text text-anchor="middle" x="150.5" y="-7.8" font-family="Times,serif" font-size="14.00">パッケージ関連図</text>
        <g id="clust1" class="cluster">
            <title>cluster_mrs.domain.model.reservation.reservable</title>
            <polygon fill="lemonchiffon" stroke="#eedd82" stroke-width="2"
                     points="8,-89 8,-181 144,-181 144,-89 8,-89"/>
            <text text-anchor="middle" x="76" y="-165.8" font-family="Times,serif" font-size="14.00">予約可能</text>
            <text text-anchor="middle" x="76" y="-150.8" font-family="Times,serif" font-size="14.00">
                reservation.reservable
            </text>
        </g>
        <!-- summary -->
        <g id="node1" class="node">
            <title>summary</title>
            <polygon fill="none" stroke="black" points="127,-227 17,-227 17,-189 133,-189 133,-221 127,-227"/>
            <polyline fill="none" stroke="black" points="127,-227 127,-221 "/>
            <polyline fill="none" stroke="black" points="133,-221 127,-221 "/>
            <text text-anchor="start" x="25" y="-211.8" font-family="Times,serif" font-size="14.00">パッケージ数: 6</text>
            <text text-anchor="start" x="25" y="-196.8" font-family="Times,serif" font-size="14.00">関連数: 5</text>
        </g>
        <!-- mrs.domain.model.reservation -->
        <g id="node2" class="node">
            <title>mrs.domain.model.reservation</title>
            <g id="a_node2">
                <a xlink:href="https://github.com/system-sekkei/library/tree/master/src/main/java/mrs/domain/model/reservation"
                   xlink:title="予約\nreservation">
                    <polygon fill="#eedd82" stroke="black"
                             points="228.5,-227 151.5,-227 151.5,-189 228.5,-189 228.5,-227"/>
                    <text text-anchor="middle" x="190" y="-211.8" font-family="Times,serif" font-size="14.00">予約</text>
                    <text text-anchor="middle" x="190" y="-196.8" font-family="Times,serif" font-size="14.00">
                        reservation
                    </text>
                </a>
            </g>
        </g>
        <!-- mrs.domain.model.reservation.reservable.room -->
        <g id="node3" class="node">
            <title>mrs.domain.model.reservation.reservable.room</title>
            <g id="a_node3">
                <a xlink:href="https://github.com/system-sekkei/library/tree/master/src/main/java/mrs/domain/model/reservation/reservable/room"
                   xlink:title="会議室\nroom">
                    <polygon fill="#eedd82" stroke="black" points="134.5,-135 75.5,-135 75.5,-97 134.5,-97 134.5,-135"/>
                    <text text-anchor="middle" x="105" y="-119.8" font-family="Times,serif" font-size="14.00">会議室</text>
                    <text text-anchor="middle" x="105" y="-104.8" font-family="Times,serif" font-size="14.00">room
                    </text>
                </a>
            </g>
        </g>
        <!-- mrs.domain.model.reservation&#45;&gt;mrs.domain.model.reservation.reservable.room -->
        <g id="edge1" class="edge">
            <title>mrs.domain.model.reservation&#45;&gt;mrs.domain.model.reservation.reservable.room</title>
            <path fill="none" stroke="black"
                  d="M153.58,-188.81C150.16,-186.42 146.9,-183.81 144,-181 133.2,-170.54 124.2,-156.49 117.58,-144.21"/>
            <polygon fill="black" stroke="black" points="120.67,-142.56 112.99,-135.26 114.44,-145.76 120.67,-142.56"/>
        </g>
        <!-- mrs.domain.model.user -->
        <g id="node4" class="node">
            <title>mrs.domain.model.user</title>
            <g id="a_node4">
                <a xlink:href="https://github.com/system-sekkei/library/tree/master/src/main/java/mrs/domain/model/user"
                   xlink:title="ユーザー\nuser">
                    <polygon fill="#eedd82" stroke="black" points="227,-135 153,-135 153,-97 227,-97 227,-135"/>
                    <text text-anchor="middle" x="190" y="-119.8" font-family="Times,serif" font-size="14.00">ユーザー
                    </text>
                    <text text-anchor="middle" x="190" y="-104.8" font-family="Times,serif" font-size="14.00">user
                    </text>
                </a>
            </g>
        </g>
        <!-- mrs.domain.model.reservation&#45;&gt;mrs.domain.model.user -->
        <g id="edge2" class="edge">
            <title>mrs.domain.model.reservation&#45;&gt;mrs.domain.model.user</title>
            <path fill="none" stroke="black" d="M190,-188.79C190,-176.34 190,-159.61 190,-145.42"/>
            <polygon fill="black" stroke="black" points="193.5,-145.19 190,-135.19 186.5,-145.19 193.5,-145.19"/>
        </g>
        <!-- mrs.domain.model.reservation.datetime -->
        <g id="node5" class="node">
            <title>mrs.domain.model.reservation.datetime</title>
            <g id="a_node5">
                <a xlink:href="https://github.com/system-sekkei/library/tree/master/src/main/java/mrs/domain/model/reservation/datetime"
                   xlink:title="予約日時\nreservation.datetime">
                    <polygon fill="#eedd82" stroke="black" points="300,-61 172,-61 172,-23 300,-23 300,-61"/>
                    <text text-anchor="middle" x="236" y="-45.8" font-family="Times,serif" font-size="14.00">予約日時</text>
                    <text text-anchor="middle" x="236" y="-30.8" font-family="Times,serif" font-size="14.00">
                        reservation.datetime
                    </text>
                </a>
            </g>
        </g>
        <!-- mrs.domain.model.reservation&#45;&gt;mrs.domain.model.reservation.datetime -->
        <g id="edge5" class="edge">
            <title>mrs.domain.model.reservation&#45;&gt;mrs.domain.model.reservation.datetime</title>
            <path fill="none" stroke="black"
                  d="M228.62,-189.85C231.52,-187.26 234.06,-184.33 236,-181 255.68,-147.27 250.3,-100.56 243.79,-71.06"/>
            <polygon fill="black" stroke="black" points="247.12,-69.94 241.39,-61.03 240.32,-71.57 247.12,-69.94"/>
        </g>
        <!-- mrs.domain.model.reservation.reservable.room&#45;&gt;mrs.domain.model.reservation.datetime -->
        <g id="edge3" class="edge">
            <title>mrs.domain.model.reservation.reservable.room&#45;&gt;mrs.domain.model.reservation.datetime</title>
            <path fill="none" stroke="black"
                  d="M131.15,-96.92C135.39,-94.18 139.78,-91.45 144,-89 157.94,-80.91 173.48,-72.81 187.76,-65.71"/>
            <polygon fill="black" stroke="black" points="189.51,-68.75 196.94,-61.2 186.42,-62.47 189.51,-68.75"/>
        </g>
        <!-- mrs.domain.model.room -->
        <g id="node6" class="node">
            <title>mrs.domain.model.room</title>
            <g id="a_node6">
                <a xlink:href="https://github.com/system-sekkei/library/tree/master/src/main/java/mrs/domain/model/room"
                   xlink:title="会議室\nroom">
                    <polygon fill="#eedd82" stroke="black" points="134.5,-61 75.5,-61 75.5,-23 134.5,-23 134.5,-61"/>
                    <text text-anchor="middle" x="105" y="-45.8" font-family="Times,serif" font-size="14.00">会議室</text>
                    <text text-anchor="middle" x="105" y="-30.8" font-family="Times,serif" font-size="14.00">room</text>
                </a>
            </g>
        </g>
        <!-- mrs.domain.model.reservation.reservable.room&#45;&gt;mrs.domain.model.room -->
        <g id="edge4" class="edge">
            <title>mrs.domain.model.reservation.reservable.room&#45;&gt;mrs.domain.model.room</title>
            <path fill="none" stroke="black" d="M105,-96.83C105,-89.13 105,-79.97 105,-71.42"/>
            <polygon fill="black" stroke="black" points="108.5,-71.41 105,-61.41 101.5,-71.41 108.5,-71.41"/>
        </g>
        <!-- mrs.domain.type.date -->
        <g id="node7" class="node">
            <title>mrs.domain.type.date</title>
            <g id="a_node7">
                <a xlink:href="https://github.com/system-sekkei/library/tree/master/src/main/java/mrs/domain/type/date"
                   xlink:title="date">
                    <polygon fill="#eedd82" stroke="black" points="301,-226 247,-226 247,-190 301,-190 301,-226"/>
                    <text text-anchor="middle" x="274" y="-204.3" font-family="Times,serif" font-size="14.00">date
                    </text>
                </a>
            </g>
        </g>
    </g>
</svg>
