<svg xmlns:xlink="http://www.w3.org/1999/xlink" width="314px"
     height="235px" viewBox="0.00 0.00 314.00 235.00" xmlns="http://www.w3.org/2000/svg">
    <g id="graph0" class="graph" transform="scale(1.0 1.0) rotate(0) translate(4 231)">
        <title>パッケージ関連図</title>
        <polygon fill="white" stroke="transparent" points="-4,4 -4,-231 310,-231 310,4 -4,4"/>
        <text text-anchor="middle" x="153" y="-7.8" font-family="Times New Roman,serif" font-size="14.00">パッケージ関連図
        </text>
        <g id="clust1" class="cluster">
            <title>cluster_mrs.domain.model.reservation.reservable</title>
            <polygon fill="lemonchiffon" stroke="#eedd82" stroke-width="2"
                     points="11,-89 11,-181 148,-181 148,-89 11,-89"/>
            <text text-anchor="middle" x="79.5" y="-165.8" font-family="Times New Roman,serif" font-size="14.00">予約可能
            </text>
            <text text-anchor="middle" x="79.5" y="-150.8" font-family="Times New Roman,serif" font-size="14.00">
                reservation.reservable
            </text>
        </g>
        <!-- summary -->
        <g id="node1" class="node">
            <title>summary</title>
            <polygon fill="none" stroke="black" points="128,-227 0,-227 0,-189 134,-189 134,-221 128,-227"/>
            <polyline fill="none" stroke="black" points="128,-227 128,-221 "/>
            <polyline fill="none" stroke="black" points="134,-221 128,-221 "/>
            <text text-anchor="start" x="8" y="-211.8" font-family="Times New Roman,serif" font-size="14.00">パッケージ数: 6
            </text>
            <text text-anchor="start" x="8" y="-196.8" font-family="Times New Roman,serif" font-size="14.00">関連数: 5
            </text>
        </g>
        <!-- mrs.domain.model.reservation -->
        <g id="node2" class="node">
            <title>mrs.domain.model.reservation</title>
            <g id="a_node2">
                <a xlink:href="https://github.com/system-sekkei/library/tree/master/src/main/java/mrs/domain/model/reservation"
                   xlink:title="予約\nreservation">
                    <polygon fill="#eedd82" stroke="black"
                             points="229.5,-227 152.5,-227 152.5,-189 229.5,-189 229.5,-227"/>
                    <text text-anchor="middle" x="191" y="-211.8" font-family="Times New Roman,serif" font-size="14.00">
                        予約
                    </text>
                    <text text-anchor="middle" x="191" y="-196.8" font-family="Times New Roman,serif" font-size="14.00">
                        reservation
                    </text>
                </a>
            </g>
        </g>
        <!-- mrs.domain.model.reservation.reservable.room -->
        <g id="node3" class="node">
            <title>mrs.domain.model.reservation.reservable.room</title>
            <g id="a_node3">
                <a xlink:href="https://github.com/system-sekkei/library/tree/master/src/main/java/mrs/domain/model/reservation/reservable/room"
                   xlink:title="会議室\nroom">
                    <polygon fill="#eedd82" stroke="black" points="139,-135 71,-135 71,-97 139,-97 139,-135"/>
                    <text text-anchor="middle" x="105" y="-119.8" font-family="Times New Roman,serif" font-size="14.00">
                        会議室
                    </text>
                    <text text-anchor="middle" x="105" y="-104.8" font-family="Times New Roman,serif" font-size="14.00">
                        room
                    </text>
                </a>
            </g>
        </g>
        <!-- mrs.domain.model.reservation&#45;&gt;mrs.domain.model.reservation.reservable.room -->
        <g id="edge1" class="edge">
            <title>mrs.domain.model.reservation&#45;&gt;mrs.domain.model.reservation.reservable.room</title>
            <path fill="none" stroke="black"
                  d="M157.53,-188.81C154.15,-186.38 150.9,-183.77 148,-181 136.8,-170.33 126.96,-156.25 119.52,-144.02"/>
            <polygon fill="black" stroke="black" points="122.38,-141.98 114.32,-135.11 116.34,-145.51 122.38,-141.98"/>
        </g>
        <!-- mrs.domain.model.user -->
        <g id="node4" class="node">
            <title>mrs.domain.model.user</title>
            <g id="a_node4">
                <a xlink:href="https://github.com/system-sekkei/library/tree/master/src/main/java/mrs/domain/model/user"
                   xlink:title="利用者\nuser">
                    <polygon fill="#eedd82" stroke="black" points="225,-135 157,-135 157,-97 225,-97 225,-135"/>
                    <text text-anchor="middle" x="191" y="-119.8" font-family="Times New Roman,serif" font-size="14.00">
                        利用者
                    </text>
                    <text text-anchor="middle" x="191" y="-104.8" font-family="Times New Roman,serif" font-size="14.00">
                        user
                    </text>
                </a>
            </g>
        </g>
        <!-- mrs.domain.model.reservation&#45;&gt;mrs.domain.model.user -->
        <g id="edge2" class="edge">
            <title>mrs.domain.model.reservation&#45;&gt;mrs.domain.model.user</title>
            <path fill="none" stroke="black" d="M191,-188.79C191,-176.34 191,-159.61 191,-145.42"/>
            <polygon fill="black" stroke="black" points="194.5,-145.19 191,-135.19 187.5,-145.19 194.5,-145.19"/>
        </g>
        <!-- mrs.domain.model.reservation.datetime -->
        <g id="node5" class="node">
            <title>mrs.domain.model.reservation.datetime</title>
            <g id="a_node5">
                <a xlink:href="https://github.com/system-sekkei/library/tree/master/src/main/java/mrs/domain/model/reservation/datetime"
                   xlink:title="予約日時\nreservation.datetime">
                    <polygon fill="#eedd82" stroke="black" points="306,-61 178,-61 178,-23 306,-23 306,-61"/>
                    <text text-anchor="middle" x="242" y="-45.8" font-family="Times New Roman,serif" font-size="14.00">
                        予約日時
                    </text>
                    <text text-anchor="middle" x="242" y="-30.8" font-family="Times New Roman,serif" font-size="14.00">
                        reservation.datetime
                    </text>
                </a>
            </g>
        </g>
        <!-- mrs.domain.model.reservation&#45;&gt;mrs.domain.model.reservation.datetime -->
        <g id="edge5" class="edge">
            <title>mrs.domain.model.reservation&#45;&gt;mrs.domain.model.reservation.datetime</title>
            <path fill="none" stroke="black"
                  d="M227.72,-188.73C230.14,-186.41 232.29,-183.84 234,-181 254.19,-147.5 251.92,-100.72 247.6,-71.15"/>
            <polygon fill="black" stroke="black" points="251.02,-70.39 245.95,-61.09 244.11,-71.52 251.02,-70.39"/>
        </g>
        <!-- mrs.domain.model.reservation.reservable.room&#45;&gt;mrs.domain.model.reservation.datetime -->
        <g id="edge3" class="edge">
            <title>mrs.domain.model.reservation.reservable.room&#45;&gt;mrs.domain.model.reservation.datetime</title>
            <path fill="none" stroke="black"
                  d="M134.41,-96.75C138.92,-94.08 143.56,-91.42 148,-89 162.79,-80.93 179.21,-72.67 194.12,-65.41"/>
            <polygon fill="black" stroke="black" points="195.7,-68.54 203.19,-61.04 192.66,-62.23 195.7,-68.54"/>
        </g>
        <!-- mrs.domain.model.facility.room -->
        <g id="node6" class="node">
            <title>mrs.domain.model.facility.room</title>
            <g id="a_node6">
                <a xlink:href="https://github.com/system-sekkei/library/tree/master/src/main/java/mrs/domain/model/facility/room"
                   xlink:title="会議室\nfacility.room">
                    <polygon fill="#eedd82" stroke="black" points="148.5,-61 61.5,-61 61.5,-23 148.5,-23 148.5,-61"/>
                    <text text-anchor="middle" x="105" y="-45.8" font-family="Times New Roman,serif" font-size="14.00">
                        会議室
                    </text>
                    <text text-anchor="middle" x="105" y="-30.8" font-family="Times New Roman,serif" font-size="14.00">
                        facility.room
                    </text>
                </a>
            </g>
        </g>
        <!-- mrs.domain.model.reservation.reservable.room&#45;&gt;mrs.domain.model.facility.room -->
        <g id="edge4" class="edge">
            <title>mrs.domain.model.reservation.reservable.room&#45;&gt;mrs.domain.model.facility.room</title>
            <path fill="none" stroke="black" d="M105,-96.83C105,-89.13 105,-79.97 105,-71.42"/>
            <polygon fill="black" stroke="black" points="108.5,-71.41 105,-61.41 101.5,-71.41 108.5,-71.41"/>
        </g>
        <!-- mrs.domain.type.date -->
        <g id="node7" class="node">
            <title>mrs.domain.type.date</title>
            <g id="a_node7">
                <a xlink:href="https://github.com/system-sekkei/library/tree/master/src/main/java/mrs/domain/type/date"
                   xlink:title="date">
                    <polygon fill="#eedd82" stroke="black" points="302,-226 248,-226 248,-190 302,-190 302,-226"/>
                    <text text-anchor="middle" x="275" y="-204.3" font-family="Times New Roman,serif" font-size="14.00">
                        date
                    </text>
                </a>
            </g>
        </g>
    </g>
</svg>
