<svg xmlns:xlink="http://www.w3.org/1999/xlink" width="383px"
     height="269px" viewBox="0.00 0.00 383.00 269.00" xmlns="http://www.w3.org/2000/svg">
    <g id="graph0" class="graph" transform="scale(1.0 1.0) rotate(0) translate(4 265)">
        <title>パッケージ関連図</title>
        <polygon fill="white" stroke="transparent" points="-4,4 -4,-265 379,-265 379,4 -4,4"/>
        <text text-anchor="middle" x="187.5" y="-7.8" font-family="Times,serif" font-size="14.00">パッケージ関連図</text>
        <g id="clust1" class="cluster">
            <title>cluster_mrs.domain.model.reservation</title>
            <polygon fill="lemonchiffon" stroke="#eedd82" stroke-width="2"
                     points="193,-31 193,-215 283,-215 283,-31 193,-31"/>
            <text text-anchor="middle" x="238" y="-199.8" font-family="Times,serif" font-size="14.00">予約</text>
            <text text-anchor="middle" x="238" y="-184.8" font-family="Times,serif" font-size="14.00">reservation</text>
        </g>
        <g id="clust2" class="cluster">
            <title>cluster_mrs.domain.model.facility</title>
            <polygon fill="lemonchiffon" stroke="#eedd82" stroke-width="2"
                     points="291,-31 291,-123 367,-123 367,-31 291,-31"/>
            <text text-anchor="middle" x="329" y="-107.8" font-family="Times,serif" font-size="14.00">設備</text>
            <text text-anchor="middle" x="329" y="-92.8" font-family="Times,serif" font-size="14.00">facility</text>
        </g>
        <!-- summary -->
        <g id="node1" class="node">
            <title>summary</title>
            <polygon fill="none" stroke="black" points="110,-261 0,-261 0,-223 116,-223 116,-255 110,-261"/>
            <polyline fill="none" stroke="black" points="110,-261 110,-255 "/>
            <polyline fill="none" stroke="black" points="116,-255 110,-255 "/>
            <text text-anchor="start" x="8" y="-245.8" font-family="Times,serif" font-size="14.00">パッケージ数: 6</text>
            <text text-anchor="start" x="8" y="-230.8" font-family="Times,serif" font-size="14.00">関連数: 5</text>
        </g>
        <!-- mrs.domain.model.reservation -->
        <g id="node2" class="node">
            <title>mrs.domain.model.reservation</title>
            <g id="a_node2">
                <a xlink:href="https://github.com/system-sekkei/library/tree/master/src/main/java/mrs/domain/model/reservation"
                   xlink:title="予約\nreservation">
                    <polygon fill="#eedd82" stroke="black"
                             points="211.5,-261 134.5,-261 134.5,-223 211.5,-223 211.5,-261"/>
                    <text text-anchor="middle" x="173" y="-245.8" font-family="Times,serif" font-size="14.00">予約</text>
                    <text text-anchor="middle" x="173" y="-230.8" font-family="Times,serif" font-size="14.00">
                        reservation
                    </text>
                </a>
            </g>
        </g>
        <!-- mrs.domain.model.user -->
        <g id="node3" class="node">
            <title>mrs.domain.model.user</title>
            <g id="a_node3">
                <a xlink:href="https://github.com/system-sekkei/library/tree/master/src/main/java/mrs/domain/model/user"
                   xlink:title="利用者\nuser">
                    <polygon fill="#eedd82" stroke="black"
                             points="144.5,-169 85.5,-169 85.5,-131 144.5,-131 144.5,-169"/>
                    <text text-anchor="middle" x="115" y="-153.8" font-family="Times,serif" font-size="14.00">利用者</text>
                    <text text-anchor="middle" x="115" y="-138.8" font-family="Times,serif" font-size="14.00">user
                    </text>
                </a>
            </g>
        </g>
        <!-- mrs.domain.model.reservation&#45;&gt;mrs.domain.model.user -->
        <g id="edge1" class="edge">
            <title>mrs.domain.model.reservation&#45;&gt;mrs.domain.model.user</title>
            <path fill="none" stroke="black" d="M161.26,-222.79C152.93,-209.86 141.61,-192.29 132.25,-177.76"/>
            <polygon fill="black" stroke="black" points="135.08,-175.7 126.72,-169.19 129.19,-179.49 135.08,-175.7"/>
        </g>
        <!-- mrs.domain.model.reservation.reservable -->
        <g id="node4" class="node">
            <title>mrs.domain.model.reservation.reservable</title>
            <g id="a_node4">
                <a xlink:href="https://github.com/system-sekkei/library/tree/master/src/main/java/mrs/domain/model/reservation/reservable"
                   xlink:title="予約可能\nreservable">
                    <polygon fill="#eedd82" stroke="black" points="275,-169 201,-169 201,-131 275,-131 275,-169"/>
                    <text text-anchor="middle" x="238" y="-153.8" font-family="Times,serif" font-size="14.00">予約可能
                    </text>
                    <text text-anchor="middle" x="238" y="-138.8" font-family="Times,serif" font-size="14.00">
                        reservable
                    </text>
                </a>
            </g>
        </g>
        <!-- mrs.domain.model.reservation&#45;&gt;mrs.domain.model.reservation.reservable -->
        <g id="edge3" class="edge">
            <title>mrs.domain.model.reservation&#45;&gt;mrs.domain.model.reservation.reservable</title>
            <path fill="none" stroke="black" d="M186.15,-222.79C195.58,-209.73 208.42,-191.95 218.97,-177.35"/>
            <polygon fill="black" stroke="black" points="221.85,-179.34 224.87,-169.19 216.17,-175.24 221.85,-179.34"/>
        </g>
        <!-- mrs.domain.model.reservation.datetime -->
        <g id="node5" class="node">
            <title>mrs.domain.model.reservation.datetime</title>
            <g id="a_node5">
                <a xlink:href="https://github.com/system-sekkei/library/tree/master/src/main/java/mrs/domain/model/reservation/datetime"
                   xlink:title="予約日時\ndatetime">
                    <polygon fill="#eedd82" stroke="black" points="275,-77 201,-77 201,-39 275,-39 275,-77"/>
                    <text text-anchor="middle" x="238" y="-61.8" font-family="Times,serif" font-size="14.00">予約日時</text>
                    <text text-anchor="middle" x="238" y="-46.8" font-family="Times,serif" font-size="14.00">datetime
                    </text>
                </a>
            </g>
        </g>
        <!-- mrs.domain.model.reservation&#45;&gt;mrs.domain.model.reservation.datetime -->
        <g id="edge4" class="edge">
            <title>mrs.domain.model.reservation&#45;&gt;mrs.domain.model.reservation.datetime</title>
            <path fill="none" stroke="black"
                  d="M173.93,-222.89C175.57,-200.6 180.02,-161.9 192,-131 198.23,-114.93 208.28,-98.62 217.4,-85.59"/>
            <polygon fill="black" stroke="black" points="220.48,-87.3 223.51,-77.14 214.81,-83.2 220.48,-87.3"/>
        </g>
        <!-- mrs.domain.model.reservation.reservable&#45;&gt;mrs.domain.model.reservation.datetime -->
        <g id="edge2" class="edge">
            <title>mrs.domain.model.reservation.reservable&#45;&gt;mrs.domain.model.reservation.datetime</title>
            <path fill="none" stroke="black" d="M238,-130.79C238,-118.34 238,-101.61 238,-87.42"/>
            <polygon fill="black" stroke="black" points="241.5,-87.19 238,-77.19 234.5,-87.19 241.5,-87.19"/>
        </g>
        <!-- mrs.domain.model.facility.room -->
        <g id="node6" class="node">
            <title>mrs.domain.model.facility.room</title>
            <g id="a_node6">
                <a xlink:href="https://github.com/system-sekkei/library/tree/master/src/main/java/mrs/domain/model/facility/room"
                   xlink:title="会議室\nroom">
                    <polygon fill="#eedd82" stroke="black" points="358.5,-77 299.5,-77 299.5,-39 358.5,-39 358.5,-77"/>
                    <text text-anchor="middle" x="329" y="-61.8" font-family="Times,serif" font-size="14.00">会議室</text>
                    <text text-anchor="middle" x="329" y="-46.8" font-family="Times,serif" font-size="14.00">room</text>
                </a>
            </g>
        </g>
        <!-- mrs.domain.model.reservation.reservable&#45;&gt;mrs.domain.model.facility.room -->
        <g id="edge5" class="edge">
            <title>mrs.domain.model.reservation.reservable&#45;&gt;mrs.domain.model.facility.room</title>
            <path fill="none" stroke="black"
                  d="M275.21,-131.89C279.4,-129.21 283.44,-126.24 287,-123 298.43,-112.59 308.14,-98.42 315.34,-86.06"/>
            <polygon fill="black" stroke="black" points="318.55,-87.5 320.34,-77.06 312.43,-84.1 318.55,-87.5"/>
        </g>
        <!-- mrs.domain.type.date -->
        <g id="node7" class="node">
            <title>mrs.domain.type.date</title>
            <g id="a_node7">
                <a xlink:href="https://github.com/system-sekkei/library/tree/master/src/main/java/mrs/domain/type/date"
                   xlink:title="date">
                    <polygon fill="#eedd82" stroke="black" points="284,-260 230,-260 230,-224 284,-224 284,-260"/>
                    <text text-anchor="middle" x="257" y="-238.3" font-family="Times,serif" font-size="14.00">date
                    </text>
                </a>
            </g>
        </g>
    </g>
</svg>
