<svg xmlns:xlink="http://www.w3.org/1999/xlink" width="421px"
     height="269px" viewBox="0.00 0.00 421.00 269.00" xmlns="http://www.w3.org/2000/svg">
    <g id="graph0" class="graph" transform="scale(1.0 1.0) rotate(0) translate(4 265)">
        <title>パッケージ関連図</title>
        <polygon fill="white" stroke="transparent" points="-4,4 -4,-265 417,-265 417,4 -4,4"/>
        <text text-anchor="middle" x="206.5" y="-7.8" font-family="Times New Roman,serif" font-size="14.00">パッケージ関連図
        </text>
        <g id="clust2" class="cluster">
            <title>cluster_mrs.domain.model.facility</title>
            <polygon fill="lemonchiffon" stroke="#eedd82" stroke-width="2"
                     points="321,-31 321,-123 405,-123 405,-31 321,-31"/>
            <text text-anchor="middle" x="363" y="-107.8" font-family="Times New Roman,serif" font-size="14.00">設備
            </text>
            <text text-anchor="middle" x="363" y="-92.8" font-family="Times New Roman,serif" font-size="14.00">
                facility
            </text>
        </g>
        <g id="clust1" class="cluster">
            <title>cluster_mrs.domain.model.reservation</title>
            <polygon fill="lemonchiffon" stroke="#eedd82" stroke-width="2"
                     points="211,-31 211,-215 313,-215 313,-31 211,-31"/>
            <text text-anchor="middle" x="262" y="-199.8" font-family="Times New Roman,serif" font-size="14.00">予約
            </text>
            <text text-anchor="middle" x="262" y="-184.8" font-family="Times New Roman,serif" font-size="14.00">
                reservation
            </text>
        </g>
        <!-- summary -->
        <g id="node1" class="node">
            <title>summary</title>
            <polygon fill="none" stroke="black" points="128,-261 0,-261 0,-223 134,-223 134,-255 128,-261"/>
            <polyline fill="none" stroke="black" points="128,-261 128,-255 "/>
            <polyline fill="none" stroke="black" points="134,-255 128,-255 "/>
            <text text-anchor="start" x="8" y="-245.8" font-family="Times New Roman,serif" font-size="14.00">パッケージ数: 6
            </text>
            <text text-anchor="start" x="8" y="-230.8" font-family="Times New Roman,serif" font-size="14.00">関連数: 5
            </text>
        </g>
        <!-- mrs.domain.model.reservation -->
        <g id="node2" class="node">
            <title>mrs.domain.model.reservation</title>
            <g id="a_node2">
                <a xlink:href="https://github.com/system-sekkei/library/tree/master/src/main/java/mrs/domain/model/reservation"
                   xlink:title="予約\nreservation">
                    <polygon fill="#eedd82" stroke="black"
                             points="229.5,-261 152.5,-261 152.5,-223 229.5,-223 229.5,-261"/>
                    <text text-anchor="middle" x="191" y="-245.8" font-family="Times New Roman,serif" font-size="14.00">
                        予約
                    </text>
                    <text text-anchor="middle" x="191" y="-230.8" font-family="Times New Roman,serif" font-size="14.00">
                        reservation
                    </text>
                </a>
            </g>
        </g>
        <!-- mrs.domain.model.user -->
        <g id="node3" class="node">
            <title>mrs.domain.model.user</title>
            <g id="a_node3">
                <a xlink:href="https://github.com/system-sekkei/library/tree/master/src/main/java/mrs/domain/model/user"
                   xlink:title="利用者\nuser">
                    <polygon fill="#eedd82" stroke="black" points="163,-169 95,-169 95,-131 163,-131 163,-169"/>
                    <text text-anchor="middle" x="129" y="-153.8" font-family="Times New Roman,serif" font-size="14.00">
                        利用者
                    </text>
                    <text text-anchor="middle" x="129" y="-138.8" font-family="Times New Roman,serif" font-size="14.00">
                        user
                    </text>
                </a>
            </g>
        </g>
        <!-- mrs.domain.model.reservation&#45;&gt;mrs.domain.model.user -->
        <g id="edge1" class="edge">
            <title>mrs.domain.model.reservation&#45;&gt;mrs.domain.model.user</title>
            <path fill="none" stroke="black" d="M178.45,-222.79C169.55,-209.86 157.44,-192.29 147.44,-177.76"/>
            <polygon fill="black" stroke="black" points="150.08,-175.44 141.53,-169.19 144.32,-179.41 150.08,-175.44"/>
        </g>
        <!-- mrs.domain.model.reservation.reservable -->
        <g id="node4" class="node">
            <title>mrs.domain.model.reservation.reservable</title>
            <g id="a_node4">
                <a xlink:href="https://github.com/system-sekkei/library/tree/master/src/main/java/mrs/domain/model/reservation/reservable"
                   xlink:title="予約可能\nreservable">
                    <polygon fill="#eedd82" stroke="black" points="305,-169 219,-169 219,-131 305,-131 305,-169"/>
                    <text text-anchor="middle" x="262" y="-153.8" font-family="Times New Roman,serif" font-size="14.00">
                        予約可能
                    </text>
                    <text text-anchor="middle" x="262" y="-138.8" font-family="Times New Roman,serif" font-size="14.00">
                        reservable
                    </text>
                </a>
            </g>
        </g>
        <!-- mrs.domain.model.reservation&#45;&gt;mrs.domain.model.reservation.reservable -->
        <g id="edge3" class="edge">
            <title>mrs.domain.model.reservation&#45;&gt;mrs.domain.model.reservation.reservable</title>
            <path fill="none" stroke="black" d="M205.37,-222.79C215.67,-209.73 229.69,-191.95 241.21,-177.35"/>
            <polygon fill="black" stroke="black" points="244.21,-179.2 247.65,-169.19 238.71,-174.87 244.21,-179.2"/>
        </g>
        <!-- mrs.domain.model.reservation.datetime -->
        <g id="node5" class="node">
            <title>mrs.domain.model.reservation.datetime</title>
            <g id="a_node5">
                <a xlink:href="https://github.com/system-sekkei/library/tree/master/src/main/java/mrs/domain/model/reservation/datetime"
                   xlink:title="予約日時\ndatetime">
                    <polygon fill="#eedd82" stroke="black" points="305,-77 219,-77 219,-39 305,-39 305,-77"/>
                    <text text-anchor="middle" x="262" y="-61.8" font-family="Times New Roman,serif" font-size="14.00">
                        予約日時
                    </text>
                    <text text-anchor="middle" x="262" y="-46.8" font-family="Times New Roman,serif" font-size="14.00">
                        datetime
                    </text>
                </a>
            </g>
        </g>
        <!-- mrs.domain.model.reservation&#45;&gt;mrs.domain.model.reservation.datetime -->
        <g id="edge4" class="edge">
            <title>mrs.domain.model.reservation&#45;&gt;mrs.domain.model.reservation.datetime</title>
            <path fill="none" stroke="black"
                  d="M191.64,-222.77C192.99,-200.36 197.15,-161.55 210,-131 216.97,-114.44 228.36,-98.05 238.71,-85.09"/>
            <polygon fill="black" stroke="black" points="241.63,-87.05 245.3,-77.11 236.23,-82.59 241.63,-87.05"/>
        </g>
        <!-- mrs.domain.model.reservation.reservable&#45;&gt;mrs.domain.model.reservation.datetime -->
        <g id="edge2" class="edge">
            <title>mrs.domain.model.reservation.reservable&#45;&gt;mrs.domain.model.reservation.datetime</title>
            <path fill="none" stroke="black" d="M262,-130.79C262,-118.34 262,-101.61 262,-87.42"/>
            <polygon fill="black" stroke="black" points="265.5,-87.19 262,-77.19 258.5,-87.19 265.5,-87.19"/>
        </g>
        <!-- mrs.domain.model.facility.room -->
        <g id="node6" class="node">
            <title>mrs.domain.model.facility.room</title>
            <g id="a_node6">
                <a xlink:href="https://github.com/system-sekkei/library/tree/master/src/main/java/mrs/domain/model/facility/room"
                   xlink:title="会議室\nroom">
                    <polygon fill="#eedd82" stroke="black" points="397,-77 329,-77 329,-39 397,-39 397,-77"/>
                    <text text-anchor="middle" x="363" y="-61.8" font-family="Times New Roman,serif" font-size="14.00">
                        会議室
                    </text>
                    <text text-anchor="middle" x="363" y="-46.8" font-family="Times New Roman,serif" font-size="14.00">
                        room
                    </text>
                </a>
            </g>
        </g>
        <!-- mrs.domain.model.reservation.reservable&#45;&gt;mrs.domain.model.facility.room -->
        <g id="edge5" class="edge">
            <title>mrs.domain.model.reservation.reservable&#45;&gt;mrs.domain.model.facility.room</title>
            <path fill="none" stroke="black"
                  d="M305.06,-131.33C309.28,-128.82 313.35,-126.04 317,-123 329.35,-112.71 340.05,-98.39 348.02,-85.9"/>
            <polygon fill="black" stroke="black" points="351.1,-87.57 353.32,-77.21 345.12,-83.92 351.1,-87.57"/>
        </g>
        <!-- mrs.domain.type.date -->
        <g id="node7" class="node">
            <title>mrs.domain.type.date</title>
            <g id="a_node7">
                <a xlink:href="https://github.com/system-sekkei/library/tree/master/src/main/java/mrs/domain/type/date"
                   xlink:title="date">
                    <polygon fill="#eedd82" stroke="black" points="302,-260 248,-260 248,-224 302,-224 302,-260"/>
                    <text text-anchor="middle" x="275" y="-238.3" font-family="Times New Roman,serif" font-size="14.00">
                        date
                    </text>
                </a>
            </g>
        </g>
    </g>
</svg>
