<svg xmlns:xlink="http://www.w3.org/1999/xlink" width="607px"
     height="213px" viewBox="0.00 0.00 607.00 213.00" xmlns="http://www.w3.org/2000/svg">
    <g id="graph0" class="graph" transform="scale(1.0 1.0) rotate(0) translate(4 209)">
        <title>パッケージ関連図</title>
        <polygon fill="white" stroke="transparent" points="-4,4 -4,-209 603,-209 603,4 -4,4"/>
        <text text-anchor="middle" x="299.5" y="-7.8" font-family="Times,serif" font-size="14.00">パッケージ関連図</text>
        <g id="clust1" class="cluster">
            <title>cluster_mrs.domain.model</title>
            <polygon fill="lemonchiffon" stroke="#eedd82" stroke-width="2"
                     points="125,-31 125,-197 354,-197 354,-31 125,-31"/>
            <text text-anchor="middle" x="239.5" y="-181.8" font-family="Times,serif" font-size="14.00">
                ビジネスルールを表現する複合型
            </text>
            <text text-anchor="middle" x="239.5" y="-166.8" font-family="Times,serif" font-size="14.00">
                mrs.domain.model
            </text>
        </g>
        <g id="clust2" class="cluster">
            <title>cluster_mrs.domain.type</title>
            <polygon fill="lemonchiffon" stroke="#eedd82" stroke-width="2"
                     points="362,-106 362,-196 591,-196 591,-106 362,-106"/>
            <text text-anchor="middle" x="476.5" y="-180.8" font-family="Times,serif" font-size="14.00">
                ビジネスルールを表現する基本型
            </text>
            <text text-anchor="middle" x="476.5" y="-165.8" font-family="Times,serif" font-size="14.00">
                mrs.domain.type
            </text>
        </g>
        <!-- summary -->
        <g id="node1" class="node">
            <title>summary</title>
            <polygon fill="none" stroke="black" points="110,-151 0,-151 0,-113 116,-113 116,-145 110,-151"/>
            <polyline fill="none" stroke="black" points="110,-151 110,-145 "/>
            <polyline fill="none" stroke="black" points="116,-145 110,-145 "/>
            <text text-anchor="start" x="8" y="-135.8" font-family="Times,serif" font-size="14.00">パッケージ数: 4</text>
            <text text-anchor="start" x="8" y="-120.8" font-family="Times,serif" font-size="14.00">関連数: 2</text>
</g>
<!-- mrs.domain.model.reservation -->
<g id="node2" class="node">
<title>mrs.domain.model.reservation</title>
    <g id="a_node2">
        <a xlink:href="https://github.com/system-sekkei/library/tree/master/src/main/java/mrs/domain/model/reservation"
           xlink:title="予約\nreservation">
            <polygon fill="#eedd82" stroke="black" points="248.5,-151 171.5,-151 171.5,-113 248.5,-113 248.5,-151"/>
            <text text-anchor="middle" x="210" y="-135.8" font-family="Times,serif" font-size="14.00">予約</text>
            <text text-anchor="middle" x="210" y="-120.8" font-family="Times,serif" font-size="14.00">reservation</text>
        </a>
    </g>
</g>
<!-- mrs.domain.model.room -->
<g id="node3" class="node">
<title>mrs.domain.model.room</title>
    <g id="a_node3">
        <a xlink:href="https://github.com/system-sekkei/library/tree/master/src/main/java/mrs/domain/model/room"
           xlink:title="会議室\nroom">
            <polygon fill="#eedd82" stroke="black" points="215.5,-77 156.5,-77 156.5,-39 215.5,-39 215.5,-77"/>
            <text text-anchor="middle" x="186" y="-61.8" font-family="Times,serif" font-size="14.00">会議室</text>
            <text text-anchor="middle" x="186" y="-46.8" font-family="Times,serif" font-size="14.00">room</text>
        </a>
    </g>
</g>
<!-- mrs.domain.model.reservation&#45;&gt;mrs.domain.model.room -->
        <g id="edge1" class="edge">
            <title>mrs.domain.model.reservation&#45;&gt;mrs.domain.model.room</title>
            <path fill="none" stroke="black" d="M203.94,-112.83C201.35,-105.05 198.26,-95.77 195.38,-87.13"/>
            <polygon fill="black" stroke="black" points="198.62,-85.79 192.14,-77.41 191.98,-88.01 198.62,-85.79"/>
        </g>
<!-- mrs.domain.model.user -->
<g id="node4" class="node">
<title>mrs.domain.model.user</title>
    <g id="a_node4">
        <a xlink:href="https://github.com/system-sekkei/library/tree/master/src/main/java/mrs/domain/model/user"
           xlink:title="ユーザー\nuser">
            <polygon fill="#eedd82" stroke="black" points="308,-77 234,-77 234,-39 308,-39 308,-77"/>
            <text text-anchor="middle" x="271" y="-61.8" font-family="Times,serif" font-size="14.00">ユーザー</text>
            <text text-anchor="middle" x="271" y="-46.8" font-family="Times,serif" font-size="14.00">user</text>
        </a>
    </g>
</g>
<!-- mrs.domain.model.reservation&#45;&gt;mrs.domain.model.user -->
        <g id="edge2" class="edge">
            <title>mrs.domain.model.reservation&#45;&gt;mrs.domain.model.user</title>
            <path fill="none" stroke="black" d="M225.39,-112.83C232.49,-104.45 241.05,-94.35 248.82,-85.17"/>
            <polygon fill="black" stroke="black" points="251.61,-87.31 255.4,-77.41 246.27,-82.78 251.61,-87.31"/>
        </g>
<!-- mrs.domain.type.date -->
        <g id="node5" class="node">
            <title>mrs.domain.type.date</title>
            <g id="a_node5">
                <a xlink:href="https://github.com/system-sekkei/library/tree/master/src/main/java/mrs/domain/type/date"
                   xlink:title="date">
                    <polygon fill="#eedd82" stroke="black" points="503,-150 449,-150 449,-114 503,-114 503,-150"/>
                    <text text-anchor="middle" x="476" y="-128.3" font-family="Times,serif" font-size="14.00">date
                    </text>
                </a>
            </g>
        </g>
</g>
</svg>
