<svg width="837px" height="213px"
 viewBox="0.00 0.00 836.50 213.00" xmlns="http://www.w3.org/2000/svg" xmlns:xlink="http://www.w3.org/1999/xlink">
<g id="graph0" class="graph" transform="scale(1.0 1.0) rotate(0) translate(4 209)">
<title>パッケージ関連図</title>
<polygon fill="white" stroke="transparent" points="-4,4 -4,-209 832.5,-209 832.5,4 -4,4"/>
<text text-anchor="middle" x="414.25" y="-7.8" font-family="Times,serif" font-size="14.00">パッケージ関連図</text>
<g id="clust1" class="cluster">
<title>cluster_mrs.domain.model</title>
<polygon fill="lemonchiffon" stroke="#eedd82" stroke-width="2" points="125,-31 125,-197 354,-197 354,-31 125,-31"/>
<text text-anchor="middle" x="239.5" y="-181.8" font-family="Times,serif" font-size="14.00">ビジネスルールを表現する複合型</text>
<text text-anchor="middle" x="239.5" y="-166.8" font-family="Times,serif" font-size="14.00">mrs.domain.model</text>
</g>
<g id="clust2" class="cluster">
<title>cluster_mrs.domain.type</title>
<polygon fill="lemonchiffon" stroke="#eedd82" stroke-width="2" points="362,-106 362,-196 591,-196 591,-106 362,-106"/>
<text text-anchor="middle" x="476.5" y="-180.8" font-family="Times,serif" font-size="14.00">ビジネスルールを表現する基本型</text>
<text text-anchor="middle" x="476.5" y="-165.8" font-family="Times,serif" font-size="14.00">mrs.domain.type</text>
</g>
<!-- summary -->
<g id="node1" class="node">
<title>summary</title>
<polygon fill="none" stroke="black" points="110,-151 0,-151 0,-113 116,-113 116,-145 110,-151"/>
<polyline fill="none" stroke="black" points="110,-151 110,-145 "/>
<polyline fill="none" stroke="black" points="116,-145 110,-145 "/>
<text text-anchor="start" x="8" y="-135.8" font-family="Times,serif" font-size="14.00">パッケージ数: 6</text>
<text text-anchor="start" x="8" y="-120.8" font-family="Times,serif" font-size="14.00">関連数: 2</text>
</g>
<!-- mrs.domain.model.reservation -->
<g id="node2" class="node">
<title>mrs.domain.model.reservation</title>
<g id="a_node2"><a xlink:href="https://github.com/system-sekkei/library/tree/master/src/main/java/mrs/domain/model/reservation" xlink:title="予約\nreservation">
<polygon fill="#eedd82" stroke="black" points="285.5,-151 208.5,-151 208.5,-113 285.5,-113 285.5,-151"/>
<text text-anchor="middle" x="247" y="-135.8" font-family="Times,serif" font-size="14.00">予約</text>
<text text-anchor="middle" x="247" y="-120.8" font-family="Times,serif" font-size="14.00">reservation</text>
</a>
</g>
</g>
<!-- mrs.domain.model.room -->
<g id="node3" class="node">
<title>mrs.domain.model.room</title>
<g id="a_node3"><a xlink:href="https://github.com/system-sekkei/library/tree/master/src/main/java/mrs/domain/model/room" xlink:title="会議室\nroom">
<polygon fill="#eedd82" stroke="black" points="222.5,-77 163.5,-77 163.5,-39 222.5,-39 222.5,-77"/>
<text text-anchor="middle" x="193" y="-61.8" font-family="Times,serif" font-size="14.00">会議室</text>
<text text-anchor="middle" x="193" y="-46.8" font-family="Times,serif" font-size="14.00">room</text>
</a>
</g>
</g>
<!-- mrs.domain.model.reservation&#45;&gt;mrs.domain.model.room -->
<g id="edge1" class="edge">
<title>mrs.domain.model.reservation&#45;&gt;mrs.domain.model.room</title>
<path fill="none" stroke="black" d="M233.37,-112.83C227.15,-104.54 219.67,-94.56 212.84,-85.45"/>
<polygon fill="black" stroke="black" points="215.61,-83.31 206.81,-77.41 210.01,-87.51 215.61,-83.31"/>
</g>
<!-- mrs.domain.model.user -->
<g id="node4" class="node">
<title>mrs.domain.model.user</title>
<g id="a_node4"><a xlink:href="https://github.com/system-sekkei/library/tree/master/src/main/java/mrs/domain/model/user" xlink:title="ユーザー\nuser">
<polygon fill="#eedd82" stroke="black" points="315,-77 241,-77 241,-39 315,-39 315,-77"/>
<text text-anchor="middle" x="278" y="-61.8" font-family="Times,serif" font-size="14.00">ユーザー</text>
<text text-anchor="middle" x="278" y="-46.8" font-family="Times,serif" font-size="14.00">user</text>
</a>
</g>
</g>
<!-- mrs.domain.model.reservation&#45;&gt;mrs.domain.model.user -->
<g id="edge2" class="edge">
<title>mrs.domain.model.reservation&#45;&gt;mrs.domain.model.user</title>
<path fill="none" stroke="black" d="M254.82,-112.83C258.21,-104.96 262.25,-95.57 266.01,-86.85"/>
<polygon fill="black" stroke="black" points="269.33,-87.98 270.07,-77.41 262.9,-85.21 269.33,-87.98"/>
</g>
<!-- mrs.domain.model.todo -->
<g id="node5" class="node">
<title>mrs.domain.model.todo</title>
<g id="a_node5"><a xlink:href="https://github.com/system-sekkei/library/tree/master/src/main/java/mrs/domain/model/todo" xlink:title="todo">
<polygon fill="#eedd82" stroke="black" points="189,-150 135,-150 135,-114 189,-114 189,-150"/>
<text text-anchor="middle" x="162" y="-128.3" font-family="Times,serif" font-size="14.00">todo</text>
</a>
</g>
</g>
<!-- mrs.domain.type.date -->
<g id="node6" class="node">
<title>mrs.domain.type.date</title>
<g id="a_node6"><a xlink:href="https://github.com/system-sekkei/library/tree/master/src/main/java/mrs/domain/type/date" xlink:title="date">
<polygon fill="#eedd82" stroke="black" points="502,-150 448,-150 448,-114 502,-114 502,-150"/>
<text text-anchor="middle" x="475" y="-128.3" font-family="Times,serif" font-size="14.00">date</text>
</a>
</g>
</g>
<!-- mrs.domain.model -->
<g id="node7" class="node">
<title>mrs.domain.model</title>
<g id="a_node7"><a xlink:href="https://github.com/system-sekkei/library/tree/master/src/main/java/mrs/domain/model" xlink:title="ビジネスルールを表現する複合型\nmrs.domain.model">
<polygon fill="#eedd82" stroke="black" points="828.5,-151 599.5,-151 599.5,-113 828.5,-113 828.5,-151"/>
<text text-anchor="middle" x="714" y="-135.8" font-family="Times,serif" font-size="14.00">ビジネスルールを表現する複合型</text>
<text text-anchor="middle" x="714" y="-120.8" font-family="Times,serif" font-size="14.00">mrs.domain.model</text>
</a>
</g>
</g>
</g>
</svg>
